<?xml version="1.0" encoding="utf-8"?>
<!-- Generator: Adobe Illustrator 25.0.0, SVG Export Plug-In . SVG Version: 6.00 Build 0)  -->
<svg version="1.1" id="Layer_1" xmlns="http://www.w3.org/2000/svg" xmlns:xlink="http://www.w3.org/1999/xlink" x="0px" y="0px"
	 viewBox="0 0 566.93 566.93" style="enable-background:new 0 0 566.93 566.93;" xml:space="preserve">
<style type="text/css">
	.st0{fill:#294F73;}
	.st1{fill:#FFFFFF;}
	.st2{fill:#E9A045;}
</style>
<path class="st0" d="M227.29,278.73c0.71,4.01,1.42,8.03,2.13,12.04c0.26,1.48,0.34,3.38-0.98,4.1c-1.25,0.67-2.74-0.27-3.75-1.26
	c-7.05-6.91-8.51-18.8-3.35-27.21c0.75-1.22,1.63-2.38,2.74-3.3c2.49-2.06,5.82-2.7,9.01-3.27c4.36-0.78,8.72-1.56,13.08-2.34
	c5.7-1.02,11.72-2.19,16.03-6.05c4.31-3.86,5.88-11.39,1.65-15.34c-1.74-1.62-4.1-2.37-6.18-3.54c-6.84-3.86-10.08-12.41-9.34-20.23
	c0.75-7.82,4.85-14.95,9.77-21.07c2.1-2.6,4.39-5.1,7.15-6.98c6.48-4.42,14.91-5,22.65-3.75c8.5,1.38,17.2,5.28,21.44,12.77
	c5,8.83,2.5,19.89-0.66,29.53s-6.92,19.94-4.02,29.67c2.7,9.07,11.51,15.96,20.96,16.4c6.2,0.29,13.15-1.76,18.15,1.91
	c4.78,3.5,5.17,10.4,4.83,16.31c-0.06,1.04-0.15,2.14-0.79,2.96c-1.29,1.64-4.1,1.07-5.44-0.53c-1.34-1.6-1.66-3.79-2.07-5.84
	c-0.41-2.05-1.08-4.24-2.81-5.42c-2.65-1.81-6.18-0.33-9.26,0.57c-11.44,3.37-24.91-3.34-29.1-14.5c-0.19-0.51-0.39-1.06-0.86-1.33
	c-1.02-0.61-2.19,0.57-2.69,1.65c-2.23,4.79-1.82,10.53,0.27,15.38c2.09,4.85,5.71,8.9,9.73,12.33c2.41,2.06,5.11,4.1,6.12,7.11
	c1.01,3-0.86,7.14-4.03,7c-3.16-0.14-4.56-3.88-6.19-6.58c-2.87-4.75-8.28-7.5-11.24-12.19c-4.54-7.2-2.12-16.5-1.71-25
	c0.03-0.67,0.03-1.4-0.38-1.93c-0.67-0.86-2.11-0.68-2.9,0.08c-0.78,0.76-1.07,1.88-1.33,2.94c-2.12,8.65-4.2,17.97-0.94,26.26
	c1.33,3.39,3.49,6.41,4.69,9.85c2.31,6.62,0.55,14.48-4.36,19.48c-1.46,1.48-3.56,2.79-5.51,2.07c-2.64-0.98-2.76-4.78-1.58-7.33
	c1.18-2.55,3.2-4.87,3.31-7.68c0.18-4.81-4.98-7.77-7.9-11.59c-4.09-5.35-3.73-12.98-1.37-19.29c2.36-6.31,6.42-11.81,9.46-17.82
	c-6.17,1.7-10.4,7.22-14.16,12.4c-4.93,6.8-10.12,14.87-7.95,22.97c2.03,7.6,10.27,13.58,8.92,21.33c-1.39,0.76-2.91-0.73-3.8-2.04
	c-3.12-4.59-6.24-9.19-9.36-13.78c-2.75-4.05-5.62-8.56-5.09-13.42c0.26-2.36,1.31-4.56,2.46-6.65c5.09-9.25,12.31-17.32,20.95-23.4
	c-3.78-1.95-8.45-0.57-12.09,1.63c-3.64,2.21-6.81,5.21-10.74,6.83c-3.2,1.32-6.7,1.64-10.09,2.28c-3.4,0.63-6.89,1.68-9.37,4.08
	c-2.48,2.41-3.6,6.51-1.71,9.41"/>
<circle cx="287.3" cy="208.72" r="8.62"/>
<circle cx="259.41" cy="207.07" r="4.96"/>
<circle class="st1" cx="257.21" cy="206.52" r="0.89"/>
<circle class="st1" cx="281.2" cy="208.52" r="0.89"/>
<g>
	<path class="st2" d="M226.48,266.66c0.82-0.07,1.63-0.2,2.4-0.51c0.46-0.19,0.92-0.37,1.35-0.62c0.44-0.26,0.84-0.58,1.24-0.9
		c0.24-0.23,0.42-0.49,0.52-0.8c0.16-0.3,0.23-0.62,0.22-0.96c0.01-0.34-0.06-0.67-0.22-0.96c-0.1-0.31-0.27-0.58-0.52-0.8
		c-0.48-0.44-1.1-0.76-1.77-0.73c-0.22,0.03-0.44,0.06-0.66,0.09c-0.42,0.12-0.79,0.33-1.1,0.64c-0.04,0.03-0.08,0.07-0.13,0.1
		c0.17-0.13,0.34-0.26,0.51-0.39c-0.4,0.31-0.84,0.56-1.31,0.76c0.2-0.08,0.4-0.17,0.6-0.25c-0.49,0.2-0.99,0.34-1.51,0.41
		c0.22-0.03,0.44-0.06,0.66-0.09c-0.09,0.01-0.18,0.02-0.27,0.03c-0.34-0.01-0.67,0.06-0.96,0.22c-0.31,0.1-0.58,0.27-0.8,0.52
		c-0.24,0.23-0.42,0.49-0.52,0.8c-0.16,0.3-0.23,0.62-0.22,0.96c0.03,0.65,0.24,1.32,0.73,1.77
		C225.18,266.35,225.83,266.71,226.48,266.66L226.48,266.66z"/>
</g>
<g>
	<path class="st2" d="M237.23,265.19c0.13-0.13,0.27-0.25,0.42-0.37c-0.17,0.13-0.34,0.26-0.51,0.39c0.35-0.27,0.73-0.49,1.14-0.66
		c-0.2,0.08-0.4,0.17-0.6,0.25c0.41-0.17,0.84-0.28,1.27-0.35c-0.22,0.03-0.44,0.06-0.66,0.09c0.44-0.06,0.88-0.06,1.32,0
		c-0.22-0.03-0.44-0.06-0.66-0.09c0.12,0.02,0.23,0.04,0.34,0.06c0.66,0.13,1.33,0.1,1.93-0.25c0.52-0.3,1.01-0.9,1.15-1.49
		c0.15-0.64,0.11-1.36-0.25-1.93c-0.34-0.53-0.86-1.02-1.49-1.15c-1.24-0.25-2.52-0.25-3.74,0.11c-1.19,0.35-2.3,0.99-3.19,1.86
		c-0.46,0.44-0.73,1.13-0.73,1.77c0,0.61,0.27,1.35,0.73,1.77c0.48,0.44,1.1,0.76,1.77,0.73
		C236.13,265.89,236.75,265.67,237.23,265.19L237.23,265.19z"/>
</g>
<g>
	<path class="st2" d="M257.84,281.6c0.09-0.47,0.22-0.94,0.41-1.38c-0.08,0.2-0.17,0.4-0.25,0.6c0.22-0.51,0.49-0.98,0.83-1.42
		c-0.13,0.17-0.26,0.34-0.39,0.51c0.07-0.1,0.15-0.19,0.23-0.28c0.24-0.23,0.42-0.49,0.52-0.8c0.16-0.3,0.23-0.62,0.22-0.96
		c0.01-0.34-0.06-0.67-0.22-0.96c-0.1-0.31-0.27-0.58-0.52-0.8c-0.48-0.44-1.1-0.76-1.77-0.73c-0.63,0.03-1.34,0.23-1.77,0.73
		c-0.51,0.6-0.99,1.24-1.33,1.95c-0.34,0.71-0.64,1.46-0.78,2.24c-0.1,0.33-0.12,0.66-0.04,1c0.02,0.33,0.11,0.64,0.3,0.93
		c0.16,0.29,0.37,0.53,0.64,0.7c0.24,0.22,0.52,0.37,0.85,0.45c0.64,0.15,1.36,0.11,1.93-0.25
		C257.21,282.76,257.73,282.23,257.84,281.6L257.84,281.6z"/>
</g>
<g>
	<path class="st2" d="M277.71,269.5c2.16-0.61,3.89-2.34,4.53-4.49c0.1-0.33,0.12-0.66,0.04-1c-0.02-0.33-0.11-0.64-0.3-0.93
		c-0.16-0.29-0.37-0.53-0.64-0.7c-0.24-0.22-0.52-0.37-0.85-0.45c-0.22-0.03-0.44-0.06-0.66-0.09c-0.45,0-0.87,0.12-1.26,0.34
		c-0.56,0.36-0.96,0.85-1.15,1.49c-0.04,0.14-0.09,0.28-0.15,0.42c0.08-0.2,0.17-0.4,0.25-0.6c-0.14,0.31-0.31,0.6-0.52,0.88
		c0.13-0.17,0.26-0.34,0.39-0.51c-0.22,0.28-0.47,0.53-0.75,0.75c0.17-0.13,0.34-0.26,0.51-0.39c-0.28,0.22-0.59,0.4-0.91,0.54
		c0.2-0.08,0.4-0.17,0.6-0.25c-0.15,0.06-0.3,0.12-0.46,0.16c-0.33,0.08-0.61,0.23-0.85,0.45c-0.27,0.18-0.49,0.41-0.64,0.7
		c-0.18,0.29-0.28,0.6-0.3,0.93c-0.07,0.33-0.06,0.66,0.04,1c0.2,0.6,0.57,1.19,1.15,1.49C276.38,269.56,277.05,269.69,277.71,269.5
		L277.71,269.5z"/>
</g>
<g>
	<path class="st2" d="M280.23,294.61c-0.49-0.85-1.08-1.64-1.7-2.39c-0.5-0.6-1.06-1.16-1.67-1.66c-0.23-0.24-0.49-0.42-0.8-0.52
		c-0.3-0.16-0.62-0.23-0.96-0.22c-0.61,0-1.35,0.27-1.77,0.73c-0.44,0.48-0.76,1.1-0.73,1.77c0.03,0.63,0.23,1.35,0.73,1.77
		c0.74,0.62,1.42,1.32,2.01,2.09c-0.13-0.17-0.26-0.34-0.39-0.51c0.36,0.46,0.68,0.95,0.97,1.46c0.31,0.54,0.89,0.98,1.49,1.15
		c0.33,0.1,0.66,0.12,1,0.04c0.33-0.02,0.64-0.11,0.93-0.3c0.53-0.34,1-0.86,1.15-1.49C280.64,295.88,280.58,295.21,280.23,294.61
		L280.23,294.61z"/>
</g>
<g>
	<path class="st2" d="M284.65,316.73c0-0.02,0.01-0.05,0.01-0.07c-0.03,0.22-0.06,0.44-0.09,0.66c0.18-1.31,0.49-2.59,0.93-3.83
		c0.1-0.33,0.12-0.66,0.04-1c-0.02-0.33-0.11-0.64-0.3-0.93c-0.3-0.52-0.9-1.01-1.49-1.15c-0.64-0.15-1.36-0.11-1.93,0.25
		c-0.17,0.13-0.34,0.26-0.51,0.39c-0.31,0.31-0.52,0.68-0.64,1.1c-0.53,1.49-0.82,3.01-1.03,4.57c-0.01,0.34,0.06,0.67,0.22,0.96
		c0.1,0.31,0.27,0.58,0.52,0.8c0.43,0.43,1.15,0.76,1.77,0.73c0.65-0.03,1.32-0.24,1.77-0.73c0.13-0.17,0.26-0.34,0.39-0.51
		C284.53,317.6,284.65,317.18,284.65,316.73L284.65,316.73z"/>
</g>
<g>
	<path class="st2" d="M288.34,268.9c-0.02,0.8-0.08,1.61-0.18,2.41c0.03-0.22,0.06-0.44,0.09-0.66c-0.11,0.83-0.27,1.65-0.48,2.46
		c-0.16,0.64-0.08,1.36,0.25,1.93c0.3,0.52,0.9,1.01,1.49,1.15c0.64,0.15,1.36,0.11,1.93-0.25c0.54-0.35,0.99-0.85,1.15-1.49
		c0.46-1.8,0.71-3.67,0.75-5.53c0.01-0.63-0.29-1.32-0.73-1.77c-0.43-0.43-1.15-0.76-1.77-0.73
		C289.46,266.46,288.37,267.5,288.34,268.9L288.34,268.9z"/>
</g>
<g>
	<path class="st2" d="M298.15,295.43c0.9,0.33,1.87,0.35,2.76,0.7c-0.2-0.08-0.4-0.17-0.6-0.25c0.36,0.15,0.7,0.35,1.01,0.59
		c-0.17-0.13-0.34-0.26-0.51-0.39c0.38,0.3,0.71,0.66,1.01,1.04c-0.13-0.17-0.26-0.34-0.39-0.51c0.63,0.82,1.09,1.75,1.54,2.68
		c0.26,0.54,0.94,1,1.49,1.15c0.6,0.16,1.4,0.09,1.93-0.25c0.53-0.34,1-0.86,1.15-1.49c0.16-0.69,0.05-1.29-0.25-1.93
		c-0.67-1.41-1.45-2.85-2.6-3.93c-0.78-0.73-1.64-1.25-2.65-1.6c-0.83-0.29-1.73-0.32-2.56-0.63c-0.58-0.21-1.41-0.05-1.93,0.25
		c-0.52,0.3-1.01,0.9-1.15,1.49c-0.15,0.64-0.11,1.36,0.25,1.93C297.03,294.85,297.51,295.19,298.15,295.43L298.15,295.43z"/>
</g>
<g>
	<path class="st2" d="M303.9,269.54c0.09,0.12,0.19,0.23,0.28,0.35c-0.13-0.17-0.26-0.34-0.39-0.51c0.89,1.16,1.62,2.42,2.19,3.76
		c-0.08-0.2-0.17-0.4-0.25-0.6c0.02,0.05,0.04,0.09,0.06,0.14c0.08,0.33,0.23,0.61,0.45,0.85c0.18,0.27,0.41,0.49,0.7,0.64
		c0.54,0.31,1.33,0.45,1.93,0.25c0.6-0.2,1.19-0.57,1.49-1.15c0.08-0.2,0.17-0.4,0.25-0.6c0.12-0.44,0.12-0.89,0-1.33
		c-0.4-0.97-0.82-1.92-1.36-2.82c-0.53-0.9-1.16-1.73-1.81-2.54c-0.38-0.47-1.19-0.73-1.77-0.73c-0.61,0-1.35,0.27-1.77,0.73
		c-0.44,0.48-0.76,1.1-0.73,1.77c0.03,0.22,0.06,0.44,0.09,0.66C303.38,268.86,303.59,269.22,303.9,269.54L303.9,269.54z"/>
</g>
<g>
	<path class="st2" d="M315.39,274.03c2.24,0.64,4.62,0.66,6.87,0.12c0.6-0.14,1.19-0.62,1.49-1.15c0.31-0.54,0.45-1.33,0.25-1.93
		c-0.43-1.32-1.71-2.07-3.08-1.75c-0.36,0.09-0.73,0.16-1.1,0.21c0.22-0.03,0.44-0.06,0.66-0.09c-0.95,0.12-1.9,0.13-2.85,0.01
		c0.22,0.03,0.44,0.06,0.66,0.09c-0.54-0.07-1.07-0.18-1.6-0.34c-0.62-0.18-1.37-0.07-1.93,0.25c-0.52,0.3-1.01,0.9-1.15,1.49
		C313.34,272.29,314.04,273.65,315.39,274.03L315.39,274.03z"/>
</g>
<g>
	<path class="st2" d="M335.42,273.63c1.43,0.34,2.94,0.49,4.42,0.36c0.34,0.01,0.67-0.06,0.96-0.22c0.31-0.1,0.58-0.27,0.8-0.52
		c0.43-0.43,0.76-1.15,0.73-1.77c-0.03-0.65-0.24-1.32-0.73-1.77c-0.46-0.43-1.12-0.79-1.77-0.73c-0.88,0.08-1.76,0.06-2.63-0.06
		c0.22,0.03,0.44,0.06,0.66,0.09c-0.38-0.05-0.75-0.12-1.12-0.21c-0.65-0.15-1.35-0.09-1.93,0.25c-0.52,0.3-1.01,0.9-1.15,1.49
		c-0.15,0.64-0.11,1.36,0.25,1.93C334.27,273.02,334.78,273.48,335.42,273.63L335.42,273.63z"/>
</g>
</svg>
