<?xml version="1.0" encoding="utf-8"?>
<!-- Generator: Adobe Illustrator 25.0.0, SVG Export Plug-In . SVG Version: 6.00 Build 0)  -->
<svg version="1.1" id="Layer_1" xmlns="http://www.w3.org/2000/svg" xmlns:xlink="http://www.w3.org/1999/xlink" x="0px" y="0px"
	 viewBox="0 0 595.28 841.89" style="enable-background:new 0 0 595.28 841.89;" xml:space="preserve">
<style type="text/css">
	.st0{fill:#5897B5;}
	.st1{fill:#AACFE4;}
	.st2{fill:#FFFCFC;}
	.st3{fill:#FBFCF6;}
	.st4{fill:#1E1E1C;}
	.st5{fill:#020203;}
	.st6{fill:#FFFFFF;}
</style>
<g>
	<path class="st0" d="M206.61,488.87c0,0-8.94,12.77-19.66,8.43c0,0-0.77-19.15,19.66-21.96c0,0,1.28-21.19,22.21-53.62
		c0,0,27.06-50.81,66.38-62.04c0,0,36.26-11.23,54.64,8.68c0,0-5.11,3.83-2.04,7.15c0,0,4.09,2.55,6.38-0.51c0,0,4.6,8.17,1.28,14.3
		c0,0-4.34,18.17-49.79,38.06c0,0-10.21,32.92-40.85,40.58c0,0-9.19-0.51-1.28-12.26c0,0,7.07-8.94,8.26-15.57
		c0,0-48.86,9.45-58.56,34.98c0,0,13.79,13.28,5.62,30.13C218.86,505.21,206.61,502.4,206.61,488.87z"/>
</g>
<g>
	<path class="st1" d="M349.84,368.36c0,0,44.85-31.57,52.68-28.17c0,0,6.3,1.36-48.34,34.81c0,0-2.89,2.3-6.38,0.51
		C347.8,375.51,344.5,372.04,349.84,368.36z"/>
</g>
<g>
	<path class="st2" d="M298.81,441.61c0,0,41.75-9.84,53.83-34.35c0,0,4.96-6.47,4.01-20.77c0,0-2.14,19.28-50.99,40.87
		C305.67,427.36,300.81,440.73,298.81,441.61z"/>
</g>
<g>
	<path class="st3" d="M235.88,452.89c0,0,24.97-6.4,32.92-5.17c0,0,2.33-3.87,3.01-7.61C271.8,440.11,244.3,447.64,235.88,452.89z"
		/>
</g>
<g>
	<circle class="st4" cx="330.07" cy="380.52" r="4.52"/>
	<path class="st5" d="M330.07,385.54c-2.77,0-5.02-2.25-5.02-5.02s2.25-5.02,5.02-5.02s5.02,2.25,5.02,5.02
		S332.84,385.54,330.07,385.54z M330.07,376.5c-2.22,0-4.02,1.8-4.02,4.02s1.8,4.02,4.02,4.02s4.02-1.8,4.02-4.02
		S332.29,376.5,330.07,376.5z"/>
</g>
<g>
	<circle class="st6" cx="331.38" cy="378.49" r="1.52"/>
</g>
</svg>
