<?xml version="1.0" encoding="utf-8"?>
<!-- Generator: Adobe Illustrator 25.0.0, SVG Export Plug-In . SVG Version: 6.00 Build 0)  -->
<svg version="1.1" id="Layer_1" xmlns="http://www.w3.org/2000/svg" xmlns:xlink="http://www.w3.org/1999/xlink" x="0px" y="0px"
	 viewBox="0 0 595.3 841.9" style="enable-background:new 0 0 595.3 841.9;" xml:space="preserve">
<style type="text/css">
	.st0{fill:#EC681C;}
	.st1{fill:#A9CEE4;}
	.st2{fill:#FFFFFF;}
	.st3{fill:#8F8F8F;}
	.st4{fill:#C3C2C2;}
	.st5{fill:#DBDBDB;}
	.st6{fill:#020203;}
</style>
<g>
	<path class="st0" d="M341.7,415.5"/>
</g>
<g>
	<path class="st1" d="M422.9,442.8c0,0,1.5,22.2-18.6,34c0,0-18.5,1.8-24.9,19.7c0,0-0.7,23-26.3,35.7c0,0-28.2,16.6-60.9,0
		c0,0-15.1-6.4-31.4-27.1c0,0-8.9-5.6-20.2,5.9c0,0-14,17.6-26,13.8c0,0-19.1,1.8-40.9-43.9c0,0-11.5-28.9-4.3-62.8
		c0,0,0,30.9,1.8,31.5c0,0,8.2,49.7,44.7,61.7c0,0,11.7,5.6,30.9-15.1c0,0,9.4-11.7,19.9,0c0,0,31.6,37.2,58.2,29.6
		c1.8-0.5,27.5,3.6,50.3-24c0,0,4.5-23.7,12.6-29.1c0,0,8-8.4,19.3-9.5C407,463.3,416.5,458.7,422.9,442.8z"/>
</g>
<g>
	<path class="st2" d="M422.9,442.8c0,0,10-16.1-8.7-27.3c0,0-3.6-5.4-14.3-9.7c0,0-1.4-44.5-19.6-49.1c0,0,1-29.6-31.3-42.1
		c0,0-70.4-21.5-79.3,20.7c0,0-5.9,29.2-3.8,30.2c0,0-4.6,14-21.2,11.3c0,0-34.2-13.9-43.4-13.1c0,0-19.4-1-25.5,20.4
		c0,0-8.2,27.6-6.4,34c0,0-0.5,30.9,1.8,31.5c0,0,9.7,52.5,44.7,61.7c0,0,9.2,6.4,30.9-15.1c0,0,8.3-11.6,19.9,0
		c0,0,27.8,36.7,58.2,29.6c0,0,29.1,2.3,50.3-24c0,0,4.9-37,31.9-38.5C407,463.3,420.2,452.3,422.9,442.8z"/>
</g>
<g>
	<path class="st3" d="M394,428.8c0,0,20.7-6.4,20.2,9.7c-0.5,16.1-23.7,10-23.7,10l-10-4.9C380.5,443.6,397.8,431.1,394,428.8z"/>
</g>
<g>
	<path class="st4" d="M203.3,417.3c0,0-12.3,15.1-34,17.1c0,0,2-20.7,25-24.3L203.3,417.3z"/>
</g>
<g>
	<path class="st4" d="M194.3,410.1c0,0-12.5-26.8-1.3-43.4c0,0,13.3,13.3,14.8,43.4H194.3z"/>
</g>
<g>
	<path class="st4" d="M207.9,410.1c0,0,91.4,6.9,132.5-37c0,0,14-18.9,24.5-19.4c0,0,20.7-2,28.1,17.1c0,0,14.8,38.5,1,58
		c0,0,4.6,1.5-13.5,14.8c0,0-4.1,5.9-31.9,8.2c0,0,2.5-13.5-4.1-35.2c0,0-3.3-3.6-8.4,4.6c0,0-12.8,23.7-17.6,30.6
		c0,0-70.5,0-115.1-34.5l-8.9-7.1L207.9,410.1L207.9,410.1z"/>
</g>
<g>
	<path class="st3" d="M348.5,451.8c0,0,0.8,11.5-16.3,12.8c0,0-14.5-0.3-13.8-12.8l17.6-30.6c0,0,3.8-6.1,8.4-4.6
		C344.5,416.5,350.6,438.5,348.5,451.8z"/>
</g>
<g>
	<ellipse class="st5" cx="367.9" cy="387" rx="19.8" ry="9.1"/>
</g>
<g>
	
		<rect x="350.7" y="393.9" transform="matrix(0.7442 -0.668 0.668 0.7442 -172.3795 338.722)" class="st6" width="10.7" height="1"/>
</g>
<g>
	<path class="st6" d="M343.1,392.6l-0.6-0.8c3.6-2.5,15.5-4.7,16-4.8l0.2,1C358.6,388.1,346.5,390.3,343.1,392.6z"/>
</g>
<g>
	<path class="st6" d="M359.3,384.8c-0.1,0-7.7-0.3-14.9-3.3l0.4-0.9c7,2.9,14.4,3.2,14.5,3.2L359.3,384.8z"/>
</g>
<g>
	<path class="st6" d="M379.5,384.8l-0.5-0.9c7.7-4.6,12-6.8,12.7-6.6l-0.3,1C390.7,378.4,384,382.1,379.5,384.8z"/>
</g>
<g>
	<path class="st6" d="M380.4,388l-0.3-1c0.4-0.1,10.2-3,14.9-3.5l0.1,1C390.5,385,380.5,388,380.4,388z"/>
</g>
<g>
	<path class="st6" d="M387.5,394.1c-0.5-0.2-6.5-2.9-7.1-3.2l0.4-0.9c2.7,1.2,6.7,3,7.1,3.1L387.5,394.1z"/>
</g>
<g>
	<path class="st6" d="M368.9,393.9c-2.5,0-4-1.7-4-1.8l0.8-0.6c0,0,1.4,1.6,3.6,1.4c1.2-0.1,2.4-0.7,3.7-1.8l0.7,0.8
		c-1.4,1.2-2.9,1.9-4.3,2C369.2,393.9,369,393.9,368.9,393.9z"/>
</g>
<g>
	<ellipse class="st6" cx="369.3" cy="380.5" rx="7.1" ry="3.6"/>
	<path class="st6" d="M369.3,384.6c-4.2,0-7.6-1.8-7.6-4.1s3.3-4.1,7.6-4.1s7.6,1.8,7.6,4.1C376.9,382.8,373.6,384.6,369.3,384.6z
		 M369.3,377.3c-3.6,0-6.6,1.4-6.6,3.1s3,3.1,6.6,3.1c3.6,0,6.6-1.4,6.6-3.1S372.9,377.3,369.3,377.3z"/>
</g>
<g>
	
		<rect x="364.7" y="388.2" transform="matrix(6.835618e-03 -1 1 6.835618e-03 -21.9452 755.3608)" class="st6" width="9.3" height="1"/>
</g>
<g>
	<ellipse class="st6" cx="362.3" cy="369.5" rx="3.5" ry="3.2"/>
	<path class="st6" d="M362.3,373.2c-2.2,0-4-1.7-4-3.7s1.8-3.7,4-3.7s4,1.7,4,3.7S364.4,373.2,362.3,373.2z M362.3,366.8
		c-1.6,0-3,1.2-3,2.7s1.3,2.7,3,2.7s3-1.2,3-2.7C365.2,368,363.9,366.8,362.3,366.8z"/>
</g>
<g>
	<circle class="st6" cx="375.1" cy="368.7" r="3.2"/>
	<path class="st6" d="M375.1,372.5c-2,0-3.7-1.7-3.7-3.7s1.7-3.7,3.7-3.7s3.7,1.7,3.7,3.7S377.1,372.5,375.1,372.5z M375.1,366
		c-1.5,0-2.7,1.2-2.7,2.7s1.2,2.7,2.7,2.7s2.7-1.2,2.7-2.7S376.6,366,375.1,366z"/>
</g>
<g>
	<circle class="st2" cx="373.9" cy="368" r="1.2"/>
</g>
<g>
	<circle class="st2" cx="361.2" cy="368.4" r="1"/>
</g>
<g>
	<ellipse transform="matrix(0.866 -0.5 0.5 0.866 -140.71 234.2338)" class="st2" cx="366.7" cy="379.7" rx="2.3" ry="1.5"/>
</g>
</svg>
