<?xml version="1.0" encoding="utf-8"?>
<!-- Generator: Adobe Illustrator 25.0.0, SVG Export Plug-In . SVG Version: 6.00 Build 0)  -->
<svg version="1.1" id="Layer_1" xmlns="http://www.w3.org/2000/svg" xmlns:xlink="http://www.w3.org/1999/xlink" x="0px" y="0px"
	 viewBox="0 0 566.93 566.93" style="enable-background:new 0 0 566.93 566.93;" xml:space="preserve">
<style type="text/css">
	.st0{fill:#5698B7;}
	.st1{fill:#FFFFFF;}
	.st2{fill:#A2A1A1;}
	.st3{fill:#DAD9DA;}
	.st4{fill:#A8A7A8;}
	.st5{fill:#BBBCBC;}
</style>
<path class="st0" d="M67.13,160.17c4.63-9.3,1.53-21.31,7.1-30.08c5.73-9.02,18.18-10.83,28.81-9.72
	c10.63,1.11,21.47,4.19,31.81,1.46c13.83-3.65,23.05-16.67,35.77-23.21c15.56-8,34.56-5.39,50.96,0.7
	c11.73,4.35,23.36,10.84,29.87,21.52c8.44,13.82,7.91,33.71,21.35,42.74c9.45,6.35,21.96,4.44,33.15,6.5
	c18.4,3.39,33.32,18.18,40.52,35.45s7.57,36.69,5.11,55.23c-2.4,18.01-7.51,35.97-17.51,51.14c-10.01,15.17-25.32,27.36-43.11,31.06
	c-17.01,3.54-34.63-0.77-51.13-6.19c-11.04-3.63-22.08-7.8-33.67-8.62c-17.03-1.19-33.63,4.94-50.55,7.18
	c-9.45,1.25-19.07,1.27-28.53,0.07c-7.78-0.99-15.61-2.86-22.31-6.95c-11.52-7.03-18.38-19.78-22.33-32.68
	c-6.27-20.51-6.37-42.85-0.31-63.42c4.8-16.28,13.4-33.53,7.12-49.3c-3.59-9.02-11.46-15.52-19.02-21.62"/>
<path class="st1" d="M82.28,163.03c-2.27-9.66,2.47-20.55,11.09-25.47c12.5-7.14,28.55-1.51,42.42-5.33
	c17.53-4.83,28.5-23.75,46.11-28.29c11.92-3.07,24.42,1.1,35.84,5.69c8.2,3.29,16.53,6.99,22.63,13.38
	c8.59,9,11.43,21.82,15.68,33.52c4.25,11.69,11.63,23.92,23.75,26.72c14.53,3.36,31.11-8.08,43.87-0.36
	c4.7,2.84,7.71,7.81,9.87,12.85c6.93,16.15,6.91,34.3,6.77,51.87c-0.1,12.85-0.32,26.2-5.98,37.73
	c-2.76,5.62-6.69,10.56-10.63,15.43c-13.09,16.21-29.09,33.55-49.92,34.16c-12.76,0.38-24.82-5.84-35.12-13.38
	c-10.3-7.55-19.51-16.58-30.4-23.24c-1.96-1.2-4.07-2.35-6.37-2.41c-5.71-0.15-9.2,5.92-12.27,10.74
	c-8.96,14.06-25.14,23.4-41.82,23.52s-33.23-9.2-41.27-23.81c-4.25-7.72-6.13-16.5-7.59-25.2c-3.1-18.43-4.49-37.78,1.6-55.45
	c2.77-8.04,7.12-16.03,6.22-24.49c-1.71-16.08-21.17-25.47-23.82-41.43"/>
<g>
	<path class="st2" d="M150.67,197.63c3.08-4.81,7.89-8.47,13.34-10.16c2.48-0.77,5.15-1.13,7.66-0.45s4.78,2.55,5.42,5.06
		c0.28,1.1,0.24,2.26,0.13,3.4c-0.34,3.3-1.45,6.74-4.07,8.77c-1,0.78-2.17,1.3-3.32,1.83c-1.76,0.79-3.52,1.58-5.27,2.38
		c-3.15,1.42-6.9,2.83-9.91,1.13c-2.48-1.4-3.51-4.5-3.57-7.35c-0.06-2.64,0.54-5.29,1.72-7.66"/>
	<g>
		<path d="M151.48,198.1c2.52-3.86,6.12-6.94,10.34-8.82c4.21-1.87,10.85-3.1,13.74,1.59c1.34,2.18,0.82,5.18,0.16,7.51
			c-0.66,2.34-1.91,4.44-4.04,5.71c-2.38,1.42-5.09,2.41-7.61,3.54c-2.24,1-4.84,2.13-7.35,1.69c-6.3-1.1-5.1-10.21-3.13-14.29
			c0.52-1.08-1.09-2.03-1.62-0.95c-2.23,4.63-3.24,12.1,1.38,15.74c2.22,1.74,5.11,1.68,7.71,0.95c3.19-0.9,6.22-2.54,9.23-3.9
			c2.73-1.24,4.97-2.77,6.3-5.53c1.22-2.53,1.92-5.76,1.56-8.56c-0.8-6.22-7.8-7.81-12.99-6.61c-6.29,1.46-11.81,5.6-15.31,10.97
			C149.2,198.17,150.82,199.11,151.48,198.1L151.48,198.1z"/>
	</g>
</g>
<path class="st3" d="M138.97,214.05c-2.43-7.41-3.75-15.31-2.7-23.03s4.65-15.27,10.73-20.15c4.97-3.98,11.46-6.01,17.81-5.57
	c3.38,0.24,6.79,1.19,9.47,3.26c2.49,1.92,4.18,4.66,6.21,7.06c8.02,9.52,20.9,13.44,33.25,14.94c12.36,1.5,24.99,1.06,37.08,4.04
	c2.74,0.68,5.48,1.54,7.87,3.06c5.58,3.55,8.46,10.13,10,16.57c1.86,7.8,2.19,16.07,0.11,23.81s-6.69,14.93-13.36,19.39
	c-5.93,3.96-13.1,5.59-20.16,6.58c-17.45,2.45-35.62,1.35-52.04-5.03c-16.42-6.38-30.96-18.34-38.76-34.13
	c-2.3-4.65-4.01-9.59-6.64-14.05"/>
<g>
	<path d="M243.51,167.76c1.21,0,1.21-1.87,0-1.87C242.3,165.89,242.3,167.76,243.51,167.76L243.51,167.76z"/>
</g>
<path class="st4" d="M187.59,195.91c-2.25-1.39-3.84-3.81-4.23-6.43c-0.11-0.77-0.11-1.63,0.36-2.25c0.7-0.92,2.07-0.94,3.19-0.66
	c2.13,0.52,4.02,1.76,5.77,3.09c9.57,7.24,16.43,17.97,19.01,29.69c0.91,4.12,1.29,8.43,0.36,12.54c-0.93,4.11-3.31,8.02-6.96,10.14
	s-8.61,2.12-11.89-0.52c-3.94-3.18-4.52-8.88-4.75-13.94c-0.49-10.41-0.85-20.83-1.08-31.25"/>
<path class="st5" d="M120.43,251.13c-0.4-1.33,0.29-2.8,1.34-3.71s2.39-1.41,3.68-1.91c4.69-1.82,9.61-4.39,11.59-9.01
	c1.24-2.89,1.12-6.16,0.98-9.31c-0.12-2.57-0.23-5.13-0.35-7.7c-0.1-2.23-0.03-4.85,1.78-6.17c1.56-1.14,3.87-0.72,5.38,0.48
	s2.42,3.01,3.2,4.78c3.59,8.15,5.7,16.95,6.18,25.84c0.16,2.86,0.13,5.82-1.06,8.43c-2.4,5.25-8.66,7.44-14.38,8.24
	c-4.28,0.6-8.81,0.69-12.73-1.14s-6.98-6.04-6.3-10.3"/>
<path class="st4" d="M150.69,195.73c1.28-0.96,2.56-1.93,3.85-2.89c2.1-1.58,4.24-3.19,6.7-4.13c2.07-0.79,4.38-1.08,6.54-0.57
	s4.16,1.87,5.21,3.82c0.55,1.01,0.84,2.16,0.93,3.31c0.14,1.82-0.21,3.71-1.2,5.25c-0.43,0.67-0.97,1.26-1.55,1.8
	c-3.99,3.78-9.91,5.4-15.27,4.16c-1.05-0.24-2.09-0.59-2.95-1.23c-1.4-1.03-2.2-2.7-2.64-4.38c-0.51-1.95-0.53-4.27,0.88-5.72"/>
<g>
	<path d="M169.44,191.66c1.63-2.77,3.46-5.42,5.5-7.91c0.32-0.39,0.38-0.94,0-1.33c-0.33-0.33-1-0.39-1.33,0
		c-2.14,2.61-4.08,5.38-5.79,8.29C167.21,191.76,168.82,192.71,169.44,191.66L169.44,191.66z"/>
</g>
<g>
	<path d="M171.05,194.25c3.31-2.33,6.4-4.95,9.23-7.84c0.84-0.86-0.48-2.19-1.33-1.33c-2.71,2.78-5.67,5.31-8.85,7.55
		c-0.41,0.29-0.61,0.82-0.34,1.28C170.01,194.32,170.63,194.54,171.05,194.25L171.05,194.25z"/>
</g>
<g>
	<path d="M172.5,196.69c3.11-1.45,6.42-2.45,9.81-3.01c0.5-0.08,0.78-0.7,0.65-1.15c-0.15-0.53-0.65-0.74-1.15-0.65
		c-3.55,0.59-6.99,1.68-10.26,3.2c-0.46,0.21-0.57,0.87-0.34,1.28C171.49,196.83,172.04,196.91,172.5,196.69L172.5,196.69z"/>
</g>
<g>
	<path d="M142.3,202.52c3.68-0.92,7.27-2.17,10.75-3.7c0.46-0.2,0.57-0.88,0.34-1.28c-0.28-0.48-0.82-0.54-1.28-0.34
		c-3.33,1.46-6.78,2.62-10.3,3.51C140.63,201.01,141.13,202.81,142.3,202.52L142.3,202.52z"/>
</g>
<g>
	<path d="M145.72,206.05c1.61-0.85,3.22-1.7,4.82-2.57c1.55-0.83,3.04-1.73,4.4-2.84c0.39-0.32,0.33-0.99,0-1.33
		c-0.39-0.39-0.93-0.32-1.33,0c-1.27,1.05-2.72,1.85-4.17,2.63c-1.56,0.83-3.12,1.66-4.68,2.49
		C143.71,204.99,144.66,206.61,145.72,206.05L145.72,206.05z"/>
</g>
<g>
	<path d="M160.34,190.95c-1.17,0.84-2.73,1.06-3.73,2.14c-1.29,1.39-0.91,3.46,0.51,4.6c1.69,1.36,3.93,0.92,5.76,0.1
		c1.53-0.69,3.13-1.87,3.52-3.6c0.38-1.7-0.38-3.64-2.18-4.11c-0.98-0.26-2.03-0.05-2.99,0.23c-0.94,0.28-1.83,0.68-2.59,1.31
		c-0.72,0.59-1.3,1.45-1.49,2.38c-0.2,0.99-0.06,2.18,0.89,2.73c0.81,0.47,1.79,0.27,2.63-0.01c0.94-0.32,1.86-0.76,2.67-1.34
		c0.88-0.63,1.95-1.46,1.91-2.67c-0.04-1.15-1.15-1.91-2.24-1.85c-1.09,0.06-1.96,0.83-2.76,1.49c-0.84,0.69-1.52,1.46-1.92,2.47
		c-0.23,0.57,0.35,1.19,0.9,1.19c1.89-0.02,3.69-1.08,4.58-2.75c0.57-1.06-1.05-2.01-1.62-0.95c-0.59,1.1-1.71,1.81-2.96,1.82
		c0.3,0.4,0.6,0.79,0.9,1.19c0.21-0.52,0.63-0.94,1.04-1.3c0.46-0.41,0.96-0.87,1.51-1.15c0.18-0.1,0.37-0.16,0.53-0.13
		c0.04,0.01,0.1,0.03,0.17,0.07c-0.08-0.06,0,0.01,0,0.02c-0.22,0.38-0.69,0.71-1.06,0.97c-0.54,0.38-1.13,0.72-1.75,0.96
		c-0.48,0.19-1.17,0.47-1.57,0.35c0.05,0.01-0.05-0.05-0.04-0.03c-0.02-0.06-0.02-0.14-0.03-0.2c-0.02-0.28,0.04-0.57,0.14-0.83
		c0.2-0.5,0.59-0.93,1.04-1.22c0.56-0.37,1.17-0.6,1.81-0.78c0.56-0.15,1.2-0.32,1.78-0.17c0.91,0.24,1.06,1.26,0.8,2.07
		c-0.32,1.01-1.5,1.71-2.46,2.16c-1.05,0.49-2.55,0.94-3.6,0.24c-0.41-0.27-0.74-0.76-0.78-1.15c-0.02-0.26,0.02-0.42,0.12-0.59
		c0.03-0.06,0.07-0.11,0.11-0.17c0.09-0.13-0.07,0.08,0.04-0.04c0.04-0.05,0.27-0.25,0.22-0.21c0.93-0.73,2.17-0.95,3.14-1.63
		c0.41-0.29,0.61-0.82,0.34-1.28C161.38,190.88,160.75,190.66,160.34,190.95L160.34,190.95z"/>
</g>
<g>
	<path d="M162.78,197.78c0.71,2.14,1.41,4.28,2.12,6.42c0.16,0.48,0.65,0.79,1.15,0.65c0.47-0.13,0.81-0.67,0.65-1.15
		c-0.71-2.14-1.41-4.28-2.12-6.42c-0.16-0.48-0.65-0.79-1.15-0.65C162.96,196.75,162.62,197.3,162.78,197.78L162.78,197.78z"/>
</g>
<g>
	<path d="M147.84,210.49c2.54-2.8,5.3-5.38,8.27-7.73c0.4-0.31,0.33-1,0-1.33c-0.39-0.39-0.93-0.32-1.33,0
		c-2.96,2.35-5.73,4.93-8.27,7.73C145.71,210.06,147.03,211.39,147.84,210.49L147.84,210.49z"/>
</g>
<g>
	<path d="M160.88,206.05c2.34-0.41,4.75-0.86,6.82-2.08c1.81-1.07,3.32-2.71,3.87-4.77c0.31-1.17-1.5-1.66-1.81-0.5
		c-1.07,4.03-5.88,4.92-9.38,5.54c-0.5,0.09-0.78,0.7-0.65,1.15C159.88,205.92,160.38,206.14,160.88,206.05L160.88,206.05z"/>
</g>
<ellipse cx="150.62" cy="188.2" rx="3.93" ry="3.69"/>
<ellipse class="st1" cx="148.08" cy="187.78" rx="0.86" ry="1.11"/>
<ellipse cx="161.68" cy="181.57" rx="3.93" ry="3.69"/>
<ellipse class="st1" cx="159.14" cy="181.14" rx="0.86" ry="1.11"/>
<path class="st5" d="M261.55,219.02c-0.27-1.87-0.4-3.81,0.15-5.62c0.55-1.81,1.88-3.47,3.7-3.97c3.98-1.09,7.38,3.5,11.49,3.83
	c4.38,0.35,7.92-4.15,12.31-4.18c2.79-0.02,5.36,1.9,6.61,4.38s1.35,5.43,0.8,8.16c-0.78,3.82-2.83,7.43-5.93,9.79
	c-2.07,1.57-4.52,2.56-6.96,3.46c-3.52,1.29-7.33,2.46-10.96,1.51c-3.65-0.96-6.48-3.98-8.13-7.38c-1.65-3.4-2.28-7.18-2.9-10.91"/>
<path class="st5" d="M258.17,255.29c4.27,4.25,10.23,6.75,16.25,6.81c2.39,0.02,4.83-0.34,6.95-1.45c2.12-1.11,3.88-3.05,4.4-5.38
	c0.64-2.82-0.56-5.7-1.73-8.35c-0.51-1.16-1.04-2.35-1.94-3.26c-1.69-1.71-4.36-2.04-6.74-1.68c-2.38,0.36-4.63,1.3-6.98,1.79
	c-0.78,0.16-1.6,0.28-2.28,0.7c-0.68,0.42-1.14,1.11-1.59,1.77c-1.77,2.64-3.54,5.27-5.31,7.91"/>
</svg>
