<?xml version="1.0" encoding="utf-8"?>
<!-- Generator: Adobe Illustrator 25.0.0, SVG Export Plug-In . SVG Version: 6.00 Build 0)  -->
<svg version="1.1" id="Layer_1" xmlns="http://www.w3.org/2000/svg" xmlns:xlink="http://www.w3.org/1999/xlink" x="0px" y="0px"
	 viewBox="0 0 566.93 566.93" style="enable-background:new 0 0 566.93 566.93;" xml:space="preserve">
<style type="text/css">
	.st0{fill:#E9A045;}
	.st1{opacity:0.3;}
	.st2{fill:#F2C078;}
	.st3{fill:#A01D21;}
	.st4{fill:#E52625;}
	.st5{fill:#F2C34A;}
	.st6{stroke:#000000;stroke-miterlimit:10;}
	.st7{fill:#FFFFFF;}
</style>
<path class="st0" d="M223.65,228.08c-1.39,0.85-3.1,0.98-4.62,1.58c-2.76,1.08-4.67,3.56-6.44,5.93c3.74-0.22,7.41-1.46,10.52-3.54"
	/>
<path class="st0" d="M226.99,236.65c-2,0.12-3.8,1.36-5.05,2.93s-2.03,3.45-2.79,5.3c3.37-1.51,6.55-3.45,9.43-5.76"/>
<path class="st0" d="M231.07,245.88c-3.77,1.52-6.56,5.24-6.98,9.28c0.28,0.12,0.58-0.1,0.81-0.3c2.06-1.84,4.12-3.67,6.19-5.51"/>
<path class="st0" d="M236.69,252.66c-2.68,2.29-3.42,6.08-3.99,9.56c-0.14,0.86-0.22,1.89,0.45,2.44c0.95-2.14,2.22-4.14,3.76-5.9
	c1.12-1.28,2.44-2.54,2.8-4.21"/>
<path class="st0" d="M321.64,206.28c0,0.33,0.41,0.46,0.74,0.5c4.09,0.45,8.32,0.38,12.17,1.83c-0.9,0.66-2.08,0.74-3.2,0.8
	c-3.06,0.15-6.12,0.26-9.18,0.33"/>
<path class="st0" d="M322.83,215.86c3.83,0.79,7.4,2.75,10.12,5.56c-3.66-1.49-7.52-2.45-11.45-2.84"/>
<path class="st0" d="M321.35,224.88c3.99,1.41,7.63,3.79,10.53,6.87c-3.23-1.55-6.46-3.1-9.68-4.64"/>
<path class="st0" d="M319.47,233.78c3.51,1.68,6.14,5.11,6.83,8.94c-0.99-1.38-2.46-2.32-3.9-3.22c-1.8-1.13-3.6-2.26-5.41-3.39"/>
<g class="st1">
	<path class="st2" d="M263.31,193.79c-1.1-2.08-4.62-3.17-6.16-0.89c-0.78,1.15-0.31,2.62,0.68,3.48c1.19,1.03,3.02,1.44,4.51,1.72
		c3.31,0.62,6.91,0.39,10.03-0.94c2.64-1.13,5.05-3.55,4.71-6.64c-0.16-1.47-1.1-2.78-2.65-1.89c-1.47,0.84-2.65,2.29-3.41,3.77
		c-0.37,0.71,0.71,1.35,1.08,0.63c0.62-1.21,1.48-2.29,2.6-3.09c0.34-0.24,0.6-0.53,0.98-0.03c0.16,0.21,0.17,0.71,0.18,0.98
		c0.03,0.72-0.15,1.44-0.47,2.09c-1.22,2.5-4.21,3.53-6.77,3.97c-2.88,0.49-5.96,0.25-8.7-0.8c-0.7-0.27-1.45-0.64-1.77-1.35
		c-0.4-0.87,0.15-1.59,1-1.82c1.24-0.34,2.5,0.35,3.08,1.45C262.6,195.13,263.68,194.5,263.31,193.79L263.31,193.79z"/>
</g>
<g class="st1">
	<path class="st2" d="M270.94,192.55c-0.22,0.14-0.44,0.29-0.65,0.43c-0.07,0.04-0.13,0.09-0.18,0.16
		c-0.06,0.06-0.09,0.13-0.11,0.21c-0.03,0.08-0.03,0.17-0.01,0.25c0,0.08,0.03,0.16,0.07,0.23c0.09,0.13,0.21,0.25,0.37,0.29
		c0.06,0.01,0.11,0.01,0.17,0.02c0.11,0,0.22-0.03,0.32-0.09c0.22-0.14,0.44-0.29,0.65-0.43c0.07-0.04,0.13-0.09,0.18-0.16
		c0.06-0.06,0.09-0.13,0.11-0.21c0.03-0.08,0.03-0.17,0.01-0.25c0-0.08-0.03-0.16-0.07-0.23c-0.09-0.13-0.21-0.25-0.37-0.29
		c-0.06-0.01-0.11-0.01-0.17-0.02C271.14,192.47,271.04,192.5,270.94,192.55L270.94,192.55z"/>
</g>
<g class="st1">
	<path class="st2" d="M261.07,194.16c0.8,0,0.81-1.25,0-1.25C260.26,192.91,260.26,194.16,261.07,194.16L261.07,194.16z"/>
</g>
<g>
	<path class="st3" d="M262.79,194.22c-1.18-0.6-2.48-0.97-3.8-1.09c-0.56-0.05-1.3,0.07-1.42,0.62c-0.1,0.47,0.34,0.87,0.74,1.13
		c2.22,1.48,4.73,2.6,7.39,2.9c2.65,0.29,5.46-0.3,7.56-1.95c1.76-1.38,2.96-3.47,3.25-5.69c0.03-0.24,0.05-0.5-0.07-0.72
		c-0.33-0.61-1.28-0.28-1.77,0.21c-0.73,0.73-1.23,1.65-1.95,2.4c-0.96,0.99-2.25,1.61-3.57,2c-2.65,0.79-5.54,0.76-8.17-0.09"/>
	<g>
		<path class="st4" d="M263.1,193.68c-1.39-0.68-3.37-1.49-4.94-1.13c-1.41,0.33-1.51,1.77-0.49,2.63c1.34,1.11,3.13,1.91,4.76,2.48
			c1.73,0.61,3.6,0.92,5.43,0.78c3.47-0.26,6.73-2.05,8.33-5.22c0.52-1.03,1.51-3.17,0.7-4.25c-0.97-1.3-2.58,0.04-3.26,0.9
			c-0.66,0.84-1.23,1.73-2.11,2.36c-0.85,0.61-1.85,1-2.86,1.27c-2.48,0.67-5.06,0.57-7.5-0.18c-0.77-0.24-1.1,0.97-0.33,1.21
			c2.8,0.86,5.83,0.92,8.64,0.05c1.18-0.37,2.33-0.9,3.27-1.71c0.47-0.4,0.85-0.87,1.22-1.36c0.36-0.48,0.93-1.58,1.56-1.7
			c0.7-0.13,0.2,1.18,0.07,1.59c-0.2,0.65-0.49,1.26-0.85,1.84c-0.75,1.22-1.82,2.22-3.09,2.89c-2.59,1.38-5.7,1.35-8.45,0.48
			c-1.56-0.49-3.1-1.24-4.45-2.18c-0.34-0.24-0.82-0.61-0.13-0.68c0.39-0.04,0.8,0.05,1.18,0.12c0.93,0.17,1.82,0.48,2.66,0.89
			C263.19,195.11,263.83,194.03,263.1,193.68L263.1,193.68z"/>
	</g>
</g>
<path class="st0" d="M308.54,195.6c2.81-2.76,5.52-5.6,8.15-8.54c0.42-0.47,0.86-1,0.83-1.63c-0.04-0.7-0.65-1.22-1.18-1.67
	c-4.11-3.51-6.41-9.04-6.01-14.43c0.4-5.39,3.49-10.51,8.08-13.38c0.45-0.28,1.03-0.55,1.5-0.29c0.47,0.26,0.55,0.89,0.6,1.43
	c0.41,4.05,2.84,7.84,6.36,9.9c1.42-3.57,3.32-6.94,5.64-10.01c2.82,2.57,5.25,5.65,6.53,9.24c1.28,3.59,1.3,7.72-0.47,11.1
	c-2.73,5.19-8.83,7.46-14.4,9.3c-1.49,6.39-5.17,12.25-10.29,16.36c-1.35-2.81-2.99-5.47-4.9-7.93"/>
<path class="st0" d="M231.48,218c-5.73-2.38-10.34-7.33-12.3-13.22c-3.08,0.97-6.32,1.95-9.48,1.32c-3.17-0.63-5.87-2.84-7.69-5.51
	c-1.83-2.67-2.89-5.78-3.78-8.89c-0.32-1.12-0.62-2.26-0.55-3.42c0.09-1.48,0.78-2.84,1.47-4.15c1.2-2.28,2.44-4.55,3.71-6.79
	c0.2-0.35,0.44-0.74,0.83-0.84c0.54-0.14,1.04,0.33,1.4,0.75c2.93,3.38,5.85,6.76,8.78,10.14c1.27-4.13,3.25-8.05,5.82-11.52
	c4.5,1.84,8.02,5.9,9.21,10.61s0.01,9.96-3.08,13.71c-0.44,0.54-0.95,1.13-0.89,1.82c0.04,0.46,0.33,0.86,0.62,1.22
	c2.39,2.97,5.45,5.4,8.88,7.05c-0.88,2.69-1.76,5.38-2.64,8.07"/>
<path class="st5" d="M232.7,242.68c-0.68,0.77-1.36,1.54-2.04,2.31c-0.56,0.64-1.16,1.35-1.18,2.2c-0.03,1.4,1.59,2.36,2.97,2.18
	c1.38-0.18,2.53-1.12,3.6-2.02"/>
<path class="st5" d="M230.58,232.74c-1.27,0.48-2.44,1.23-3.4,2.19c-0.32,0.32-0.63,0.68-0.7,1.13c-0.07,0.45,0.11,0.9,0.29,1.33
	c0.43,1.02,0.86,2.04,1.29,3.06c1.29-0.71,2.58-1.42,3.88-2.14"/>
<path class="st5" d="M230.61,225.91c-1.89-0.22-3.79,0.32-5.61,0.9c-1.12,0.35-2.34,0.81-2.87,1.86c-0.2,0.39-0.28,0.83-0.35,1.27
	c-0.08,0.48-0.16,0.98,0.02,1.43c0.26,0.63,0.99,0.96,1.67,0.98c0.68,0.01,1.34-0.22,1.99-0.42c1.74-0.53,3.55-0.83,5.36-0.88"/>
<path class="st5" d="M237.59,249.64c-1.25,1.01-1.39,2.82-1.44,4.42c-0.02,0.56,0.03,1.24,0.53,1.49c0.17,0.09,0.37,0.11,0.56,0.11
	c1.79,0.08,3.6-0.68,4.81-2"/>
<path class="st5" d="M315.59,206.6c1.84-0.4,3.77-0.43,5.62-0.1c0.69,0.12,1.44,0.34,1.84,0.92c0.52,0.74,0.23,1.83-0.4,2.47
	c-0.63,0.65-1.53,0.96-2.39,1.24c-1.34,0.43-2.69,0.83-4.06,1.2"/>
<path class="st5" d="M315.81,214.19c2.59,0.36,5.16,0.89,7.68,1.58c0.33,0.09,0.69,0.2,0.9,0.48c0.5,0.66-0.19,1.54-0.35,2.35
	c-0.04,0.19-0.06,0.41-0.22,0.52c-0.11,0.07-0.24,0.07-0.37,0.07c-2.33-0.03-4.65-0.07-6.98-0.1"/>
<path class="st5" d="M314.31,222.67c1.92,0.43,3.84,0.85,5.76,1.28c0.8,0.18,1.62,0.36,2.33,0.79c0.71,0.42,1.3,1.13,1.36,1.95
	c0.05,0.6-0.26,1.27-0.83,1.46c-0.4,0.14-0.84,0.03-1.25-0.07c-2.26-0.54-4.63-0.63-6.93-0.27"/>
<path class="st5" d="M314.24,229.87c2.94,1,5.58,2.9,7.46,5.37c0.08,0.1,0.15,0.2,0.19,0.33c0.05,0.17,0.01,0.36-0.05,0.53
	c-0.3,0.85-1.12,1.49-2.02,1.58c-1.19,0.12-2.28-0.67-3.11-1.52s-1.57-1.86-2.64-2.41c-0.29-0.15-0.61-0.27-0.79-0.53
	s-0.13-0.72,0.18-0.8"/>
<path class="st0" d="M231.02,228.65c-1.76-14.39,6.76-28.82,19-36.59c2.76-1.75,5.7-3.23,8.77-4.38c6.87-2.6,14.27-3.58,21.61-3.67
	c8.03-0.1,16.41,0.98,23.13,5.38c7.08,4.63,11.58,12.63,12.96,20.97c1.38,8.34-0.16,16.99-3.3,24.84c-0.84,2.11-1.81,4.19-3.2,5.99
	c-1.77,2.29-4.15,4.03-6.49,5.74c-2.29,1.67-4.59,3.34-7.05,4.74c-4.85,2.75-10.26,4.39-15.69,5.67c-8.15,1.93-16.64,3.13-24.9,1.75
	c-8.26-1.38-16.33-5.65-20.82-12.72c-3.66-5.76-4.67-12.82-4.78-19.65"/>
<ellipse transform="matrix(0.9971 -0.0763 0.0763 0.9971 -16.9663 21.5307)" class="st5" cx="273.21" cy="232.74" rx="32.75" ry="17.52"/>
<g>
	<path class="st5" d="M258.9,200.84c0.66,4.63,4.8,10.71,10.14,9.94c2.62-0.38,5.08-2.17,7.01-3.89c1.96-1.75,3.58-3.89,4.76-6.24
		c0.72-1.43-1.43-2.7-2.16-1.26c-0.98,1.94-2.24,3.7-3.81,5.21c-1.51,1.46-3.43,2.95-5.47,3.56c-2.22,0.66-4.14-0.74-5.56-2.34
		c-1.4-1.58-2.22-3.56-2.51-5.64c-0.1-0.67-0.94-1.03-1.54-0.87C259.06,199.49,258.81,200.18,258.9,200.84L258.9,200.84z"/>
</g>
<circle class="st5" cx="249.7" cy="184.43" r="12.86"/>
<circle class="st6" cx="249.7" cy="185.2" r="9.08"/>
<circle class="st7" cx="253.77" cy="183.74" r="2.28"/>
<circle class="st5" cx="282.29" cy="179.75" r="12.86"/>
<circle class="st6" cx="282.29" cy="180.52" r="9.08"/>
<circle class="st7" cx="286.36" cy="179.06" r="2.28"/>
</svg>
