<?xml version="1.0" encoding="utf-8"?>
<!-- Generator: Adobe Illustrator 25.0.1, SVG Export Plug-In . SVG Version: 6.00 Build 0)  -->
<svg version="1.1" id="Layer_1" xmlns="http://www.w3.org/2000/svg" xmlns:xlink="http://www.w3.org/1999/xlink" x="0px" y="0px"
	 viewBox="0 0 566.9 566.9" style="enable-background:new 0 0 566.9 566.9;" xml:space="preserve">
<style type="text/css">
	.st0{fill:#AACFE4;}
	.st1{fill:#E9A045;}
	.st2{fill:#5698B7;}
	.st3{fill:#294F73;}
	.st4{fill:#1B1A1B;}
	.st5{fill:#FFFFFF;}
	.st6{fill:#F7941D;stroke:#C78F33;stroke-width:0.5;stroke-miterlimit:10;}
	.st7{fill:#C6C4C4;}
	.st8{fill:none;stroke:#E5E8C6;stroke-width:0.25;stroke-miterlimit:10;}
</style>
<rect class="st0" width="566.9" height="566.9"/>
<path class="st1" d="M320.8,245.1c4.1-7.9,6.8-16.4,9.4-24.9c1.3-4.1,2.6-8.3,3.9-12.4c0.2-0.6,0.4-1.2,0.1-1.8
	c-0.2-0.4-0.5-0.7-0.9-0.9c-2.1-1.6-4.1-3.2-6.2-4.7c-3.6-2.7-7.5-5.6-12-5.7c-2.2-0.1-4.5,0.6-6.7,0.4c-3.2-0.4-5.9-2.5-8.8-4.1
	c-4.8-2.6-10.2-3.7-15.1-6.1s-9.3-6.9-9.2-12.4c0.1-2.5,1.1-4.8,2.3-7c1-2,2.2-3.9,3.9-5.3c3.3-2.6,8-2.3,12.2-1.9
	c-1.8-3.4-8.1-1.3-9.9-4.6c-1.2-2.3,1-5,3.2-6.4s5-2.9,5.3-5.5c0.2-2-1.1-3.8-1.9-5.7c-2.3-5.3,0.2-12.2,5.3-14.9
	c1-0.6,2.3-1.1,2.5-2.3c0.3-1.9-2.8-3.4-1.9-5.1c0.5-0.9,1.8-0.9,2.9-0.8c25.4,3,49.7,12.1,73.4,21.8c19.9,8.1,39.5,16.8,58.7,26.3
	c1,0.5,2,1,2.6,1.9c1.5,2,0.5,4.9-0.6,7.2c-0.9,2-2,4.1-4,5c-1.5,0.7-3.4,0.6-4.8,1.5c-3.6,2.5,0,8.4-1.5,12.6
	c-0.9,2.5-3.8,3.9-6.5,4s-5.3-0.9-7.8-1.9c3.6,1.2,7.1,3,10.2,5.2c0.6,0.4,1.2,0.9,1.4,1.6c0.1,0.6-0.1,1.3-0.3,1.9
	c-0.7,1.8-1.4,3.6-2.1,5.4c-0.9,2.1-1.8,4.4-3.6,5.7s-4.9,1.3-6-0.7c-0.2,1.6,1.8,2.3,3.1,3c2.5,1.4,3.6,4.7,3.2,7.6
	s-1.9,5.5-3.4,8.1c-0.6,1.1-1.4,2.3-2.5,2.9c-0.9,0.4-1.9,0.4-2.8,0.4c-9.1-0.4-17.4-5.1-25.4-9.3c-9.6-5-19.5-9.5-29.5-13.4
	c-1.5-0.6-3.3-1.1-4.5-0.1c-0.9,0.7-1.2,1.9-1.4,3c-2.1,9.2-5.6,18.1-10.4,26.2c-1.5,2.6-3.2,5.1-4.3,7.9c-1.4,3.4-2.1,7.2-4.2,10.2
	c-2.1,3-6.6,4.9-9.5,2.6c1.8-5.4,3.5-10.8,5.3-16.2"/>
<path class="st2" d="M186,297.7c-10.7,20.7-10.9,45.8-3.9,68.1s20.5,42,36.1,59.3c1.3,1.4,2.6,2.9,4.4,3.6c1.9,0.8,4.1,0.7,6.2,0.5
	c39.5-2.6,79.2-2.8,118.8-0.3c4.4,0.3,8.9,0.5,13-0.8c3.5-1.1,6.6-3.4,9.4-5.8c15.4-13.3,24.6-32.9,27.7-53
	c3.1-20.1,0.4-40.8-5.1-60.4c-0.6-2.2-1.5-4.6-3.5-5.5c-1.3-0.6-2.8-0.4-4.2-0.2c-67.3,9.6-136.5,12.3-202.7-2.9"/>
<path class="st3" d="M203.9,317.3c1-4.5-5.1-6.9-9.6-7s-10.6-0.6-11.5-5.1c-0.7-3.3,2.3-6.3,5.3-7.9c3.1-1.5,6.6-2.4,8.8-5
	c1.2-1.3,1.9-3,3.2-4.2c1.8-1.6,4.4-1.8,6.8-2c6.9-0.5,13.8-1,20.6-1.6c6.7-0.5,13.9-1.2,19.3-5.3c5.1,7.1,15.9,4.9,24.5,3.1
	c14-2.8,28.3-2.3,42.6-1.8c6.9,0.2,13.8,0.5,20.8,0.8c5.9,0.2,12,0.4,17.7-1c3.4-0.8,6.6-2.2,10.1-2.4s7.3,1,8.9,4.1
	c0.5,0.9,0.8,2.1,1.6,2.7c1.3,0.9,3,0.3,4.5-0.1c5.1-1.4,10.8-0.5,15,2.6c-2,3.9-5.5,7-9.6,8.6c-0.9,0.3-1.9,0.6-2.5,1.4
	c-1.6,2.1,1.2,4.9,3.8,5.4c2.6,0.5,5.7,0.2,7.4,2.3c2.8,3.4-1.5,7.9-5.2,10.1c-9.5,5.6-19,11.3-29.5,14.6c-10.5,3.3-22.2,4-32.3-0.1
	c-3.1-1.3-6-3-9.3-3.8c-11.9-3.1-23,6.1-34.3,10.9c-4.9,2.1-10.5,3.3-15.3,1.1c-2.3-1.1-4.2-2.9-6.4-4.4c-8.1-5.6-18.7-5.3-28.6-5.8
	c-9.9-0.5-20.9-3-26-11.4"/>
<path class="st4" d="M351.1,238.2c-0.1-1-1.4-1.2-2.4-1.1c-7.9,0.9-15.6,4.3-21.5,9.8c-5.9,5.5-9.8,13-10.6,21
	c-0.7,7.3,1.1,14.7,1.5,22s-1,15.5-6.7,20.2c7.4-2.6,15.2-4.1,23-4.4c-3.8-3.3-5.8-8.4-6.4-13.4s0-10.1,0.7-15.2
	c5,5.6,9.4,11.8,13.1,18.3c-0.6-7.9-2.9-15.7-6.8-22.6c-0.5-0.9-1-1.8-1.2-2.7c-0.4-1.7,0.1-3.4,0.5-5c0.6-3,0.7-6.1,1.8-9
	c1.1-2.8,3.6-5.5,6.6-5.5c2,0,4.2,1.1,6,0.2c1.2-0.6,1.9-2,3.1-2.7c1-0.6,2.2-0.5,3.3-0.5c3.9,0.1,7.7,0.2,11.6,0.4
	c-1.9-2-4.9-2-7.5-2.6c-3.7-1-6.9-3.7-8.5-7.2"/>
<path class="st5" d="M347.6,251.1c-2.7-1.1-5.8-0.7-8.4,0.7s-4.6,3.6-6.3,5.9c-8.7,11.7-10.6,28.2-4.9,41.6c0.5,1,1,2.1,1.8,2.9
	c2,1.9,5.3,1.6,7.5,0.1s3.6-4,4.7-6.5c5.9-13.5,5.8-28.8,5.5-43.6"/>
<path class="st1" d="M327.5,305.6c2.4,0.7,4.8,1.4,7.2,1.1c4.3-0.5,8.1-3.9,12.4-3.6c-2.3-1.7-5.3-1.5-8.1-1.4
	c-2.6,0.2-5.1,0.4-7.7,0.5c-0.9,0.1-1.8,0.1-2.6,0.6c-0.7,0.5-1.1,1.6-0.6,2.3"/>
<path class="st5" d="M342.9,239.4c-1,1.1-1.4,2.7-1,4.1c0.1,0.3,0.2,0.6,0.5,0.8c0.5,0.4,1.2,0.1,1.8-0.2c1-0.6,1.9-1.4,2.2-2.6
	c0.3-1.1,0-2.5-1-3s-2.5,0.1-2.6,1.2"/>
<polygon class="st1" points="354.2,242.5 352,248.1 367,248 "/>
<path class="st6" d="M370.5,224.5"/>
<path class="st5" d="M260.2,309c12.5,9.5,30.3,7.6,44.9,1.7c4.8-2,9.8-4.7,11.7-9.5c0.9-2.3,1-4.8,0.7-7.3c-0.6-7-3.5-13.8-2.9-20.8
	c0.6-7.6,5.3-14.4,6.4-22c1.3-8.8-2.3-17.5-6.3-25.5c-2.9-5.7-6.6-11.8-12.8-13.7c-1.9-0.6-4.1-0.8-5.7-2s-2.3-4.1-0.5-5.1
	c-1.4-0.1-2.8-0.2-4.3-0.4c0.3-0.8,0.9-1.5,1.7-1.9c-1-0.2-2.1-0.3-3.1-0.5c0.1-0.9,0.3-1.9,0.4-2.8c-1.2,0.5-3.4-0.1-2.6-1.1
	c-1.7,0.5-3.6,0.5-5.4,0c0.1-0.9,0.3-1.8,0.4-2.6c-3.1-0.1-6.6-0.4-8.5-2.9c-0.5-0.7-0.9-1.5-1.5-2.2c-1-1.1-2.4-1.5-3.8-1.8
	c-6.3-1.2-13,1.1-19.1-0.8c-5.7-1.7-9.8-6.5-15-9.3c-7.6-4-17.6-3-24.3,2.5c-1.8,1.4-3.3,3.2-5.4,4.1c-3.1,1.5-6.8,0.9-10.2,1.6
	c-10.3,2.2-2.6,8.8-1.5,14.1c1.4,7.1,0.7,11.5,9.6,12.6c2.4,0.3,4.9,0.6,6.8,2.1s2.8,4.5,1.2,6.3c1.4,0.3,3-0.6,3.5-2.1
	c-0.2,1.7-0.8,3.4-1.6,5c0.7-0.5,1.4-1,2-1.5c-0.9,1.4-1.9,2.8-2.8,4.2c1.8-0.6,3.4-1.6,4.9-2.9c-0.8,0.5-0.1,1.9,0.8,2
	c0.9,0.1,1.8-0.5,2.5-1c-0.4,0.9-0.9,1.8-1.3,2.8c2.5-1.3,5.4-1.9,8.2-1.7c-0.6,0.7,0,1.8,0.9,2.1c0.9,0.3,1.8,0.1,2.7,0.1
	c3.8,0.2,6.1,4.4,6.2,8.2c0.1,3.8-1.1,7.5-0.7,11.3c0.3,3.6,2.1,7,3.4,10.4c4.2,11.6,1.9,25.7-7,34.2c-1.9,1.9-4.1,3.5-5.6,5.6
	c-1.5,2.2-2.2,5.2-0.9,7.5c1.2,2.1,3.7,3,6,3.7c4.9,1.6,9.9,3.1,15.1,3.5s10.6-0.7,14.6-3.9"/>
<g>
	<path d="M212.5,186.1c1.2,0.9,2.3,1.7,3.5,2.6c0.3,0.2,0.7,0.1,0.9-0.2c0.2-0.3,0.1-0.6-0.2-0.9c-1.2-0.9-2.3-1.7-3.5-2.6
		c-0.3-0.2-0.7-0.1-0.9,0.2C212.1,185.6,212.2,185.9,212.5,186.1L212.5,186.1z"/>
</g>
<g>
	<path d="M192,196.4c1.2-0.9,1.7-2.4,2-3.8c0.4-1.6,0.9-3.3,0.1-4.8c-0.7-1.2-2.1-1.9-3.4-1.2c-1.1,0.6-1.6,2-1.7,3.2
		c0,1.8,1.2,3.4,1.5,5.2c0.1,0.6,1.1,0.6,1.2,0c0.4-1.9,0.7-3.9,1-5.8c0.1-0.8-1.1-1.1-1.2-0.3c-0.4,1.9-0.7,3.9-1,5.8
		c0.4,0,0.8,0,1.2,0c-0.2-1.3-0.9-2.5-1.3-3.8c-0.3-0.9-0.2-2,0.4-2.8c0.6-0.8,1.6-0.6,2.1,0.2c0.7,1.1,0.2,2.6-0.1,3.8
		c-0.3,1.3-0.7,2.6-1.8,3.4c-0.3,0.2-0.2,0.7,0,0.9C191.4,196.6,191.8,196.6,192,196.4L192,196.4z"/>
</g>
<g>
	<path d="M192.4,191.8c0.8,0,0.8-1.2,0-1.2C191.6,190.5,191.6,191.8,192.4,191.8L192.4,191.8z"/>
</g>
<g>
	<path d="M192.4,193.1c0.8,0,0.8-1.2,0-1.2C191.6,191.8,191.6,193.1,192.4,193.1L192.4,193.1z"/>
</g>
<g>
	<path d="M191.8,192.4c0,0.3,0,0.6,0,0.9c0,0.2,0.1,0.3,0.2,0.4c0.1,0.1,0.1,0.1,0.2,0.1c0.1,0,0.1,0.1,0.2,0.1
		c0.2,0,0.3-0.1,0.4-0.2s0.2-0.3,0.2-0.4c0-0.3,0-0.6,0-0.9c0-0.2-0.1-0.3-0.2-0.4c-0.1-0.1-0.1-0.1-0.2-0.1c-0.1,0-0.1-0.1-0.2-0.1
		c-0.2,0-0.3,0.1-0.4,0.2C191.9,192.1,191.8,192.3,191.8,192.4L191.8,192.4z"/>
</g>
<g>
	<path d="M193.4,193.2c0.1-0.3,0.3-0.6,0.4-0.9c0.1-0.1,0.1-0.1,0.1-0.2c0-0.1,0-0.2,0-0.2c0-0.1-0.1-0.1-0.1-0.2
		c0-0.1-0.1-0.1-0.2-0.2c-0.1-0.1-0.3-0.1-0.5-0.1c-0.1,0.1-0.3,0.1-0.4,0.3c-0.1,0.3-0.3,0.6-0.4,0.9c-0.1,0.1-0.1,0.1-0.1,0.2
		c0,0.1,0,0.2,0,0.2c0,0.1,0.1,0.1,0.1,0.2c0,0.1,0.1,0.1,0.2,0.2c0.1,0.1,0.3,0.1,0.5,0.1C193.2,193.4,193.4,193.4,193.4,193.2
		L193.4,193.2z"/>
</g>
<g>
	<path d="M193.4,191c0.6-0.8,0.7-1.8,0.4-2.7c-0.1-0.4-0.5-0.6-0.9-0.4c-1.1,0.5-1.9,1.5-2.3,2.6c-0.1,0.1,0,0.4,0.1,0.5
		c0.1,0.1,0.2,0.2,0.4,0.3c0.4,0.1,0.6-0.1,0.8-0.4c0,0,0-0.1,0-0.1c0-0.1-0.1,0.1,0,0c0-0.1,0.1-0.1,0.1-0.2
		c0.1-0.1,0.1-0.2,0.2-0.3c0.1-0.1,0.1-0.2,0.2-0.3c0,0-0.1,0.1,0,0c0,0,0-0.1,0.1-0.1c0-0.1,0.1-0.1,0.1-0.1
		c0.1-0.1,0.2-0.2,0.3-0.3c0,0,0.1-0.1,0.1-0.1c0,0,0.1-0.1,0,0c0,0,0.1,0,0.1-0.1c0.2-0.1,0.4-0.3,0.6-0.4
		c-0.3-0.1-0.6-0.2-0.9-0.4c0.1,0.2,0.1,0.3,0.1,0.5c0-0.1,0-0.1,0-0.2c0,0.2,0,0.4,0,0.6c0-0.1,0-0.1,0-0.2c0,0.2-0.1,0.4-0.1,0.6
		c0,0.1,0.1-0.1,0-0.1c0,0,0,0,0,0.1c0,0,0,0.1-0.1,0.1c-0.1,0.1-0.1,0.2-0.2,0.2c-0.1,0.1-0.1,0.3-0.1,0.5c0,0.1,0.1,0.3,0.3,0.4
		c0.1,0.1,0.3,0.1,0.5,0.1C193.2,191.3,193.3,191.2,193.4,191L193.4,191z"/>
</g>
<g>
	<path d="M191.5,191.6c0.3-1.2,0.4-2.5,0.3-3.8c0-0.3-0.3-0.6-0.6-0.6c-0.3,0-0.6,0.3-0.6,0.6c0,0.4,0,0.9,0,1.4
		c0,0.4,0.5,0.8,0.9,0.5c0.4-0.3,0.6-0.7,0.5-1.2c-0.1-0.4-0.3-0.7-0.6-0.9c-0.4-0.2-0.9-0.2-1.2,0c-0.4,0.2-0.6,0.6-0.6,1.1
		c-0.1,0.8,0.6,1.6,1.4,1.6c0.9,0,1.8-0.8,1.8-1.7c0-0.5-0.3-0.9-0.7-1.2c-0.2-0.1-0.5-0.2-0.7-0.1c-0.3,0.1-0.5,0.3-0.6,0.6
		c-0.1,0.3,0.1,0.7,0.4,0.8c0.4,0.1,0.6-0.1,0.8-0.4c0,0.1-0.1,0.2-0.2,0.2c-0.1,0-0.1,0-0.2,0c0,0,0.1,0,0,0c-0.1,0-0.1,0,0,0
		c0,0-0.1-0.1-0.1,0c0,0,0,0,0.1,0c0.1,0-0.1-0.1,0,0c0,0,0.1,0.1,0.1,0.1c0,0-0.1-0.1,0-0.1c0,0,0,0,0,0.1c0.1,0.1,0-0.1,0,0
		c0,0.1,0-0.1,0-0.1v0.1c0,0,0-0.1,0-0.1c0,0,0,0.1,0,0.1c0,0.1,0,0,0,0c0,0,0,0,0,0.1c0,0.1-0.1,0.1-0.1,0.1c0.1-0.1,0,0-0.1,0
		c0,0,0,0-0.1,0.1c-0.1,0.1,0,0,0,0c0,0-0.1,0.1-0.1,0.1c0,0-0.1,0,0,0s0,0,0,0c0,0-0.1,0-0.1,0c-0.1,0,0,0,0,0c0,0-0.1,0-0.1,0
		c0,0-0.1,0,0,0c0.1,0-0.1,0-0.1,0c-0.1,0,0.1,0,0.1,0c0,0-0.1,0-0.1,0c0,0,0.1,0.1,0.1,0c0,0,0,0-0.1-0.1c-0.1-0.1,0,0.1,0,0
		c0,0-0.1-0.1-0.1-0.1c0,0,0.1,0.1,0,0c0,0,0,0,0-0.1c0,0,0,0,0-0.1c0-0.1,0,0,0,0.1c0,0,0-0.1,0-0.1c0,0,0-0.1,0-0.1
		c0,0,0,0.1,0,0.1c0,0,0-0.1,0-0.1c0,0-0.1,0.1,0,0.1c0,0,0.1-0.1,0,0c-0.1,0.1,0,0,0.1,0c0,0-0.1,0.1-0.1,0c0,0,0.1,0,0.1,0
		c0,0-0.1,0.1,0,0c0,0-0.1,0-0.1,0c0.1,0-0.1,0,0,0c0.1,0-0.1,0-0.1,0l0.1,0c0,0,0.1,0.1,0,0c-0.1-0.1,0,0,0,0c0,0,0,0,0,0
		c0.1,0-0.1-0.1,0,0c0,0,0.1,0.2,0.1,0.1c0-0.1,0,0,0,0.1c0,0,0,0.1,0-0.1c0,0,0,0.1,0,0.1c0,0,0-0.1,0-0.1c0,0.1,0.1-0.1,0-0.1
		c0,0-0.1,0.1,0,0c0,0,0-0.1,0,0s0,0,0.1,0c0.3,0.2,0.6,0.4,0.9,0.5c0-0.4,0-0.9,0-1.4c-0.4,0-0.8,0-1.2,0c0.1,0.6,0.1,1.2,0.1,1.8
		c0,0.6-0.1,1.1-0.3,1.7c-0.1,0.3,0.1,0.7,0.4,0.8C191,192.1,191.4,192,191.5,191.6L191.5,191.6z"/>
</g>
<g>
	<path d="M190.6,191.3c0.1,0.4,0.3,0.9,0.4,1.3c0.1,0.1,0.1,0.3,0.3,0.4c0.1,0.1,0.3,0.1,0.5,0.1s0.3-0.1,0.4-0.3
		c0.1-0.1,0.1-0.3,0.1-0.5c-0.1-0.4-0.3-0.9-0.4-1.3c-0.1-0.1-0.1-0.3-0.3-0.4c-0.1-0.1-0.3-0.1-0.5-0.1s-0.3,0.1-0.4,0.3
		C190.5,190.9,190.5,191.1,190.6,191.3L190.6,191.3z"/>
</g>
<g>
	<path d="M191.6,193.3c0.1,0.1,0.3,0.3,0.4,0.4c0.1,0.1,0.1,0.1,0.2,0.1c0.1,0,0.1,0.1,0.2,0.1c0.1,0,0.2,0,0.2-0.1
		c0.1,0,0.1-0.1,0.2-0.1c0,0,0.1-0.1,0.1-0.1c0.1-0.1,0.1-0.2,0.1-0.3c0-0.1,0-0.1,0-0.2c0-0.1-0.1-0.2-0.2-0.3
		c-0.1-0.1-0.3-0.3-0.4-0.4c-0.1-0.1-0.1-0.1-0.2-0.1c-0.1,0-0.1-0.1-0.2-0.1c-0.1,0-0.2,0-0.2,0.1c-0.1,0-0.1,0.1-0.2,0.1
		c0,0-0.1,0.1-0.1,0.1c-0.1,0.1-0.1,0.2-0.1,0.3c0,0.1,0,0.1,0,0.2C191.4,193.1,191.5,193.2,191.6,193.3L191.6,193.3z"/>
</g>
<g>
	<path d="M191.5,193.6c0.1,0.3,0.3,0.6,0.4,0.9c0,0.1,0.1,0.1,0.2,0.2c0.1,0.1,0.1,0.1,0.2,0.1c0.1,0,0.2,0,0.2,0
		c0.1,0,0.2,0,0.2-0.1c0.1-0.1,0.2-0.2,0.3-0.4c0-0.1,0-0.1,0-0.2c0-0.1,0-0.2-0.1-0.3c-0.1-0.3-0.3-0.6-0.4-0.9
		c0-0.1-0.1-0.1-0.2-0.2c-0.1-0.1-0.1-0.1-0.2-0.1c-0.1,0-0.2,0-0.2,0c-0.1,0-0.2,0-0.2,0.1c-0.1,0.1-0.2,0.2-0.3,0.4
		c0,0.1,0,0.1,0,0.2C191.4,193.4,191.4,193.5,191.5,193.6L191.5,193.6z"/>
</g>
<g>
	<path d="M193.1,193.3c0-0.4,0-0.9,0-1.3c-0.4,0-0.8,0-1.2,0c0,0.5,0,0.9,0,1.4c0.4,0,0.8,0,1.2,0c0-0.8,0-1.5,0-2.3
		c0-0.3-0.3-0.6-0.6-0.6c-0.3,0-0.6,0.3-0.6,0.6c0,0.8,0,1.5,0,2.3c0,0.3,0.3,0.6,0.6,0.6c0.3,0,0.6-0.3,0.6-0.6c0-0.5,0-0.9,0-1.4
		c0-0.3-0.3-0.6-0.6-0.6c-0.3,0-0.6,0.3-0.6,0.6c0,0.4,0,0.9,0,1.3c0,0.3,0.3,0.6,0.6,0.6C192.8,193.9,193.1,193.6,193.1,193.3
		L193.1,193.3z"/>
</g>
<g>
	<path d="M192.9,190.3c0.1-0.1,0.3-0.3,0.4-0.4c0.1-0.1,0.1-0.1,0.1-0.2c0-0.1,0.1-0.1,0.1-0.2c0-0.1,0-0.2-0.1-0.2
		c0-0.1-0.1-0.1-0.1-0.2c0,0-0.1-0.1-0.1-0.1c-0.1-0.1-0.2-0.1-0.3-0.1c-0.1,0-0.1,0-0.2,0c-0.1,0-0.2,0.1-0.3,0.2
		c-0.1,0.1-0.3,0.3-0.4,0.4c-0.1,0.1-0.1,0.1-0.1,0.2c0,0.1-0.1,0.1-0.1,0.2c0,0.1,0,0.2,0.1,0.2c0,0.1,0.1,0.1,0.1,0.2
		c0,0,0.1,0.1,0.1,0.1c0.1,0.1,0.2,0.1,0.3,0.1c0.1,0,0.1,0,0.2,0C192.7,190.4,192.8,190.4,192.9,190.3L192.9,190.3z"/>
</g>
<g>
	<path d="M226.6,307.8c0.1-0.1,0.3-0.3,0.4-0.4c0,0,0.1,0,0.1-0.1c0.1-0.1,0,0,0.1,0c0.1,0,0.2-0.1,0.2-0.2c0.4-0.2,0.6-0.3,0.9-0.4
		c0.1,0,0.2,0,0.2-0.1c0.1,0,0.1,0,0.2,0c0,0,0.1,0,0.1,0c-0.1,0,0.1,0,0.1,0c0,0,0.1,0,0.1,0c0.1,0,0.2,0,0.3,0c0.1,0,0.2,0,0.3,0
		c0,0,0.2,0,0.1,0c-0.1,0,0.1,0,0.1,0c0.2,0,0.4,0.1,0.6,0.2c0.3,0.1,0.7-0.1,0.8-0.4c0.1-0.3-0.1-0.7-0.4-0.8c-1.7-0.6-3.8,0-5,1.3
		c-0.2,0.3-0.2,0.6,0,0.9C226,308,226.4,308,226.6,307.8L226.6,307.8z"/>
</g>
<g>
	<path d="M225.4,305.4C225.4,305.3,225.5,305.2,225.4,305.4c0-0.1,0.1-0.1,0.1-0.2c0.1-0.1,0.1-0.2,0.1-0.2
		c-0.1,0.1,0.1-0.1,0.1-0.1s0.1-0.1,0.1-0.1c0.1-0.1-0.1,0.1,0,0c0.1,0,0.2-0.1,0.2-0.1c0,0,0.1,0,0.1-0.1c0.1-0.1-0.1,0,0.1,0
		c0.2-0.1,0.4-0.1,0.6-0.2c0.1,0,0.2,0,0.3,0c-0.1,0,0,0,0.1,0c0.1,0,0.1,0,0.2,0c0.2,0,0.4,0,0.7,0c0.2,0,0.4,0,0.6,0
		c0.1,0,0.2,0,0.3,0c0.2,0-0.1,0,0.1,0c0.1,0,0.1,0,0.2,0c0.3,0,0.7-0.1,0.8-0.4c0.1-0.3-0.1-0.7-0.4-0.8c-1.9-0.3-4.7-0.3-5.4,1.9
		c-0.1,0.3,0.1,0.7,0.4,0.8C225,305.9,225.3,305.7,225.4,305.4L225.4,305.4z"/>
</g>
<g>
	<path d="M225.8,302.4c0.1-0.3,0.1-0.4,0.2-0.6c0.1-0.2,0.2-0.3,0.4-0.5c0.1-0.1,0.2-0.2,0.3-0.3c-0.1,0.1,0.1,0,0.1,0
		c0.1,0,0.1-0.1,0.1-0.1c0.1-0.1,0.2-0.1,0.3-0.2c0.1,0,0.1,0,0.2-0.1c-0.1,0,0.1,0,0.1,0c0.2-0.1,0.5-0.1,0.7-0.2
		c-0.1,0,0.1,0,0.1,0c0.1,0,0.1,0,0.2,0c0.1,0,0.2,0,0.4,0c0,0,0.2,0,0.1,0c0.1,0,0.1,0,0.2,0c0.1,0,0.2,0.1,0.3,0.1
		c0,0,0.1,0,0.1,0c-0.1,0-0.1,0,0,0c0.1,0,0.1,0,0.2,0.1c0.1,0.1,0.2,0.1,0.3,0.2c0.3,0.2,0.7,0,0.9-0.2c0.2-0.3,0.1-0.7-0.2-0.9
		c-2.1-1.5-5.4-0.2-6,2.3C224.4,302.8,225.6,303.2,225.8,302.4L225.8,302.4z"/>
</g>
<g>
	<path d="M262.1,303.5c0.1-0.1,0.1-0.1,0.2-0.2c0,0,0.1-0.1,0.1-0.1c-0.1,0.1,0,0,0,0c0.1,0,0.2-0.1,0.2-0.1c0.1-0.1-0.1,0,0,0
		c0,0,0.1,0,0.2,0c0.1,0,0.2,0,0.2-0.1c0.1,0-0.1,0,0,0c0,0,0.1,0,0.1,0c0.1,0,0.2,0,0.3,0c0,0,0.1,0,0.1,0c0.1,0,0.1,0,0,0
		c0,0,0.1,0,0.1,0c0.1,0,0.2,0,0.3,0.1c0,0,0.1,0,0.1,0c0.1,0-0.1-0.1,0,0c0.1,0,0.2,0.1,0.3,0.1c0,0,0.2,0.2,0.1,0.1
		c0.1,0.1,0.1,0.1,0.2,0.2c0,0,0.1,0.1,0.1,0.1c0.1,0.1-0.1-0.1,0,0c0,0.1,0.1,0.2,0.1,0.2c0.1,0.1,0-0.1,0,0c0,0.1,0,0.1,0,0.2
		c0.1,0.3,0.5,0.5,0.8,0.4c0.3-0.1,0.5-0.4,0.4-0.8c-0.6-2-3.6-2.8-5-1.1c-0.2,0.3-0.3,0.6,0,0.9
		C261.4,303.7,261.9,303.8,262.1,303.5L262.1,303.5z"/>
</g>
<g>
	<path d="M262.6,300.1c0.1,0,0.2,0,0.3-0.1c0,0,0.1,0,0.2,0c0,0,0.1,0,0,0c0.2,0,0.4,0,0.6,0c0.4,0,0.7,0.1,1.1,0.2
		c0.2,0.1,0.3,0.1,0.5,0.2c0.2,0.1,0.4,0.2,0.5,0.3c0,0,0.1,0,0.1,0.1c0,0,0,0,0.1,0c0.1,0.1,0.1,0.1,0.2,0.2s0.1,0.1,0.2,0.2
		c0,0,0.1,0.1,0.1,0.1c0,0,0.1,0.1,0.1,0.1c0.2,0.3,0.5,0.4,0.9,0.2c0.3-0.1,0.4-0.6,0.2-0.9c-1.2-1.6-3.4-2.4-5.4-1.8
		c-0.3,0.1-0.5,0.4-0.4,0.8C261.9,300,262.3,300.2,262.6,300.1L262.6,300.1z"/>
</g>
<g>
	<path d="M260.6,299.5c0.4-1,0.9-2.3,1.9-2.9c0.4-0.2,0.8-0.4,1.2-0.3c0.2,0,0.4,0,0.6,0.1c-0.1,0,0.1,0,0.1,0c0,0,0.1,0.1,0.2,0.1
		c-0.1-0.1,0.1,0.1,0.1,0.1c0,0,0.1,0.1,0.1,0.1c0.2,0.3,0.5,0.4,0.9,0.2c0.3-0.1,0.4-0.6,0.2-0.9c-0.9-1.1-2.4-1.3-3.7-0.6
		c-1.3,0.7-2,2.1-2.6,3.5c-0.1,0.3-0.1,0.7,0.2,0.9C260,299.9,260.5,299.8,260.6,299.5L260.6,299.5z"/>
</g>
<g>
	<path d="M260.7,296c0.5-1.1,1.1-2.4,2.2-3c0.4-0.2,0.9-0.3,1.4-0.3c0.4,0,0.8,0.2,1,0.6c0.4,0.7,1.5,0,1.1-0.6
		c-0.8-1.2-2.5-1.5-3.8-0.9c-1.5,0.6-2.3,2.2-2.9,3.6c-0.1,0.3-0.1,0.7,0.2,0.9C260.1,296.4,260.6,296.3,260.7,296L260.7,296z"/>
</g>
<g>
	<path class="st7" d="M298.7,249c-5.9,0.3-11.5,2.9-15.5,7.2c-4.1,4.5-6.1,10.5-5.7,16.6c0.2,3,1,6,2.4,8.7c1.2,2.3,4.8,7.6-0.3,8
		c-5.6,0.4-11.9-2.6-17,1c-2.5,1.8-3.8,5-3.6,8c0.2,3.6,2.1,6.7,4.5,9.2c0.6,0.6,1.4-0.3,0.9-0.9c-2.3-2.4-4.1-5.4-4.2-8.7
		c0-3,1.4-6,4.2-7.3c2.6-1.2,5.7-1,8.5-0.6c2.5,0.3,5.7,1.1,8.2,0.2c2.4-0.8,2.7-3.2,2-5.4c-0.5-1.2-1.2-2.4-1.8-3.5
		c-0.8-1.5-1.5-3-1.9-4.6c-1.6-5.8-0.7-12.3,2.6-17.3c3.7-5.5,10-9,16.6-9.3C299.5,250.2,299.5,249,298.7,249L298.7,249z"/>
</g>
<g>
	<path d="M228.3,186.7c2-1.7,5.1-1.8,7.3-0.5c0.6,0.3,1.2,0.8,1.5,1.4c0.4,0.7-0.4,1.5-0.8,2c-0.9,1.2-2.1,2.1-3.5,2.8
		c-1.5,0.8-3.2,1.1-4.9,1.1c-0.8,0-0.8,1.2,0,1.2c3.6,0.1,7.2-1.6,9.4-4.5c0.6-0.7,1.3-1.6,1.1-2.6c-0.2-0.8-0.9-1.5-1.5-2
		c-1.3-1-2.9-1.5-4.5-1.6c-1.8-0.1-3.6,0.6-5,1.8C226.8,186.4,227.7,187.2,228.3,186.7L228.3,186.7z"/>
</g>
<path class="st8" d="M193.4,200.9"/>
<path class="st4" d="M194.4,204c5-1.5,10.6-0.9,15.2,1.7c0.4,0.3,0.9,1,0.4,1.2c-4.1-1.6-8.9-1.4-12.9,0.5c-0.4,0.2-0.9,0.4-1.3,0.3
	c-0.8-0.2-1.1-1.2-1-2c0.1-0.8,0.4-1.7,0.1-2.4"/>
<circle class="st3" cx="203.6" cy="477.7" r="6.8"/>
<circle class="st3" cx="225.9" cy="491.6" r="4.2"/>
<circle class="st3" cx="271" cy="542.2" r="8.2"/>
<circle class="st3" cx="362.7" cy="477.7" r="8.2"/>
<path class="st2" d="M203.4,462.2L203.4,462.2c-4.7,0-8.5-3.8-8.5-8.5v-63.1c0-4.7,3.8-8.5,8.5-8.5l0,0c4.7,0,8.5,3.8,8.5,8.5v63.1
	C211.8,458.5,208,462.2,203.4,462.2z"/>
<path class="st2" d="M271,523L271,523c-4.7,0-8.5-3.8-8.5-8.5v-97.5c0-4.7,3.8-8.5,8.5-8.5l0,0c4.7,0,8.5,3.8,8.5,8.5v97.5
	C279.5,519.2,275.7,523,271,523z"/>
<path class="st2" d="M365.9,461.2h-5.9c-4.7,0-8.5-3.8-8.5-8.5v-97.4c0-4.7,3.8-8.5,8.5-8.5h5.9c4.7,0,8.5,3.8,8.5,8.5v97.5
	C374.4,457.4,370.6,461.2,365.9,461.2z"/>
<path class="st2" d="M225.9,482.2L225.9,482.2c-2.3,0-4.2-1.9-4.2-4.2v-57.4c0-2.3,1.9-4.2,4.2-4.2l0,0c2.3,0,4.2,1.9,4.2,4.2V478
	C230.1,480.3,228.2,482.2,225.9,482.2z"/>
<path class="st2" d="M302.4,554.8L302.4,554.8c-2.3,0-4.2-1.9-4.2-4.2V436.9c0-2.3,1.9-4.2,4.2-4.2l0,0c2.3,0,4.2,1.9,4.2,4.2v113.8
	C306.5,553,304.6,554.8,302.4,554.8z"/>
<path class="st2" d="M330.5,516.2L330.5,516.2c-2.3,0-4.2-1.9-4.2-4.2v-91.5c0-2.3,1.9-4.2,4.2-4.2l0,0c2.3,0,4.2,1.9,4.2,4.2v91.5
	C334.6,514.4,332.8,516.2,330.5,516.2z"/>
<g>
	<path d="M187.4,300c0-0.4,0-0.9,0-1.3c0-0.2-0.1-0.3-0.2-0.4c-0.1-0.1-0.3-0.2-0.4-0.2c-0.3,0-0.6,0.3-0.6,0.6c0,0.4,0,0.9,0,1.3
		c0,0.2,0.1,0.3,0.2,0.4c0.1,0.1,0.3,0.2,0.4,0.2C187.1,300.6,187.4,300.4,187.4,300L187.4,300z"/>
</g>
<circle class="st2" cx="318.8" cy="419.5" r="26.8"/>
</svg>
