<svg id="Layer_1" data-name="Layer 1" xmlns="http://www.w3.org/2000/svg" viewBox="0 0 479.22 510.89"><defs><style>.cls-1{fill:#9cd2e7;}.cls-2{fill:#ccc;}.cls-3,.cls-7{fill:#e6e6e6;}.cls-4{fill:#fff;}.cls-5{fill:#999;}.cls-6{fill:#f2f2f2;}.cls-7{opacity:0.5;}</style></defs><rect class="cls-1" x="108.57" y="77.21" width="143.56" height="48.25" rx="24.13"/><rect class="cls-1" x="147.17" y="109.78" width="165.27" height="42.22" rx="21.11"/><rect class="cls-1" x="76" y="141.14" width="148.98" height="45.62" rx="22.81"/><rect class="cls-1" x="57.6" y="166.21" width="152" height="41.12" rx="20.56"/><rect class="cls-1" x="127.87" y="141.14" width="203.87" height="66.19" rx="20.63"/><rect class="cls-1" x="36.19" y="200.25" width="162.86" height="47.05" rx="23.52"/><rect class="cls-1" x="76" y="241.27" width="176.13" height="45.84" rx="22.92"/><rect class="cls-1" y="272.63" width="224.98" height="72.38" rx="36.19"/><rect class="cls-1" x="24.13" y="308.83" width="228" height="86.86" rx="43.43"/><rect class="cls-1" x="108.57" y="186.77" width="271.43" height="147.39" rx="45.93"/><rect class="cls-1" x="252.13" y="166.21" width="178.54" height="46.11" rx="14.37"/><rect class="cls-1" x="270.08" y="211.74" width="150.94" height="41.94" rx="13.07"/><rect class="cls-1" x="270.08" y="253.68" width="142.5" height="47.91" rx="14.93"/><rect class="cls-1" x="270.08" y="293.14" width="169.03" height="41.02" rx="12.78"/><rect class="cls-1" x="234.03" y="319.68" width="145.97" height="43.43" rx="13.53"/><rect class="cls-1" x="193.02" y="352.25" width="161.58" height="51.87" rx="16.17"/><rect class="cls-1" x="96.51" y="378.19" width="186.98" height="60.92" rx="30.46"/><rect class="cls-1" x="201.46" y="396.89" width="168.89" height="61.52" rx="30.76"/><rect class="cls-1" x="252.13" y="348.63" width="168.89" height="90.48" rx="45.24"/><rect class="cls-1" x="318.48" y="226.41" width="139.94" height="63.33" rx="31.67"/><rect class="cls-1" x="217.14" y="96.51" width="153.21" height="103.75" rx="32.33"/><rect class="cls-1" x="283.49" y="91.68" width="147.17" height="49.46" rx="24.73"/><rect class="cls-1" x="285.21" y="125.46" width="168.38" height="48.78" rx="24.39"/><rect class="cls-1" x="199.05" y="60.32" width="142.35" height="56.1" rx="28.05"/><rect class="cls-1" x="318.48" y="308.83" width="150.79" height="54.29" rx="27.14"/><rect class="cls-1" x="326.55" y="258.94" width="152.68" height="55.49" rx="27.75"/><rect class="cls-1" x="341.32" y="189.26" width="123.12" height="52.01" rx="26"/><rect class="cls-1" x="341.4" y="42.22" width="61.49" height="25.33" rx="12.67"/><rect class="cls-1" x="127.87" y="23.07" width="105.86" height="31.82" rx="15.91"/><rect class="cls-1" x="336.57" y="476.51" width="102.54" height="32.57" rx="16.29"/><rect class="cls-1" x="244.29" width="49.46" height="27.75" rx="13.87"/><rect class="cls-1" x="158.03" y="472.29" width="69.97" height="38.6" rx="19.3"/><path class="cls-2" d="M311.9,294.21c.38-2,15.05-1.31,14,1-5,10.84-7.17,26.73-13,27.06s-17,1-17.7,0-3.15-4-1-5.84S307.89,314.89,311.9,294.21Z" transform="translate(-28.84 -17.54)"/><path class="cls-2" d="M253.82,298.47a8.55,8.55,0,0,0,.7,3.25c.84,2.5,2.41,3.69,4.13,6.18s3.55,3.82,1.54,6-3.83,1.67-5.17,3.34-2.16,5,1.51,4.83,7.83.67,10.67-1.16,5.17-4,4.17-7-1.84-6.34-2.84-8.51-2.57-5.48-2.37-9.33S253.82,298.47,253.82,298.47Z" transform="translate(-28.84 -17.54)"/><path class="cls-3" d="M195.23,203.73c-1.38-.94-6.26-5.19-8-5.43s-5.75-1.33-4.81.95,3.44,9.7,6.33,12.33,6.43,1.7,7.06,0S195.23,203.73,195.23,203.73Z" transform="translate(-28.84 -17.54)"/><path class="cls-4" d="M217.8,209.83c5.13,3.86,13.87,11.56,18.82,11.89s19.8-2.24,29.37-3.93,16.17-5,27.39-3.66,34.74,1,47.9,20.13,13.86,30.19,18.15,22.92,19.89-8.12,32.35-2.23c17.06,8.07,14.81,12.34,23.06,23.05A281.91,281.91,0,0,0,435,300.6s-26.07,1-41.25-1.65-31.62-13.8-33.14-15.49-6.57-5.75-5.2-1.73,2.36,14.25,2.69,17.55-.33,14.19-.33,17.82,1.55,9-2.36,9.26-13.4,3.33-14.1,0-.2-8.13,1.64-8.8,2.67-1.42,2-6.88-1.83-11.47-7.34-11.63-7.34-1.17-10-1-13.84-2.17-15.67-3.84-4.51-5.84-5.67-5.84-15.51,3.17-20.35,3.67-20.85,4.17-25.69,5.51-9.5.16-10,3.17-3,11.71-8,15.88-9.36,9.39-17.2,9.76-11.28-1.58-10.78-4.25,1.28-5.05,4.45-5.72,5.17.17,8.5-4.5,7-8.67,4.17-11.84-5.3-3.24-8.8-5.24-13.55-7.55-16.72-13.08-8.34-18.44-14.17-21.38c-4.81-2.41-22.14-3.55-25.55-4.38-5-1.22-9.81-5-10.31-7.79s-1-6.51,2.33-8.84,10.34-5.84,11.51-8.51,3.67-10.4,8.51-13,10.84-6.94,14.76-8S212.5,205.85,217.8,209.83Z" transform="translate(-28.84 -17.54)"/><path class="cls-4" d="M195.12,209.33s-.07-10.33,1-12.83,1.43-4.73,3.13-4.73c2.13,0,5.63,7.55,7,9.58s4,5.16,5,6.57S195.12,209.33,195.12,209.33Z" transform="translate(-28.84 -17.54)"/><path class="cls-5" d="M203.26,219.35c-3.2-.2-4.92-3.75-5.23-8s.15-14.25.54-15,.63-1,1.18,0,6,9,7,11.81S210,219.77,203.26,219.35Z" transform="translate(-28.84 -17.54)"/><path d="M180.69,229.94c-6.05.65-9.8,10.53-.45,8.81S191,228.85,180.69,229.94Z" transform="translate(-28.84 -17.54)"/><path class="cls-6" d="M181.61,235.07c-3.38,1.56-3.63-1.91-.89-3.31S184.92,233.55,181.61,235.07Z" transform="translate(-28.84 -17.54)"/><path d="M156.27,239.79c-3.12,1.46-6.18,7.74-.48,8.39S162.38,236.92,156.27,239.79Z" transform="translate(-28.84 -17.54)"/><path class="cls-7" d="M357.13,280.6c-2.8-2.39,15.2,6.56,23.22,7.81s38.6,3.17,44.77,1.76L435,300.6s-31.82.92-41.25-1.65S370.59,292.1,357.13,280.6Z" transform="translate(-28.84 -17.54)"/><path class="cls-3" d="M159.09,246.78a5.37,5.37,0,0,0,3.58,3.1,65.7,65.7,0,0,0,19.48,2.71c10,0,19.49,4.94,27.5,16.65s12,17.94,17.73,22.11c7.52,5.49,12.49,12.17,16.68,8.1s4.44-18.36,4.69-21.45,3.08,1.48,15.9,3.08,19.79.54,28.7-5.47,5-9.51,8.18-1.77,6.53,11.93,13.19,14.52,23.06,6.16,27.38,5.3,3.08-7.52,1.6-11.35.28-13.19,1.37-15.16,2-1.85,3.32,4.8a10.68,10.68,0,0,0,6.87,8.25s-.16,1.4,1.18,6.07,1.83,15.18,1.58,22.2-.38,8.95,0,12.24-.41,5.51-2.08,5.65-8.83,1.56-10.21,1.55-3.75.11-4.12-.92a15.92,15.92,0,0,1-.5-6.15,4.69,4.69,0,0,1,1.85-3.28c.94-.68,3-.55,2-6.88-.65-4-.52-5-2.22-8.41s-4.46-3.29-7.08-3.38-4.4-.74-6.22-.79-4.63-.27-4.63-.27-1.84,0-7.3-1.49c-4.47-1.21-5.57-2.13-5.57-2.13s-4.27-4.77-4.52-5.06a1.53,1.53,0,0,0-1.15-.78c-.64,0-4.54.81-7.1,1.31s-17.95,3.09-20.38,3.59-12.59,2.78-12.59,2.78-12.29,3.26-12.34,2.42c0,0-2.91.69-3.63,2.25s-1.17,13-10.48,18.82-7.35,7.58-19.11,6.87-7.48-8.48-1.93-10,6.33-1,10.4-7.41,1.2-8.31-5.95-12.3-8.71-5.14-15.56-12.55S202,271.07,196,264.84s-2.52-4.61-25.73-7.74c-14.23-1.92-14.46-8.92-14.46-8.92Z" transform="translate(-28.84 -17.54)"/></svg>