<?xml version="1.0" encoding="utf-8"?>
<!-- Generator: Adobe Illustrator 25.0.0, SVG Export Plug-In . SVG Version: 6.00 Build 0)  -->
<svg version="1.1" xmlns="http://www.w3.org/2000/svg" xmlns:xlink="http://www.w3.org/1999/xlink" x="0px" y="0px"
	 viewBox="0 0 566.93 566.93" style="enable-background:new 0 0 566.93 566.93;" xml:space="preserve">
<style type="text/css">
	.st0{fill:#E9A045;}
	.st1{fill:#5698B7;}
	.st2{fill:#AACFE4;}
	.st3{fill:#294F73;}
	.st4{fill:#FFFFFF;}
	.st5{fill:none;}
</style>
<g id="Layer_1">
</g>
<g id="Layer_2">
	<circle class="st0" cx="290.1" cy="229.81" r="48.44"/>
	<path class="st1" d="M97.45,249.82l341.78-1c0,0,17.13,174.86-159.18,186.22S97.45,249.82,97.45,249.82z"/>
	<polygon class="st1" points="173.78,390.65 217.59,379.37 207.61,411.9 	"/>
	<polygon class="st2" points="173.78,390.65 179.86,319.95 217.59,379.37 	"/>
	<polygon class="st3" points="217.59,379.37 229.73,352.92 247.08,361.59 	"/>
	<polygon class="st1" points="222.8,314.75 173.78,314.75 179.86,319.95 217.59,379.37 229.73,352.92 	"/>
	<polygon class="st2" points="222.8,314.75 247.08,361.59 229.73,352.92 	"/>
	<polygon class="st1" points="160.34,338.17 176.28,361.59 178.14,339.91 	"/>
	<polygon class="st3" points="139.52,283.46 160.34,338.17 178.14,339.91 179.86,319.95 173.78,314.75 184.19,283.46 	"/>
	<polygon class="st2" points="222.8,314.75 173.78,314.75 184.19,283.46 201.76,283.46 	"/>
	<polygon class="st1" points="124.34,283.46 139.52,283.46 148.74,307.7 	"/>
	<polygon class="st3" points="106.99,248.82 120.43,248.82 139.52,283.46 124.34,283.46 	"/>
	<polygon class="st2" points="126.94,223.66 113.06,228 106.99,248.82 120.43,248.82 	"/>
	<polygon class="st4" points="152.96,248.82 120.43,248.82 126.94,223.66 	"/>
	<polygon class="st1" points="152.96,248.82 139.52,283.46 120.43,248.82 	"/>
	<polygon class="st2" points="173.78,248.82 152.96,248.82 139.52,283.46 201.76,283.46 	"/>
	<polygon class="st1" points="220.63,248.82 173.78,248.82 201.76,283.46 	"/>
	<polygon class="st3" points="222.8,314.75 250.12,283.46 220.63,248.82 201.76,283.46 	"/>
	<polygon class="st4" points="247.08,361.59 268.4,336.87 268.4,295.58 250.12,283.46 222.8,314.75 	"/>
	<polygon class="st2" points="281.35,347.06 268.4,336.87 268.4,295.58 285.25,321.32 	"/>
	<polygon class="st3" points="296.96,290.02 285.25,321.32 268.4,295.58 	"/>
	<polygon class="st2" points="250.12,283.46 280.05,274.84 296.96,290.02 268.4,295.58 	"/>
	<polygon class="st1" points="296.96,290.02 306.94,263.13 280.05,274.84 	"/>
	<polygon class="st3" points="296.96,290.02 320.82,266.14 306.94,263.13 	"/>
	<polygon class="st2" points="280.05,274.84 247.08,248.82 322.99,248.82 320.82,266.14 306.94,263.13 	"/>
	<polygon class="st2" points="131.28,210.65 126.94,223.66 152.96,248.82 161.86,206.31 	"/>
	<polygon class="st1" points="161.86,206.31 152.96,248.82 173.78,248.82 	"/>
	<polygon class="st5" points="161.86,206.31 206.75,221.06 173.78,248.82 	"/>
	<polygon class="st3" points="173.78,248.82 220.63,248.82 206.75,221.06 	"/>
	<polygon class="st2" points="220.63,248.82 229.73,231.9 211.95,196.77 206.75,221.06 	"/>
	<polygon class="st3" points="229.73,231.9 253.59,231.9 247.08,248.82 220.63,248.82 	"/>
	<polygon class="st4" points="253.59,231.9 247.08,248.82 276.83,248.82 	"/>
	<rect x="276.83" y="240.36" class="st4" width="32.06" height="8.46"/>
	<polygon class="st1" points="250.34,214.55 268.18,214.55 276.83,240.36 276.83,248.82 253.59,231.9 	"/>
	<polygon class="st2" points="229.73,231.9 253.59,231.9 250.34,214.55 241.66,196.77 	"/>
	<polygon class="st5" points="241.66,196.77 268.18,214.55 250.34,214.55 	"/>
	<polygon class="st5" points="211.95,196.77 229.73,231.9 241.66,196.77 226.81,165.98 	"/>
	<polygon class="st5" points="226.81,165.98 188.96,174.22 211.95,196.77 	"/>
	<polygon class="st2" points="188.96,174.22 188.96,149.06 226.81,165.98 	"/>
	<polygon class="st1" points="188.96,174.22 170.64,178.55 206.75,221.06 211.95,196.77 	"/>
	<polygon class="st2" points="170.64,178.55 161.86,206.31 206.75,221.06 	"/>
	<polygon class="st4" points="161.86,206.31 173.78,248.82 206.75,221.06 	"/>
	<polygon class="st4" points="226.81,165.98 211.95,196.77 229.73,231.9 241.66,196.77 	"/>
	<polygon class="st3" points="211.95,196.77 188.96,174.22 226.81,165.98 	"/>
	<polygon class="st1" points="220.63,248.82 247.08,248.82 280.05,274.84 250.12,283.46 	"/>
	<path d="M310.61,304.34c-0.32-8.39,2.73-16.86,8.34-23.11c6.65,7.82,11.28,17.34,13.32,27.4c7.62,0.81,14.23,7.38,15.08,15
		c-3.34-3.34-8.94-4.15-13.09-1.88c2.76,8.42,0.79,17.55-0.43,26.33c-0.44,3.17-0.77,6.48,0.22,9.52c1.72,5.3,7.02,8.7,9.25,13.8
		c1.33,3.04,1.45,6.59,0.33,9.72c-0.56,1.58-1.48,3.1-2.9,3.99c-1.42,0.89-3.41,1-4.71-0.06c-0.64-0.52-1.11-1.3-1.9-1.57
		c-1.2-0.41-2.37,0.56-3.45,1.23c-2.58,1.61-6.52,1.35-8.09-1.26c-1.78-2.96,0.3-6.64,2.07-9.61c1.4-2.35,2.66-4.85,3.09-7.56
		c0.43-2.71-0.07-5.66-1.84-7.75c-0.91-1.07-2.1-1.86-3.13-2.81c-2.96-2.75-4.44-6.7-5.82-10.49c-2.01,3.65-3.36,7.66-3.98,11.78
		c-2.06-4.01-4.13-8.04-5.4-12.36c-1.27-4.32-1.7-8.99-0.46-13.32c0.64-2.22,1.7-4.3,2.27-6.54c0.57-2.24,0.57-4.78-0.78-6.66
		c-1.12,2.19-2.59,4.21-4.34,5.95c-0.49,0.48-1.13,0.98-1.79,0.8c-0.49-0.13-0.81-0.61-1.04-1.06c-1.74-3.42-1.04-7.68,0.88-11
		c1.92-3.32,4.89-5.88,7.87-8.3"/>
	<path class="st4" d="M324.33,308.25c-0.47,1.9-0.93,3.83-0.91,5.79c0.02,1.96,0.55,3.98,1.84,5.45c1.46-3.73,1.58-7.98,0.32-11.79
		c-0.15-0.45-0.68-0.98-0.98-0.61c-0.08,0.1-0.1,0.23-0.12,0.36c-0.06,0.48-0.13,0.96-0.19,1.44"/>
	<path class="st4" d="M319.3,280.91c-0.37,1.02-1.09,1.88-1.75,2.75c-3.88,5.08-6.38,11.21-7.21,17.54
		c-0.42,3.23-0.89,6.49-1.21,9.75c-0.11,1.1,0.46,10.18,0.13,10.39c5.32-3.34,9.65-8.34,11.93-14.19s2.46-12.56,0.24-18.44
		c-0.95-2.5-2.33-4.93-2.45-7.61"/>
	<g>
		<path class="st4" d="M327.05,361.17c-0.03-1.31-0.96-2.43-1.99-3.24c-1.03-0.81-2.22-1.43-3.12-2.38
			c-0.88-0.91-1.44-2.08-1.99-3.22c-0.87-1.81-2.63-4.21-2.8-6.22c-0.13-1.5,1.63-4.26,0.72-5.69c1.72,2.71,3.97,5.09,6.57,6.98
			c1.74,1.26,3.76,2.44,4.54,4.44c0.43,1.11,0.41,2.35,0.26,3.54c-0.27,2.09-0.92,4.13-1.91,5.99"/>
		<g>
			<path d="M327.68,361.17c-0.18-2.24-1.89-3.53-3.61-4.71c-1.11-0.76-2.02-1.57-2.7-2.74c-0.57-0.98-1.02-2.02-1.58-3.01
				c-0.97-1.72-2.39-3.68-1.84-5.74c0.41-1.54,1.3-3.31,0.47-4.85c-0.36,0.21-0.72,0.42-1.08,0.63c1.1,1.7,2.36,3.28,3.81,4.69
				c1.43,1.4,3.04,2.5,4.65,3.68c1.8,1.33,3.01,2.85,2.93,5.19c-0.08,2.34-0.84,4.68-1.92,6.75c-0.37,0.71,0.71,1.34,1.08,0.63
				c1.86-3.56,3.47-8.86,0.32-12.16c-1.46-1.52-3.39-2.53-4.98-3.9c-1.86-1.6-3.46-3.46-4.79-5.52c-0.44-0.67-1.46-0.08-1.08,0.63
				c0.74,1.38-0.65,3.44-0.79,4.87c-0.17,1.82,0.98,3.65,1.84,5.16c0.99,1.74,1.71,3.76,3.11,5.22c1.57,1.64,4.72,2.58,4.93,5.17
				C326.49,361.97,327.74,361.97,327.68,361.17L327.68,361.17z"/>
		</g>
	</g>
	<g>
		<path class="st4" d="M316.66,314.82c3,11.06,2.23,22.9-2.14,33.49c-0.12,0.3,0.36,0.43,0.48,0.13c4.4-10.67,5.15-22.62,2.14-33.75
			C317.06,314.37,316.58,314.5,316.66,314.82L316.66,314.82z"/>
	</g>
	<path d="M349.82,294.75c-5.25-6.14-10.4-13.29-10.16-21.37c0.05-1.74,0.37-3.49,1.16-5.04c2.31-4.53,8.36-6.2,13.22-4.71
		c4.86,1.49,8.6,5.44,11.28,9.76c1.15,1.86,2.16,3.82,3.57,5.49c1.41,1.67,3.31,3.06,5.49,3.29c2.23,0.24,4.39-0.75,6.59-1.23
		c1.55-0.34,3.16-0.42,4.73-0.24c0.98,0.11,2.1,0.44,2.44,1.37c0.37,0.99-0.42,2.07-1.34,2.58c-0.93,0.51-2.01,0.69-2.92,1.24
		c-2.17,1.3-2.68,4.41-1.72,6.74c0.97,2.34,3.04,4.02,5.17,5.37c5.29,3.36,11.46,5.31,17.72,5.6c2.29,0.11,5.17-0.43,5.76-2.65
		c0.56-2.09-1.35-3.93-2.98-5.35c-3.44-3-6.43-6.5-8.86-10.37c-0.53-0.84-0.92-2.15-0.06-2.63c1.01-0.56,1.88,0.86,2.66,1.7
		c1.6,1.72,4.4,1.26,6.63,0.5c2.23-0.75,4.79-1.63,6.79-0.41c0.97,0.6,1.64,1.61,2.62,2.2c1.68,1,3.8,0.5,5.75,0.44
		c1.95-0.05,4.37,0.87,4.46,2.82c0.08,1.64-1.57,2.81-3.1,3.42c-1.53,0.6-3.3,1.09-4.14,2.5c-0.44,0.73-0.55,1.62-0.96,2.37
		c-1.09,2.01-3.86,2.43-5.36,4.16c-0.63,0.74-0.99,1.66-1.42,2.53c-2.79,5.76-8.85,9.72-15.23,10.22c-1.87,0.15-3.74,0.02-5.61-0.11
		c-3.32-0.23-6.63-0.45-9.95-0.68c-2.89-0.2-5.86-0.41-8.51-1.59c-1.75-0.78-3.3-1.95-4.95-2.92c-2.83-1.67-5.96-2.75-9.07-3.81
		c-0.28-0.1-0.57-0.19-0.86-0.13c-0.96,0.2-0.78,1.59-0.64,2.56c0.52,3.47-2.47,6.37-5.19,8.6c-0.24,0.2-0.53,0.4-0.83,0.32
		c-0.13-0.04-0.24-0.12-0.34-0.21c-3.09-2.64-4.45-6.87-4.48-10.94c-0.04-4.06,1.08-8.04,2.19-11.95"/>
	<path class="st4" d="M352.07,275.88c-0.78,0.15-1.29,0.98-1.32,1.77c-0.03,0.8,0.31,1.56,0.69,2.26c0.74,1.37,1.67,2.64,2.74,3.76
		c0.1,0.1,0.23,0.22,0.37,0.18c0.15-0.04,0.2-0.23,0.23-0.38c0.18-1.17,0.35-2.35,0.24-3.52c-0.11-1.18-0.53-2.36-1.38-3.18
		c-0.4-0.38-0.88-0.67-1.21-1.11"/>
	<path class="st4" d="M345.79,291.56c0-1.5-1.12-2.73-1.97-3.97c-1.1-1.59-1.83-3.39-2.52-5.19c-0.66-1.74-1.3-3.5-1.59-5.34
		c-0.52-3.22,0.08-6.59,1.63-9.45c0.92-1.71,1.56-2.2,3.19-0.86c0.99,0.81,1.69,1.99,2.08,3.19c0.62,1.87,0.6,3.88,0.55,5.85
		c-0.14,5.27-0.53,10.54-1.16,15.77"/>
	<path class="st4" d="M381.3,313.3c-2,1-4.43,0.63-6.47-0.28c-2.04-0.91-3.82-2.3-5.75-3.43c-1.6-0.93-3.29-1.66-5.02-2.31
		c-1.2-0.45-3.93-0.75-4.81-1.66c-0.92-0.94-0.74-3.47-0.91-4.73c-0.24-1.82-0.48-3.64-0.72-5.45c-0.03-0.2-0.03-0.46,0.15-0.56
		c0.09-0.05,0.19-0.04,0.28-0.03c2.45,0.28,4.31,2.49,5.05,4.85c0.28,0.91,0.44,1.87,0.87,2.73c0.88,1.73,2.72,2.75,4.53,3.45
		c1.81,0.7,3.74,1.22,5.28,2.4c1.23,0.95,2.13,2.26,3.28,3.3s2.73,1.84,4.22,1.41"/>
	<path class="st4" d="M278.84,239.96c-0.61-1.22-1.14-2.47-1.58-3.76c-0.08-0.22-0.15-0.46-0.12-0.69c0.06-0.4,0.4-0.68,0.73-0.91
		c0.99-0.7,2.1-1.37,2.6-2.47c0.57-1.27,0.17-2.75,0.29-4.14c0.23-2.5,2.21-4.54,4.43-5.71c1.36-0.71,3-1.18,4.41-0.59
		c1.54,0.65,2.54,2.45,4.21,2.61c0.84,0.08,1.64-0.29,2.44-0.54c1.92-0.6,4.23-0.41,5.66,1.01c1.05,1.04,1.67,2.72,3.12,3
		c0.58,0.11,1.21-0.03,1.74,0.23c0.76,0.37,0.93,1.37,1,2.22c0.18,2.12,0.35,4.25,0.53,6.37c-2.22,0.07-3.59-2.52-5.72-3.15
		c1,0.59,1.69,1.68,1.8,2.84c0.09,0.94-0.14,2.02,0.5,2.71c0.17,0.18,0.38,0.32,0.49,0.54c0.25,0.54-0.33,1.11-0.89,1.3
		c-0.65,0.23-1.36,0.25-2.02,0.06c-1-2.51-2.35-4.87-3.98-7.02c-1.15,1.08-2.3,2.16-3.45,3.24c-0.23,0.22-0.47,0.45-0.57,0.75
		c-0.24,0.74,0.44,1.63,0,2.27c-1.1,0.19-2.19,0.37-3.29,0.56c-0.08-2.2-0.16-4.39-0.24-6.59c-0.77-0.15-1.59-0.05-2.3,0.3
		c0.24,0.9-0.08,1.84-0.21,2.76s0.04,2.04,0.86,2.47c-1.52,0.23-3.06,0.34-4.59,0.34c-0.1-1.37-0.19-2.73-0.29-4.1
		c-0.64-0.37-1.36,0.31-1.84,0.88c-0.44,0.53-1.05,1.07-1.73,0.93c0.03,0.72-0.01,1.44-0.12,2.15c-0.61-0.05-1.23,0.1-1.76,0.41"/>
</g>
</svg>
