<svg id="Layer_1" data-name="Layer 1" xmlns="http://www.w3.org/2000/svg" viewBox="0 0 566.93 566.98"><defs><style>.cls-1{fill:#9cd2e7;}.cls-2{fill:#219ebc;}.cls-3{fill:#fff;}.cls-4{fill:none;stroke-miterlimit:10;}.cls-4,.cls-5{stroke:#000;stroke-linecap:round;stroke-width:2px;}.cls-5{stroke-linejoin:round;}.cls-6{fill:#fcc533;}.cls-7{fill:#ffc533;}.cls-13,.cls-8{isolation:isolate;}.cls-8{font-size:12px;font-family:Futura-Bold, Futura;font-weight:700;}.cls-9{letter-spacing:0.01em;}.cls-10{letter-spacing:0.02em;}.cls-11{letter-spacing:0.02em;}.cls-12{letter-spacing:-0.01em;}.cls-14{letter-spacing:0.01em;}.cls-15{letter-spacing:0.01em;}.cls-16{letter-spacing:-0.02em;}.cls-17{letter-spacing:0em;}.cls-18{letter-spacing:0em;}.cls-19{letter-spacing:0.03em;}.cls-20{letter-spacing:0em;}</style></defs><path class="cls-1" d="M311.57,556.69a10.24,10.24,0,0,1-10.25,10.24H180a10.25,10.25,0,0,1,0-20.49H301.32A10.25,10.25,0,0,1,311.57,556.69Z" transform="translate(0 0.01)"/><path class="cls-1" d="M377.89,531.34a15.09,15.09,0,0,1-15.1,15.1H120a15.11,15.11,0,1,1,0-30.21H362.79A15.1,15.1,0,0,1,377.89,531.34Z" transform="translate(0 0.01)"/><path class="cls-1" d="M417.83,498.76a17.48,17.48,0,0,1-17.47,17.47H92.12a17.47,17.47,0,1,1,0-34.93H400.36A17.47,17.47,0,0,1,417.83,498.76Z" transform="translate(0 0.01)"/><path class="cls-1" d="M464.92,454.07a27.23,27.23,0,0,1-27.23,27.23H62.62a27.23,27.23,0,1,1,0-54.46H437.69a27.23,27.23,0,0,1,27.23,27.23Z" transform="translate(0 0.01)"/><path class="cls-1" d="M500,408.12a18.72,18.72,0,0,1-18.72,18.72h-420a18.72,18.72,0,0,1,0-37.44h420a18.66,18.66,0,0,1,13.24,5.48A18.83,18.83,0,0,1,500,407.43v0C500,407.67,500,407.9,500,408.12Z" transform="translate(0 0.01)"/><path class="cls-1" d="M499.25,380q0,.35,0,.69t-.09.81a4.7,4.7,0,0,1-.13.63,1.42,1.42,0,0,1-.05.22c-.05.19-.1.37-.16.55a5.89,5.89,0,0,1-.21.59c-.1.25-.21.49-.33.73a6.55,6.55,0,0,1-.32.58l0,.09c-.12.19-.24.37-.37.55a9.3,9.3,0,0,1-.9,1.09l-.43.42-.16.14c-.15.13-.3.26-.45.37s-.38.28-.58.41a8.13,8.13,0,0,1-1.08.61,2.07,2.07,0,0,1-.34.15,4.89,4.89,0,0,1-.48.2h0c-.22.08-.44.15-.67.21a.79.79,0,0,1-.22.06,6.21,6.21,0,0,1-.62.14l-.12,0c-.21,0-.43.07-.65.09h-.13a7.56,7.56,0,0,1-.83,0H33.2a9.39,9.39,0,0,1-6.65-2.75,9.41,9.41,0,0,1,6.65-16.07H489.84a9.39,9.39,0,0,1,9.41,9.41Z" transform="translate(0 0.01)"/><path class="cls-1" d="M513.35,355.65a14.93,14.93,0,0,1-14.93,14.93H50.34a14.93,14.93,0,1,1,0-29.85H498.42a14.21,14.21,0,0,1,2.37.19,14.92,14.92,0,0,1,12.56,14.73Z" transform="translate(0 0.01)"/><path class="cls-1" d="M541.83,321.25a19.36,19.36,0,0,1-19.36,19.35H54.76a17.57,17.57,0,0,1-2.42-.16h0a18.75,18.75,0,0,1-3.45-.76A17.15,17.15,0,0,1,47,339l-.58-.26c-.27-.12-.52-.25-.78-.39l-.75-.42a19.34,19.34,0,0,1-9.5-16.66c0-.28,0-.55,0-.82v0a.76.76,0,0,1,0-.15,19.33,19.33,0,0,1,4.88-11.88c.12-.14.24-.28.37-.41l.39-.4a18.24,18.24,0,0,1,2.11-1.82l.31-.22a18.48,18.48,0,0,1,2.87-1.72A19.2,19.2,0,0,1,52,302.09a19.53,19.53,0,0,1,2.77-.2H522.47a19.35,19.35,0,0,1,19.36,19.36Z" transform="translate(0 0.01)"/><path class="cls-1" d="M566.93,276.22a25.62,25.62,0,0,1-25.67,25.67h-514a25.5,25.5,0,0,1-17.84-7.23c-.11-.09-.21-.19-.31-.29a25.66,25.66,0,0,1,18.15-43.81h514a25.62,25.62,0,0,1,25.67,25.66Z" transform="translate(0 0.01)"/><path class="cls-1" d="M566.93,225.12A25.75,25.75,0,0,1,548,250a21.77,21.77,0,0,1-2.8.6,25,25,0,0,1-4,.31H25.76a25,25,0,0,1-4-.31,25.75,25.75,0,0,1,4-51.2H541.17a25.74,25.74,0,0,1,25.76,25.76Z" transform="translate(0 0.01)"/><path class="cls-1" d="M558.3,175.44a23.91,23.91,0,0,1-18.62,23.32,23.15,23.15,0,0,1-5.3.6H24a23.92,23.92,0,0,1,0-47.84H534.38a23.93,23.93,0,0,1,23.92,23.92Z" transform="translate(0 0.01)"/><path class="cls-1" d="M550,126.53a25,25,0,0,1-25,25H25.06a25,25,0,0,1-25-24.83v-.32a25,25,0,0,1,25-24.83H525a25,25,0,0,1,25,25Z" transform="translate(0 0.01)"/><path class="cls-1" d="M541.83,78.53a23,23,0,0,1-23,23h-482a23,23,0,1,1,0-46h482A23,23,0,0,1,541.83,78.53Z" transform="translate(0 0.01)"/><path class="cls-1" d="M566.93,27.8a27.72,27.72,0,0,1-27.71,27.71H27.78A27.72,27.72,0,0,1,.07,27.85v-.1A27.72,27.72,0,0,1,27.78.08H539.22A27.72,27.72,0,0,1,566.93,27.8Z" transform="translate(0 0.01)"/><path class="cls-2" d="M547.63,251.36c-3.8,16.2-11.91,33.38-21.84,50.53l-.15.26q-1.47,2.53-3,5.05c-6.78,11.29-14.23,22.52-21.65,33.4l-.22.32c-7,10.29-14,20.26-20.38,29.66-4.1,6.06-7.93,11.9-11.33,17.42-8.53,13.83-14.4,25.78-15.08,34.8-.56,7.52-7,15.31-17.33,23s-24.87,15.34-41.35,22.39c-28.95,12.41-64.18,23.12-95,29.88-28.12,6.15-52.59,9-65.34,6.9-34.31-5.72-118.66-80.57-161.81-134.37-8.92-11.11-16.08-21.33-20.67-29.85l-.07-.13-.08-.16c-.72-1.32-1.36-2.6-1.94-3.84-4.06-8.67-1.55-17-4.25-27-.47-1.73,4.32-5.1,5.86-7.47a2,2,0,0,0,.44-1.46c-3.18-13.27-19.15-26.11-20.65-40.44q-.51-4.8-.91-9.63c-2.54-30.24-2.29-60.88-1.79-86.36C30.1,112.48,67.63,80,94,45.55S238,18.17,274.5,19.18s146,59.83,173.41,97.35,67.95,29.41,97.36,93.3C551,222.31,551.15,236.41,547.63,251.36Z" transform="translate(0 0.01)"/><path class="cls-3" d="M75.84,172.71s-25-9.36-14.36-18.1S80.21,144,84,139s5.62-17.48,17.48-18.73S132,121.52,152,112.78s25.59-39.95,40.57-45.57,42.45-9.36,53.68-3.75S275,66,283.69,69.08s10,8.11,20,11.24,17.48,3.75,20.6,5-3.12,6.87,5.62,14.36,15.61,13.11,20,22.47,7.49,19.35,16.23,24.34,16.23,10,10,18.73-32.46,20-35.58,35.58-.62,36.83-8.11,43.07-18.73-3.12-29.34,5-23.1,18.73-30,28.09-32.46,14.36-45.57,22.47-25,19.35-36.21,28.09-30,6.87-37.45,9.36-13.11,1.25-16.23-6.24-10-8.12-13.73-11.86-6.24-5.62-2.5-10.61.62-10-8.11-8.74-13.11-1.25-13.11-12.48,4.37-17.48,3.75-23.72-6.87-7.49-8.11-11.24,2.5-8.74-3.75-13.11-10.61.62-16.23-3.12-10.61-6.24-8.74-16.85S64,207,65.24,198.29s-.62-10.61,4.37-15A21.1,21.1,0,0,0,75.84,172.71Z" transform="translate(0 0.01)"/><path class="cls-4" d="M162.65,133.85S177,133.23,197,142s38.7,23.72,49.31,47.44,6.87,53.68,6.87,53.68" transform="translate(0 0.01)"/><polygon class="cls-5" points="245.96 246.49 258.31 248.41 250.35 255.27 245.96 246.49"/><path class="cls-4" d="M75.88,275s-7.72-12.12-10.14-33.79,1.19-45.38,16.43-66.43S125.23,142,125.23,142" transform="translate(0 0.01)"/><polygon class="cls-5" points="126.49 147.72 121.98 136.06 131.9 139.52 126.49 147.72"/><path class="cls-4" d="M237.13,279.31s-6.64,12.75-24.19,25.68-39.89,21.66-65.74,19-49.92-20.9-49.92-20.9" transform="translate(0 0.01)"/><polygon class="cls-5" points="101.58 299.15 93.74 308.88 91.78 298.56 101.58 299.15"/><path class="cls-4" d="M177.19,265.27s-7.08,6.8-27.76,7.65-26.06-4.82-32.57-8.5" transform="translate(0 0.01)"/><polygon class="cls-5" points="113.26 266.64 119.18 260.02 110.96 257.81 113.26 266.64"/><path class="cls-4" d="M198.13,188.43s6.8,7.08,7.65,27.76-4.82,26.06-8.5,32.57" transform="translate(0 0.01)"/><polygon class="cls-5" points="199.49 252.37 192.87 246.45 190.66 254.68 199.49 252.37"/><path class="cls-4" d="M104.9,221.51s3-21,20.44-32.12,25-8.86,32.46-8.93" transform="translate(0 0.01)"/><polygon class="cls-5" points="159.81 176.77 158 185.46 166.22 183.26 159.81 176.77"/><line class="cls-4" x1="178.36" y1="55.52" x2="263.19" y2="97.51"/><polygon class="cls-5" points="265.31 94.3 261.01 101.46 268.93 101.55 265.31 94.3"/><line class="cls-4" x1="279.96" y1="105.51" x2="364.79" y2="147.49"/><line class="cls-4" x1="392.1" y1="162.01" x2="476.92" y2="204"/><path class="cls-6" d="M499.49,403.92a18.32,18.32,0,0,1,.47,3.51A9.8,9.8,0,0,1,499.49,403.92Z" transform="translate(0 0.01)"/><path class="cls-6" d="M528.27,326.25c-3.35,5.78-8.52-2.43-7.3,4.56.55,3.13.6,6.57.91,9.79H501l-.22.32a14.92,14.92,0,0,1-2.37,29.66h-8.58a9.39,9.39,0,0,1,9.41,9.41q0,.35,0,.69t-.09.81a4.7,4.7,0,0,1-.13.63,1.42,1.42,0,0,1-.05.22c-.05.19-.1.37-.16.55a5.89,5.89,0,0,1-.21.59c-.1.25-.21.49-.33.73a6.55,6.55,0,0,1-.32.58l0,.09c-.12.19-.24.37-.37.55a9.3,9.3,0,0,1-.9,1.09l-.43.42-.16.14c-.15.13-.3.26-.45.37s-.38.28-.58.41a8.13,8.13,0,0,1-1.08.61,2.07,2.07,0,0,1-.34.15,4.89,4.89,0,0,1-.48.2h0c-.22.08-.44.15-.67.21a.79.79,0,0,1-.22.06,6.21,6.21,0,0,1-.62.14l-.12,0c-.21,0-.43.07-.65.09h-.13a7.56,7.56,0,0,1-.83,0h-8.59a18.66,18.66,0,0,1,13.24,5.48,18.35,18.35,0,0,1,1.9,2.23c-.46,1.9,3.22,6.17-4,6.41-9.13.3-9.74-7.61-14.61-9.43-2-.75-4.51-2.63-7-4.69l-.69-.58c-.33-.27-.66-.54-1-.82-3-2.53-5.79-5-7.46-5.78-2.47-1.12-5.27-6.71-6.45-11.64a17.56,17.56,0,0,1-.55-4.79c.3-5.17,2.74-7.3-.61-13.08s-3-5.78-7.91-4-6.09,4-3.65,6.69,7.61,5.17,3,5.78-8.52,3-10.65-1.52-5.48-13.69-2.13-14.61,7-4.56,3-4.26a3.58,3.58,0,0,1-1.05-.1,4.77,4.77,0,0,1-.47-.13c-4.34-1.39-11.36-8.35-12.17-6.46-.49,1.16,1.61,3.93,2.81,6.46l.06.13c1,2.08,1.28,4-1,4.67-3.22,1-5.15-1.89-6.95-4.67l-.09-.13c-1.06-1.64-2.08-3.24-3.31-4-3.35-2.13-13.08-7-15.82-9.74s-11-10.35-14.61-11.56-8.52-4-14.91-1.52-10.35,8.82-10.95,10.95-7.61,3-9.13.61,1.83-8.52-3-7.61-11.87-2.13-7-4.56,13.69-3,8.52-4.87-13.69,4-15.82-.61a11.29,11.29,0,0,1-1.08-5.78,15.64,15.64,0,0,1,3.82-8.52c4-4.87,7.61-11.56,5.17-14.3s-6.39,2.13-7-1.52-3.65-7-1.22-14,.91-6.09,4-12.78,4.87.61,7.3-4,7,.3,2.13-6.39-4-6.09.3-7,.3-5.17-2.13-7.61-1.52-1.22-1.22-7.3-.3-13.69,5.78-17.34,7,.3,10-3,3.65-.61,6.09,3,6.39,7.3,5.48,2.13-4-6.09-.61-7.3,2.43.91,4.26,3.65,2.43,3,2.13-3-4.26-8.52-.3-10.65,6.09.93,6.09.93,17,15.82,26.17,19.17,29.51,2.13,39.56,3.35,18.87,5.48,17.95,10-2.74,7.91,3.65,8.22,17.34,4.56,18.26,7.61,6.69,3.65,12.78,3.35,8.52,3,4.26,8.22-8.22-1.22-13.08,3.65-7,8.82-3.35,10,9.13,9.43,13.69,6.39.61-8.82,4.26-12.48,4.56-14.91,8.22-7.91,7,14.61,8.22,21.6-.3,20.69-4.87,22.21,0,4.86,4,11.54c0,0,0,0,0,0,.91,1.54,2,3.34,3.21,5.29C526.57,313.73,530.85,321.8,528.27,326.25Z" transform="translate(0 0.01)"/><path class="cls-6" d="M303.06,248.86c4.33-.93,16.13-4.75,19.31-3.16a11.54,11.54,0,0,1,5.42,13.39c-1.91,6.69.32,16.89-1,22s-6.69,13.39-8.29,16.89,2.55.32,4.46,5.42.32,3.19-1,10.2-1.59,11.16.64,14.66.32,6.38-3.83,7.65-7.65-1-10.52,0-1.28-1.59-7.33,0-11.16,4.78-10.2,0,5.1-3.51,4.46-7-4.46-4.46-1.59-7.65,6.06,3.51,7.65,0-.32-4.14-3.19-7.33-7.33-6.69-2.87-8.61,6.38-1.28,3.19-5.42-4.14-2.87-3.83-6.69S287,283,284.74,280.45s-6.06-4.78-3.83-8,8-5.42,10.52-8.61,6.06-4.46,7.65-8.93S303.06,248.86,303.06,248.86Z" transform="translate(0 0.01)"/><path class="cls-6" d="M278.06,277.58c3.17.86,5.1,6.06,7.65,8.93s4.14,1.59,6.06,6.06,6.38,10.52,3.51,12.75-6.06,13.07-10.52,9.88-9.88-7-7-9.88,0-1.28-2.55-5.1-3.51-8-2.55-10.52-1.59-8,.32-9.24S274.55,276.63,278.06,277.58Z" transform="translate(0 0.01)"/><path class="cls-6" d="M267,293.18c1,2.34,2.78,5,.44,6.13s-2.19.29-3.07-2.34-3.65-2.92-1.75-4.82,2.34-1.61,3.36-.29Z" transform="translate(0 0.01)"/><path class="cls-6" d="M271.51,311.73c1.31,1.75,4.24,2.19,3.51,6s-4.38,8.33-5.7,4.53-1.31-7-2.34-9.06-1.17-5.11.15-4.67S271.51,311.73,271.51,311.73Z" transform="translate(0 0.01)"/><path class="cls-6" d="M284.51,323.41c-1.66,2.93,2.48,7,3.51,4.82S287,319,284.51,323.41Z" transform="translate(0 0.01)"/><path class="cls-6" d="M278.37,323.85c.87,2.91-3.65,3.07-5.4,2s-1-3.51,1.61-3.07S277.5,320.93,278.37,323.85Z" transform="translate(0 0.01)"/><path class="cls-6" d="M279,334.8c3.39,1.7,5.84-1.9,6.72,2.19s-1.31,4.67,2,5.84,3.8-.15,5.84,2,5.7,2.48,8.62,1.9,1.9-4.24,5.84-5,6.57-2.19,10.22-.15,4.67.15,5.26,4.82,1.75,7.59-1.9,8.76-2.78,3.51-5.4,3.36-1.75-4.24-4.09-2.78a30.28,30.28,0,0,1-7.89,3.8c-2.78.73-5.84,4.53-7.89,2.63s1.46-5.84-2-3.65-3.8,1.9-7.89,1.31-4.09-1-3.65-5.4,3.51-3.36.88-7,.29-5-3.51-5.4-6.28,2-7.45-.58-.58-3.21-2.63-3.94-4.38-1.9-1-3.94,3.8-2.63,7.16-1.61S277.21,333.93,279,334.8Z" transform="translate(0 0.01)"/><path class="cls-6" d="M276.77,349.7c4.77,3.18,5.4,8.47,2.19,10.08s-3.65,1.46-5.4-.58-2.78,0-3.65-2.78-.29-1.9,1.75-3.94S273.7,347.66,276.77,349.7Z" transform="translate(0 0.01)"/><path class="cls-6" d="M267.86,343.42c1.28,4.53,1.31,12.27-3.8,13s-7-1.17-8.76-4.53-2.34-1.31-5.11-4.24-.44-6-1.9-9.06-5.7-5.55-.58-5,5.4,5.4,7.45,3.36-.44-5,3.51-3.65S266.25,337.72,267.86,343.42Z" transform="translate(0 0.01)"/><path class="cls-6" d="M251.79,299.75c5.68-1.62,16.8,18.11,12.56,21s-1.46-.58-6.13-3.51-10.52-4.82-8-6.43,5.55-.44,3.36-2.78S247.7,300.92,251.79,299.75Z" transform="translate(0 0.01)"/><path class="cls-6" d="M247.85,320.64c4.32,1.9,5,10.52,1.31,8.91S242.88,318.44,247.85,320.64Z" transform="translate(0 0.01)"/><path class="cls-6" d="M236.31,304.13c5.07-.36,4.67,9.93-2.19,6.72S224,305,236.31,304.13Z" transform="translate(0 0.01)"/><path class="cls-6" d="M232.51,312c3.12,2.08,11,1.61,5.55,3.65s-1,5-5.84,5.4-5,0-6.28-3.21-5.7-2-2.92-5.26S229,309.68,232.51,312Z" transform="translate(0 0.01)"/><path class="cls-6" d="M219.81,315.52c.07,2.84-.29,9.06-4.53,9.93s-3.51-2.34-6.13-1.17-1,2-5.4,3.65-6.72,2.48-7.16-.58,2.63-4.09,3.94-5.55,5.7-7.16,7.89-7.45S219.66,309.39,219.81,315.52Z" transform="translate(0 0.01)"/><path class="cls-6" d="M220.1,332c.15,3.07,5.84-.58,5,5.4s1.31,9.2-2.92,9.2-3.21-5.55-6.57-5.26-2.92,4.53-5.7,2.78-5.55-2.34-4.38-6,5-1.17,5.7-3.94,2.19-7.3,4.67-7.3S220,329.11,220.1,332Z" transform="translate(0 0.01)"/><path class="cls-6" d="M204.62,331.74c1.66,2.11.44,4.67-2.34,3.51S202.43,329,204.62,331.74Z" transform="translate(0 0.01)"/><path class="cls-6" d="M233.83,327.5c4.32.36.58,3.36,1.75,8.91s3.07,9.79,3.51,7.59-1.31-5.7,1.17-6c3.39-.4,3.21,2.78,2.48,6.57s-.44,7.89-6.13,7.59a57.48,57.48,0,0,0-15.34,1c-4.82,1-8.62.58-8.62-1.75s-.88-3.8,3.51-4.24,8.91-.29,10.22-2.34S230.32,327.21,233.83,327.5Z" transform="translate(0 0.01)"/><path class="cls-6" d="M264.12,366.62c2.46,4.25-1.08,9.27-1.51,12.07s4.74,2.16,5.6,4.1-2.37,12.93-3.45,14.87-1.08-5.39-3.66-3,0,10.56-2.8,8.62-3.88-11.64-5.6-13.15-10.78-3-8.41-6.68,7.76-2.16,8.62-4.1-2.8-4.31-1.29-6.47S261.75,362.52,264.12,366.62Z" transform="translate(0 0.01)"/><path class="cls-6" d="M279.64,366.19c3.14,0,13.58-1.51,12.72,1.51s-4.1,5.39-4.74,9.48-1.72,7.33-4.31,6.47-.43,3-2.8,5.17-5.39,3.88-6.25-.65A106.92,106.92,0,0,1,273,373.3C273,370.71,276.41,366.19,279.64,366.19Z" transform="translate(0 0.01)"/><path class="cls-6" d="M337.41,365.11c2.14.82,8.84,4.1,7.11,5.82s-5.17.22-7.54,1.08-3.23,4.1-5.82,3.23-3.66-4.74-1.29-9.27S332.88,363.39,337.41,365.11Z" transform="translate(0 0.01)"/><path class="cls-6" d="M323.18,369.21c3.48,4.14,3.45,7.11,5.17,11.42s7.33-3.88,10.35-4.74,7.76-4.31,10.13-1.72,3,6.68,7.33,6.68,9-3.88,12.5-1.08,1.94,2.16,5,4.74,6.68,1.08,9.48,2.16,18.11,8,15.95,10.56-7.54,5.39-4.74,8.19,1.94-3,4.74-.65,1.51,4.74,5.17,5.17,8.41-3.88,11.64-2.8,6,3.88,10.35,3.45,10.13-3,11,.65-2.59,4.74-1.72,7.11,5.17,3.45,3.45,5.17-7.54,1.29-5.39,4.74,8.84,9.27,4.74,8.19-23.93-10.35-23.71-6,17.24,11.21,20.91,14.44,9,3.88,8.19,7.76-1.72,5.17,1.08,7.11,8.84,5.39,4.31,6.68-22.63-6.25-23.71-2.16,8.41,4.74,12.5,5.82,9.48-1.72,12.07,1.94,1.08,5.6-4.53,5.39-19-.22-22,1.72-4.31,4.53-15.09-1.94-13.58-12.29-20.48-9.48-11.42,10.56-17.24,7.54-14-6.47-7.33-11.42,20.48-5.17,20.05-11.21,5.39-23.93-1.29-27.38-22.2-6-26.08-8.62-7.54-9.7-10.56-6.47-4.53,5.39-8.19,3-9.48-3.88-12.29-1.08-4.53-3-8.19-.22-8.84,8.84-14,2.59-9.92-11-5.17-10.13,9.48,2.59,7.54-.43-8.62-.86-8.84-4.74-1.72-15.95.65-20.26,8.19-11.42,10.35-10.13-.43,7.76,0,11.86-.65,12.5,1.51,13.58,1.29,6.25,4.31,6.47,8.62-1.08,3.88-5.6-6.68-1.72-6-8.41S314.13,358.43,323.18,369.21Z" transform="translate(0 0.01)"/><path class="cls-6" d="M368.88,428.27c-1.11,5.34-6,16.17-8.62,3S370.18,422,368.88,428.27Z" transform="translate(0 0.01)"/><path class="cls-6" d="M.1,292c-.07-.09,0-.13,0-.13Z" transform="translate(0 0.01)"/><path class="cls-6" d="M281.6,567v0h0Z" transform="translate(0 0.01)"/><path class="cls-6" d="M339.12,449c-1,7.73-11.76,8.07-15.79,6.05s-3.69,4.36-4,8.06-.67,6-8.06,6.38-7.06,0-11.09,2,7.73,0,15.79,4c4.46,2.23,3.57,3.64,1.78,5.76-1.46,1.71-3.5,3.89-3.8,7.34-.67,7.73-10.08,2-13.1,6.05s-6.72-1.34-13.44-3-18.14-3.36-18.14,1.68c0,3.92,26.73.51,31.05,4.7,1.23,1.17.65,3-2.83,5.71S291,511,288.69,516.23c-3.95,9-6.13,20.39-7.11,30.21-.95,9.51-.78,17.54,0,20.49H180a10.25,10.25,0,0,1,0-20.49H120a15.11,15.11,0,1,1,0-30.21H92.12a17.47,17.47,0,1,1,0-34.93H62.62a27.23,27.23,0,1,1,0-54.46H61.23a18.72,18.72,0,0,1,0-37.44h-28a9.39,9.39,0,0,1-6.65-2.75,9.41,9.41,0,0,1,6.65-16.07H50.34a14.93,14.93,0,1,1,0-29.85h2.13l-.07-.13-.08-.16a18.75,18.75,0,0,1-3.45-.76,19.32,19.32,0,0,1-13.48-18.43c0-.26,0-.55,0-.85a.76.76,0,0,1,0-.15,23.05,23.05,0,0,1,4.88-11.88c.12-.14.24-.28.37-.41a13.36,13.36,0,0,1,2.81-2.44,11.26,11.26,0,0,1,5.17-1.81c-.74.06-1.51.09-2.3.09a106.16,106.16,0,0,1-19.15-1.91,25.5,25.5,0,0,1-17.84-7.23c7.08,1.09-1.39-6.23.54-12.64,2-6.72,6-20.49,12.09-28.22,4.3-5.49,6.39,1.06,9.77,6.39,1.38,2.18,3,4.15,5,5,7.06,3,6.72-4.37,25.87,11.42s5.71,13.44,11.42,18.48a12.88,12.88,0,0,1,4.07,6.77c1,3.85.83,8.31,1.64,13.39,1.34,8.4,6,14.45,14.44,20.83a11.2,11.2,0,0,1,3.48,4.49.69.69,0,0,1,.05.13c3.16,7.3.22,17.86,1.84,21.92,2,5,4,4,6.72.34s9.41,3.69,13.44,6.38a10.17,10.17,0,0,0,4.79,1.21c2.37.16,5.22,0,8.19,0h3a36.46,36.46,0,0,1,7.87.81c7,1.69,5.57,13.35,6.31,17.43a5.52,5.52,0,0,0,.14.58c.14.44.33.72.6.8,2.35.67,11.08,2.35,14.78,9.74s13.78,13.78,20.83,20.83c2.88,2.89,2.17,4.7.37,6.07-2.6,2-7.49,3-7.09,5,.67,3.36,22.17,2.7,26.2,3.7s.34,14.77,4.37,19.48,2.68-2.35,5.37-4.7-3-8.07-1.34-12.77,8.39-2,12.43-3,6,6.39,11.09,9.41,24.86,4,30.91,6.05-1.34,9.41,1.68,10.75,3-8.06,4.37-14.11,4.37-13.44,5.71-18.81c.09-.36.17-.69.23-1,.92-4.33-.5-4-4.26-3.7-4,.33-5.72-3.7-7.73-11.09s5-17.13,10.08-17.47,7.73,19.48,8.4,26.2c.39,3.94,1.48,4.76,2.93,6.06a13.22,13.22,0,0,1,3.45,4.69c3,6.38,2,4,5.71,1.68s2-4.37,6.38-1.68.34,6.38,0,10.08,2.35,5.71,6.38,9.07,2.69-5.71,4.37-8.06,2.69-9.74,4-13.77a4.29,4.29,0,0,0,.18-2c-.44-2.92-3.7-5.15-2.87-8.74,1-4.37,15.45,3.69,17.47,7.39a4.52,4.52,0,0,1,.5,1.35c.43,2.58-2.67,3.51-1.51,6.71C335.42,437.24,340.13,441.27,339.12,449Z" transform="translate(0 0.01)"/><path class="cls-7" d="M410.25,131c-3.8-6.51-5.44-15.08,0-12.15s10.05,3.77,14.24,0,14.24-12.15,5-11.31-23,5.86-21.36,1.68,13.4-9.63,6.7-11.31-11.73-1.26-13.4,4.61-.84,10.89-2.93,14.24-8.79,2.51-8.38,7.12,5-2.09,5.44,2.51-2.51,11.73,1.68,10.47S413.19,136,410.25,131Z" transform="translate(0 0.01)"/><path class="cls-7" d="M392.66,110.88c-1.74-3.83-5.86-8-10.05-6.28s-6.28,3.35-3.35,6.7,1.26,5.44,1.68,7.54.42,7.54,3.77,5S394.76,115.48,392.66,110.88Z" transform="translate(0 0.01)"/><path class="cls-7" d="M347.85,69c3,4.54,7.12,10.47-.42,11.31s-11.73,5.86-11.73,1.26,8.38-7.54,3.77-10-12.56-8.38-12.15-10.89.84-5,3.77-1.68S345.34,65.23,347.85,69Z" transform="translate(0 0.01)"/><path class="cls-7" d="M319.79,63.13c-2.44,2.05,2.93,20.1,8,14.24S327.75,56.43,319.79,63.13Z" transform="translate(0 0.01)"/><path class="cls-7" d="M260.32,41.77c3.12,6.87,5.86,19.27-1.26,20.94s-6.28-.42-10.05-8.38-5.44-1.26-6.7-4.61,3.77-8-1.26-8.79-1.26,4.19-6.7,3.35-12.56-.84-9.21-6.28,7.54-17.59,11.31-11.73,2.51,10.05,7.12,9.63S258.23,37.17,260.32,41.77Z" transform="translate(0 0.01)"/><path class="cls-7" d="M243.29,0c-8.38,1.26-14,5.35-14,13.31S222.21,28.8,218,23.77s-2.09-10-5.86-9.21-3.77,7.12-11.31,5.86S191.57,2.17,184,.07Z" transform="translate(0 0.01)"/><path class="cls-7" d="M17.37,200.76c-3.46,8.93-8.23,15.8-15.82,15.54A25.78,25.78,0,0,1,17.37,200.76Z" transform="translate(0 0.01)"/><polygon class="cls-7" points="0.08 151.53 0.08 199.98 0.07 151.53 0.08 151.53"/><path class="cls-7" d="M146.41,14.13c-8,4.19-13.82,10.89-18.85,3.35S113.32,2,107.88,5.33s6.28,10.47,0,13-7.54,9.63-11.73,11.31-7.54-.42-6.28,5.86,2,4.62,4.12,10.06h0c1.44,3.63,2.11,7.07.65,10a9.4,9.4,0,0,1-3.93,3.85c-2.33,1.33-4.85.28-7-1-3.31-1.9-5.79-4.26-5.54.54a14.59,14.59,0,0,0,1.15,4.73c2.22,5.38,6.19,9-.73,10.35a27.51,27.51,0,0,1-7.9,0c-7-.75-13.74-2.2-15.55,5-1.43,5.74-1.37,13.12-2.85,19h0a21.07,21.07,0,0,1-1.15,3.47,10.65,10.65,0,0,1-4.46,5.26,0,0,0,0,1,0,0,9.5,9.5,0,0,1-1.58.72c-9.63,3.35-14.24-7.54-18.43,1.68s3.77,13-2.93,20.52S4,144.39,14.92,147.32c4.33,1.17,8.64,2.44,11.79,4.2a12.57,12.57,0,0,1,3.09,2.3c2.34,2.48,2.65,5.76-.7,10.39l0,0c-4.09,5.7-6.37,21.64-10.91,34.4A23.92,23.92,0,0,1,24,151.52h1.06a25,25,0,0,1-25-24.83v-.32a25,25,0,0,1,25-24.83H36.78a23,23,0,1,1,0-46h-9A27.72,27.72,0,0,1,.07,27.85v-.1A27.72,27.72,0,0,1,27.78.08H.07l144.42,0v0C142.84,6.76,154.35,10,146.41,14.13Z" transform="translate(0 0.01)"/><path class="cls-7" d="M106.62,51c3.19,3.19-.84,14.66-7.54,12.56S102.85,47.22,106.62,51Z" transform="translate(0 0.01)"/><path class="cls-7" d="M132.58,58.94c4.44,5.33,2.09,8.38-2.09,12.15s-6.28,8.38-9.21,13-11.73,19.27-15.91,13.82-5.86-13,1.26-14.66,11.73-2.93,9.63-8-2.09-1.26,1.26-7.12S128.4,53.92,132.58,58.94Z" transform="translate(0 0.01)"/><path class="cls-7" d="M40,187.1c6.47-2.16,16.33,8,2.93,12.15S37.51,187.94,40,187.1Z" transform="translate(0 0.01)"/><path class="cls-7" d="M190,341.22c5.1,6.56,20.94,10.47,12.15,17.17s-15.5,6.7-20.94,14.24-9.63,13-14.24,4.61S156.88,363,164.42,358s8.38-15.5,13.82-18.43S187,337.45,190,341.22Z" transform="translate(0 0.01)"/><path class="cls-7" d="M214.67,374.31c4.4-4.4,6.28-4.19,7.12,3.77s2.51,21.78,2.93,13-4.19-26.8,1.68-20.1,9.63,7.54,10,15.5-4.19,12.56,1.26,16.75,13,10.47,10.89,15.91-8.38-3.35-6.28,2.51,6.7,10.47-2.93,8.79-8-5.44-14.24-7.54-2.51,0-11.31,1.68-15.5,2.51-20.52-2.09,3.77-7.12-4.61-10.89-15.5-5-8.38-8,16.75,5.86,19.27,2.51,2.09-7.12-3.35-10.05-8,.42-11.31-3.77,3.77-6.28,1.26-10.47-5-13,8-14.66S210.48,378.49,214.67,374.31Z" transform="translate(0 0.01)"/><text class="cls-8" transform="translate(208.48 111.48) rotate(26.09)">The <tspan class="cls-9" x="26.22" y="0">N</tspan><tspan x="37.25" y="0">o</tspan><tspan class="cls-10" x="45.65" y="0">r</tspan><tspan class="cls-11" x="51.47" y="0">t</tspan><tspan x="56.22" y="0">h </tspan><tspan class="cls-12" x="68.27" y="0">P</tspan><tspan x="76.22" y="0">ole</tspan></text><g class="cls-13"><text class="cls-8" transform="translate(141.01 211.59)">The </text><text class="cls-8" transform="translate(124.25 225.99)">Beau<tspan class="cls-14" x="32.51" y="0">f</tspan><tspan x="37.31" y="0">o</tspan><tspan class="cls-10" x="45.71" y="0">r</tspan><tspan x="51.53" y="0">t </tspan></text><text class="cls-8" transform="translate(138.04 240.39)">Gy<tspan class="cls-15" x="18.82" y="0">r</tspan><tspan x="24.48" y="0">e</tspan></text></g><text class="cls-8" transform="translate(249.74 80.01) rotate(26.09)"><tspan class="cls-16">T</tspan><tspan class="cls-15" x="6.16" y="0">r</tspan><tspan class="cls-17" x="11.82" y="0">anspolar d</tspan><tspan class="cls-18" x="81.26" y="0">r</tspan><tspan x="86.85" y="0">i</tspan><tspan class="cls-19" x="90.51" y="0">f</tspan><tspan x="95.53" y="0">t</tspan></text><text class="cls-8" transform="translate(384.45 294.3) rotate(-46.27)">G<tspan class="cls-15" x="10.56" y="0">r</tspan><tspan x="16.22" y="0">eenland</tspan></text><text class="cls-8" transform="translate(64.98 450.24) rotate(34.1)">Canada</text><text class="cls-8" transform="translate(22.23 45.66) rotate(-43.01)"><tspan class="cls-20">R</tspan><tspan x="8.45" y="0">ussia</tspan></text><polyline class="cls-5" points="370.53 151.53 366.91 144.28 362.61 151.45 370.53 151.53"/><polyline class="cls-5" points="482.67 208.03 479.04 200.79 474.75 207.95 482.67 208.03"/></svg>