<?xml version="1.0" encoding="utf-8"?>
<!-- Generator: Adobe Illustrator 24.2.3, SVG Export Plug-In . SVG Version: 6.00 Build 0)  -->
<svg version="1.1" id="Lag_1" xmlns="http://www.w3.org/2000/svg" xmlns:xlink="http://www.w3.org/1999/xlink" x="0px" y="0px"
	 viewBox="0 0 595.28 841.89" style="enable-background:new 0 0 595.28 841.89;" xml:space="preserve">
<style type="text/css">
	.st0{fill:#F59D39;}
	.st1{fill:#753D2B;}
	.st2{fill:#B06C48;}
	.st3{fill:#1B2746;}
	.st4{fill:#010202;}
	.st5{fill:#172037;}
	.st6{fill:#443F3F;}
	.st7{fill:#AE5C39;}
	.st8{fill:#EF7B0E;}
	.st9{fill:#FDC435;}
	.st10{fill:#E4E136;}
	.st11{fill:#A62253;}
	.st12{fill:#AF5C39;}
	.st13{fill:#F59D3A;}
	.st14{fill:#090A09;}
	.st15{fill:#B06C47;}
	.st16{fill:#FFFFFF;}
	.st17{fill:#FDC437;}
	.st18{fill:#0B0C0B;}
	.st19{fill:#F4BD0E;}
	.st20{fill:#FACF70;}
	.st21{fill:#26324C;}
</style>
<path class="st0" d="M407.98,163.67v116c0,10.66-4.31,20.32-11.27,27.32c-7.02,7.06-16.74,11.43-27.48,11.43h-142.5
	c-11.22,0-21.33-4.77-28.41-12.4c-6.41-6.91-10.34-16.17-10.34-26.35v-116c0-21.4,17.35-38.75,38.75-38.75h142.5
	C390.63,124.92,407.98,142.27,407.98,163.67z"/>
<path class="st1" d="M223.05,559.83L223.05,559.83c5.87,0,10.62-4.76,10.62-10.62v-15.44c0-5.87-4.76-10.62-10.62-10.62h0
	c-5.87,0-10.62,4.76-10.62,10.62v15.44C212.43,555.08,217.18,559.83,223.05,559.83z"/>
<path class="st1" d="M367.87,559.83L367.87,559.83c5.87,0,10.62-4.76,10.62-10.62v-15.44c0-5.87-4.76-10.62-10.62-10.62l0,0
	c-5.87,0-10.62,4.76-10.62,10.62v15.44C357.25,555.08,362,559.83,367.87,559.83z"/>
<path class="st2" d="M213.28,573.99L213.28,573.99c-5.4,0-9.79-4.38-9.79-9.79v-42.8c0-5.4,4.38-9.79,9.79-9.79h0
	c5.4,0,9.79,4.38,9.79,9.79v42.8C223.07,569.61,218.69,573.99,213.28,573.99z"/>
<path class="st2" d="M378.5,573.99L378.5,573.99c-5.4,0-9.79-4.38-9.79-9.79v-42.8c0-5.4,4.38-9.79,9.79-9.79h0
	c5.4,0,9.79,4.38,9.79,9.79v42.8C388.28,569.61,383.9,573.99,378.5,573.99z"/>
<path class="st2" d="M398.07,567.21L398.07,567.21c-5.4,0-9.79-4.38-9.79-9.79v-42.8c0-5.4,4.38-9.79,9.79-9.79h0
	c5.4,0,9.79,4.38,9.79,9.79v42.8C407.85,562.83,403.47,567.21,398.07,567.21z"/>
<path class="st2" d="M193.71,567.21L193.71,567.21c-5.4,0-9.79-4.38-9.79-9.79v-42.8c0-5.4,4.38-9.79,9.79-9.79h0
	c5.4,0,9.79,4.38,9.79,9.79v42.8C203.5,562.83,199.12,567.21,193.71,567.21z"/>
<circle class="st2" cx="193.1" cy="522.38" r="30.26"/>
<circle class="st2" cx="398.98" cy="522.38" r="30.26"/>
<path class="st3" d="M429.25,281.79v229.84h-60.54V228.82h7.57C405.53,228.82,429.25,252.54,429.25,281.79z"/>
<path class="st3" d="M223.36,228.82v282.8h-60.53V281.78c0-29.25,23.71-52.96,52.97-52.96H223.36z"/>
<path class="st4" d="M399.01,289.35c-1.34,56.45-12.69,107.21-30.3,144.3V288.42h30.14C398.9,288.73,398.96,289.04,399.01,289.35z"
	/>
<path class="st4" d="M223.07,288.42v147.2c-15.78-38.06-25.83-88.22-27.09-143.62c0-0.02,0-0.02,0-0.02
	c0.19-1.19,0.39-2.38,0.59-3.56H223.07z"/>
<rect x="301.61" y="411.86" class="st5" width="51.91" height="85.25"/>
<rect x="243.22" y="411.86" class="st4" width="51.91" height="85.25"/>
<circle class="st3" cx="298.37" cy="411.86" r="55.15"/>
<rect x="243.22" y="345.13" class="st5" width="110.3" height="66.73"/>
<path class="st5" d="M398.98,290.75c0,56.06-45.44,101.5-101.5,101.5c-56.05,0-101.5-45.44-101.5-101.5c0-1.76,0.04-3.51,0.13-5.25
	c2.74-53.62,47.08-96.25,101.37-96.25c54.3,0,98.64,42.64,101.37,96.27c0,0.01,0,0.01,0,0.01
	C398.94,287.26,398.98,289,398.98,290.75z"/>
<path class="st3" d="M398.85,285.52c0,0.01,0,0.01,0,0.01c-15.07,41.39-54.77,70.95-101.37,70.95c-46.61,0-86.31-29.57-101.37-70.98
	c2.74-53.62,47.08-96.25,101.37-96.25C351.78,189.25,396.12,231.89,398.85,285.52z"/>
<path class="st4" d="M297.48,238.64L297.48,238.64c-26.51,0-48-21.49-48-48v-44c0-26.51,21.49-48,48-48h0c26.51,0,48,21.49,48,48v44
	C345.48,217.15,323.99,238.64,297.48,238.64z"/>
<path class="st5" d="M344.95,122.36c-0.52-3.06-1.33-6.02-2.41-8.85v-0.01c0-0.01-0.01-0.01-0.01-0.02
	c-0.78-2.08-1.71-4.09-2.77-6.02c-0.53-0.98-1.1-1.93-1.7-2.86c-0.54-0.85-1.11-1.67-1.7-2.47c-1.45-1.98-3.05-3.84-4.78-5.57
	c-8.68-8.69-20.68-14.06-33.94-14.06c-15.9,0-29.99,7.73-38.72,19.63c-0.59,0.8-1.16,1.62-1.7,2.47c-1.49,2.31-2.78,4.77-3.86,7.34
	c-0.03,0.06-0.06,0.13-0.08,0.19c-1.63,3.93-2.75,8.13-3.28,12.51c-0.24,1.92-0.36,3.88-0.36,5.86v44c0,26.51,21.49,48,48,48
	s48-21.49,48-48v-44C345.64,127.72,345.4,125,344.95,122.36z M339.76,109.86v2.08h-0.63c-3.16-3.9-7.99-6.4-13.41-6.4h3.89
	C333.5,105.54,337.06,107.16,339.76,109.86z M265.34,105.54h4.08c-5.41,0-10.25,2.5-13.41,6.4h-2.59
	C256.23,108.04,260.53,105.54,265.34,105.54z"/>
<path class="st3" d="M345.05,103.96c-1.61-10.24-6.46-19.4-13.47-26.4c-8.68-8.69-20.68-14.06-33.94-14.06
	c-24.31,0-44.4,18.07-47.56,41.51c-0.29,2.12-0.44,4.29-0.44,6.49v44c0,26.51,21.49,48,48,48s48-21.49,48-48v-44
	C345.64,108.93,345.44,106.41,345.05,103.96z M253.42,111.94c2.81-3.9,7.11-6.4,11.92-6.4h4.08c-5.41,0-10.25,2.5-13.41,6.4H253.42z
	 M325.72,105.54h3.89c3.89,0,7.45,1.62,10.15,4.32v2.08h-0.63C335.97,108.04,331.14,105.54,325.72,105.54z"/>
<rect x="327.46" y="101.39" class="st6" width="16.28" height="10.55"/>
<rect x="251.79" y="102.13" class="st6" width="16.2" height="11.18"/>
<path class="st2" d="M342.97,122.79v4.27c0,2.07-0.37,4.06-1.04,5.9c-2.41,6.62-8.75,11.35-16.21,11.35h-56.3
	c-7.38,0-13.69-4.64-16.14-11.17c-0.72-1.89-1.11-3.94-1.11-6.08v-4.27c0-4.12,1.44-7.89,3.84-10.85c3.16-3.9,8-6.4,13.41-6.4h56.3
	c5.42,0,10.25,2.5,13.41,6.4C341.53,114.9,342.97,118.67,342.97,122.79z"/>
<path class="st7" d="M339.76,104.6v5.26c-2.7-2.7-6.26-4.32-10.15-4.32h-3.89c5.42,0,10.25,2.5,13.41,6.4h-83.12
	c3.16-3.9,8-6.4,13.41-6.4h-4.08c-4.81,0-9.11,2.5-11.92,6.4h-1.25v-7.34H339.76z"/>
<path class="st8" d="M345.05,103.96c-2.06-1.17-4.4-1.83-6.87-1.83h-79.61c-3.14,0-6.06,1.06-8.49,2.88
	c-4.14,3.09-6.86,8.37-6.86,14.37v14.5c0,5.79,2.53,10.9,6.42,14.02c0.04,0.05,0.09,0.08,0.13,0.11c2.49,1.97,5.53,3.12,8.8,3.12
	h79.61c2.69,0,5.21-0.77,7.4-2.14c0.02-0.01,0.04-0.02,0.06-0.04c4.7-2.94,7.88-8.59,7.88-15.07v-14.5
	C353.52,112.63,350.07,106.79,345.05,103.96z M329.61,147.72h-64.27c-6.05,0-11.29-3.94-13.79-9.67c-0.61-1.41-1.06-2.94-1.31-4.55
	c-0.16-0.98-0.24-2-0.24-3.03v-7.68c0-4.03,1.23-7.73,3.28-10.66c0.04-0.06,0.09-0.13,0.14-0.19c2.81-3.9,7.11-6.4,11.92-6.4h64.27
	c3.89,0,7.45,1.62,10.15,4.32c1.07,1.04,2,2.27,2.77,3.62c0,0.01,0.01,0.01,0.01,0.02v0.01c1.46,2.57,2.34,5.59,2.41,8.85
	c0.01,0.14,0.01,0.29,0.01,0.43v7.68c0,1.03-0.08,2.05-0.24,3.03c-0.22,1.43-0.61,2.81-1.13,4.09
	C341.18,143.57,335.83,147.72,329.61,147.72z"/>
<path class="st9" d="M407.98,163.67v65.15c-27.92-2.14-49.89-25.47-49.89-53.94v-49.96h11.14
	C390.63,124.92,407.98,142.27,407.98,163.67z"/>
<path class="st9" d="M238.4,124.92v49.96c0,28.65-22.26,52.08-50.42,53.98v-65.19c0-21.4,17.35-38.75,38.75-38.75H238.4z"/>
<path class="st10" d="M67.51,31.26c0.41-0.02,0.81-0.02,1.22-0.02c0.46,0,0.92,0.01,1.38,0.02H67.51z"/>
<circle class="st11" cx="287.13" cy="150.28" r="6.31"/>
<circle class="st11" cx="309.61" cy="150.28" r="6.31"/>
<path class="st12" d="M298.37,167.13L298.37,167.13c-6.21,0-11.24-5.03-11.24-11.24v-18.03c0-6.21,5.03-11.24,11.24-11.24l0,0
	c6.21,0,11.24,5.03,11.24,11.24v18.03C309.61,162.1,304.58,167.13,298.37,167.13z"/>
<path class="st13" d="M270.2,164.26L270.2,164.26c0-4.24,3.44-7.68,7.68-7.68h40.98c4.24,0,7.68,3.44,7.68,7.68v0
	c0,4.24-3.44,7.68-7.68,7.68h-40.98C273.64,171.94,270.2,168.5,270.2,164.26z"/>
<rect x="266.73" y="110.25" class="st7" width="20.41" height="7.11"/>
<rect x="309.61" y="110.64" class="st7" width="20.41" height="6.73"/>
<path class="st7" d="M284.38,120.12h-14.9c-1.52,0-2.75-1.23-2.75-2.75l0,0c0-1.52,1.23-2.75,2.75-2.75h14.9
	c1.52,0,2.75,1.23,2.75,2.75l0,0C287.13,118.89,285.9,120.12,284.38,120.12z"/>
<path class="st7" d="M327.26,120.19h-14.9c-1.52,0-2.75-1.23-2.75-2.75l0,0c0-1.52,1.23-2.75,2.75-2.75h14.9
	c1.52,0,2.75,1.23,2.75,2.75l0,0C330.01,118.96,328.78,120.19,327.26,120.19z"/>
<path class="st14" d="M284.38,117.44h-14.9c-1.52,0-2.75-1.23-2.75-2.75v0c0-1.52,1.23-2.75,2.75-2.75h14.9
	c1.52,0,2.75,1.23,2.75,2.75v0C287.13,116.21,285.9,117.44,284.38,117.44z"/>
<path class="st14" d="M327.26,117.44h-14.9c-1.52,0-2.75-1.23-2.75-2.75v0c0-1.52,1.23-2.75,2.75-2.75h14.9
	c1.52,0,2.75,1.23,2.75,2.75v0C330.01,116.21,328.78,117.44,327.26,117.44z"/>
<circle class="st14" cx="276.93" cy="124.92" r="3.5"/>
<circle class="st14" cx="319.81" cy="124.92" r="3.5"/>
<path class="st15" d="M304.95,153.68L304.95,153.68c-1.52,0-2.75-1.23-2.75-2.75v-14.68c0-1.52,1.23-2.75,2.75-2.75l0,0
	c1.52,0,2.75,1.23,2.75,2.75v14.68C307.7,152.45,306.47,153.68,304.95,153.68z"/>
<circle class="st4" cx="201.82" cy="160.64" r="11.08"/>
<rect x="189.98" y="149.56" class="st4" width="11.84" height="22.16"/>
<circle class="st4" cx="189.98" cy="160.64" r="11.08"/>
<circle class="st16" cx="190.15" cy="160.64" r="9.41"/>
<circle class="st4" cx="189.98" cy="160.64" r="1.32"/>
<circle class="st0" cx="377" cy="146.65" r="8.87"/>
<path class="st4" d="M196.54,157.13l-6.31,4.03c-0.2,0.13-0.47,0.07-0.59-0.13l-0.11-0.17c-0.13-0.2-0.07-0.47,0.13-0.59l6.31-4.03
	c0.2-0.13,0.47-0.07,0.59,0.13l0.11,0.17C196.79,156.73,196.74,157,196.54,157.13z"/>
<path class="st13" d="M381.16,161.66c0,6.33-4.97,11.49-11.22,11.79c-0.09,0.04-0.18,0.06-0.27,0.08h-0.01
	c-0.26,0.05-0.53,0.08-0.81,0.08h-23.21v-8.07h22.07c0.03,0.01,0.05,0.02,0.08,0.02c0.35,0.1,0.71,0.15,1.07,0.15
	c0.27,0,0.55-0.03,0.82-0.08c-0.14-0.03-0.27-0.05-0.41-0.07h0.46c0.74-0.16,1.45-0.53,2.03-1.1c0.63-0.63,1.01-1.42,1.13-2.25
	v-10.59c0-2.27,1.84-4.11,4.11-4.11s4.11,1.84,4.11,4.11v9.02C381.15,160.98,381.16,161.32,381.16,161.66z"/>
<path class="st17" d="M381.16,156.69c0,6.33-4.97,11.49-11.22,11.79c-0.09,0.04-0.18,0.06-0.27,0.08h-0.01
	c-0.26,0.05-0.53,0.08-0.81,0.08h-79.44c-2.23,0-4.04-1.81-4.04-4.04c0-1.12,0.45-2.12,1.18-2.85c0.73-0.73,1.75-1.18,2.86-1.18
	h78.3c0.03,0.01,0.05,0.02,0.08,0.02c0.35,0.1,0.71,0.15,1.07,0.15c0.27,0,0.55-0.03,0.82-0.08c-0.14-0.03-0.27-0.05-0.41-0.07h0.46
	c0.74-0.16,1.45-0.53,2.03-1.1c0.63-0.63,1.01-1.42,1.13-2.25v-10.59c0-2.27,1.84-4.11,4.11-4.11s4.11,1.84,4.11,4.11v9.02
	C381.15,156.01,381.16,156.35,381.16,156.69z"/>
<circle class="st17" cx="377" cy="146.65" r="4.11"/>
<rect x="243.22" y="495.55" class="st5" width="51.91" height="224.03"/>
<rect x="301.61" y="495.55" class="st3" width="51.91" height="224.03"/>
<circle class="st18" cx="245.9" cy="277.03" r="2.68"/>
<circle class="st18" cx="350.84" cy="277.03" r="2.68"/>
<path class="st19" d="M196.12,719.58h99.01v18.8h-99.01c-4.5,0-8.14-4.2-8.14-9.4c0-2.6,0.91-4.94,2.38-6.65
	C191.84,720.63,193.87,719.58,196.12,719.58z"/>
<path class="st19" d="M407.98,728.98c0,2.6-0.91,4.94-2.38,6.65c-1.48,1.7-3.51,2.75-5.76,2.75h-98.23v-18.8h98.23
	C404.34,719.58,407.98,723.78,407.98,728.98z"/>
<rect x="162.83" y="511.62" class="st1" width="60.53" height="10.76"/>
<rect x="368.71" y="511.62" class="st1" width="60.54" height="10.76"/>
<path class="st20" d="M352.8,164.8h-41.58c-1.17,0-2.12-0.95-2.12-2.12l0,0c0-1.17,0.95-2.12,2.12-2.12h41.58
	c1.17,0,2.12,0.95,2.12,2.12l0,0C354.92,163.85,353.97,164.8,352.8,164.8z"/>
<path class="st21" d="M180.74,395.73L180.74,395.73c-2.66,0-4.82-2.16-4.82-4.82v-57.78c0-2.66,2.16-4.82,4.82-4.82h0
	c2.66,0,4.82,2.16,4.82,4.82v57.78C185.56,393.58,183.4,395.73,180.74,395.73z"/>
<path class="st21" d="M203.5,475.38h-2.57c-2.66,0-4.82-2.16-4.82-4.82v-44.97c0-2.66,2.16-4.82,4.82-4.82h2.57
	c2.66,0,4.82,2.16,4.82,4.82v44.97C208.32,473.22,206.16,475.38,203.5,475.38z"/>
<path class="st21" d="M412.8,442.1L412.8,442.1c-2.66,0-4.82-2.16-4.82-4.82V379.5c0-2.66,2.16-4.82,4.82-4.82l0,0
	c2.66,0,4.82,2.16,4.82,4.82v57.78C417.61,439.94,415.45,442.1,412.8,442.1z"/>
<path class="st21" d="M385.86,488.19L385.86,488.19c-2.66,0-4.82-2.16-4.82-4.82V455.5c0-2.66,2.16-4.82,4.82-4.82l0,0
	c2.66,0,4.82,2.16,4.82,4.82v27.87C390.68,486.03,388.52,488.19,385.86,488.19z"/>
<path class="st21" d="M338.16,637.03L338.16,637.03c-2.66,0-4.82-2.16-4.82-4.82V527.2c0-2.66,2.16-4.82,4.82-4.82l0,0
	c2.66,0,4.82,2.16,4.82,4.82v105.02C342.97,634.88,340.82,637.03,338.16,637.03z"/>
<path class="st21" d="M278.35,637.03L278.35,637.03c-2.66,0-4.82-2.16-4.82-4.82v-74.75c0-2.66,2.16-4.82,4.82-4.82l0,0
	c2.66,0,4.82,2.16,4.82,4.82v74.75C283.17,634.88,281.01,637.03,278.35,637.03z"/>
<path class="st21" d="M256.76,692.73L256.76,692.73c-2.66,0-4.82-2.16-4.82-4.82v-28.18c0-2.66,2.16-4.82,4.82-4.82l0,0
	c2.66,0,4.82,2.16,4.82,4.82v28.18C261.57,690.57,259.42,692.73,256.76,692.73z"/>
</svg>
