<?xml version="1.0" encoding="utf-8"?>
<!-- Generator: Adobe Illustrator 24.3.0, SVG Export Plug-In . SVG Version: 6.00 Build 0)  -->
<svg version="1.1" id="Calque_1" xmlns="http://www.w3.org/2000/svg" xmlns:xlink="http://www.w3.org/1999/xlink" x="0px" y="0px"
	 viewBox="0 0 566.93 566.93" style="enable-background:new 0 0 566.93 566.93;" xml:space="preserve">
<style type="text/css">
	.st0{fill:#035177;}
	.st1{fill:#219EBC;}
	.st2{fill:#9CD2E7;}
</style>
<path class="st0" d="M181.41,82.07L117.1,194.86c-15.19,26.63-13.55,59.66,4.2,84.66l0,0c33.35,46.98,104.19,43.46,132.72-6.59
	l3.11-5.46c15.19-26.63,13.55-59.66-4.2-84.66L181.41,82.07"/>
<g>
	<path class="st1" d="M254.87,369.86L254.87,369.86c24.11,33.96,75.31,31.42,95.94-4.76l2.25-3.94
		c10.98-19.25,9.79-43.12-3.04-61.19l-51.7-72.83l-46.49,81.53C240.86,327.92,242.04,351.79,254.87,369.86z"/>
</g>
<g>
	<path class="st2" d="M351.57,441.82L351.57,441.82c18.11,25.51,56.57,23.6,72.07-3.58l1.69-2.96c8.25-14.46,7.36-32.39-2.28-45.97
		l-38.84-54.7l-34.92,61.24C341.04,410.31,341.93,428.24,351.57,441.82z"/>
</g>
</svg>
