<?xml version="1.0" encoding="utf-8"?>
<!-- Generator: Adobe Illustrator 25.0.0, SVG Export Plug-In . SVG Version: 6.00 Build 0)  -->
<svg version="1.1" xmlns="http://www.w3.org/2000/svg" xmlns:xlink="http://www.w3.org/1999/xlink" x="0px" y="0px"
	 viewBox="0 0 566.93 566.93" style="enable-background:new 0 0 566.93 566.93;" xml:space="preserve">
<style type="text/css">
	.st0{fill:#E9A045;}
	.st1{fill:#294F73;}
	.st2{fill:#EEA452;}
	.st3{fill:#F2F9F8;}
	.st4{fill:none;}
	.st5{fill:#FDF8FA;}
	.st6{fill:#AACFE4;}
	.st7{fill:#632E17;}
	.st8{fill:#FFFFFF;}
	.st9{fill:#FEFDFA;}
	.st10{fill:none;stroke:#000000;stroke-miterlimit:10;}
	.st11{fill:#5698B7;}
	.st12{fill:#825D39;}
	.st13{stroke:#000000;stroke-width:0.25;stroke-miterlimit:10;}
	.st14{fill:#FFFFFF;stroke:#FFFFFF;stroke-width:0.25;stroke-miterlimit:10;}
	.st15{fill:#171816;}
	.st16{fill:#020202;stroke:#000000;stroke-width:0.25;stroke-miterlimit:10;}
	.st17{fill:#295074;}
</style>
<g id="Layer_1">
	<path class="st0" d="M178.54,373.87c0,0-15.36,25.84-12.47,27.65c2.89,1.81,9.22,1.99,11.93,5.42c2.71,3.43,13.55,10.12,18.43,9.22
		c4.88-0.9,20.24-5.24,10.3-15.72c0,0-15.36-11.2-11.38-13.01c0,0,15.9-1.08,14.09-8.13c0,0-17.35-2.53-26.02-11.93L178.54,373.87"
		/>
	<path class="st1" d="M183.41,367.37c-1.89-6.32,9.76-5.42,9.76-5.42l-10.3-8.67c5.42,1.63,28.19-4.88,28.19-4.88
		s20.78,25.66-1.63,30.9C209.43,379.29,185.04,372.79,183.41,367.37z"/>
	<path class="st2" d="M178.54,373.87"/>
	<path class="st3" d="M178.54,373.87c0,0,8.67,11.56,22.23,11.93c0,0,8.31-0.18,8.67-6.5c0,0-21.5-4.16-26.02-11.93L178.54,373.87"
		/>
	<path class="st4" d="M214.31,333.76c0,0,7.77-8.31,2.71-21.68"/>
	<path class="st5" d="M217.02,312.07l-8.13-0.54c0,0,1.45,20.6-7.05,20.06c-8.49-0.54,0,0,0,0l12.47,2.17
		C214.31,333.76,220.27,329.42,217.02,312.07"/>
	<path class="st4" d="M201.84,331.59c0,0-48.61-7.59-34.15-45.53"/>
	<path class="st4" d="M176.91,280.63l-9.22,5.42c0,0-17.53,31.44,34.15,45.53"/>
	<path class="st4" d="M201.84,331.59"/>
	<g>
		<path class="st6" d="M325.72,411.29c-2.35-2.63-1.26-7.06,1.36-9.43s6.25-3.17,9.71-3.86c24.49-4.83,50.61-7.4,73.8,1.84
			c2.08,0.83,4.2,1.8,5.62,3.53c1.42,1.72,1.93,4.4,0.6,6.19c-2.3,3.09-7.09,1.26-10.6-0.32c-12.19-5.52-26.29-4.56-39.46-2.18
			s-26.26,6.11-39.64,5.77"/>
	</g>
	<g>
		<path class="st1" d="M326.25,413.65c4.96-5.32,12.05-8.26,19.21-9.51c7.17-1.24,14.5-0.92,21.77-0.6
			c6.91,0.31,13.83,0.62,20.74,0.93c9.87,0.44,20.51,1.16,28.13,7.45c-27.49,13.77-60.93,15.1-89.42,3.56"/>
	</g>
	<path class="st7" d="M155.77,308.82l-2.17,5.42c0,0,18.07,9.58,21.14,6.5l-5.42-5.42C169.32,315.33,159.02,316.23,155.77,308.82"/>
</g>
<g id="Layer_2">
	<path class="st0" d="M143.84,326.71l9.76-12.47l10.84-33.61c0,0,14.82-1.99,23.31,7.05l8.67-8.13c0,0,2.89,17.17,17.35,15.18
		c0,0,5.24,9.94,3.25,17.35l-8.13-0.54c0,0,2.17,18.43-7.05,20.06l12.47,2.17C214.31,333.76,172.21,342.25,143.84,326.71z"/>
	<path class="st0" d="M134.63,379.29l-9.22,22.23c0,0,1.99,13.91,8.13,15.72c6.14,1.81,21.32,2.17,23.31,0c0,0,4.52-5.24,1.63-10.3
		c0,0-8.67-7.23-3.79-14.09C154.68,392.84,137.16,390.31,134.63,379.29z"/>
	<path class="st3" d="M154.68,392.84c5.56-0.33,4.34-9.76,4.34-9.76c-13.55,0.72-18.97-11.38-18.97-11.38s-5.6,3.25-5.42,7.59
		C134.63,379.29,139.69,393.75,154.68,392.84z"/>
	<path class="st1" d="M159.02,383.09c10.82-0.72,17.89-16.26,17.89-16.26l0.54-15.18c0,0-17.89,2.71-28.19-4.34l-1.08,14.64
		c0,0-2.71,9.03-8.13,9.76C140.05,371.7,145.47,383.99,159.02,383.09z"/>
	<path class="st8" d="M136.8,338.09c0,0,0.36-12.83,7.05-11.38c6.69,1.45,28.73,11.74,44.45,9.22c15.72-2.53,26.02-2.17,26.02-2.17
		s9.4,10.84-3.25,14.64c0,0-24.03,12.11-61.8-1.08C149.26,347.31,143.48,349.12,136.8,338.09z"/>
	<path class="st4" d="M176.91,280.63"/>
	<path class="st8" d="M214.31,333.76c0,0,5.96-4.34,2.71-21.68l-8.13-0.54c0,0,3.07,16.99-7.05,20.06L214.31,333.76z"/>
	<path class="st9" d="M213.77,294.73c0,0-0.36-9.58,10.84-3.25l3.79,10.84l-2.17,13.01l-9.22-3.25
		C217.02,312.07,219.01,298.7,213.77,294.73z"/>
	<line class="st10" x1="371.51" y1="148.91" x2="370.97" y2="305.03"/>
	<g>
		<path class="st11" d="M371.41,301.95c-14.19,11.62-18.51,33.7-9.75,49.81c0.79,1.45,1.7,3.02,1.38,4.64
			c-0.29,1.49-1.53,2.56-2.59,3.64c-1.42,1.46-2.67,3.19-3.05,5.19s0.26,4.29,1.95,5.42c2.22,1.48,5.16,0.56,7.83,0.6
			c3.61,0.06,6.95,1.97,10.54,2.34s8.06-2.03,7.51-5.6c-0.58-3.78-5.9-4.78-7.68-8.16c-2.19-4.15,1.88-8.62,4.22-12.68
			c2.65-4.61,3.14-10.22,2.38-15.49c-0.76-5.27-2.67-10.29-4.57-15.26c-1.96-5.11-4.13-10.5-8.54-13.73"/>
	</g>
	<path class="st4" d="M164.44,280.63c0,0-17.99,0.4-32.1-18.32c0,0-38.54-13.57-17.1-44.78c0,0-18.73-33.11,18.73-47.23
		c0,0,23.34-27.96,57-11.4c0,0,34.47-7.6,37.46,29.31c0,0,25.51,17.37,0.81,35.83c0,0,33.18,15.21-32.81,55.51l-8.67,8.13
		C187.75,287.68,172.93,276.16,164.44,280.63z"/>
	<g>
		<path class="st1" d="M223.79,291.87c2.19-1.52,4.52-3.09,7.18-3.29c0.82-0.06,1.69,0.03,2.35,0.51c1.36,0.98,1.25,3.09,0.54,4.61
			c2.32-0.99,5.16-0.64,7.17,0.89c2.01,1.52,3.12,4.16,2.8,6.66c-0.35,2.71-2.23,5.03-4.49,6.56c-2.27,1.52-4.91,2.37-7.52,3.19
			c-2.32-2.75-3.92-6.11-4.59-9.64c-0.47-2.5-0.58-5.27-2.27-7.16c-0.51-0.57-1.07-1.63-0.35-1.9"/>
	</g>
	<g>
		<path class="st11" d="M218.87,339.16c9.07-31.57,20.54-62.45,34.28-92.28c3.94-8.56,8.08-17.05,13.09-25.03
			c23-36.58,62.92-59.64,104.18-72.49c-50.36,19.93-92.44,59.97-114.85,109.28c-5.04,11.1-9.11,22.6-13.18,34.09
			c-5.99,16.92-11.97,33.83-17.96,50.75c-2.2-1.54-4.4-3.08-6.61-4.61"/>
	</g>
	<g>
		<path class="st1" d="M219.05,314.38c0.53-1,1.26-1.94,2.28-2.42c1.02-0.49,2.37-0.41,3.14,0.42c1.38,1.47,0.15,3.83-1.08,5.43
			c1.92-0.8,3.88-1.61,5.96-1.71c2.07-0.1,4.32,0.63,5.47,2.36c0.71,1.06,0.94,2.36,1,3.63c0.21,4.53-2.09,9.48-6.38,10.97
			c-4.27,1.48-9.08-0.77-13.43,0.43c3.71-5.4,4.83-12.51,2.95-18.79"/>
	</g>
	<path class="st1" d="M164.44,280.63c0,0-26.18,0.68-32.1-18.32c0,0-39.03-9.74-17.1-44.78c0,0-24.61-31.69,18.73-47.23
		c0,0,18.93-29.81,57-11.4c0,0,36.64-6.51,37.46,29.31c0,0,26.67,11.8,0.81,35.83l-2.9-8.45c0,0-18.41-21.72-36.62-26.07
		c0,0-34.96-6.62-54.62,19.24l-4.97,13.65l15.52,25.45l37.86,21.1L164.44,280.63z"/>
	<path class="st1" d="M196.42,279.55l33.64-24.24c0,0,13.24-18.83,4.97-27.31l5.59-22.96l-11.38,19.01l-4.76,12.03
		c0,0,1.03,7.03-6.21,10.55v6.83c0,0-16.14,15.31-34.76,15.52l-19.07,11.67c0,0,17.2-1.34,23.31,7.05L196.42,279.55z"/>
	<g>
		<path class="st12" d="M141.18,245.4c-0.43-10.38-0.12-20.79,0.92-31.12c0.17-1.7,0.39-3.47,1.35-4.87
			c1.29-1.86,3.59-2.62,5.72-3.27c9.06-2.75,18.16-5.52,27.51-6.98c8.9-1.39,18.13-1.56,26.81,0.89c4.81,1.36,9.63,3.69,12.45,7.89
			c1.32,1.97,2.14,4.24,2.94,6.48c1.8,5.04,3.61,10.11,4.57,15.38c1.1,6.03,1.08,12.2,0.96,18.33c-0.02,1.29-0.06,2.62-0.54,3.82
			c-0.52,1.3-1.53,2.33-2.54,3.29c-7.56,7.18-16.88,12.41-26.88,15.1c-2.34,0.63-4.76,1.12-7.17,0.85c-2.93-0.33-5.61-1.78-8.21-3.2
			c-12.83-7-25.66-14.01-38.49-21.01"/>
		<g>
			<path class="st12" d="M141.97,245.4c-0.19-8.57-0.05-17.15,0.6-25.71c0.16-2.16,0.3-4.33,0.6-6.47c0.26-1.87,0.85-3.54,2.5-4.61
				c1.48-0.96,3.25-1.39,4.91-1.89c2-0.6,4-1.21,6-1.79c15.4-4.5,32.74-8.7,48.48-3.33c3.23,1.1,6.37,2.73,8.72,5.25
				c2.68,2.89,3.78,6.87,5.05,10.51c1.35,3.86,2.63,7.76,3.43,11.78c0.84,4.17,1.09,8.43,1.14,12.68c0.02,2.1,0,4.2-0.05,6.3
				c-0.05,2.25-0.42,3.96-2.03,5.62c-2.56,2.65-5.54,4.97-8.59,7.03c-6.08,4.11-12.95,7.27-20.12,8.9
				c-2.01,0.46-4.09,0.69-6.13,0.28c-1.95-0.39-3.75-1.25-5.49-2.17c-3.84-2.03-7.62-4.16-11.43-6.24
				c-7.58-4.14-15.17-8.27-22.75-12.41c-1.9-1.03-3.79-2.07-5.69-3.1c-1.23-0.67-2.33,1.21-1.1,1.88
				c8.16,4.46,16.33,8.92,24.49,13.38c4.08,2.23,8.17,4.45,12.25,6.68c3.57,1.95,7.23,4.2,11.41,4.36c4.04,0.16,8.21-1.3,11.95-2.68
				c3.63-1.35,7.15-3.02,10.48-5c3.34-1.98,6.5-4.27,9.43-6.82c1.43-1.24,2.94-2.52,4.03-4.08c1.13-1.62,1.34-3.48,1.39-5.41
				c0.21-8.99-0.23-17.74-2.91-26.37c-1.25-4.03-2.55-8.19-4.32-12.02c-1.55-3.37-4.07-6.01-7.25-7.9
				c-6.93-4.1-15.71-5.06-23.61-4.88c-8.81,0.2-17.51,2.05-25.98,4.36c-4.3,1.18-8.58,2.45-12.84,3.78
				c-3.37,1.05-6.25,2.66-7.05,6.36c-0.43,1.97-0.51,4.05-0.68,6.06c-0.19,2.3-0.35,4.6-0.47,6.91c-0.24,4.61-0.33,9.23-0.24,13.85
				c0.05,2.31,0.14,4.62,0.27,6.92C140.45,246.41,142,246.43,141.97,245.4L141.97,245.4z"/>
		</g>
	</g>
	<ellipse class="st13" cx="160.83" cy="247.82" rx="4.66" ry="5.59"/>
	<ellipse class="st13" cx="202" cy="245.03" rx="4.66" ry="5.59"/>
	<g>
		<g>
			<path class="st8" d="M347.65,87.69c0.8,0,0.8-1.24,0-1.24C346.85,86.45,346.85,87.69,347.65,87.69L347.65,87.69z"/>
		</g>
	</g>
	<circle class="st14" cx="160.62" cy="247.61" r="1.15"/>
	<circle class="st14" cx="202.34" cy="245.06" r="1.15"/>
	<g>
		<g>
			<path d="M153.4,237.3c0.1-0.15,0.23-0.22,0.36-0.34c0.12-0.11,0.22-0.23,0.34-0.34c0.2-0.19,0.41-0.37,0.64-0.53
				c0.51-0.34,1.05-0.6,1.64-0.75c1.14-0.29,2.28-0.23,3.35,0.26c0.81,0.37,1.48-0.71,0.7-1.21c-1.29-0.82-3.05-0.91-4.45-0.34
				c-0.7,0.28-1.36,0.66-1.9,1.19c-0.25,0.25-0.5,0.53-0.68,0.84c-0.09,0.15-0.2,0.34-0.26,0.51c-0.06,0.18-0.07,0.37-0.13,0.55
				C152.95,237.38,153.28,237.49,153.4,237.3L153.4,237.3z"/>
		</g>
	</g>
	<g>
		<g>
			<path d="M196.83,230.47c1.14-1.17,3.1-1.67,4.69-1.65c1.65,0.02,3.25,0.64,4.51,1.71c0.46,0.39,1.32-0.13,0.9-0.7
				c-1.25-1.69-3.34-2.46-5.41-2.35c-1.02,0.06-2.02,0.3-2.92,0.79c-0.87,0.48-1.49,1.18-2.07,1.96
				C196.39,230.41,196.68,230.62,196.83,230.47L196.83,230.47z"/>
		</g>
	</g>
	<g>
		<g>
			<path d="M179.01,244.89c0.39-0.45,0.99-0.66,1.52-0.91c0.5-0.23,1.04-0.36,1.58-0.43c0.54-0.07,1.11-0.05,1.62,0.05
				c0.61,0.11,1.13,0.37,1.71,0.58c0.63,0.23,1.12-0.67,0.65-1.11c-1.08-0.99-2.83-1.08-4.19-0.79c-0.66,0.14-1.33,0.44-1.88,0.83
				c-0.58,0.41-0.91,0.98-1.31,1.55C178.57,244.83,178.86,245.06,179.01,244.89L179.01,244.89z"/>
		</g>
	</g>
	<g>
		<g>
			<path d="M179.05,256.84c1.87,1.96,4.37,2.86,7.08,2.81c1.37-0.03,2.7-0.3,3.96-0.84c1.1-0.47,2.67-1.25,3.24-2.37
				c0.36-0.71-0.37-1.47-1.09-1.09c-0.5,0.27-0.89,0.73-1.35,1.06c-0.47,0.33-0.97,0.62-1.49,0.87c-1.04,0.49-2.22,0.8-3.36,0.9
				c-2.3,0.2-4.82-0.36-6.75-1.65C179.1,256.41,178.9,256.69,179.05,256.84L179.05,256.84z"/>
		</g>
	</g>
	<g>
		<g>
			<path class="st12" d="M164.76,304.58c1.82,3.25,4.84,6.1,7.53,8.63c2.85,2.67,5.88,5.17,8.91,7.63
				c5.43,4.42,12.08,9.23,19.39,9.26c0.79,0,1.03-1.31,0.19-1.43c-3.59-0.49-6.94-1.48-10.14-3.19c-3.17-1.69-6.07-3.84-8.91-6.02
				c-2.95-2.26-5.88-4.57-8.7-7c-1.44-1.24-2.86-2.51-4.18-3.88c-1.32-1.37-2.43-2.9-3.7-4.3
				C164.96,304.05,164.62,304.33,164.76,304.58L164.76,304.58z"/>
		</g>
	</g>
	<g>
		<g>
			<path class="st12" d="M179.72,290.16c1.99,5.4,5.75,10.35,9.71,14.47c4.08,4.25,8.87,8.18,14.23,10.69
				c0.82,0.38,1.5-0.73,0.71-1.22c-4.91-3.08-9.6-6.31-13.7-10.44c-2.03-2.05-3.94-4.22-5.69-6.52c-1.74-2.3-3.26-4.76-4.89-7.14
				C179.97,289.82,179.64,289.92,179.72,290.16L179.72,290.16z"/>
		</g>
	</g>
	<path class="st15" d="M217.78,233.05l0.85,15.99c0,0,3.81-2.31,4.57-13.39C223.2,235.65,223.64,233.17,217.78,233.05z"/>
	<g>
		<path d="M143.99,244.95c-2.35-3.28-4.7-6.57-7.05-9.85c-2.7-3.78-5.47-7.69-6.43-12.22c-2.14-10.03,5.16-19.78,13.63-25.63
			c12.41-8.57,28.27-12.05,43.15-9.45s28.61,11.23,37.35,23.48c2.14,3.01,4.03,6.32,4.58,9.97c0.54,3.61-0.26,7.26-1.05,10.82
			c-0.81,3.6-1.61,7.21-2.42,10.81c-0.63,2.83-3.06,6.5-5.51,4.91c4.79-5.37,1.41-13.73-2.13-19.98c-1.82-3.22-3.64-6.43-5.46-9.65
			c-1.69-2.99-3.44-6.05-6.11-8.21c-3.09-2.5-7.1-3.55-11.03-4.2c-16.74-2.77-34.46,0.68-48.91,9.52c-0.64,0.39-1.3,0.82-1.66,1.47
			c-0.54,0.95-0.33,2.12-0.15,3.19c1.61,9.22,0.77,18.85-2.42,27.66"/>
	</g>
	<path d="M218.19,227.81c0,0-0.27,16.02,2.11,19.98l4.18-11.72L218.19,227.81z"/>
	<g>
		<g>
			<path d="M367.96,358.5c-1.39,1.58-2.71,3.17-3.72,5.04c-0.5,0.91-0.95,1.85-1.34,2.81c-0.4,0.98-0.81,1.99-0.84,3.06
				c-0.02,0.5,0.69,0.68,0.93,0.25c0.5-0.87,0.74-1.86,1.09-2.8c0.36-0.96,0.75-1.91,1.19-2.84c0.87-1.82,1.81-3.66,3.01-5.29
				C368.4,358.56,368.11,358.34,367.96,358.5L367.96,358.5z"/>
		</g>
	</g>
	<g>
		<g>
			<path d="M370.21,362.86c0.2,0.59,0.29,1.21,0.47,1.8c0.17,0.58,0.34,1.15,0.52,1.72c0.38,1.17,0.74,2.33,1.29,3.43
				c0.25,0.5,1,0.14,0.87-0.37c-0.29-1.17-0.77-2.27-1.24-3.39c-0.22-0.53-0.45-1.05-0.69-1.57c-0.27-0.59-0.61-1.14-0.85-1.73
				C370.49,362.53,370.12,362.62,370.21,362.86L370.21,362.86z"/>
		</g>
	</g>
	<g>
		<g>
			<path d="M372.94,361.25c0.69,0.38,1.37,0.84,2.03,1.28c0.66,0.45,1.31,0.92,1.92,1.43c1.23,1.04,2.26,2.25,3.36,3.42
				c0.44,0.47,1.23-0.14,0.89-0.69c-0.89-1.44-2.21-2.62-3.57-3.61c-0.66-0.48-1.36-0.92-2.09-1.29c-0.77-0.39-1.55-0.66-2.37-0.92
				C372.88,360.81,372.74,361.14,372.94,361.25L372.94,361.25z"/>
		</g>
	</g>
	<ellipse class="st16" cx="373.04" cy="318.46" rx="2.67" ry="2.66"/>
	<g>
		<g>
			<path class="st17" d="M358.81,327.57c-2.34,0.76-1.79,3.87,0.02,5c3.01,1.88,5.84-1.83,6.65-4.32c-0.57-0.08-1.14-0.15-1.71-0.23
				c0.17,2.25,1.84,4.2,4.15,4.41c2.31,0.2,4.42-1.57,4.84-3.79c-0.58-0.16-1.17-0.32-1.75-0.48c-0.39,2.43,1.46,4.94,4.06,4.77
				c2.45-0.16,4.03-2.75,3.47-5.03c-0.46,0.35-0.92,0.71-1.38,1.06c1.83,0.86,3.64,1.82,5.53,2.54c0.97,0.38,1.59-1.17,0.7-1.67
				c-1.7-0.94-3.52-1.68-5.29-2.5c-0.73-0.34-1.6,0.22-1.38,1.06c0.29,1.13-0.43,2.44-1.63,2.66c-1.31,0.24-2.52-1.15-2.32-2.42
				c0.18-1.14-1.54-1.65-1.75-0.48c-0.24,1.34-1.31,2.5-2.75,2.51c-1.44,0.01-2.63-1.25-2.75-2.64c-0.08-0.95-1.41-1.21-1.71-0.23
				c-0.47,1.52-1.85,3.99-3.83,3.57c-1.23-0.26-2.41-2.65-0.99-3.4C359.18,327.85,359.04,327.5,358.81,327.57L358.81,327.57z"/>
		</g>
	</g>
	<g>
		<g>
			<path class="st17" d="M357.82,335.67c-1.88,1.76-0.38,4.99,1.79,5.71c2.75,0.91,5.62-1.71,5.27-4.51
				c-0.58,0.08-1.16,0.16-1.74,0.24c0.31,2.27,2.56,4.06,4.86,3.67c2.21-0.37,3.79-2.6,3.5-4.8c-0.15-1.13-1.8-1.22-1.83,0
				c-0.06,2.33,2.03,4.46,4.42,4.11c2.32-0.34,3.72-2.76,3.21-4.95c-0.2-0.87-1.65-0.92-1.82,0c-0.32,1.74,0.92,3.21,2.64,3.5
				c1.97,0.33,3.7-1.09,4.81-2.55c0.48-0.63-0.45-1.49-1.08-1.08c-0.76,0.51-1.48,1.18-2.32,1.54c-0.67,0.29-2.44,0.28-2.23-0.92
				c-0.61,0-1.21,0-1.82,0c0.26,1.08-0.43,2.4-1.58,2.61c-1.34,0.25-2.42-1.03-2.4-2.27c-0.6,0.08-1.2,0.16-1.8,0.24
				c0.18,1.27-0.8,2.62-2.07,2.79c-1.46,0.19-2.59-1.02-2.78-2.37c-0.14-0.98-1.87-0.76-1.74,0.24c0.22,1.71-1.45,3.61-3.24,2.79
				c-1.42-0.65-1.78-2.42-1.6-3.81C358.28,335.61,357.96,335.53,357.82,335.67L357.82,335.67z"/>
		</g>
	</g>
	<g>
		<g>
			<path class="st17" d="M359.95,346.68c0.1,0.64-0.01,1.18,0.33,1.76c0.25,0.41,0.63,0.77,1.02,1.04c0.92,0.64,2.17,0.89,3.26,0.58
				c2.28-0.65,3.49-3.43,2.62-5.58c-0.3-0.75-1.45-0.91-1.69,0c-0.73,2.8,1.91,5.46,4.7,5.19c2.95-0.29,4.75-3.37,4.64-6.12
				c-0.58,0.16-1.17,0.32-1.75,0.47c1.91,3.22,6.96,4.28,9.66,1.42c0.63-0.66-0.21-1.9-1.02-1.32c-2.19,1.59-5.53,1.42-7.02-1.05
				c-0.46-0.77-1.8-0.48-1.75,0.47c0.08,1.68-0.7,3.59-2.41,4.18c-1.66,0.58-3.81-0.98-3.37-2.79c-0.53,0.07-1.07,0.14-1.6,0.21
				c0.55,1.29-0.25,2.97-1.6,3.35c-0.67,0.19-1.35,0.03-1.95-0.29c-0.56-0.3-1.56-1.01-1.72-1.64
				C360.27,346.33,359.91,346.44,359.95,346.68L359.95,346.68z"/>
		</g>
	</g>
</g>
</svg>
