<?xml version="1.0" encoding="utf-8"?>
<!-- Generator: Adobe Illustrator 25.0.0, SVG Export Plug-In . SVG Version: 6.00 Build 0)  -->
<svg version="1.1" id="Calque_1" xmlns="http://www.w3.org/2000/svg" xmlns:xlink="http://www.w3.org/1999/xlink" x="0px" y="0px"
	 viewBox="0 0 566.9 566.9" style="enable-background:new 0 0 566.9 566.9;" xml:space="preserve">
<style type="text/css">
	.st0{fill:#AFB2B2;stroke:#000000;stroke-miterlimit:10;}
	.st1{fill:#E1EAEA;stroke:#000000;stroke-miterlimit:10;}
	.st2{fill:#C6CCCC;stroke:#000000;stroke-miterlimit:10;}
	.st3{fill:#FFFFFF;}
</style>
<path class="st0" d="M416.5,319.5c0,0,38.6,27.2,44.2,30.5c5.6,3.3,28.9,11.1,28.9,11.1S471.8,327.8,464,310s6.7-38.9,10-53.3
	c3.3-14.4,0,0,15.5-24.4l-70.5,41.3L416.5,319.5z"/>
<path class="st1" d="M438.4,296.6c0.2,8.9-5.4,16.4-11.1,20c-8.1,5.2-14.5,1.5-26.7,2.4c-13.1,0.9-18.9,6.1-33.3,13
	c-14,6.6-26.4,9.5-51.1,15.3c-12.7,3-55.5,12.1-112.2,7.1c-24.5-2.2-45.4-4-68.7-12.4c11.6-10.5,18.7-24.4,18.7-39.8
	c0-2.9-0.2-5.7-0.7-8.4"/>
<path class="st0" d="M153.3,293.8c-2.6-14.9-11.8-27.9-25.2-37c32.8-10.5,50.7-16.1,77-17.9c91.6-6.2,142.7,43.4,190,34.2
	c4-0.8,19.9-4.3,32.2,4.7c1.8,1.3,10.8,8,11.1,18.9"/>
<path class="st2" d="M64,296.6c0.8-1.3,15.6,6.8,16.7,4.7c0.9-1.7-9.6-6.5-10-13c-0.2-3.9,2.9-14,54.4-30.6c1-0.3,2-0.6,3-1
	c15.8,10.8,25.9,27.1,25.9,45.5c0,15.3-7.1,29.3-18.7,39.8c-5.1-1.8-10.4-4-15.8-6.5C87.7,320.6,63,298.5,64,296.6z"/>
<circle class="st3" cx="97.4" cy="288.9" r="6.7"/>
<path class="st0" d="M279.3,245c0,0-14.5-13.8-14.4-24.6s6.6-9.3,5.5-17s-57.5,35-57.5,35L279.3,245z"/>
<path class="st0" d="M353,269.3c0,0,7.7,1.8,21.8-1.8c14.1-3.6,8.1-4.1,8.9-13.2c0.8-9.1-6.3-2.1-27.4-4.3
	c-21.1-2.2-34.5,8.8-34.5,8.8L353,269.3z"/>
<path class="st0" d="M285.7,353.7c0,0-15.8,12.3-16.8,23c-1,10.7,5.6,9.9,3.7,17.5c-1.9,7.6-53.6-40.6-53.6-40.6L285.7,353.7z"/>
<path class="st0" d="M344.4,338c0,0,7.7-1.8,21.8,1.8s8.1,4.1,8.9,13.2c0.8,9.1-6.3,2-27.4,4.3c-21.1,2.2-34.5-8.8-34.5-8.8
	L344.4,338z"/>
</svg>
