<?xml version="1.0" encoding="utf-8"?>
<!-- Generator: Adobe Illustrator 24.3.0, SVG Export Plug-In . SVG Version: 6.00 Build 0)  -->
<svg version="1.1" id="Calque_1" xmlns="http://www.w3.org/2000/svg" xmlns:xlink="http://www.w3.org/1999/xlink" x="0px" y="0px"
	 viewBox="0 0 566.93 566.93" style="enable-background:new 0 0 566.93 566.93;" xml:space="preserve">
<style type="text/css">
	.st0{fill:#035177;stroke:#035177;stroke-width:0.1;stroke-miterlimit:10;}
	.st1{fill:#E1EAEA;}
	.st2{fill:#AFB2B2;}
	.st3{fill:#FFFFFF;}
	.st4{fill:#AFB2B2;stroke:#000000;stroke-width:0.1;stroke-miterlimit:10;}
	.st5{fill:#219EBC;stroke:#219EBC;stroke-width:0.1;stroke-miterlimit:10;}
	.st6{fill:#9CD2E7;stroke:#9CD2E7;stroke-width:0.1;stroke-miterlimit:10;}
</style>
<path class="st0" d="M131.48,253.55L61,212.24c15.55,24.44,12.22,10,15.55,24.44c3.33,14.44,17.78,35.55,10,53.33
	S61,341.08,61,341.08s23.33-7.74,28.88-11.07c5.55-3.33,44.2-30.52,44.2-30.52L131.48,253.55z"/>
<path class="st1" d="M397.23,273.81c-0.48,2.75-0.72,5.56-0.72,8.43c0,15.33,7.08,29.28,18.66,39.77
	c-23.24,8.31-44.19,10.18-68.66,12.35c-56.7,5.05-99.5-4.09-112.21-7.07c-24.71-5.8-37.06-8.69-51.1-15.32
	c-14.42-6.81-20.23-12.04-33.33-12.96c-12.15-0.86-18.56,2.86-26.66-2.36c-5.68-3.64-11.35-11.13-11.11-20.03"/>
<path class="st2" d="M397.23,273.81c2.57-14.86,11.84-27.92,25.17-37.04c-32.77-10.53-50.69-16.12-77-17.89
	c-91.59-6.17-142.71,43.37-189.97,34.17c-3.98-0.78-19.94-4.31-32.22,4.71c-1.58,1.17-8.68,6.38-10.62,14.97
	c-0.28,1.23-0.45,2.52-0.49,3.88"/>
<path class="st0" d="M430.95,315.51c-5.41,2.53-10.65,4.68-15.78,6.5c-11.59-10.49-18.66-24.44-18.66-39.77
	c0-18.31,10.09-34.66,25.9-45.46c0.99,0.32,1.98,0.64,2.99,0.97c51.56,16.6,54.69,26.71,54.44,30.64
	c-0.41,6.45-10.92,11.28-10,12.95c1.11,2.04,15.91-6.05,16.66-4.71C487.54,278.49,462.8,300.62,430.95,315.51z"/>
<circle class="st3" cx="453.17" cy="268.9" r="6.67"/>
<path class="st0" d="M337.65,219.36c0,0-56.34-42.77-57.45-35s5.38,6.28,5.47,17.03s-14.43,24.59-14.43,24.59L337.65,219.36z"/>
<path class="st0" d="M230.79,239.86c0,0-13.37-11.06-34.48-8.84c-21.11,2.22-28.18-4.79-27.42,4.27c0.76,9.06-5.18,9.56,8.9,13.2
	c14.08,3.64,21.75,1.8,21.75,1.8L230.79,239.86z"/>
<path class="st0" d="M331.57,333.59c0,0-51.76,48.22-53.64,40.6c-1.89-7.63,4.72-6.79,3.73-17.49c-1-10.7-16.83-23.02-16.83-23.02
	L331.57,333.59z"/>
<path class="st0" d="M237.39,328.45c0,0-13.37,11.06-34.48,8.84c-21.11-2.22-28.18,4.79-27.42-4.27c0.76-9.06-5.18-9.56,8.9-13.2
	s21.75-1.8,21.75-1.8L237.39,328.45z"/>
<polygon class="st0" points="137.1,276.66 166.28,276.66 190.49,273.81 197.54,266.37 161.78,262.24 139.5,258.5 "/>
<path class="st0" d="M137.1,276.66"/>
<path class="st4" d="M139.5,258.5"/>
<polygon class="st5" points="145.87,251.86 138,259.2 174.88,265 170.56,254.37 154.61,253.19 "/>
<polygon class="st5" points="174.88,263.75 206.13,267.58 217.41,258.67 197.54,257.8 206.13,246.66 187.42,251.86 "/>
<polygon class="st0" points="174.34,266.89 189.18,251.07 169.85,253.73 "/>
<polygon class="st0" points="128.81,254.57 122.07,263.46 127.5,268.5 139.5,258.5 147.05,251.86 137.1,251.86 "/>
<polygon class="st5" points="127.5,268.5 123.52,276.62 137.1,276.66 139.5,258.5 "/>
<polygon class="st5" points="122.07,263.46 114.05,268.5 119.65,260.77 128.81,254.57 "/>
<path class="st4" d="M123.52,276.62"/>
<polygon class="st0" points="123.52,276.62 112.92,276.62 113.48,269.83 115.17,267.8 122.07,263.46 127.5,268.5 "/>
<polygon class="st5" points="147.05,276.62 155.2,267.58 158.53,276.66 "/>
<polygon class="st5" points="163.91,276.66 168.5,265.5 169.85,276.66 "/>
<polyline class="st5" points="173.35,275.83 194.95,275.5 201.56,272.12 193.47,270.67 190.49,273.81 "/>
<polygon class="st0" points="197.54,266.37 201.56,272.12 208.83,271.08 210,270 206.13,267.58 "/>
<polygon class="st6" points="197.54,266.37 193.47,270.67 201.56,272.12 "/>
<polygon class="st0" points="206.13,246.66 197.54,257.8 221.05,258.98 "/>
<polygon class="st6" points="152.79,252.56 147.41,257.12 153.5,261.53 160,257 "/>
<polygon class="st6" points="138.08,269.25 149.59,273.81 127.13,269.25 127.5,268.5 131.1,265.5 "/>
<polygon class="st6" points="206.13,246.66 214.61,243.65 214.17,253.3 "/>
<polygon class="st0" points="194.95,275.5 207.87,275.5 201.56,272.12 "/>
<polygon class="st6" points="189.18,251.07 189.75,258.43 177.03,264.02 "/>
<polygon class="st6" points="209.29,265.08 206.13,267.58 210,270 208.83,271.08 201.56,272.12 207.87,275.5 213.91,275.5 
	216.33,273.81 "/>
<polygon class="st0" points="213.49,270.29 213.72,261.59 209.29,265.08 "/>
<polygon class="st6" points="213.72,261.59 223,268 228.68,258.5 221.05,258.98 217.41,258.67 "/>
<polygon class="st5" points="213.72,261.59 213.49,270.29 216.33,273.81 213.91,275.5 221.05,275.5 222.87,270.29 217.41,264.14 "/>
<polygon class="st0" points="218.18,264.67 222.87,270.29 221.05,275.5 229.75,275.5 240.11,269.25 224.66,265.94 223,268 "/>
<polygon class="st5" points="214.61,243.65 221.54,241.15 221.05,248.91 225.11,258.73 221.05,258.98 214.17,253.3 "/>
<polygon class="st0" points="225.11,258.73 231.99,248.47 221.54,241.15 221.05,248.91 "/>
<polygon class="st6" points="230.79,238.16 221.54,241.15 228.68,246.15 233.18,237.33 "/>
<polygon class="st5" points="228.45,253.75 237.23,268.54 224.66,265.94 227.7,258.73 225.11,258.73 "/>
<polygon class="st6" points="229.75,275.5 253.96,275.5 273.43,261.59 240.11,269.25 "/>
<polygon class="st0" points="237.23,268.54 244.59,257.12 230.79,257.12 "/>
<polygon class="st5" points="233.18,237.33 244.59,257.12 230.79,257.12 228.45,253.75 231.99,248.47 228.68,246.15 "/>
<polygon class="st0" points="239.6,248.47 261,242 244.59,233.45 233.18,237.33 239.04,247.49 "/>
<polygon class="st6" points="244.59,257.12 261,242 239.6,248.47 "/>
<polygon class="st5" points="237.23,268.54 240.11,269.25 258.85,264.94 249.25,252.82 244.59,257.12 "/>
<polygon class="st0" points="253.96,275.5 276,275 286,267 273.43,261.59 "/>
<polygon class="st0" points="258.85,264.94 273.43,261.59 261,242 249.25,252.82 "/>
<polygon class="st5" points="244.59,233.45 258.08,229.25 261,242 "/>
<polygon class="st5" points="276,275 302.43,275 295,258 286,267 "/>
<polygon class="st5" points="273.43,261.59 279.1,253.75 283.64,247.49 262.63,244.57 "/>
<polygon class="st6" points="286,267 280.15,252.3 273.43,261.59 "/>
<polygon class="st0" points="283.64,247.49 295.99,249.56 295,258 286,267 280.15,252.3 "/>
<polygon class="st6" points="258.08,229.25 271.79,245.85 262.63,244.57 261,242 "/>
<polygon class="st0" points="258.08,229.25 270.11,225.98 276,224.57 283.64,247.49 271.79,245.85 "/>
<polygon class="st6" points="295.99,249.56 302.43,275 295,258 "/>
<polygon class="st5" points="276,224.57 295.99,249.56 283.64,247.49 "/>
<path class="st0" d="M276,224.57"/>
<polygon class="st0" points="295.99,249.56 312,251 312.95,275 302.43,275 "/>
<polygon class="st0" points="276,224.57 290.25,221.72 300.65,249.98 295.99,249.56 "/>
<polygon class="st6" points="312,251 296.07,237.55 300.65,249.98 "/>
<polygon class="st5" points="296.07,237.55 304.47,219.73 290.25,221.72 295,237.06 "/>
<polygon class="st0" points="304.47,219.73 305.9,245.85 296.07,237.55 "/>
<polygon class="st5" points="312,251 322,240 304.81,225.98 305.9,245.85 "/>
<polygon class="st5" points="312.38,260.73 330,275 312.95,275 "/>
<polygon class="st6" points="312,251 319.98,242.23 312.38,260.73 "/>
<polygon class="st0" points="322,240 330,275 312.38,260.73 319.98,242.23 "/>
<polygon class="st6" points="304.47,219.73 318.52,218.57 322,240 304.81,225.98 "/>
<polygon class="st6" points="116.33,289.97 127.5,276.66 112.92,276.62 112.1,281.52 "/>
<polygon class="st5" points="122.46,282.67 127.13,298.57 121.43,295.38 116.33,289.97 "/>
<polygon class="st5" points="318.52,218.57 330,217.83 320.94,233.45 "/>
<polygon class="st0" points="322,240 337.65,230.12 330,217.83 320.94,233.45 "/>
<polygon class="st5" points="330,275 347.6,260.73 329.29,235.4 322,240 "/>
<polygon class="st5" points="337.65,230.12 356.09,230.12 350.27,219.27 337.65,218.36 330,217.83 "/>
<polygon class="st6" points="336.84,245.85 340.63,230.12 337.65,230.12 329.29,235.4 "/>
<polygon class="st0" points="347.6,260.73 361.54,273.81 330,275 "/>
<polygon class="st0" points="351.53,230.12 345.77,258.2 336.84,245.85 340.63,230.12 "/>
<polygon class="st0" points="356.09,230.12 368.42,221.72 350.27,219.27 "/>
<polygon class="st6" points="347.77,248.44 358.23,270.71 347.6,260.73 345.77,258.2 "/>
<polygon class="st6" points="350.27,236.26 356.09,230.12 351.53,230.12 "/>
<polygon class="st5" points="352.67,258.87 373.06,262.28 369.78,273.81 361.54,273.81 358.23,270.71 "/>
<polygon class="st5" points="350.27,254.22 365,245 359.34,227.9 356.09,230.12 350.27,236.26 347.77,248.44 "/>
<polygon class="st5" points="362.17,225.98 377,235 381.57,224.57 368.42,221.72 "/>
<polygon class="st0" points="365,245 373.06,262.28 352.67,258.87 350.27,254.22 "/>
<polygon class="st6" points="361.66,234.91 365,227.7 362.17,225.98 359.34,227.9 "/>
<polygon class="st0" points="364.55,243.65 377,235 365,227.7 361.66,234.91 "/>
<path class="st0" d="M367.13,249.56"/>
<polygon class="st6" points="369.03,253.64 368.42,240.96 364.55,243.65 365,245 "/>
<polygon class="st0" points="373.06,262.28 381.57,265 385.65,270.71 386.92,273.81 369.78,273.81 "/>
<polygon class="st5" points="377,235 378.35,263.97 373.06,262.28 369.03,253.64 368.42,240.96 "/>
<polygon class="st6" points="377.99,256.19 388,261 386.92,273.81 384.36,268.9 381.57,265 378.35,263.97 377,256.19 "/>
<polygon class="st6" points="377,235 386.41,228.91 386.41,225.81 381.57,224.57 "/>
<polygon class="st0" points="388,261 384.26,237.98 383.13,231.03 377,235 377.99,256.19 "/>
<polygon class="st5" points="397.35,228.91 386.41,225.81 386.41,228.91 383.13,231.03 384.59,240 "/>
<polygon class="st5" points="387.22,256.19 401.97,259.57 399.61,265 398.02,270.12 397.23,273.81 386.92,273.81 388,261 "/>
<polygon class="st6" points="388,237.04 387.22,256.19 384.59,240 "/>
<polygon class="st0" points="397.35,228.91 399.18,243.65 395.3,258.05 387.22,256.19 388,237.04 "/>
<polygon class="st6" points="401.97,259.57 398.2,247.3 395.3,258.05 "/>
<polygon class="st5" points="397.35,228.91 408.61,232.37 408.45,249.56 401.97,259.57 398.2,247.3 399.18,243.65 "/>
<polygon class="st0" points="422.41,236.77 408.61,232.37 408.45,249.56 412.52,245 416.9,240.96 "/>
<polygon class="st0" points="123.52,286.28 127.5,276.66 122.46,282.67 "/>
<polygon class="st0" points="127.5,276.66 127.36,285.25 127.13,298.57 123.52,286.28 "/>
<polygon class="st6" points="127.5,286.28 139.5,289.17 146,284 139.07,276.66 127.5,276.66 "/>
<polygon class="st5" points="127.13,298.57 131.51,299.43 135.16,299.43 138.36,299.25 142,292 139.5,289.17 127.5,286.28 "/>
<polygon class="st0" points="142,292 146,284 139.5,289.17 "/>
<polygon class="st5" points="139.07,276.66 147.05,276.62 146,284 "/>
<polygon class="st6" points="143.75,288.5 150,292 151.23,299.12 146,298.88 142,299 138.36,299.25 "/>
<polygon class="st0" points="146,284 151.23,279.89 147.05,276.62 "/>
<polygon class="st5" points="151.23,279.89 150,292 143.75,288.5 146,284 "/>
<polygon class="st0" points="150,292 154.81,299.61 151.23,299.12 "/>
<polygon class="st6" points="151.23,279.89 156.44,286.98 165,282 160.64,276.66 147.05,276.62 "/>
<polyline class="st5" points="150,292 151.15,292.3 164.62,295.81 160,300.89 154.81,299.61 "/>
<path class="st5" d="M164.62,295.81"/>
<polygon class="st6" points="166.88,288.5 164.62,295.81 160,300.89 162.54,301.79 166.88,304.13 174.06,307.37 175.39,295.81 "/>
<polyline class="st0" points="154.81,293.25 154.97,292.66 156.44,286.98 151.23,279.89 150.14,290.62 "/>
<polygon class="st6" points="155.14,293.34 162.54,295.26 156.18,288 "/>
<polygon class="st5" points="159.57,285.16 166.88,288.5 164.62,295.81 162.54,295.26 156.18,288 156.44,286.98 "/>
<polygon class="st0" points="165,282 166.88,288.5 159.57,285.16 "/>
<polygon class="st5" points="175.39,295.81 183.6,296.45 188,303 188,314.12 181.7,311.25 174.06,307.37 "/>
<polygon class="st5" points="172.72,293.51 177.37,285.16 163.91,276.66 160.64,276.66 165,282 166.88,288.5 "/>
<polygon class="st0" points="177.37,285.16 181.03,296.25 175.39,295.81 172.72,293.51 "/>
<polygon class="st6" points="177.37,285.16 186.51,275.83 163.91,276.66 "/>
<polygon class="st6" points="188,303 194,301 201.56,302.62 204.46,317.76 197.54,317.56 188,314.12 "/>
<polygon class="st0" points="183.6,296.45 194,301 188,303 "/>
<polygon class="st5" points="177.37,285.16 186,290 194.95,285.95 201,279 194.95,275.5 186.51,275.83 "/>
<polygon class="st6" points="194,301 190.84,287.81 186,290 177.37,285.16 181.03,296.25 183.6,296.45 "/>
<polygon class="st0" points="201.56,302.62 190.84,287.81 194,301 "/>
<polygon class="st6" points="204.46,275.83 207,299 201.56,302.62 190.84,287.81 194.95,285.95 201,279 194.95,275.5 "/>
<polygon class="st5" points="207,299 217.65,297.93 224.58,304.96 221,317 213.49,320.48 204.46,317.76 201.56,302.62 "/>
<polygon class="st0" points="205.88,288.79 217.65,297.93 207,299 "/>
<polygon class="st5" points="213.91,275.5 217.65,297.93 205.88,288.79 204.46,275.83 "/>
<polygon class="st6" points="225.43,275.5 224,286 223.59,299 224.58,304.96 217.65,297.93 213.91,275.5 "/>
<polygon class="st6" points="224.58,304.96 243,317 244.83,329.55 230.03,326.44 213.49,320.48 221,317 "/>
<polygon class="st5" points="225.43,275.5 251.59,288.5 243,317 224.58,304.96 223.59,299 "/>
<polygon class="st0" points="251.59,288.5 253.96,275.5 225.43,275.5 "/>
<polygon class="st0" points="244.83,329.55 251.59,320.48 246.67,304.83 243,317 "/>
<polygon class="st6" points="253.96,275.5 262.57,287.81 254,306 251.59,320.48 246.67,304.83 "/>
<polygon class="st5" points="262.57,287.81 276,275 253.96,275.5 "/>
<polygon class="st5" points="254.49,304.96 267.25,311.93 267.25,322.74 276,333.59 263.63,332.62 244.83,329.55 251.59,320.48 "/>
<polygon class="st0" points="259.07,295.24 267.25,311.93 254.49,304.96 "/>
<polygon class="st6" points="269.28,281.4 288.07,284.37 301.12,275 276,275 "/>
<polygon class="st6" points="266.19,309.75 281,311 283.64,321.23 295.99,333.63 277.37,333.59 276,333.59 267.25,322.74 
	267.25,311.93 "/>
<polygon class="st0" points="272.17,282 259.07,295.24 262.57,287.81 269.28,281.4 "/>
<polygon class="st5" points="281,311 283,306 282,293.35 290,285 288.07,284.37 272.17,282 259.07,295.24 266.19,309.75 "/>
<polygon class="st0" points="285.2,290.01 295.99,333.63 283.64,321.23 281,311 283,306 282,293.35 285.2,288.5 "/>
<polygon class="st0" points="290,285 295.99,287.81 306.59,279.68 302.43,273.81 301.12,275 288.07,284.37 "/>
<polygon class="st5" points="295.99,333.63 309.72,317 301.12,310.35 289.21,307.79 295.78,332.4 "/>
<polygon class="st6" points="301.12,284.37 301.12,300.11 309.72,317 301.12,310.35 289.21,307.79 285.2,288.5 290,285 
	295.99,287.81 "/>
<polygon class="st6" points="306.59,320.48 314.17,333.59 295.99,333.63 "/>
<polygon class="st5" points="304.01,305.79 319,293 317,286 317,275 302.43,275 306.59,279.68 301.12,284.37 301.12,300.11 "/>
<polygon class="st0" points="309.72,317 319,293 304.01,305.79 "/>
<polygon class="st6" points="316.03,300.68 334.8,296.25 344.19,285.26 338.87,274.67 317,275 317,286 319,293 314.9,296.5 "/>
<polygon class="st5" points="344.19,285.26 360,273.87 338.87,274.67 "/>
<polygon class="st0" points="334.8,296.25 351.53,296.5 360,284.37 360,273.87 344.19,285.26 "/>
<polygon class="st5" points="309.72,317 351.53,296.5 334.8,296.25 316.03,300.68 "/>
<polygon class="st5" points="309.72,317 314.17,333.59 306.59,320.48 "/>
<polygon class="st6" points="329.54,335.86 340.63,331.93 328.1,319.28 323.26,310.36 309.72,317 314.17,333.59 "/>
<polygon class="st0" points="351.53,296.5 331.89,323.11 328.1,319.28 323.26,310.36 "/>
<polygon class="st5" points="349.44,299.33 360,311 356.39,325.29 358.23,333.63 329.54,335.86 340.63,331.93 331.89,323.11 "/>
<polygon class="st6" points="360,311 371,302 369.78,291.27 377,280.81 375.44,273.81 360,273.87 360,284.37 349.44,299.33 "/>
<polygon class="st0" points="371,302 365.79,332.52 358.23,333.63 356.39,325.29 360,311 "/>
<polygon class="st5" points="371,302 385.46,284.37 375.44,273.81 377,280.81 369.78,291.27 "/>
<polygon class="st6" points="385.46,284.37 397.23,273.81 375.44,273.81 "/>
<polygon class="st0" points="377,294.68 396.51,288.5 396.55,280.31 397.23,273.81 385.46,284.37 "/>
<polygon class="st6" points="369.78,309.12 389,315 398.64,327.06 379.16,330.81 365.79,332.52 "/>
<polygon class="st5" points="389,315 396.51,288.5 401.97,305.79 409.15,315.76 415.17,322.01 398.64,327.06 "/>
<polygon class="st5" points="371,302 389,315 369.78,309.12 "/>
<polygon class="st6" points="377,294.68 371,302 389,315 396.51,288.5 "/>
</svg>
