<?xml version="1.0" encoding="utf-8"?>
<!-- Generator: Adobe Illustrator 24.3.0, SVG Export Plug-In . SVG Version: 6.00 Build 0)  -->
<svg version="1.1" id="Calque_1" xmlns="http://www.w3.org/2000/svg" xmlns:xlink="http://www.w3.org/1999/xlink" x="0px" y="0px"
	 viewBox="0 0 566.93 566.93" style="enable-background:new 0 0 566.93 566.93;" xml:space="preserve">
<style type="text/css">
	.st0{fill:#AFB2B2;stroke:#000000;stroke-miterlimit:10;}
	.st1{fill:#E1EAEA;stroke:#000000;stroke-miterlimit:10;}
	.st2{fill:#C6CCCC;stroke:#000000;stroke-miterlimit:10;}
	.st3{fill:#FFFFFF;}
</style>
<path class="st0" d="M134.48,273.55L64,232.24c15.55,24.44,12.22,10,15.55,24.44c3.33,14.44,17.78,35.55,10,53.33
	S64,361.08,64,361.08s23.33-7.74,28.88-11.07c5.55-3.33,44.2-30.52,44.2-30.52L134.48,273.55z"/>
<path class="st1" d="M400.23,293.81c-0.48,2.75-0.72,5.56-0.72,8.43c0,15.33,7.08,29.28,18.66,39.77
	c-23.24,8.31-44.19,10.18-68.66,12.35c-56.7,5.05-99.5-4.09-112.21-7.07c-24.71-5.8-37.06-8.69-51.1-15.32
	c-14.42-6.81-20.23-12.04-33.33-12.96c-12.15-0.86-18.56,2.86-26.66-2.36c-5.68-3.64-11.35-11.13-11.11-20.03"/>
<path class="st0" d="M115.1,296.62c0.29-10.9,9.3-17.52,11.11-18.85c12.28-9.02,28.24-5.49,32.22-4.71
	c47.26,9.2,98.39-40.34,189.97-34.17c26.31,1.77,44.23,7.35,77,17.89c-13.34,9.11-22.6,22.18-25.17,37.04"/>
<path class="st2" d="M433.95,335.51c-5.41,2.53-10.65,4.68-15.78,6.5c-11.59-10.49-18.66-24.44-18.66-39.77
	c0-18.31,10.09-34.66,25.9-45.46c0.99,0.32,1.98,0.64,2.99,0.97c51.56,16.6,54.69,26.71,54.44,30.64
	c-0.41,6.45-10.92,11.28-10,12.95c1.11,2.04,15.91-6.05,16.66-4.71C490.54,298.49,465.8,320.62,433.95,335.51z"/>
<circle class="st3" cx="456.17" cy="288.9" r="6.67"/>
<path class="st0" d="M340.65,238.36c0,0-56.34-42.77-57.45-35s5.38,6.28,5.47,17.03s-14.43,24.59-14.43,24.59L340.65,238.36z"/>
<path class="st0" d="M231.79,258.86c0,0-13.37-11.06-34.48-8.84c-21.11,2.22-28.18-4.79-27.42,4.27c0.76,9.06-5.18,9.56,8.9,13.2
	c14.08,3.64,21.75,1.8,21.75,1.8L231.79,258.86z"/>
<path class="st0" d="M334.57,353.59c0,0-51.76,48.22-53.64,40.6c-1.89-7.63,4.72-6.79,3.73-17.49c-1-10.7-16.83-23.02-16.83-23.02
	L334.57,353.59z"/>
<path class="st0" d="M240.39,348.45c0,0-13.37,11.06-34.48,8.84c-21.11-2.22-28.18,4.79-27.42-4.27c0.76-9.06-5.18-9.56,8.9-13.2
	s21.75-1.8,21.75-1.8L240.39,348.45z"/>
</svg>
