<?xml version="1.0" encoding="utf-8"?>
<!-- Generator: Adobe Illustrator 24.2.3, SVG Export Plug-In . SVG Version: 6.00 Build 0)  -->
<svg version="1.1" id="Lag_1" xmlns="http://www.w3.org/2000/svg" xmlns:xlink="http://www.w3.org/1999/xlink" x="0px" y="0px"
	 viewBox="0 0 595.28 841.89" style="enable-background:new 0 0 595.28 841.89;" xml:space="preserve">
<style type="text/css">
	.st0{fill:#1F9EBC;}
	.st1{fill:#005177;}
	.st2{fill:#003E56;}
	.st3{fill:#BA9B09;}
	.st4{fill:#015177;}
	.st5{fill:#3F8899;}
	.st6{fill:#FFFFFF;}
	.st7{fill:#3E8899;}
	.st8{fill:#9ED2E7;}
	.st9{fill:#432918;}
	.st10{fill:#9DD2E7;}
</style>
<g>
	<circle class="st0" cx="425.89" cy="103.05" r="36.11"/>
</g>
<g>
	<circle class="st1" cx="425.89" cy="103.05" r="20.38"/>
</g>
<g>
	<circle class="st0" cx="245.66" cy="103.05" r="36.11"/>
</g>
<g>
	<path class="st2" d="M169.93,389.18v139.75c0,0.83-0.02,1.65-0.07,2.46c-1.28,21.75-19.32,38.98-41.37,38.98
		c-22.06,0-40.1-17.23-41.38-38.98c-0.05-0.81-0.07-1.63-0.07-2.46v-15.47c0-68.63,28.49-124.28,63.63-124.28H169.93z"/>
</g>
<path d="M-250.17,605.68c0,0.83,0.02,1.65,0.07,2.46h-0.07V605.68z"/>
<path d="M-167.28,605.68v2.46h-0.07C-167.3,607.33-167.28,606.51-167.28,605.68z"/>
<g>
	<path class="st2" d="M165.05,509.4l-72.6,40L7.94,396l16.87-9.29c30.78-16.96,72.65,0,93.52,37.88L165.05,509.4z"/>
</g>
<g>
	<path class="st2" d="M563.47,507.25v122.1c0,43.24-28.49,78.3-63.63,78.3h-19.26V382.97h19.26
		C534.98,382.97,563.47,438.62,563.47,507.25z"/>
</g>
<g>
	<circle class="st1" cx="245.66" cy="103.05" r="20.38"/>
</g>
<g>
	<circle class="st0" cx="333.54" cy="159.25" r="97"/>
</g>
<g>
	<rect x="333.54" y="576.96" class="st2" width="116.77" height="164.29"/>
</g>
<g>
	<path class="st0" d="M525.04,488.86c0,105.76-85.73,191.5-191.5,191.5c-105.76,0-191.5-85.74-191.5-191.5
		c0-40.05,12.3-77.23,33.32-107.96c3.93-5.76,8.17-11.29,12.71-16.57c35.11-40.99,87.26-66.97,145.47-66.97
		C439.31,297.36,525.04,383.1,525.04,488.86z"/>
</g>
<g>
	
		<rect x="50.04" y="287.45" transform="matrix(0.9066 -0.422 0.422 0.9066 -97.1172 151.2183)" class="st3" width="485.93" height="15.04"/>
</g>
<g>
	<rect x="236.54" y="159.25" class="st0" width="194" height="316"/>
</g>
<g>
	<rect x="216.77" y="620.1" class="st4" width="116.77" height="121.15"/>
</g>
<g>
	<path class="st5" d="M368.8,631.57L368.8,631.57c-4.56,0-8.25-3.7-8.25-8.25V590.5c0-4.56,3.7-8.25,8.25-8.25h0
		c4.56,0,8.25,3.7,8.25,8.25v32.82C377.05,627.88,373.36,631.57,368.8,631.57z"/>
</g>
<g>
	<path class="st5" d="M253.78,598.05L253.78,598.05c-4.56,0-8.25-3.7-8.25-8.25v-32.82c0-4.56,3.7-8.25,8.25-8.25h0
		c4.56,0,8.25,3.7,8.25,8.25v32.82C262.03,594.36,258.34,598.05,253.78,598.05z"/>
</g>
<g>
	<path class="st5" d="M498.38,551.2L498.38,551.2c-4.56,0-8.25-3.7-8.25-8.25v-32.82c0-4.56,3.7-8.25,8.25-8.25h0
		c4.56,0,8.25,3.7,8.25,8.25v32.82C506.63,547.51,502.94,551.2,498.38,551.2z"/>
</g>
<g>
	<path class="st4" d="M525.04,496.85c0,105.77-85.73,191.5-191.5,191.5c-105.76,0-191.5-85.73-191.5-191.5
		c0-2.68,0.05-5.34,0.17-7.99c34.49,70.88,107.21,119.72,191.33,119.72s156.83-48.83,191.33-119.7
		C524.99,491.52,525.04,494.18,525.04,496.85z"/>
</g>
<g>
	<path class="st6" d="M372.01,144.71c0,11.76-9.52,21.28-21.28,21.28c-7.07,0-13.31-3.43-17.18-8.73c-3.88,5.3-10.13,8.73-17.2,8.73
		c-11.74,0-21.28-9.52-21.28-21.28c0-11.74,9.54-21.28,21.28-21.28c7.07,0,13.31,3.45,17.2,8.73c3.87-5.28,10.11-8.73,17.18-8.73
		C362.49,123.43,372.01,132.96,372.01,144.71z"/>
</g>
<g>
	<path class="st7" d="M374.04,184v62.7c0,24.61-18.13,44.55-40.5,44.55s-40.5-19.94-40.5-44.55V184c0-13.67,10.07-24.75,22.5-24.75
		h36C363.97,159.25,374.04,170.33,374.04,184z"/>
</g>
<g>
	<path class="st8" d="M374.04,181.75v40.5c0,22.37-18.13,40.5-40.5,40.5s-40.5-18.13-40.5-40.5v-40.5c0-12.43,10.07-22.5,22.5-22.5
		h36C363.97,159.25,374.04,169.32,374.04,181.75z"/>
</g>
<g>
	<path class="st9" d="M353.04,159.25c0,10.77-8.73,19.5-19.5,19.5s-19.5-8.73-19.5-19.5H353.04z"/>
</g>
<g>
	<path class="st9" d="M356.42,246.31h-45.75c-2.28,0-4.13-1.85-4.13-4.12v0c0-2.28,1.85-4.13,4.13-4.13h45.75
		c2.28,0,4.13,1.85,4.13,4.13v0C360.54,244.46,358.7,246.31,356.42,246.31z"/>
</g>
<g>
	<rect x="331.25" y="160.55" class="st9" width="4.59" height="81.64"/>
</g>
<g>
	<circle cx="349.71" cy="144.96" r="3.33"/>
</g>
<g>
	<circle cx="317.37" cy="145.73" r="3.33"/>
</g>
<g>
	<path class="st4" d="M201.11,741.18h132.43v24.56H188.73v-8.01C188.73,748.6,194.29,741.18,201.11,741.18z"/>
</g>
<g>
	<path class="st2" d="M478.35,757.73v8.01H333.54v-24.56h132.03C472.63,741.18,478.35,748.6,478.35,757.73z"/>
</g>
<g>
	<path class="st10" d="M333.54,565.52L333.54,565.52c-42.3,0-76.59-34.29-76.59-76.59v-70.7c0-42.3,34.29-76.59,76.59-76.59h0
		c42.3,0,76.59,34.29,76.59,76.59v70.7C410.13,531.23,375.84,565.52,333.54,565.52z"/>
</g>
<g>
	<path class="st2" d="M120.56,428.64l-73.5,38.35L7.94,396l16.87-9.29c30.78-16.96,72.65,0,93.52,37.88L120.56,428.64z"/>
</g>
<g>
	<path class="st3" d="M498.38,214.6l20.32-48.61c3.14,1.31,5.53,3.61,6.83,6.28c1.31,2.66,1.54,5.68,0.39,8.43l-12,28.71
		C511.62,214.9,504.67,217.23,498.38,214.6z"/>
</g>
<g>
	<path class="st3" d="M530.31,208.72c-2.54,2.32-5.66,3.53-8.65,3.59c-3,0.07-5.87-1.01-7.91-3.23l-21.28-23.24
		c-4.08-4.45-3.27-11.83,1.8-16.47L530.31,208.72z"/>
</g>
<g>
	<path class="st3" d="M512.52,332.23L512.52,332.23c-26.85,0-48.61-21.76-48.61-48.61v-41.73c0-26.85,21.76-48.61,48.61-48.61h0
		c26.85,0,48.61,21.76,48.61,48.61v41.73C561.13,310.46,539.37,332.23,512.52,332.23z"/>
</g>
<g>
	<path class="st5" d="M231.08,442.4L231.08,442.4c-4.56,0-8.25-3.7-8.25-8.25v-21.17c0-4.56,3.7-8.25,8.25-8.25h0
		c4.56,0,8.25,3.7,8.25,8.25v21.17C239.33,438.7,235.64,442.4,231.08,442.4z"/>
</g>
<g>
	<path class="st5" d="M189.11,526.54L189.11,526.54c-4.56,0-8.25-3.7-8.25-8.25v-11.72c0-4.56,3.7-8.25,8.25-8.25h0
		c4.56,0,8.25,3.7,8.25,8.25v11.72C197.37,522.84,193.67,526.54,189.11,526.54z"/>
</g>
<g>
	<path class="st5" d="M447.05,503.3L447.05,503.3c-4.56,0-8.25-3.7-8.25-8.25V464.5c0-4.56,3.7-8.25,8.25-8.25l0,0
		c4.56,0,8.25,3.7,8.25,8.25v30.54C455.31,499.6,451.61,503.3,447.05,503.3z"/>
</g>
<g>
	<path class="st5" d="M405.95,315.91L405.95,315.91c-4.56,0-8.25-3.7-8.25-8.25v-32.82c0-4.56,3.7-8.25,8.25-8.25l0,0
		c4.56,0,8.25,3.7,8.25,8.25v32.82C414.2,312.22,410.51,315.91,405.95,315.91z"/>
</g>
<g>
	<path class="st5" d="M470.26,407.46L470.26,407.46c-4.56,0-8.25-3.7-8.25-8.25v-4.92c0-4.56,3.7-8.25,8.25-8.25h0
		c4.56,0,8.25,3.7,8.25,8.25v4.92C478.52,403.77,474.82,407.46,470.26,407.46z"/>
</g>
<g>
	<path class="st5" d="M269.39,337.34L269.39,337.34c-4.56,0-8.25-3.7-8.25-8.25V307.9c0-4.56,3.7-8.25,8.25-8.25h0
		c4.56,0,8.25,3.7,8.25,8.25v21.19C277.65,333.64,273.95,337.34,269.39,337.34z"/>
</g>
<g>
	<path class="st5" d="M191.87,371.27v17.23c0,4.56-3.7,8.25-8.26,8.25s-8.25-3.69-8.25-8.25v-7.6c3.93-5.76,8.17-11.29,12.71-16.57
		c0.5,0.32,0.96,0.69,1.38,1.11C190.94,366.93,191.87,368.99,191.87,371.27z"/>
</g>
<g>
	<path class="st5" d="M251.46,230.4L251.46,230.4c-4.56,0-8.25-3.7-8.25-8.25v-12.53c0-4.56,3.7-8.25,8.25-8.25h0
		c4.56,0,8.25,3.7,8.25,8.25v12.53C259.72,226.7,256.02,230.4,251.46,230.4z"/>
</g>
</svg>
