<?xml version="1.0" encoding="utf-8"?>
<!-- Generator: Adobe Illustrator 24.3.0, SVG Export Plug-In . SVG Version: 6.00 Build 0)  -->
<svg version="1.1" id="Calque_1" xmlns="http://www.w3.org/2000/svg" xmlns:xlink="http://www.w3.org/1999/xlink" x="0px" y="0px"
	 viewBox="0 0 566.93 566.93" style="enable-background:new 0 0 566.93 566.93;" xml:space="preserve">
<style type="text/css">
	.st0{fill:#9CD2E7;}
	.st1{fill:#226C96;}
	.st2{fill:#035177;stroke:#035177;stroke-miterlimit:10;}
	.st3{fill:#DFE7EA;stroke:#DFE7EA;stroke-miterlimit:10;}
	.st4{fill:#2B87AF;}
	.st5{fill:#EBF0F2;stroke:#EBF0F2;stroke-miterlimit:10;}
	.st6{fill:#FFFFFF;stroke:#FFFFFF;stroke-miterlimit:10;}
	.st7{fill:#F4EFED;}
	.st8{fill:#E2DCD9;}
	.st9{fill:#6D574F;}
</style>
<g>
	<path class="st0" d="M372.87,401.5c-3.13,0-5.67-2.41-5.67-5.37v-4.2c0-3.51-2.99-6.37-6.67-6.37H182.77v6.37
		c0,2.97-2.54,5.38-5.67,5.38h-51.15c-3.13,0-5.67-2.41-5.67-5.38v-14.26c0-2.96,2.54-5.37,5.67-5.37h31.75
		c2.01,0,3.9-0.75,5.33-2.1c1.43-1.36,2.22-3.18,2.22-5.11c0-3.42,2.94-6.21,6.55-6.21h19.85c3.54,0,6.88-1.32,9.39-3.7
		c2.51-2.38,3.9-5.56,3.9-8.96c0-6.98-5.96-12.66-13.28-12.66h-70.17c-13.31,0-24.13-10.29-24.13-22.94v-13.53
		c0-12.65,10.83-22.94,24.13-22.94h106.25l15.86,19.61h44.85l15.86-19.61h124.57c3.75,0,7.29,1.39,9.94,3.92
		c2.65,2.52,4.11,5.87,4.11,9.42c0,7.36-6.3,13.34-14.05,13.34h-60.41c-3.68,0-6.67,2.86-6.67,6.37v1.68c0,3.51,2.99,6.37,6.67,6.37
		h54.24c2.58,0,5,0.96,6.83,2.69c1.82,1.72,2.82,4.02,2.82,6.46c0,5.05-4.33,9.15-9.64,9.15h-90.95c-3.75,0-7.27,1.39-9.92,3.91
		c-2.66,2.52-4.12,5.89-4.12,9.47c0,6.58,5.62,11.94,12.53,11.94h66.45c3.13,0,5.67,2.41,5.67,5.37v6.71c0,3.52,3,6.38,6.68,6.38
		h41.45c3.4,0,6.6,1.26,9,3.55c2.4,2.28,3.72,5.31,3.72,8.54c0,6.66-5.71,12.08-12.72,12.08H372.87z"/>
	<path class="st0" d="M428.87,274.64c3.63,0,7.03,1.34,9.6,3.78c2.55,2.43,3.95,5.64,3.95,9.06c0,7.08-6.08,12.84-13.55,12.84
		h-60.41c-3.95,0-7.17,3.08-7.17,6.87v1.68c0,3.79,3.22,6.87,7.17,6.87h54.24c2.45,0,4.75,0.91,6.48,2.55
		c1.71,1.63,2.66,3.79,2.66,6.1c0,4.77-4.1,8.65-9.14,8.65h-90.95c-3.88,0-7.53,1.44-10.27,4.05c-2.76,2.62-4.28,6.11-4.28,9.84
		c0,6.86,5.84,12.44,13.03,12.44h66.45c2.85,0,5.17,2.19,5.17,4.87v6.71c0,3.79,3.22,6.88,7.18,6.88h41.45
		c3.27,0,6.35,1.21,8.66,3.41c2.3,2.18,3.56,5.09,3.56,8.17c0,6.39-5.48,11.58-12.22,11.58h-77.61c-2.85,0-5.17-2.19-5.17-4.87v-4.2
		c0-3.79-3.22-6.87-7.17-6.87H183.27h-1v1v5.87c0,2.69-2.32,4.88-5.17,4.88h-51.15c-2.85,0-5.17-2.19-5.17-4.88v-14.26
		c0-2.69,2.32-4.87,5.17-4.87h31.75c2.14,0,4.15-0.8,5.67-2.24c1.53-1.46,2.38-3.4,2.38-5.47c0-3.15,2.71-5.71,6.05-5.71h19.85
		c3.67,0,7.13-1.36,9.73-3.84c2.61-2.48,4.05-5.79,4.05-9.32c0-7.26-6.18-13.16-13.78-13.16h-70.17
		c-13.03,0-23.63-10.07-23.63-22.44v-13.53c0-12.37,10.6-22.44,23.63-22.44h106.01l15.56,19.24l0.3,0.37h0.48h44.37h0.48l0.3-0.37
		l15.56-19.24H428.87 M428.87,273.64H304.06l-15.86,19.61h-44.37l-15.86-19.61H121.48c-13.6,0-24.63,10.49-24.63,23.44v13.53
		c0,12.94,11.03,23.44,24.63,23.44h70.17c7.06,0,12.78,5.44,12.78,12.16c0,3.36-1.43,6.4-3.74,8.6c-2.31,2.2-5.51,3.57-9.04,3.57
		H171.8c-3.89,0-7.05,3-7.05,6.71c0,1.85-0.79,3.53-2.07,4.75c-1.28,1.21-3.03,1.97-4.98,1.97h-31.75c-3.41,0-6.17,2.63-6.17,5.87
		v14.26c0,3.25,2.77,5.88,6.17,5.88h51.15c3.41,0,6.17-2.63,6.17-5.88v-5.87h177.26c3.41,0,6.17,2.63,6.17,5.87v4.2
		c0,3.24,2.77,5.87,6.17,5.87h77.61c7.31,0,13.22-5.63,13.22-12.58c0-3.47-1.48-6.62-3.87-8.9c-2.39-2.27-5.7-3.68-9.35-3.68h-41.45
		c-3.42,0-6.18-2.63-6.18-5.88v-6.71c0-3.24-2.76-5.87-6.17-5.87h-66.45c-6.65,0-12.03-5.12-12.03-11.44c0-3.56,1.51-6.78,3.97-9.11
		c2.45-2.33,5.84-3.77,9.58-3.77h90.95c5.6,0,10.14-4.33,10.14-9.65c0-2.66-1.13-5.08-2.97-6.82c-1.84-1.75-4.37-2.83-7.17-2.83
		h-54.24c-3.41,0-6.17-2.63-6.17-5.87v-1.68c0-3.24,2.77-5.87,6.17-5.87h60.41c8.03,0,14.55-6.2,14.55-13.84
		c0-3.83-1.63-7.28-4.26-9.79C436.53,275.19,432.89,273.64,428.87,273.64L428.87,273.64z"/>
</g>
<g>
	<path class="st1" d="M184.4,357.92c-4.97,0-9.01-3.48-9.01-7.76c0-4.83-4.49-8.76-10.01-8.76h-27.71c-6.29,0-11.4-4.42-11.4-9.84
		v-2.72c0-5.43,5.12-9.84,11.4-9.84h28.51c2.46,0,4.46-1.77,4.46-3.94v-1.38c0-2.17-2-3.94-4.46-3.94h-52.3
		c-1.91,0-3.46-1.32-3.46-2.94s1.55-2.94,3.46-2.94H215.3c1.91,0,3.46,1.32,3.46,2.94c0,2.17,2,3.94,4.46,3.94h19.81
		c1.91,0,3.46,1.32,3.46,2.94v1.38c0,1.62-1.55,2.94-3.46,2.94h-39.22c-3.99,0-7.23,2.85-7.23,6.35s3.25,6.35,7.23,6.35h29.32
		c3.44,0,6.23,2.4,6.23,5.35c0,3.5,3.25,6.35,7.23,6.35h9.9c4.97,0,9.01,3.48,9.01,7.76c0,4.28-4.04,7.76-9.01,7.76H184.4z"/>
	<path class="st1" d="M215.3,304.35c1.63,0,2.96,1.1,2.96,2.44c0,2.45,2.23,4.44,4.96,4.44h19.81c1.63,0,2.96,1.1,2.96,2.44v1.38
		c0,1.35-1.33,2.44-2.96,2.44h-39.22c-4.27,0-7.73,3.07-7.73,6.85s3.47,6.85,7.73,6.85h29.32c3.16,0,5.73,2.18,5.73,4.85
		c0,3.78,3.47,6.85,7.73,6.85h9.9c4.69,0,8.51,3.26,8.51,7.26s-3.82,7.26-8.51,7.26h-72.1c-4.69,0-8.51-3.26-8.51-7.26
		c0-5.11-4.71-9.26-10.51-9.26h-27.71c-6.01,0-10.9-4.19-10.9-9.34v-2.72c0-5.15,4.89-9.34,10.9-9.34h28.51
		c2.74,0,4.96-1.99,4.96-4.44v-1.38c0-2.45-2.23-4.44-4.96-4.44h-52.3c-1.63,0-2.96-1.1-2.96-2.44s1.33-2.44,2.96-2.44H215.3
		 M215.3,303.35H113.88c-2.19,0-3.96,1.54-3.96,3.44c0,1.9,1.77,3.44,3.96,3.44h52.3c2.19,0,3.96,1.54,3.96,3.44v1.38
		c0,1.9-1.77,3.44-3.96,3.44h-28.51c-6.57,0-11.9,4.63-11.9,10.34v2.72c0,5.71,5.33,10.34,11.9,10.34h27.71
		c5.25,0,9.51,3.7,9.51,8.26s4.26,8.26,9.51,8.26h72.1c5.25,0,9.51-3.7,9.51-8.26s-4.26-8.26-9.51-8.26h-9.9
		c-3.72,0-6.73-2.62-6.73-5.85v0c0-3.23-3.02-5.85-6.73-5.85h-29.32c-3.72,0-6.73-2.62-6.73-5.85c0-3.23,3.02-5.85,6.73-5.85h39.22
		c2.19,0,3.96-1.54,3.96-3.44v-1.38c0-1.9-1.77-3.44-3.96-3.44h-19.81c-2.19,0-3.96-1.54-3.96-3.44
		C219.27,304.89,217.49,303.35,215.3,303.35L215.3,303.35z"/>
</g>
<path class="st2" d="M249.92,337.42h-92.21c-2.76,0-5-2.24-5-5v-0.3c0-2.76,2.24-5,5-5h92.21c2.76,0,5,2.24,5,5v0.3
	C254.92,335.18,252.68,337.42,249.92,337.42z"/>
<g>
	<path class="st1" d="M116.26,358.32c-1.04,0-1.88-0.84-1.88-1.88s0.84-1.88,1.88-1.88h23.37c1.04,0,1.88,0.84,1.88,1.88
		s-0.84,1.88-1.88,1.88H116.26z"/>
	<path class="st1" d="M139.63,355.06c0.76,0,1.38,0.62,1.38,1.38s-0.62,1.38-1.38,1.38h-23.37c-0.76,0-1.38-0.62-1.38-1.38
		s0.62-1.38,1.38-1.38H139.63 M139.63,354.06h-23.37c-1.31,0-2.38,1.06-2.38,2.38s1.06,2.38,2.38,2.38h23.37
		c1.31,0,2.38-1.06,2.38-2.38S140.95,354.06,139.63,354.06L139.63,354.06z"/>
</g>
<g>
	<path class="st1" d="M225.6,298.89c-1.04,0-1.88-0.84-1.88-1.88s0.84-1.88,1.88-1.88h10.3c1.04,0,1.88,0.84,1.88,1.88
		s-0.84,1.88-1.88,1.88H225.6z"/>
	<path class="st1" d="M235.9,295.64c0.76,0,1.38,0.62,1.38,1.38s-0.62,1.38-1.38,1.38h-10.3c-0.76,0-1.38-0.62-1.38-1.38
		s0.62-1.38,1.38-1.38H235.9 M235.9,294.64h-10.3c-1.31,0-2.38,1.06-2.38,2.38c0,1.31,1.06,2.38,2.38,2.38h10.3
		c1.31,0,2.38-1.06,2.38-2.38C238.28,295.7,237.22,294.64,235.9,294.64L235.9,294.64z"/>
</g>
<path class="st2" d="M265.22,352.48h-15.85c-1.75,0-3.17-1.42-3.17-3.17l0,0c0-1.75,1.42-3.17,3.17-3.17h15.85
	c1.75,0,3.17,1.42,3.17,3.17l0,0C268.39,351.06,266.97,352.48,265.22,352.48z"/>
<path class="st2" d="M170.54,352.87h-15.05c-1.75,0-3.17-1.42-3.17-3.17l0,0c0-1.75,1.42-3.17,3.17-3.17h15.05
	c1.75,0,3.17,1.42,3.17,3.17l0,0C173.7,351.46,172.29,352.87,170.54,352.87z"/>
<g>
	<path class="st1" d="M404.56,340.49c-2.94,0-5.33-2.39-5.33-5.33v-2.98c0-3.28-2.67-5.95-5.95-5.95h-23.55
		c-2.52,0-4.57-2.05-4.57-4.57c0-1.41-1.15-2.56-2.56-2.56h-50.63c-2.13,0-3.86-1.73-3.86-3.86c0-2.13,1.73-3.86,3.86-3.86h1.58
		c3.55,0,6.44-2.89,6.44-6.44s-2.89-6.44-6.44-6.44H298.9c-1.91,0-3.46-1.55-3.46-3.46c0-1.91,1.55-3.46,3.46-3.46h60.85
		c2.43,0,4.41,1.98,4.41,4.41c0,1.94,1.58,3.51,3.51,3.51h33.04c3,0,5.44,2.44,5.44,5.44c0,3-2.44,5.44-5.44,5.44h-13.47
		c-2.68,0-4.86,2.18-4.86,4.86s2.18,4.86,4.86,4.86h53.09c1.69,0,3.07,1.38,3.07,3.07s-1.38,3.07-3.07,3.07h-7.96
		c-3.1,0-5.62,2.52-5.62,5.62v3.56c0,2.8-2.28,5.08-5.08,5.08H404.56z"/>
	<path class="st1" d="M359.75,292.07c2.16,0,3.91,1.75,3.91,3.91c0,2.21,1.8,4.01,4.01,4.01h33.04c2.73,0,4.94,2.22,4.94,4.94
		s-2.22,4.94-4.94,4.94h-13.47c-2.95,0-5.36,2.4-5.36,5.36s2.4,5.36,5.36,5.36h53.09c1.41,0,2.57,1.15,2.57,2.57
		c0,1.41-1.15,2.57-2.57,2.57h-7.96c-3.37,0-6.12,2.74-6.12,6.12v3.56c0,2.53-2.06,4.58-4.58,4.58h-17.11
		c-2.66,0-4.83-2.17-4.83-4.83v-2.98c0-3.56-2.89-6.45-6.45-6.45h-23.55c-2.25,0-4.07-1.83-4.07-4.07c0-1.69-1.37-3.06-3.06-3.06
		h-50.63c-1.85,0-3.36-1.51-3.36-3.36c0-1.85,1.51-3.36,3.36-3.36h1.58c3.83,0,6.94-3.11,6.94-6.94s-3.11-6.94-6.94-6.94H298.9
		c-1.63,0-2.96-1.33-2.96-2.96s1.33-2.96,2.96-2.96H359.75 M359.75,291.07H298.9c-2.19,0-3.96,1.77-3.96,3.96s1.77,3.96,3.96,3.96
		h14.66c3.28,0,5.94,2.66,5.94,5.94c0,3.28-2.66,5.94-5.94,5.94h-1.58c-2.41,0-4.36,1.95-4.36,4.36c0,2.41,1.95,4.36,4.36,4.36
		h50.63c1.14,0,2.06,0.92,2.06,2.06c0,2.8,2.27,5.07,5.07,5.07h23.55c3.01,0,5.45,2.44,5.45,5.45v2.98c0,3.22,2.61,5.83,5.83,5.83
		h17.11c3.08,0,5.58-2.5,5.58-5.58v-3.56c0-2.83,2.29-5.12,5.12-5.12h7.96c1.97,0,3.57-1.6,3.57-3.57s-1.6-3.57-3.57-3.57h-53.09
		c-2.41,0-4.36-1.95-4.36-4.36c0-2.41,1.95-4.36,4.36-4.36h13.47c3.28,0,5.94-2.66,5.94-5.94c0-3.28-2.66-5.94-5.94-5.94h-33.04
		c-1.66,0-3.01-1.35-3.01-3.01C364.66,293.27,362.46,291.07,359.75,291.07L359.75,291.07z"/>
</g>
<path class="st2" d="M398.34,315.73h-51.19c-2.19,0-3.96-1.77-3.96-3.96l0,0c0-2.19,1.77-3.96,3.96-3.96h51.19
	c2.19,0,3.96,1.77,3.96,3.96l0,0C402.3,313.95,400.52,315.73,398.34,315.73z"/>
<g>
	<path class="st3" d="M355,306.29h-0.28l-18.91-28.04c-1.15-1.7-4.02-1.7-5.17,0l-18.99,28.16"/>
	<path class="st2" d="M311.64,306.4h0.28l11.98,17.76c4.58,6.79,14.46,6.79,19.04,0L355,306.29"/>
	<g>
		<path class="st4" d="M326.16,315.57c-0.46,0-0.83-0.38-0.83-0.85c0-1.02-0.82-1.85-1.83-1.85h-1.6c-0.46,0-0.83-0.38-0.83-0.85
			c0-1.02-0.82-1.85-1.83-1.85h-2.13c-0.46,0-0.83-0.38-0.83-0.85s0.37-0.85,0.83-0.85h32.5c0.46,0,0.83,0.38,0.83,0.85
			s-0.37,0.85-0.83,0.85h-16.52c-1.01,0-1.83,0.83-1.83,1.85c0,1.02,0.82,1.85,1.83,1.85h10.66c0.46,0,0.83,0.38,0.83,0.85
			s-0.37,0.85-0.83,0.85H326.16z"/>
		<g>
			<path class="st4" d="M349.6,308.98c0.18,0,0.33,0.16,0.33,0.35s-0.15,0.35-0.33,0.35h-16.52c-1.29,0-2.33,1.05-2.33,2.35
				s1.05,2.35,2.33,2.35h10.66c0.18,0,0.33,0.16,0.33,0.35s-0.15,0.35-0.33,0.35h-17.58c-0.18,0-0.33-0.16-0.33-0.35
				c0-1.29-1.05-2.35-2.33-2.35h-1.6c-0.18,0-0.33-0.16-0.33-0.35c0-1.29-1.05-2.35-2.33-2.35h-2.13c-0.18,0-0.33-0.16-0.33-0.35
				s0.15-0.35,0.33-0.35H349.6 M349.6,307.98h-32.5c-0.74,0-1.33,0.6-1.33,1.35c0,0.74,0.6,1.35,1.33,1.35h2.13
				c0.74,0,1.33,0.6,1.33,1.35c0,0.74,0.6,1.35,1.33,1.35h1.6c0.74,0,1.33,0.6,1.33,1.35c0,0.74,0.6,1.35,1.33,1.35h17.58
				c0.74,0,1.33-0.6,1.33-1.35c0-0.74-0.6-1.35-1.33-1.35h-10.66c-0.74,0-1.33-0.6-1.33-1.35c0-0.74,0.6-1.35,1.33-1.35h16.52
				c0.74,0,1.33-0.6,1.33-1.35C350.94,308.58,350.34,307.98,349.6,307.98L349.6,307.98z"/>
		</g>
	</g>
</g>
<g>
	<path class="st1" d="M305.63,326.62c-1.47,0-2.67-1.2-2.67-2.67c0-1.47,1.2-2.67,2.67-2.67h10.3c1.47,0,2.67,1.2,2.67,2.67
		c0,1.47-1.2,2.67-2.67,2.67H305.63z"/>
	<path class="st1" d="M315.93,321.78c1.2,0,2.17,0.97,2.17,2.17s-0.97,2.17-2.17,2.17h-10.3c-1.2,0-2.17-0.97-2.17-2.17
		s0.97-2.17,2.17-2.17H315.93 M315.93,320.78h-10.3c-1.75,0-3.17,1.42-3.17,3.17c0,1.75,1.42,3.17,3.17,3.17h10.3
		c1.75,0,3.17-1.42,3.17-3.17C319.1,322.2,317.68,320.78,315.93,320.78L315.93,320.78z"/>
</g>
<g>
	<path class="st1" d="M276.78,391.58c-2.22,0-4.02-1.8-4.02-4.02v-2.88c0-2.56-2.08-4.64-4.64-4.64h-6.44
		c-1.32,0-2.39-1.07-2.39-2.39s1.07-2.39,2.39-2.39h42.98c2.22,0,4.03-1.81,4.03-4.03c0-2.22-1.81-4.03-4.03-4.03h-10.9
		c-2.38,0-4.31-1.93-4.31-4.31s1.93-4.31,4.31-4.31h26.75c1.62,0,2.94-1.32,2.94-2.94c0-1.92,1.56-3.48,3.48-3.48h49.26
		c1.49,0,2.71,1.21,2.71,2.71s-1.21,2.71-2.71,2.71H364.3c-2.93,0-5.31,2.38-5.31,5.31s2.38,5.31,5.31,5.31h1.28
		c1.67,0,3.03,1.36,3.03,3.03c0,1.67-1.36,3.03-3.03,3.03H324.6c-1.2,0-2.17,0.97-2.17,2.17c0,1.99-1.62,3.61-3.61,3.61h-19.06
		c-2.71,0-4.91,2.2-4.91,4.91v2.41c0,2.33-1.89,4.22-4.22,4.22H276.78z"/>
	<path class="st1" d="M376.17,352.67c1.22,0,2.21,0.99,2.21,2.21s-0.99,2.21-2.21,2.21H364.3c-3.2,0-5.81,2.61-5.81,5.81
		c0,3.2,2.61,5.81,5.81,5.81h1.28c1.39,0,2.53,1.13,2.53,2.53s-1.13,2.53-2.53,2.53H324.6c-1.47,0-2.67,1.2-2.67,2.67
		c0,1.71-1.39,3.11-3.11,3.11h-19.06c-2.98,0-5.41,2.43-5.41,5.41v2.41c0,2.05-1.67,3.72-3.72,3.72h-13.85
		c-1.94,0-3.52-1.58-3.52-3.52v-2.88c0-2.84-2.31-5.14-5.14-5.14h-6.44c-1.04,0-1.89-0.85-1.89-1.89s0.85-1.89,1.89-1.89h42.98
		c2.5,0,4.53-2.03,4.53-4.53s-2.03-4.53-4.53-4.53h-10.9c-2.1,0-3.81-1.71-3.81-3.81s1.71-3.81,3.81-3.81h26.75
		c1.9,0,3.44-1.54,3.44-3.44c0-1.64,1.33-2.98,2.98-2.98H376.17 M376.17,351.67H326.9c-2.2,0-3.98,1.78-3.98,3.98
		c0,1.35-1.09,2.44-2.44,2.44h-26.75c-2.66,0-4.81,2.15-4.81,4.81c0,2.66,2.15,4.81,4.81,4.81h10.9c1.95,0,3.53,1.58,3.53,3.53v0
		c0,1.95-1.58,3.53-3.53,3.53h-42.98c-1.59,0-2.89,1.29-2.89,2.89s1.29,2.89,2.89,2.89h6.44c2.29,0,4.14,1.86,4.14,4.14v2.88
		c0,2.5,2.02,4.52,4.52,4.52h13.85c2.61,0,4.72-2.11,4.72-4.72v-2.41c0-2.44,1.98-4.41,4.41-4.41h19.06c2.27,0,4.11-1.84,4.11-4.11
		c0-0.92,0.75-1.67,1.67-1.67h40.99c1.95,0,3.53-1.58,3.53-3.53v0c0-1.95-1.58-3.53-3.53-3.53h-1.28c-2.66,0-4.81-2.15-4.81-4.81
		c0-2.66,2.15-4.81,4.81-4.81h11.87c1.77,0,3.21-1.44,3.21-3.21C379.38,353.1,377.94,351.67,376.17,351.67L376.17,351.67z"/>
</g>
<path class="st2" d="M180.84,294.13h-15.05c-1.53,0-2.77-1.24-2.77-2.77l0,0c0-1.53,1.24-2.77,2.77-2.77h15.05
	c1.53,0,2.77,1.24,2.77,2.77l0,0C183.61,292.89,182.37,294.13,180.84,294.13z"/>
<path class="st2" d="M151.92,375.46h-4.75c-1.75,0-3.17-1.42-3.17-3.17l0,0c0-1.75,1.42-3.17,3.17-3.17h4.75
	c1.75,0,3.17,1.42,3.17,3.17l0,0C155.08,374.04,153.67,375.46,151.92,375.46z"/>
<g>
	<path class="st1" d="M397.15,291.36c-1.04,0-1.88-0.84-1.88-1.88s0.84-1.88,1.88-1.88h10.3c1.04,0,1.88,0.84,1.88,1.88
		s-0.84,1.88-1.88,1.88H397.15z"/>
	<path class="st1" d="M407.45,288.11c0.76,0,1.38,0.62,1.38,1.38s-0.62,1.38-1.38,1.38h-10.3c-0.76,0-1.38-0.62-1.38-1.38
		s0.62-1.38,1.38-1.38H407.45 M407.45,287.11h-10.3c-1.31,0-2.38,1.06-2.38,2.38s1.06,2.38,2.38,2.38h10.3
		c1.31,0,2.38-1.06,2.38-2.38S408.76,287.11,407.45,287.11L407.45,287.11z"/>
</g>
<g>
	<path class="st1" d="M359.12,392.78c-1.04,0-1.88-0.84-1.88-1.88s0.84-1.88,1.88-1.88h10.3c1.04,0,1.88,0.84,1.88,1.88
		s-0.84,1.88-1.88,1.88H359.12z"/>
	<path class="st1" d="M369.42,389.53c0.76,0,1.38,0.62,1.38,1.38s-0.62,1.38-1.38,1.38h-10.3c-0.76,0-1.38-0.62-1.38-1.38
		s0.62-1.38,1.38-1.38H369.42 M369.42,388.53h-10.3c-1.31,0-2.38,1.06-2.38,2.38s1.06,2.38,2.38,2.38h10.3
		c1.31,0,2.38-1.06,2.38-2.38S370.73,388.53,369.42,388.53L369.42,388.53z"/>
</g>
<path class="st2" d="M366.67,371.89v-1.58c0-1.97,1.17-3.57,2.62-3.57h34.9c1.45,0,2.62,1.6,2.62,3.57v1.58
	c0,1.97-1.17,3.57-2.62,3.57h-6.4c-1.45,0-2.62,1.6-2.62,3.57l0,0c0,1.97-1.17,3.57-2.62,3.57h-37.81c-1.45,0-2.62-1.6-2.62-3.57
	l0,0c0-1.97,1.17-3.57,2.62-3.57h9.31C365.5,375.45,366.67,373.86,366.67,371.89z"/>
<path class="st2" d="M111.11,293.84H96.05c-1.53,0-2.77-1.24-2.77-2.77l0,0c0-1.53,1.24-2.77,2.77-2.77h15.05
	c1.53,0,2.77,1.24,2.77,2.77l0,0C113.88,292.6,112.64,293.84,111.11,293.84z"/>
<path class="st2" d="M465.29,388.13h-15.05c-1.53,0-2.77-1.24-2.77-2.77l0,0c0-1.53,1.24-2.77,2.77-2.77h15.05
	c1.53,0,2.77,1.24,2.77,2.77l0,0C468.06,386.89,466.82,388.13,465.29,388.13z"/>
<g>
	<path class="st1" d="M424.09,363.47c-1.04,0-1.88-0.84-1.88-1.88s0.84-1.88,1.88-1.88h10.3c1.04,0,1.88,0.84,1.88,1.88
		s-0.84,1.88-1.88,1.88H424.09z"/>
	<path class="st1" d="M434.39,360.21c0.76,0,1.38,0.62,1.38,1.38s-0.62,1.38-1.38,1.38h-10.3c-0.76,0-1.38-0.62-1.38-1.38
		s0.62-1.38,1.38-1.38H434.39 M434.39,359.21h-10.3c-1.31,0-2.38,1.06-2.38,2.38v0c0,1.31,1.06,2.38,2.38,2.38h10.3
		c1.31,0,2.38-1.06,2.38-2.38v0C436.77,360.28,435.7,359.21,434.39,359.21L434.39,359.21z"/>
</g>
<path class="st2" d="M444.29,340.2h-7.92c-1.97,0-3.57-1.6-3.57-3.57v0c0-1.97,1.6-3.57,3.57-3.57h7.92c1.97,0,3.57,1.6,3.57,3.57v0
	C447.86,338.6,446.26,340.2,444.29,340.2z"/>
<g>
	<path class="st0" d="M111.02,273.14c-3.46,0-6.3-3.24-6.51-7.32h117.63l5,7.32H111.02z"/>
	<path class="st0" d="M221.88,266.32l0.04,0.06l4.27,6.26H111.02c-3.04,0-5.57-2.76-5.97-6.32H221.88 M223.09,265.32H104
		c0,4.6,3.14,8.32,7.02,8.32h117.07l-5.34-7.82L223.09,265.32L223.09,265.32z"/>
</g>
<g>
	<path class="st0" d="M304.95,273.14l5.26-7.32h139.28c-0.23,4.08-3.22,7.32-6.88,7.32H304.95z"/>
	<path class="st0" d="M448.94,266.32c-0.43,3.56-3.1,6.32-6.33,6.32H305.92l4.48-6.24l0.06-0.08H448.94 M450,265.32H309.23l0.36,0.5
		l-5.62,7.82h138.64C446.69,273.64,450,269.92,450,265.32L450,265.32z"/>
</g>
<path class="st5" d="M111.02,257h117.75l-5.68,8.32H104C104,260.72,107.14,257,111.02,257z"/>
<path class="st5" d="M450,265.32H309.23l-5.98-8.32h139.36C446.69,257,450,260.72,450,265.32z"/>
<g>
	<polygon class="st0" points="240.6,294.5 222.96,269.5 309.04,269.5 291.4,294.5 	"/>
	<path class="st0" d="M308.07,270l-16.93,24h-50.28l-16.93-24H308.07 M310,269h-88l18.34,26h51.31L310,269L310,269z"/>
</g>
<g>
	<polygon class="st0" points="228.2,273.14 222.29,265.82 309.74,265.82 303.82,273.14 	"/>
	<path class="st0" d="M308.69,266.32l-5.11,6.32h-75.14l-5.11-6.32H308.69 M309.98,265.32h-87.93l-0.4,0.5l6.32,7.82h76.1l6.32-7.82
		L309.98,265.32L309.98,265.32z"/>
</g>
<polygon class="st5" points="309.98,265.32 222.05,265.32 228.77,257 303.25,257 "/>
<path class="st5" d="M319,239.5H212l16.62-34.95c3.04-6.39,10.05-10.55,17.81-10.55h39.76c6.78,0,12.91,3.63,15.57,9.22L319,239.5z"
	/>
<path class="st6" d="M246,239.23c0-12.28,5.15-22.23,11.5-22.23c6.35,0,11.5,9.95,11.5,22.23"/>
<path class="st2" d="M248.3,240c0-11.01,3.95-19.93,8.82-19.93c4.87,0,8.82,8.92,8.82,19.93"/>
<path class="st2" d="M311.28,293.44h-25.36c-1.31,0-2.38-1.06-2.38-2.38l0,0c0-1.31,1.06-2.38,2.38-2.38h25.36
	c1.31,0,2.38,1.06,2.38,2.38l0,0C313.66,292.38,312.6,293.44,311.28,293.44z"/>
<g>
	<path class="st1" d="M173.32,392.97c-1.04,0-1.88-0.84-1.88-1.88s0.84-1.88,1.88-1.88h10.3c1.04,0,1.88,0.84,1.88,1.88
		s-0.84,1.88-1.88,1.88H173.32z"/>
	<path class="st1" d="M183.62,389.72c0.76,0,1.38,0.62,1.38,1.38c0,0.76-0.62,1.38-1.38,1.38h-10.3c-0.76,0-1.38-0.62-1.38-1.38
		c0-0.76,0.62-1.38,1.38-1.38H183.62 M183.62,388.72h-10.3c-1.31,0-2.38,1.06-2.38,2.38s1.06,2.38,2.38,2.38h10.3
		c1.31,0,2.38-1.06,2.38-2.38S184.93,388.72,183.62,388.72L183.62,388.72z"/>
</g>
<g>
	<path class="st1" d="M158.32,384.76c-1.47,0-2.67-1.2-2.67-2.67c0-1.47,1.2-2.67,2.67-2.67h10.3c1.47,0,2.67,1.2,2.67,2.67
		c0,1.47-1.2,2.67-2.67,2.67H158.32z"/>
	<path class="st1" d="M168.62,379.93c1.2,0,2.17,0.97,2.17,2.17c0,1.2-0.97,2.17-2.17,2.17h-10.3c-1.2,0-2.17-0.97-2.17-2.17
		c0-1.2,0.97-2.17,2.17-2.17H168.62 M168.62,378.93h-10.3c-1.75,0-3.17,1.42-3.17,3.17c0,1.75,1.42,3.17,3.17,3.17h10.3
		c1.75,0,3.17-1.42,3.17-3.17C171.79,380.35,170.37,378.93,168.62,378.93L168.62,378.93z"/>
</g>
<path class="st2" d="M230.99,286.87h-15.05c-1.53,0-2.77-1.24-2.77-2.77l0,0c0-1.53,1.24-2.77,2.77-2.77h15.05
	c1.53,0,2.77,1.24,2.77,2.77l0,0C233.77,285.63,232.53,286.87,230.99,286.87z"/>
<path class="st2" d="M296.84,319.26h-4.75c-1.75,0-3.17-1.42-3.17-3.17l0,0c0-1.75,1.42-3.17,3.17-3.17h4.75
	c1.75,0,3.17,1.42,3.17,3.17l0,0C300.01,317.85,298.59,319.26,296.84,319.26z"/>
<g>
	<path class="st1" d="M228.32,278.97c-1.04,0-1.88-0.84-1.88-1.88s0.84-1.88,1.88-1.88h10.3c1.04,0,1.88,0.84,1.88,1.88
		s-0.84,1.88-1.88,1.88H228.32z"/>
	<path class="st1" d="M238.62,275.72c0.76,0,1.38,0.62,1.38,1.38c0,0.76-0.62,1.38-1.38,1.38h-10.3c-0.76,0-1.38-0.62-1.38-1.38
		c0-0.76,0.62-1.38,1.38-1.38H238.62 M238.62,274.72h-10.3c-1.31,0-2.38,1.06-2.38,2.38s1.06,2.38,2.38,2.38h10.3
		c1.31,0,2.38-1.06,2.38-2.38S239.93,274.72,238.62,274.72L238.62,274.72z"/>
</g>
<g>
	<path class="st3" d="M251.41,329.01h-0.46l-30.9-45.18c-1.88-2.75-6.57-2.75-8.45,0l-31.03,45.36"/>
	<path class="st2" d="M180.57,329.19h0.46l19.57,28.62c7.48,10.93,23.63,10.93,31.11,0l19.7-28.8"/>
	<g>
		<path class="st4" d="M204.3,344.25c-0.92,0-1.68-0.75-1.68-1.67c0-1.47-1.2-2.67-2.68-2.67h-2.61c-0.92,0-1.68-0.75-1.68-1.67
			c0-1.47-1.2-2.67-2.68-2.67h-3.48c-0.92,0-1.68-0.75-1.68-1.67s0.75-1.67,1.68-1.67h53.1c0.92,0,1.68,0.75,1.68,1.67
			s-0.75,1.67-1.68,1.67h-26.99c-1.48,0-2.68,1.2-2.68,2.67s1.2,2.67,2.68,2.67h17.41c0.92,0,1.68,0.75,1.68,1.67
			s-0.75,1.67-1.68,1.67H204.3z"/>
		<g>
			<path class="st4" d="M242.6,332.72c0.65,0,1.18,0.53,1.18,1.17s-0.53,1.17-1.18,1.17h-26.99c-1.75,0-3.18,1.42-3.18,3.17
				s1.42,3.17,3.18,3.17h17.41c0.65,0,1.18,0.53,1.18,1.17s-0.53,1.17-1.18,1.17H204.3c-0.65,0-1.18-0.53-1.18-1.17
				c0-1.75-1.42-3.17-3.18-3.17h-2.61c-0.65,0-1.18-0.53-1.18-1.17c0-1.75-1.42-3.17-3.18-3.17h-3.48c-0.65,0-1.18-0.53-1.18-1.17
				s0.53-1.17,1.18-1.17H242.6 M242.6,331.72h-53.1c-1.2,0-2.18,0.97-2.18,2.17s0.97,2.17,2.18,2.17h3.48c1.2,0,2.18,0.97,2.18,2.17
				s0.97,2.17,2.18,2.17h2.61c1.2,0,2.18,0.97,2.18,2.17s0.97,2.17,2.18,2.17h28.73c1.2,0,2.18-0.97,2.18-2.17s-0.97-2.17-2.18-2.17
				h-17.41c-1.2,0-2.18-0.97-2.18-2.17s0.97-2.17,2.18-2.17h26.99c1.2,0,2.18-0.97,2.18-2.17S243.8,331.72,242.6,331.72
				L242.6,331.72z"/>
		</g>
	</g>
</g>
<path class="st5" d="M110.5,261c0-13.81,42.64-25,95.25-25S301,247.19,301,261"/>
<path class="st5" d="M244.04,257.33c0-12.88,44.76-23.33,99.98-23.33S444,244.44,444,257.33"/>
<path class="st6" d="M173.49,257.27c0-5.12,9.52-9.27,21.26-9.27s21.26,4.15,21.26,9.27"/>
<path class="st6" d="M245.48,254.75c0-9.25,14.89-16.75,33.26-16.75S312,245.5,312,254.75"/>
<path class="st6" d="M298.48,254.42c0-4.65,11.31-8.42,25.26-8.42s25.26,3.77,25.26,8.42"/>
<path class="st6" d="M116.48,257.42c0-9.25,14.89-16.75,33.26-16.75s33.26,7.5,33.26,16.75"/>
<path class="st6" d="M351.48,261.56c0-4.73,5.71-8.56,12.76-8.56s12.76,3.83,12.76,8.56"/>
<path class="st6" d="M368.98,259c0-3.85,8.06-6.97,18.01-6.97S405,255.15,405,259"/>
<g>
	<polyline class="st7" points="381,247.89 367,247.89 381,211 	"/>
	<polyline class="st8" points="381,211 395,247.89 381,247.89 	"/>
	<rect x="379.45" y="244.77" class="st9" width="2.08" height="6.87"/>
</g>
<g>
	<polyline class="st7" points="176.44,253 164.87,253 176.44,223.48 	"/>
	<polyline class="st8" points="176.44,223.48 188,253 176.44,253 	"/>
	<rect x="175.16" y="250.51" class="st9" width="1.72" height="5.49"/>
</g>
<g>
	<polyline class="st7" points="329.12,239.9 319,239.9 329.12,205 	"/>
	<polyline class="st8" points="329.12,205 339.25,239.9 329.12,239.9 	"/>
	<rect x="328" y="236.95" class="st9" width="1.51" height="6.5"/>
</g>
</svg>
