<?xml version="1.0" encoding="utf-8"?>
<!-- Generator: Adobe Illustrator 24.3.0, SVG Export Plug-In . SVG Version: 6.00 Build 0)  -->
<svg version="1.1" id="Calque_1" xmlns="http://www.w3.org/2000/svg" xmlns:xlink="http://www.w3.org/1999/xlink" x="0px" y="0px"
	 viewBox="0 0 566.93 566.93" style="enable-background:new 0 0 566.93 566.93;" xml:space="preserve">
<style type="text/css">
	.st0{fill:#27B2C9;}
	.st1{fill:#9CD2E7;}
	.st2{fill:#29C6CE;}
	.st3{fill:#26A8A8;}
	.st4{fill:#FFFFFF;}
	.st5{fill:#D9E2E2;}
	.st6{fill:#FFA033;}
	.st7{fill:#FFC533;}
</style>
<path class="st0" d="M500,290.5c0,32.26-6.65,62.95-18.67,90.8c-0.12,0.28-0.24,0.56-0.37,0.83c-2.2,5.07-4.58,10.05-7.14,14.91
	c-11.86,22.59-27.38,42.97-45.77,60.33c-11.63,11-24.41,20.78-38.14,29.15c-0.09,0.05-0.17,0.11-0.26,0.16
	c-0.88,0.54-1.77,1.07-2.66,1.6c-4.44,2.62-8.99,5.11-13.62,7.43c-0.13,0.06-0.26,0.13-0.39,0.19
	c-10.08,5.04-20.58,9.36-31.43,12.89c-0.14,0.05-0.28,0.09-0.42,0.13c-0.88,0.29-1.77,0.57-2.66,0.85
	c-3.02,0.93-6.07,1.81-9.15,2.62c-3.66,0.97-7.36,1.85-11.1,2.64c-14.98,3.17-30.5,4.87-46.4,4.96h-0.84
	c-0.01,0.01-0.01,0.01-0.02,0c0,0-0.01,0.01-0.02,0c-0.01,0.01-0.01,0.01-0.02,0c-0.01,0.01-0.02,0.01-0.03,0
	c-0.02,0.01-0.03,0.01-0.04,0c-0.01,0.01-0.02,0.01-0.03,0c-0.01,0.01-0.02,0-0.02,0s-0.01,0.01-0.02,0c-0.01,0.01-0.01,0.01-0.02,0
	c0,0-0.01,0.01-0.02,0c-0.01,0.01-0.02,0.01-0.03,0c-0.03,0.01-0.06,0.01-0.09,0.01c-0.01,0-0.01,0-0.02-0.01
	c-0.01,0.01-0.02,0.01-0.02,0.01h-0.03c-0.01,0-0.01,0-0.02-0.01c-0.04,0.01-0.08,0.01-0.12,0.01h-0.58c-0.07,0-0.13,0-0.19-0.01
	c-0.68,0-1.35-0.01-2.02-0.02c-7.92-0.08-15.76-0.59-23.47-1.48c-1.75-0.19-3.49-0.41-5.23-0.65c-0.74-0.1-1.48-0.21-2.21-0.32
	c-6.27-0.91-12.46-2.1-18.55-3.52c-4.09-0.95-8.14-2.01-12.14-3.19c-20.4-5.95-39.63-14.67-57.24-25.72
	c-0.28-0.18-0.56-0.35-0.84-0.53c-10.64-6.73-20.69-14.31-30.05-22.64c-15.7-13.99-29.46-30.1-40.84-47.89
	c-3.5-5.47-6.77-11.09-9.8-16.86C50.48,365.3,41,329.01,41,290.5H500z"/>
<path class="st1" d="M270.5,61C143.75,61,41,163.75,41,290.5h232.23l-27.2-88.22l29,88.22H500C500,163.75,397.25,61,270.5,61z
	 M391.33,284.89l-8.79-5L425,136.21l0.03,3.2L391.33,284.89z M460.84,288.94l-0.1-0.44l-34.45-148.7l5.01,14.68l28.38,88.82
	L473,283.07L460.84,288.94z"/>
<path class="st2" d="M119.11,229v0.71l-0.22,42.32l-0.03,4.74l-0.07,13.73l-0.11,20.4l-0.79,151.02
	c-15.7-13.99-29.46-30.1-40.84-47.89c-3.5-5.47-6.77-11.09-9.8-16.86l30.96-100.41l1.93-6.26l18.62-60.37L119.11,229z"/>
<path class="st3" d="M147.78,485.09l0.16-0.53c-10.64-6.73-20.69-14.31-30.05-22.64l0.79-151.02l0.11-20.4l0.07-13.73v-0.17
	l0.03-4.07v-0.5l0.22-42.31V229l6.3,20.42l0.04,0.12l12.63,40.96l4.2,13.63l23.65,76.69l7,22.7l33.09,107.29l0.09,0.32
	C185.3,505.17,165.71,496.34,147.78,485.09z"/>
<path class="st2" d="M244.15,518.39v0.23c-2.08-0.23-4.16-0.49-6.23-0.78c-7.03-0.96-13.95-2.25-20.76-3.84
	c-3.72-0.87-7.41-1.82-11.05-2.87c-20.81-5.96-40.4-14.79-58.33-26.04l0.16-0.53l24.99-81.04l7-22.7l27.86-90.32l32.72-106.11
	l1.16,106.11l2.32,213.15L244.15,518.39z"/>
<path class="st2" d="M318.22,514.36c-15.04,3.05-30.6,4.64-46.54,4.64c-10.88,0-21.59-0.74-32.07-2.19l53.54-173.57v-0.01
	l17.67-57.3l8.61-27.93L318.22,514.36z"/>
<path class="st2" d="M390.91,485.52l0.08,0.27c-5.41,3.19-10.95,6.17-16.62,8.92c-0.13,0.06-0.26,0.13-0.39,0.19
	c-10.08,5.04-20.58,9.36-31.43,12.89c-0.14,0.05-0.28,0.09-0.42,0.13c-0.88,0.29-1.77,0.57-2.66,0.85l0.08-0.34l0.03-0.17l0.91-3.91
	l24.12-104.1l25.42-109.75l0.23-1l1.07-4.61l33.7-145.48l0.01-0.03l0.45-1.94l0.01-0.05v0.09l1.7,153.02l0.17,14.59l1.68,151.28
	C417.42,467.37,404.64,477.15,390.91,485.52z"/>
<path class="st3" d="M481.96,380.13c-1.78,4.11-3.68,8.16-5.71,12.13c-0.46,0.93-0.94,1.86-1.43,2.78
	c-11.86,22.59-27.38,42.97-45.77,60.33l-1.67-150.28l-0.16-14.59l-1.71-152.98l-0.01-1.13l0.79,3.41l34.45,148.7l0.1,0.44l0.36,1.56
	l20.71,89.43L481.96,380.13z"/>
<path class="st3" d="M389.99,486.79c-5.41,3.19-10.95,6.17-16.62,8.92c-0.13,0.06-0.26,0.13-0.39,0.19
	c-9.38,4.53-19.11,8.45-29.14,11.72c-0.95,0.31-1.9,0.61-2.85,0.91c-0.16,0.05-0.32,0.1-0.48,0.14c-0.64,0.21-1.29,0.4-1.93,0.59
	c-6.66,2-13.46,3.7-20.36,5.1v-0.55l0.37-76.24v-1l0.7-146.07v-1l0.15-30.48V258l8.61,27.93l1.1,3.57l0.31,1l34.15,110.75l1.36,4.42
	l24.68,80.01l0.26,0.84L389.99,486.79z"/>
<path class="st3" d="M340.55,508.79c-21.67,7.05-44.76,10.96-68.73,11.2h-0.84c0,0-0.01,0.01-0.02,0c0,0-0.01,0.01-0.02,0
	c0,0-0.01,0.01-0.02,0c-0.01,0.01-0.02,0.01-0.03,0c-0.01,0.01-0.02,0.01-0.04,0c-0.01,0.01-0.02,0.01-0.03,0c0,0-0.01,0.01-0.02,0
	c0,0-0.01,0.01-0.02,0c0,0-0.01,0.01-0.02,0c0,0-0.01,0.01-0.02,0c-0.01,0.01-0.02,0.01-0.03,0c-0.03,0.01-0.06,0.01-0.09,0.01
	h-1.12c-8.56,0-17.02-0.47-25.35-1.38v-0.13l-1.98-181.63l-0.5-46.36l-1.15-104.96l-0.01-1.15l5.52,17.89l27.2,88.22l10.52,34.09
	l6.89,22.33v0.01L340.55,508.79z"/>
<polygon class="st4" points="118.76,229.43 119,311 96,304 "/>
<polygon class="st5" points="119,229.38 118.76,310.95 142.85,303.96 "/>
<circle class="st6" cx="168" cy="159" r="34"/>
<circle class="st7" cx="168.62" cy="158.38" r="20.54"/>
<polygon class="st4" points="240.09,184.78 242,352 196,329 "/>
<polygon class="st1" points="275.03,290.5 273.23,290.5 246.03,202.28 "/>
<polygon class="st5" points="286,330 242,352 241.67,337.01 241.16,290.5 239.99,183.92 240.52,185.54 246.03,202.28 273.23,290.5 
	"/>
<polygon class="st1" points="425.03,139.41 391.33,284.89 382.54,279.89 425,136.21 "/>
<polygon class="st4" points="427,281 411,276 395,269 425.03,139.41 427,281 "/>
<polygon class="st1" points="473,283.07 460.84,288.94 460.74,288.5 426.29,139.8 431.3,154.48 459.68,243.3 "/>
<polygon class="st5" points="456,267 450,271 427,281 427,281 427,281 427,281 427,280 426.22,243.3 425.04,139.38 425,136.21 
	425,136 425.49,137.44 425.49,137.45 425.5,137.48 425.51,137.52 425.55,137.63 426.29,139.8 456,267 "/>
<polygon class="st4" points="319,257.81 319.24,339.38 296.24,332.38 "/>
<polygon class="st5" points="319,257.54 318.76,339.11 342.85,332.11 "/>
</svg>
