<?xml version="1.0" encoding="utf-8"?>
<!-- Generator: Adobe Illustrator 25.0.0, SVG Export Plug-In . SVG Version: 6.00 Build 0)  -->
<svg version="1.1" xmlns="http://www.w3.org/2000/svg" xmlns:xlink="http://www.w3.org/1999/xlink" x="0px" y="0px"
	 viewBox="0 0 595.28 841.89" style="enable-background:new 0 0 595.28 841.89;" xml:space="preserve">
<style type="text/css">
	.st0{fill:#5698B7;}
	.st1{fill:#FFFFFF;}
	.st2{fill:#D2DCE5;}
	.st3{fill:#020202;stroke:#020202;stroke-width:0.5;stroke-miterlimit:10;}
	.st4{fill:#A8BDCC;}
	.st5{fill:#9EB5C6;}
	.st6{fill:#294F73;}
	.st7{fill:#AACFE4;}
	.st8{fill:#F2F5F7;}
	.st9{fill:none;stroke:#F2F5F7;stroke-miterlimit:10;}
</style>
<g id="Layer_1">
	<polyline class="st0" points="0.48,421.56 -0.6,112.11 594.4,111.03 593.31,422.64 	"/>
	<path class="st1" d="M274.89,513.98"/>
	<polyline class="st2" points="104.72,419.38 200.27,257.61 201.35,282.58 220.89,320.58 207.87,339.04 231.75,423.73 
		104.72,419.38 	"/>
	<path class="st3" d="M256.73,246.75"/>
	<polygon class="st4" points="246.95,332.52 200.27,257.61 201.35,282.58 220.89,320.58 207.87,339.04 231.75,423.73 291.47,424.81 
		246.33,364.99 	"/>
	<polygon class="st5" points="284.95,314.07 200.27,257.61 246.95,332.52 246.33,364.99 276.27,419.38 304.5,420.47 283.87,377.04 	
		"/>
	<polygon class="st2" points="375.07,152.29 284.95,314.07 283.87,377.04 302.33,407.44 375.07,408.53 369.64,359.67 351.19,336.87 
		375.07,307.55 364.22,215.26 380.5,206.58 	"/>
	<polygon class="st4" points="398.96,220.69 375.07,152.29 380.5,206.58 364.22,215.26 375.07,307.55 351.19,336.87 369.64,359.67 
		373.63,395.33 383.76,394.41 388.1,330.35 398.96,303.21 379.42,243.49 	"/>
	<polygon class="st5" points="408.73,350.98 417.42,394.41 383.76,394.41 388.1,330.35 398.96,303.21 379.42,243.49 398.96,220.69 
		375.07,152.29 421.76,234.81 409.82,261.95 421.76,277.15 	"/>
	<polygon class="st2" points="443.48,216.35 421.76,234.81 409.82,261.95 421.76,277.15 408.73,350.98 417.42,394.41 444.26,400.95 
		441.3,358.58 457.59,366.18 443.48,279.32 	"/>
	<polyline class="st4" points="455.04,406.59 473.88,386.81 461.93,348.81 468.45,295.61 457.59,296.69 457.59,261.95 
		443.48,216.35 443.48,279.32 457.59,366.18 441.3,358.58 444.26,400.95 455.04,406.59 	"/>
	<polyline class="st5" points="459.99,422.58 490.16,420.47 486.91,396.58 503.19,367.27 491.25,360.75 501.02,314.07 
		443.48,216.35 457.59,261.95 457.59,296.69 468.45,295.61 461.93,348.81 473.88,386.81 455.04,406.59 459.99,422.58 	"/>
	<polyline class="st2" points="490.16,420.47 528.17,421.56 519.48,390.07 530.34,378.13 520.57,322.75 528.17,284.75 
		501.02,314.07 491.25,360.75 503.19,367.27 486.91,396.58 490.16,420.47 	"/>
	<polygon class="st4" points="535.77,352.07 541.2,324.92 528.17,284.75 520.57,322.75 530.34,378.13 519.48,390.07 522.68,401.66 
		528.17,421.56 541.2,420.47 532.51,402.01 542.28,378.13 	"/>
	<polyline class="st5" points="593.31,422.64 546.06,322.63 528.17,284.75 541.2,337.95 535.77,352.07 542.28,378.13 532.51,402.01 
		541.2,420.47 593.31,422.64 	"/>
	<path class="st5" d="M290.38,597.45"/>
	<line class="st3" x1="0.48" y1="421.56" x2="0.48" y2="421.56"/>
</g>
<g id="Layer_2">
	<polygon class="st6" points="-1.69,633.54 0.48,418.56 593.31,419.64 593.31,619.42 	"/>
	<polygon class="st7" points="1.56,714.28 -1.69,636.54 162.26,565.96 362.04,546.42 594.62,714.28 	"/>
	<path class="st1" d="M292.21,575.67"/>
	<polygon class="st7" points="-1.69,636.54 162.26,565.96 362.04,546.42 529.25,563.79 593.31,622.42 594.62,714.28 	"/>
	<path class="st1" d="M247.96,598.45c-0.42-5.83,2.29-11.79,6.96-15.31c2.3-1.73,5-2.88,7.27-4.67c5.96-4.69,7.84-12.76,9.35-20.18
		c3.48-17.14,6.84-35.61-0.3-51.57c-3.57-7.98-9.49-14.62-15.32-21.13c-6.75-7.53-13.49-15.05-20.24-22.58
		c-2.52-2.81-5.21-5.74-8.8-6.93c-3.61-1.19-7.54-0.43-11.33-0.71c-9.8-0.71-17.93-8.23-27.62-9.84c-2.95-0.49-5.98-0.41-8.93-0.93
		c-14.41-2.55-22.63-18.22-24.93-32.68c-0.31-1.95-0.47-4.21,0.87-5.66c0.99-1.06,2.51-1.38,3.94-1.65
		c6.25-1.17,12.49-2.34,18.74-3.51c1.41-0.26,2.9-0.57,3.96-1.54c1.01-0.93,1.45-2.31,1.94-3.59c3.47-8.96,12.18-15.67,21.73-16.75
		c3.08-0.35,6.5-0.26,8.83-2.3c1.84-1.6,2.5-4.12,3.62-6.28c3.01-5.82,9.62-9.18,16.16-9.57c4.48-0.27,9.24,0.81,12.47,3.91
		c2.37,2.28,3.73,5.44,6.05,7.78c4.94,5,12.77,5.14,19.54,7.03c6.62,1.85,12.53,5.58,18.76,8.46c25.48,11.78,54.95,9.12,82.95,7.06
		c10.18-0.75,20.38-1.39,30.57-1.03c13.56,0.47,27.06,2.71,40.05,6.65c3.93,1.19,7.98,2.64,10.78,5.64
		c3.89,4.16,4.52,10.31,4.95,15.99c0.65,8.51,1.3,17.02,1.95,25.53c0.66,8.68,1.33,17.42,0.55,26.09
		c-1.04,11.63-4.65,22.87-6.34,34.42c-2.64,18.07-0.53,36.5-1.86,54.71c-0.92,12.62-4.56,26.65-15.55,32.91
		c-6.81,3.88-15.07,3.9-22.91,3.83c-19.21-0.18-38.42-0.36-57.64-0.54c1.29-10.41,11.45-18.92,21.92-18.37
		c0.66-14.96,2.78-29.85,6.33-44.39c-14.32,0.36-28.68-0.94-42.7-3.86c-0.37,7.66-0.75,15.32-1.12,22.98
		c-0.38,7.84-0.79,15.81-3.39,23.22c-2.6,7.41-7.75,14.31-15.08,17.12c-4.65,1.78-9.76,1.81-14.74,1.81
		c-21.1,0.01-42.19,0.01-63.29,0.02"/>
	<ellipse cx="198.05" cy="399.79" rx="3.25" ry="6.49"/>
	<path d="M158.54,418.73c0,0,6.27-11.99,0.34-14.11c0,0-9.28,0.5-4.81,7.31C154.07,411.93,153.31,418.37,158.54,418.73z"/>
	<path class="st8" d="M358.2,599.53c0,0,2.32-16.7,21.92-18.37l6.33-44.39l26.75,1.88l-3.68,40.44c0,0-24.51,10.21-15.93,20.83
		L358.2,599.53z"/>
	<g>
		<path class="st8" d="M213.6,375.71c0.91,0.78,1.89,1.12,3.07,1.16c1.7,0.06,3.46,0.11,5.16-0.02c2.56-0.2,4.83-1.94,6.51-3.77
			c1.81-1.96,3.03-4.37,4.83-6.34c0.82-0.9,1.74-1.75,2.79-2.38c0.48-0.29,1-0.53,1.54-0.7c0.18-0.05,0.35-0.1,0.53-0.14
			c0.86-0.14,0.35-0.16-1.51-0.06c-3.22-0.02-1.77-0.06-0.92,0.16c0.73,0.19,1.73,0.02,2.48,0.02c0.75,0,1.76-0.21,2.48-0.02
			c-1.37-0.35-2.84-0.24-4.24-0.23c-1.25,0-2.57-0.1-3.78,0.27c-2.18,0.67-3.88,2.45-5.27,4.18c-1.5,1.87-2.64,4-4.34,5.71
			c-0.83,0.84-1.76,1.59-2.79,2.19c-0.52,0.3-1.07,0.57-1.64,0.76c-0.27,0.09-0.54,0.17-0.82,0.23c-0.09,0.02-0.18,0.03-0.27,0.05
			c-1.53,0.2-0.35,0.22,3.54,0.05c0.11,0,0.23,0.01,0.34,0.01c-1.06-0.08-1.93-0.46-2.73-1.15c-0.07-0.06-0.74-0.02-0.73-0.02
			c-0.58-0.01-1.17-0.01-1.75-0.01c-0.58,0-1.17,0-1.75,0.01C214.2,375.7,213.68,375.78,213.6,375.71L213.6,375.71z"/>
	</g>
	<g>
		<path class="st8" d="M396.04,559.5c0.19,0,2.48,0,2.48-0.02c0-0.03-2.46-0.02-2.48-0.02c-0.19,0-2.48,0-2.48,0.02
			C393.56,559.51,396.02,559.5,396.04,559.5L396.04,559.5z"/>
	</g>
	<path class="st9" d="M290.38,597.45"/>
	<path class="st8" d="M247.22,597.35c0,0,2.32-18.88,21.92-20.77l5.37-42.56l0.96-7.64l26.75,2.12l-3.68,45.73
		c0,0-24.51,11.55-15.93,23.56L247.22,597.35z"/>
	<path class="st8" d="M304.22,528.51c0,0-13.55-3.15-22.87-8.67c-5.89-3.49-10.09-7.93-8.11-13.13l3.27,27.31L304.22,528.51z"/>
	<path class="st8" d="M455.04,406.59"/>
	<path class="st1" d="M455.04,406.59c0,0,32.92,15.63,26.79,46.27c0,0,0.95,35.14-25.67,55.77L455.04,406.59z"/>
</g>
</svg>
