<svg id="Layer_1" data-name="Layer 1" xmlns="http://www.w3.org/2000/svg" viewBox="0 0 277.64 364.41"><defs><style>.cls-1,.cls-15{fill:none;stroke-miterlimit:10;}.cls-1{stroke:#666;stroke-width:0.5px;}.cls-2{fill:#6cbde5;}.cls-3{fill:#70adde;}.cls-4{fill:#d2eaf9;}.cls-5{fill:#95d2f3;}.cls-6{fill:#70b2e2;}.cls-7{fill:#7dc5ed;}.cls-17,.cls-18,.cls-8{fill:#62a6db;}.cls-9{fill:#b6dff7;}.cls-10,.cls-16{fill:#c7e8f5;}.cls-11{fill:#73c5eb;}.cls-12{fill:#3c95c6;}.cls-13{fill:#286a96;}.cls-14{fill:#215c85;}.cls-15{stroke:#000;}.cls-16,.cls-17{opacity:0.5;}.cls-18{opacity:0.3;}</style></defs><line class="cls-1" x1="156.88" y1="193.41" x2="156.88" y2="311.41"/><polygon class="cls-2" points="144.12 123.1 118.12 87.1 103.3 75.17 110.84 67.62 123.42 62.59 144.12 123.1"/><polygon class="cls-3" points="144.12 123.1 144.12 78.1 161.16 55.04 168.71 62.59 144.12 123.1"/><polygon class="cls-4" points="138.52 42.46 123.42 62.59 144.12 123.1 144.12 78.1 151.1 52.52 138.52 42.46"/><polygon class="cls-2" points="144.12 78.1 151.1 52.52 161.16 55.04 144.12 78.1"/><polygon class="cls-5" points="144.12 123.1 168.71 62.59 178.77 65.11 183.81 80.2 144.12 123.1"/><polygon class="cls-4" points="163.03 101.84 183.81 80.2 184.12 90.1 190.12 99.1 193.12 112.1 163.03 101.84"/><polygon class="cls-6" points="144.12 123.1 163.03 101.84 193.12 112.1 167.12 123.1 144.12 123.1"/><polygon class="cls-7" points="167.12 123.1 193.12 112.1 201.12 123.1 201.38 123.09 167.12 123.1"/><polygon class="cls-8" points="144.12 123.1 129.95 103.29 117.12 105.1 117.12 123.1 144.12 123.1"/><polygon class="cls-9" points="117.12 105.1 100.78 82.72 103.3 75.17 118.12 87.1 129.95 103.29 117.12 105.1"/><polygon class="cls-10" points="117.12 105.1 83.17 105.36 90.72 92.78 100.78 82.72 117.12 105.1"/><polygon class="cls-9" points="144.12 123.1 117.12 105.1 129.95 103.29 144.12 123.1"/><polygon class="cls-9" points="80.12 116.1 83.17 105.36 117.12 105.1 80.12 116.1"/><polygon class="cls-6" points="117.12 123.1 73.92 123.07 80.12 116.1 117.12 105.1 117.12 123.1"/><polygon class="cls-11" points="144.12 123.1 117.12 123.1 117.12 150.1 127.12 132.1 144.12 123.1"/><polygon class="cls-12" points="117.12 150.1 85.68 165.74 81.16 151.09 117.04 132.88 117.12 150.1"/><polygon class="cls-2" points="117.12 123.1 81.16 151.09 136.12 123.1 117.12 123.1"/><polygon class="cls-12" points="99.12 137.1 73.92 123.07 81.16 151.09 99.12 137.1"/><polygon class="cls-13" points="99.12 137.1 73.92 123.07 92.45 123.08 99.12 137.1"/><polygon class="cls-12" points="117.12 123.1 92.45 123.08 99.12 137.1 117.12 123.1"/><polygon class="cls-14" points="144.12 123.1 117.12 150.1 85.68 165.74 98.26 168.26 126.12 150.1 144.12 123.1"/><polygon class="cls-13" points="117.04 132.88 85.68 165.74 117.12 150.1 117.04 132.88"/><polygon class="cls-13" points="144.12 123.1 126.12 150.1 138.12 150.1 144.12 123.1"/><polygon class="cls-11" points="145.12 150.1 144.12 123.1 138.12 150.1 145.12 150.1"/><polygon class="cls-14" points="145.12 150.1 132.82 150.14 136.12 168.1 145.12 150.1"/><polygon class="cls-12" points="145.12 150.1 139.12 158.1 136.12 168.1 133.12 200.1 141.12 181.1 141.12 162.1 145.12 150.1"/><polygon class="cls-14" points="126.12 150.1 133.12 201.1 136.12 168.1 132.82 150.14 126.12 150.1"/><polygon class="cls-12" points="117.12 150.1 144.12 123.1 127.12 132.1 117.12 150.1"/><polygon class="cls-2" points="162.12 123.1 145.12 150.1 144.12 123.1 162.12 123.1"/><polygon class="cls-11" points="141.12 162.1 145.12 150.1 162.12 123.1 172.03 123.08 141.12 162.1"/><polygon class="cls-12" points="141.12 162.1 158.12 140.1 172.03 123.08 182.87 123.15 170.12 133.1 141.12 162.1"/><polygon class="cls-13" points="141.12 162.1 162.12 159.1 181.12 132.1 182.87 123.15 170.12 133.1 141.12 162.1"/><polygon class="cls-14" points="141.12 181.1 162.12 164.1 188.84 135.55 182.87 123.15 181.12 132.1 162.12 159.1 141.12 162.1 141.12 181.1"/><polygon class="cls-12" points="188.84 135.55 162.12 164.1 162.12 177.1 168.71 173.29 176.26 165.74 188.84 135.55"/><polygon class="cls-11" points="188.84 145.62 188.84 135.55 176.26 165.74 188.84 145.62"/><polygon class="cls-12" points="188.84 135.55 182.87 123.15 192.87 123.12 193.87 128 188.84 135.55"/><polygon class="cls-2" points="193.87 128 201.42 125.49 201.38 123.09 192.87 123.12 193.87 128"/><polygon class="cls-2" points="168.71 173.29 166.19 180.84 161.16 185.87 162.12 177.1 168.71 173.29"/><polygon class="cls-13" points="162.12 164.1 141.12 181.1 133.12 200.1 144.12 195.1 162.12 164.1"/><polygon class="cls-14" points="162.12 164.1 144.12 195.1 133.12 200.1 138.94 212.54 151.1 200.97 156.13 195.93 162.12 164.1"/><polygon class="cls-13" points="162.12 164.1 156.13 195.93 161.16 185.87 162.12 177.1 162.12 164.1"/><polygon class="cls-13" points="126.12 150.1 98.26 168.26 110.84 178.32 111.12 167.1 126.12 150.1"/><polygon class="cls-12" points="116.09 185.13 110.84 178.32 111.12 167.1 116.98 160.33 116.09 185.13"/><polygon class="cls-2" points="116.09 185.13 116.18 184.55 123.12 165.1 126.12 150.1 116.98 160.33 116.09 185.13"/><polygon class="cls-12" points="116.18 184.55 120.91 190.9 126.05 194.03 122.12 181.1 123.12 165.1 116.18 184.55"/><polygon class="cls-13" points="126.12 150.1 129.87 176.87 126.12 194.1 122.12 181.1 123.12 165.1 126.12 150.1"/><polygon class="cls-12" points="129.87 176.87 126.12 194.1 133.12 200.1 129.87 176.87"/><path class="cls-15" d="M350,220.08" transform="translate(-148.62 -94.59)"/><polygon class="cls-13" points="201.42 125.49 193.87 128 188.84 135.55 188.84 145.62 201.42 125.49"/><rect class="cls-4" x="132.12" y="122.1" width="23" height="2" rx="1"/><rect class="cls-4" x="159.12" y="122.1" width="14" height="2" rx="1"/><rect class="cls-4" x="117.12" y="122.1" width="11" height="2" rx="1"/><rect class="cls-4" x="111.12" y="122.1" width="3" height="2" rx="1"/><rect class="cls-4" x="104.12" y="122.1" width="5" height="2" rx="1"/><rect class="cls-4" x="95.12" y="122.1" width="8" height="2" rx="1"/><rect class="cls-4" x="90.12" y="122.1" width="4" height="2" rx="1"/><rect class="cls-4" x="79.12" y="122.1" width="10" height="2" rx="1"/><rect class="cls-4" x="176.12" y="122.1" width="4" height="2" rx="1"/><rect class="cls-4" x="182.12" y="122.1" width="6" height="2" rx="1"/><rect class="cls-4" x="189.12" y="122.1" width="3" height="2" rx="1"/><rect class="cls-4" x="193.12" y="122.1" width="10" height="2" rx="1"/><rect class="cls-4" x="66.12" y="122.1" width="12" height="2" rx="1"/><path class="cls-16" d="M221.68,256.21c8.67-4.49-16.46-56-2.44-65.24,13.23-8.71,43.89,31.74,58.9,23.64,18.27-9.86,12-90.94-22.34-102-29.79-9.64-78.49,34.15-78.51,78C177.27,228.71,214,260.19,221.68,256.21Z" transform="translate(-148.62 -94.59)"/><path class="cls-17" d="M316.11,274.26c4.42-6.82,32.78,20.7,41.18,9.92,7.93-10.18-12.37-41.07-4.51-52.83,9.57-14.33,60.15.77,61.08,31.23.8,26.43-35.86,62.5-63.85,57.24C325.69,315.25,312.2,280.29,316.11,274.26Z" transform="translate(-148.62 -94.59)"/><path class="cls-8" d="M58.38,316.41h162a0,0,0,0,1,0,0v7.12a7.88,7.88,0,0,1-7.88,7.88H66.27a7.88,7.88,0,0,1-7.88-7.88v-7.12A0,0,0,0,1,58.38,316.41Z"/><path class="cls-8" d="M66.38,336.41h145.2a0,0,0,0,1,0,0v6.12a7.88,7.88,0,0,1-7.88,7.88H74.27a7.88,7.88,0,0,1-7.88-7.88v-6.12A0,0,0,0,1,66.38,336.41Z"/><path class="cls-8" d="M76.38,355.41h127a0,0,0,0,1,0,0v0a9,9,0,0,1-9,9h-109a9,9,0,0,1-9-9v0A0,0,0,0,1,76.38,355.41Z"/><line class="cls-1" x1="125.88" y1="193.91" x2="125.88" y2="311.91"/><path class="cls-18" d="M426.26,233.42a138.17,138.17,0,0,1-27.34,82.73c-20.52,43.13-27.25,74.08-29.39,89.85l-162.17,0c-2.14-15.75-10.87-46.73-31.41-89.88a138.83,138.83,0,1,1,250.31-82.73Z" transform="translate(-148.62 -94.59)"/></svg>