<?xml version="1.0" encoding="utf-8"?>
<!-- Generator: Adobe Illustrator 24.2.3, SVG Export Plug-In . SVG Version: 6.00 Build 0)  -->
<svg version="1.1" id="Layer_1" xmlns="http://www.w3.org/2000/svg" xmlns:xlink="http://www.w3.org/1999/xlink" x="0px" y="0px"
	 viewBox="0 0 566.93 566.93" style="enable-background:new 0 0 566.93 566.93;" xml:space="preserve">
<g>
	<path d="M94,236.06c-3.83-3.91-8.31-7.04-13.43-9.39c-5.12-2.35-10.6-3.53-16.45-3.53H31.12v85.82h33.01
		c5.92,0,11.44-1.17,16.56-3.53c5.12-2.35,9.6-5.5,13.43-9.45c3.83-3.94,6.83-8.52,8.99-13.72c2.16-5.2,3.24-10.6,3.24-16.22
		c0-5.69-1.1-11.13-3.3-16.33C100.85,244.52,97.84,239.97,94,236.06z M81.37,275.67c-1.1,2.92-2.69,5.45-4.78,7.57
		c-2.09,2.13-4.65,3.8-7.68,5.01c-3.04,1.21-6.49,1.82-10.36,1.82h-5.12v-48.03h5.12c3.79,0,7.21,0.61,10.24,1.82
		c3.03,1.21,5.6,2.88,7.68,5.01c2.09,2.13,3.7,4.67,4.84,7.63c1.14,2.96,1.71,6.15,1.71,9.56
		C83.02,269.54,82.47,272.75,81.37,275.67z"/>
	<path d="M178.91,265.54c3.15-4.06,4.72-9.35,4.72-15.88c0-3.64-0.59-7.06-1.76-10.24c-1.18-3.19-2.92-5.99-5.24-8.42
		c-2.32-2.43-5.26-4.34-8.82-5.75c-3.57-1.4-7.74-2.11-12.52-2.11h-34.71v85.82h22.31v-33.01l21.28,33.01h27.77l-26.97-35.17
		C171.12,272.35,175.76,269.6,178.91,265.54z M157.23,258.77c-2.35,1.82-5.73,2.73-10.13,2.73h-4.21v-21.17h4.21
		c4.4,0,7.78,0.91,10.13,2.73c2.35,1.82,3.53,4.44,3.53,7.85S159.58,256.95,157.23,258.77z"/>
	<rect x="201.28" y="223.14" width="22.31" height="56.59"/>
	<path d="M218.21,288.28l0.02,0l-5.8-5.4l-7.01,6.25l0,0c-2.53,2.04-4.15,5.17-4.15,8.68c0,6.16,4.99,11.15,11.15,11.15
		s11.15-4.99,11.15-11.15C223.58,293.76,221.43,290.23,218.21,288.28z"/>
	<path d="M277.08,223.14h-35.51v85.82h22.31v-28.45h13.2c9.64,0,17.01-2.5,22.14-7.51c5.12-5.01,7.68-12.06,7.68-21.17
		c0-9.11-2.56-16.16-7.68-21.17C294.09,225.65,286.71,223.14,277.08,223.14z M271.27,262.52h-7.4v-21.4h7.4
		c8.19,0,12.29,3.57,12.29,10.7C283.56,258.96,279.47,262.52,271.27,262.52z"/>
	<path d="M357.2,256.6c-1.82-0.61-3.66-1.18-5.52-1.71c-1.86-0.53-3.53-1.16-5.01-1.88c-1.48-0.72-2.67-1.57-3.58-2.56
		c-0.91-0.98-1.37-2.24-1.37-3.76c0-2.2,0.91-3.98,2.73-5.35s4.17-2.05,7.06-2.05c2.28,0,4.63,0.48,7.06,1.42
		c2.43,0.95,4.86,2.41,7.28,4.38l8.88-17.41c-4.25-2.28-8.69-4-13.32-5.18c-4.63-1.18-9.07-1.76-13.32-1.76
		c-4.55,0-8.67,0.68-12.35,2.05c-3.68,1.37-6.79,3.28-9.33,5.75c-2.54,2.47-4.51,5.43-5.92,8.88c-1.41,3.45-2.11,7.3-2.11,11.55
		c0,4.25,0.66,7.76,1.99,10.53c1.33,2.77,3.07,5.06,5.24,6.89c2.16,1.82,4.63,3.28,7.4,4.38c2.77,1.1,5.59,2.11,8.48,3.02
		c2.43,0.84,4.5,1.59,6.2,2.28c1.71,0.68,3.09,1.42,4.15,2.22c1.06,0.8,1.82,1.67,2.28,2.62c0.46,0.95,0.68,2.07,0.68,3.36
		c0,2.13-0.89,4.02-2.67,5.69c-1.78,1.67-4.5,2.5-8.14,2.5c-3.19,0-6.41-0.72-9.67-2.16c-3.26-1.44-6.56-3.64-9.9-6.6l-9.56,17.98
		c9.26,6.45,19.31,9.67,30.16,9.67c5.24,0,9.92-0.7,14.06-2.11c4.13-1.4,7.63-3.38,10.47-5.92c2.85-2.54,5.01-5.59,6.49-9.16
		c1.48-3.57,2.22-7.55,2.22-11.95c0-6.52-1.69-11.82-5.06-15.88C369.82,262.28,364.49,259.03,357.2,256.6z"/>
	<path d="M505.96,223.14H481.6l-32.67,85.82h23.79l5.12-14.91h31.87l5.12,14.91h23.79L505.96,223.14z M483.77,277.09l10.02-28.57
		l10.02,28.57H483.77z"/>
	<g>
		<polygon points="441.08,242.04 441.08,223.14 424.81,223.14 408.55,223.14 392.26,223.14 392.26,308.96 441.08,308.96 
			441.08,290.07 414.57,290.07 414.57,275.27 439.61,275.27 439.61,256.38 414.57,256.38 414.57,242.04 		"/>
		<path d="M403.58,215.19c1.52,2.17,2.46-2.34,1.34-4.38c-0.64-1.16-2.88-1.65-5.2,1.38c-3.25,4.23-1.68,4.54-7.46,10.96l16.24,0
			C399.28,218.86,401.92,212.82,403.58,215.19z"/>
		<path d="M419.87,215.19c1.52,2.17,2.46-2.34,1.34-4.38c-0.64-1.16-2.88-1.65-5.2,1.38c-3.25,4.23-1.68,4.54-7.46,10.96l16.24,0
			C415.57,218.86,418.22,212.82,419.87,215.19z"/>
		<path d="M436.14,215.19c1.52,2.17,2.46-2.34,1.34-4.38c-0.64-1.16-2.88-1.65-5.2,1.38c-3.25,4.23-1.68,4.54-7.46,10.96l16.24,0
			C431.84,218.86,434.48,212.82,436.14,215.19z"/>
	</g>
</g>
</svg>
