<?xml version="1.0" encoding="utf-8"?>
<!-- Generator: Adobe Illustrator 24.3.0, SVG Export Plug-In . SVG Version: 6.00 Build 0)  -->
<svg version="1.1" id="Calque_1" xmlns="http://www.w3.org/2000/svg" xmlns:xlink="http://www.w3.org/1999/xlink" x="0px" y="0px"
	 viewBox="0 0 566.93 566.93" style="enable-background:new 0 0 566.93 566.93;" xml:space="preserve">
<style type="text/css">
	.st0{fill:#035177;}
	.st1{fill:#FFFFFF;}
	.st2{fill:#C2CBCE;}
	.st3{fill:#DCE2E5;}
	.st4{opacity:0.5;fill:#FFFFFF;}
	.st5{fill:#E2EAED;}
	.st6{fill:#F4EFED;}
	.st7{fill:#E2DCD9;}
	.st8{fill:#6D574F;}
	.st9{fill:#D8D5D4;}
</style>
<g>
	<path class="st0" d="M281.5,55C159.17,55,60,154.17,60,276.5c0,27.28,4.93,53.41,13.96,77.55c10.32,27.62,26.01,52.64,45.8,73.77
		C160.17,471.01,217.68,498,281.5,498c14.63,0,28.93-1.42,42.76-4.13c3.97-0.77,7.9-1.65,11.79-2.64c2.92-0.74,5.81-1.53,8.67-2.39
		c3.08-0.91,6.14-1.89,9.16-2.94c6.64-2.3,13.13-4.9,19.46-7.79c41.36-18.86,75.89-50.08,98.9-88.93c2.56-4.33,4.98-8.75,7.23-13.26
		c0.37-0.71,0.73-1.43,1.08-2.15C494.93,344.4,503,311.39,503,276.5C503,154.17,403.83,55,281.5,55z M275.47,325.11
		c-13.68-4.8-28.3-8.47-43.62-10.8c-41.58-6.32-81.19-1.65-113,11.18c-10.62-1.69-16.85-3.76-16.85-5.99c0-5.8,42.09-10.5,94-10.5
		s94,4.7,94,10.5C290,321.56,284.67,323.49,275.47,325.11z M418.96,364.81c-13.71,0.82-26.66,3.65-38.36,8.08
		c-4.81-1.41-7.6-3.09-7.6-4.89c0-4.97,21.27-9,47.5-9s47.5,4.03,47.5,9c0,0.89-0.69,1.76-1.98,2.58
		C451.75,365.95,435.75,363.82,418.96,364.81z"/>
</g>
<circle class="st1" cx="367" cy="144" r="32"/>
<path class="st2" d="M275.47,325.11c-13.68-4.8-28.3-8.47-43.62-10.8c-41.58-6.32-81.19-1.65-113,11.18
	c-17.72,7.15-33.02,16.83-44.89,28.56c10.32,27.62,26.01,52.64,45.8,73.77c0.18,0.19,0.36,0.39,0.55,0.58
	c40.38,42.85,97.66,69.6,161.19,69.6c14.63,0,28.93-1.42,42.76-4.13c3.97-0.77,7.9-1.65,11.79-2.64c5.94-1.5,11.78-3.25,17.52-5.23
	c0.1-0.03,0.21-0.06,0.31-0.1c6.64-2.3,13.13-4.9,19.46-7.79c3.81-7.62,6.45-15.75,7.75-24.3
	C389.07,401.25,343.98,349.11,275.47,325.11z M237.95,404.39c-23.35-3.73-45.99-3-66.29,1.39c-0.44-0.58-0.66-1.17-0.66-1.78
	c0-6.08,22.39-11,50-11s50,4.92,50,11c0,2.24-3.04,4.32-8.25,6.05C254.8,407.66,246.52,405.76,237.95,404.39z"/>
<path class="st3" d="M353.88,486.9c-22.68,7.84-47.03,12.1-72.38,12.1c-63.82,0-121.33-26.99-161.74-70.18
	c0.18-0.14,0.36-0.28,0.55-0.42c13.89-10.55,31.5-18.34,51.35-22.62c20.3-4.39,42.94-5.12,66.29-1.39
	c8.57,1.37,16.85,3.27,24.8,5.66c45.33,13.6,79.53,42.75,90.82,75.95C353.68,486.3,353.78,486.6,353.88,486.9z"/>
<ellipse class="st4" cx="367.09" cy="144.28" rx="43.91" ry="43.72"/>
<path class="st5" d="M479.5,375.93c-2.08,4.74-4.36,9.39-6.82,13.93c-22.01,40.61-58.62,73.18-103.56,91
	c-5.25,2.09-10.61,3.97-16.08,5.63c-2.75,0.84-5.52,1.63-8.32,2.35c-0.78,0.21-1.57,0.4-2.36,0.6
	c-11.87-11.62-19.28-26.1-20.23-42.11c-1.9-31.9,22.36-60.78,58.47-74.44c11.7-4.43,24.65-7.26,38.36-8.08
	c16.79-0.99,32.79,1.14,47.06,5.77c4.68,1.52,9.18,3.3,13.45,5.34C479.48,375.92,479.49,375.93,479.5,375.93z"/>
<path class="st1" d="M198,438v-1c0-1.66,1.34-3,3-3h2c1.66,0,3-1.34,3-3l0,0c0-1.66-1.34-3-3-3h-6c-1.66,0-3-1.34-3-3l0,0
	c0-1.66-1.34-3-3-3h-34c-1.66,0-3,1.34-3,3l0,0c0,1.66,1.34,3,3,3h8c1.66,0,3,1.34,3,3l0,0c0,1.66-1.34,3-3,3h-15
	c-1.66,0-3,1.34-3,3v1c0,1.66,1.34,3,3,3h30c1.66,0,3,1.34,3,3l0,0c0,1.66,1.34,3,3,3h30c1.66,0,3-1.34,3-3l0,0c0-1.66-1.34-3-3-3
	h-15C199.34,441,198,439.66,198,438z"/>
<path class="st1" d="M297,456v-2c0-2.21-1.79-4-4-4h-52c-2.21,0-4,1.79-4,4v2c0,2.21-1.79,4-4,4h-24c-2.21,0-4,1.79-4,4l0,0
	c0,2.21,1.79,4,4,4h27c2.21,0,4,1.79,4,4v1c0,2.21,1.79,4,4,4h40c2.21,0,4-1.79,4-4v-1c0-2.21-1.79-4-4-4h-20c-2.21,0-4-1.79-4-4
	l0,0c0-2.21,1.79-4,4-4h29C295.21,460,297,458.21,297,456z"/>
<path class="st1" d="M268.5,431h-18c-1.38,0-2.5-1.12-2.5-2.5l0,0c0-1.38,1.12-2.5,2.5-2.5h18c1.38,0,2.5,1.12,2.5,2.5l0,0
	C271,429.88,269.88,431,268.5,431z"/>
<path class="st0" d="M290,319.5c0,2.06-5.33,3.99-14.53,5.61c-13.68-4.8-28.3-8.47-43.62-10.8c-41.58-6.32-81.19-1.65-113,11.18
	c-10.62-1.69-16.85-3.76-16.85-5.99c0-5.8,42.09-10.5,94-10.5S290,313.7,290,319.5z"/>
<path class="st1" d="M275.47,325.11C258.8,328.05,229.44,330,196,330c-31.94,0-60.16-1.78-77.15-4.51
	c31.81-12.83,71.42-17.5,113-11.18C247.17,316.64,261.79,320.31,275.47,325.11z"/>
<path class="st0" d="M468,368c0,0.89-0.69,1.76-1.98,2.58c-14.27-4.63-30.27-6.76-47.06-5.77c-13.71,0.82-26.66,3.65-38.36,8.08
	c-4.81-1.41-7.6-3.09-7.6-4.89c0-4.97,21.27-9,47.5-9S468,363.03,468,368z"/>
<path class="st1" d="M466.02,370.58C460.18,374.29,442,377,420.5,377c-16.73,0-31.43-1.64-39.9-4.11
	c11.7-4.43,24.65-7.26,38.36-8.08C435.75,363.82,451.75,365.95,466.02,370.58z"/>
<path class="st2" d="M271,404c0,2.24-3.04,4.32-8.25,6.05c-7.95-2.39-16.23-4.29-24.8-5.66c-23.35-3.73-45.99-3-66.29,1.39
	c-0.44-0.58-0.66-1.17-0.66-1.78c0-6.08,22.39-11,50-11S271,397.92,271,404z"/>
<path class="st1" d="M262.75,410.05c-8.94,2.99-24.3,4.95-41.75,4.95c-24.86,0-45.49-3.99-49.34-9.22
	c20.3-4.39,42.94-5.12,66.29-1.39C246.52,405.76,254.8,407.66,262.75,410.05z"/>
<g>
	<polyline class="st6" points="185.38,401.75 173.63,401.75 185.38,350 	"/>
	<polyline class="st7" points="185.38,350 197.13,401.75 185.38,401.75 	"/>
	<rect x="184.07" y="397.37" class="st8" width="1.75" height="9.63"/>
</g>
<g>
	<polyline class="st6" points="209.71,402.96 202,402.96 209.71,369 	"/>
	<polyline class="st7" points="209.71,369 217.42,402.96 209.71,402.96 	"/>
	<rect x="208.85" y="400.09" class="st8" width="1.15" height="6.32"/>
</g>
<g>
	<polyline class="st6" points="415.95,367.19 408.91,367.19 415.95,339.54 	"/>
	<polyline class="st7" points="415.95,339.54 423,367.19 415.95,367.19 	"/>
	<rect x="415.17" y="364.85" class="st8" width="1.05" height="5.15"/>
</g>
<g>
	<polyline class="st6" points="170.29,313.65 160.91,313.65 170.29,280.54 	"/>
	<polyline class="st7" points="170.29,280.54 179.67,313.65 170.29,313.65 	"/>
	<rect x="169.24" y="310.85" class="st8" width="1.4" height="6.16"/>
</g>
<g>
	<polyline class="st6" points="246.79,319.55 236.58,319.55 246.79,295.43 	"/>
	<polyline class="st7" points="246.79,295.43 257,319.55 246.79,319.55 	"/>
	<rect x="245.66" y="317.51" class="st8" width="1.52" height="4.49"/>
</g>
<path class="st1" d="M315.5,378h-7c-1.38,0-2.5-1.12-2.5-2.5v-2c0-1.38-1.12-2.5-2.5-2.5h-12c-1.38,0-2.5-1.12-2.5-2.5v-2
	c0-1.38-1.12-2.5-2.5-2.5h-46c-1.38,0-2.5,1.12-2.5,2.5v2c0,1.38,1.12,2.5,2.5,2.5h10c1.38,0,2.5,1.12,2.5,2.5v2
	c0,1.38-1.12,2.5-2.5,2.5h-23c-1.38,0-2.5,1.12-2.5,2.5l0,0c0,1.38,1.12,2.5,2.5,2.5h18c1.38,0,2.5,1.12,2.5,2.5v5
	c0,1.38,1.12,2.5,2.5,2.5h50c1.38,0,2.5-1.12,2.5-2.5v-3c0-1.38,1.12-2.5,2.5-2.5h10c1.38,0,2.5-1.12,2.5-2.5v-2
	C318,379.12,316.88,378,315.5,378z M263.5,378h15c1.38,0,2.5,1.12,2.5,2.5l0,0c0,1.38-1.12,2.5-2.5,2.5h-15
	c-1.38,0-2.5-1.12-2.5-2.5l0,0C261,379.12,262.12,378,263.5,378z"/>
<path class="st1" d="M320.5,400h-12c-1.38,0-2.5-1.12-2.5-2.5l0,0c0-1.38,1.12-2.5,2.5-2.5h12c1.38,0,2.5,1.12,2.5,2.5l0,0
	C323,398.88,321.88,400,320.5,400z"/>
<g>
	<g>
		<path class="st9" d="M250.75,144.66h-44.48c-5.41-0.76-9.8-5.17-9.8-10.62v0c0-5.44,4.39-9.86,9.8-9.86h44.48
			c5.41,0,9.8,4.41,9.8,9.86v0C260.56,139.49,256.17,143.9,250.75,144.66z"/>
		<path class="st9" d="M232.93,134.87h-37.35c-5.9,0-10.68-4.78-10.68-10.68v0c0-5.9,4.78-10.68,10.68-10.68h37.35
			c5.42,0,9.82,4.4,9.82,9.82v1.72C242.75,130.47,238.36,134.87,232.93,134.87z"/>
		<circle class="st9" cx="220.5" cy="114.4" r="11.57"/>
	</g>
	<g>
		<path class="st1" d="M254.99,141.75h-44.48c-5.41-0.76-9.8-5.17-9.8-10.62v0c0-5.44,4.39-9.86,9.8-9.86h44.48
			c5.41,0,9.8,4.41,9.8,9.86v0C264.79,136.58,260.4,140.99,254.99,141.75z"/>
		<path class="st1" d="M237.17,131.96h-37.35c-5.9,0-10.68-4.78-10.68-10.68v0c0-5.9,4.78-10.68,10.68-10.68h37.35
			c5.42,0,9.82,4.4,9.82,9.82v1.72C246.99,127.56,242.59,131.96,237.17,131.96z"/>
		<circle class="st1" cx="224.74" cy="111.49" r="11.57"/>
	</g>
</g>
<g>
	<g>
		<g>
			<path class="st9" d="M287.76,220.91h44.48c5.41,0.76,9.8,5.17,9.8,10.62v0c0,5.44-4.39,9.86-9.8,9.86h-44.48
				c-5.41,0-9.8-4.41-9.8-9.86v0C277.96,226.08,282.35,221.67,287.76,220.91z"/>
			<path class="st9" d="M305.59,230.7h37.35c5.9,0,10.68,4.78,10.68,10.68v0c0,5.9-4.78,10.68-10.68,10.68h-37.35
				c-5.42,0-9.82-4.4-9.82-9.82v-1.72C295.77,235.1,300.16,230.7,305.59,230.7z"/>
			<circle class="st9" cx="318.02" cy="251.17" r="11.57"/>
		</g>
		<circle class="st9" cx="302.16" cy="222.97" r="10.5"/>
		<circle class="st9" cx="322.16" cy="223.97" r="11.5"/>
	</g>
	<g>
		<g>
			<path class="st1" d="M291.11,217.44h44.48c5.41,0.76,9.8,5.17,9.8,10.62v0c0,5.44-4.39,9.86-9.8,9.86h-44.48
				c-5.41,0-9.8-4.41-9.8-9.86v0C281.3,222.61,285.69,218.2,291.11,217.44z"/>
			<path class="st1" d="M308.93,227.23h37.35c5.9,0,10.68,4.78,10.68,10.68v0c0,5.9-4.78,10.68-10.68,10.68h-37.35
				c-5.42,0-9.82-4.4-9.82-9.82v-1.72C299.11,231.63,303.5,227.23,308.93,227.23z"/>
			<circle class="st1" cx="321.36" cy="247.71" r="11.57"/>
		</g>
		<circle class="st1" cx="305.5" cy="219.5" r="10.5"/>
		<circle class="st1" cx="325.5" cy="220.5" r="11.5"/>
	</g>
</g>
<g>
	<path class="st9" d="M165.69,255.49h-44.48c-5.41-0.76-9.8-5.17-9.8-10.62v0c0-5.44,4.39-9.86,9.8-9.86h44.48
		c5.41,0,9.8,4.41,9.8,9.86v0C175.49,250.32,171.11,254.73,165.69,255.49z"/>
	<path class="st9" d="M147.87,245.7h-37.35c-5.9,0-10.68-4.78-10.68-10.68v0c0-5.9,4.78-10.68,10.68-10.68h37.35
		c5.42,0,9.82,4.4,9.82,9.82v1.72C157.69,241.3,153.29,245.7,147.87,245.7z"/>
	<circle class="st9" cx="135.44" cy="225.23" r="11.57"/>
</g>
<g>
	<path class="st1" d="M169.93,252.58h-44.48c-5.41-0.76-9.8-5.17-9.8-10.62v0c0-5.44,4.39-9.86,9.8-9.86h44.48
		c5.41,0,9.8,4.41,9.8,9.86v0C179.73,247.41,175.34,251.82,169.93,252.58z"/>
	<path class="st1" d="M152.1,242.79h-37.35c-5.9,0-10.68-4.78-10.68-10.68v0c0-5.9,4.78-10.68,10.68-10.68h37.35
		c5.42,0,9.82,4.4,9.82,9.82v1.72C161.93,238.39,157.53,242.79,152.1,242.79z"/>
	<circle class="st1" cx="139.67" cy="222.32" r="11.57"/>
</g>
<g>
	<g>
		<path class="st9" d="M406.25,296.77h44.48c5.41-0.76,9.8-5.17,9.8-10.62v0c0-5.44-4.39-9.86-9.8-9.86h-44.48
			c-5.41,0-9.8,4.41-9.8,9.86v0C396.45,291.6,400.83,296.01,406.25,296.77z"/>
		<path class="st9" d="M424.07,286.98h37.35c5.9,0,10.68-4.78,10.68-10.68v0c0-5.9-4.78-10.68-10.68-10.68h-37.35
			c-5.42,0-9.82,4.4-9.82,9.82v1.72C414.25,282.58,418.65,286.98,424.07,286.98z"/>
		<circle class="st9" cx="436.5" cy="266.51" r="11.57"/>
	</g>
	<g>
		<path class="st1" d="M402.01,293.86h44.48c5.41-0.76,9.8-5.17,9.8-10.62v0c0-5.44-4.39-9.86-9.8-9.86h-44.48
			c-5.41,0-9.8,4.41-9.8,9.86v0C392.21,288.69,396.6,293.1,402.01,293.86z"/>
		<path class="st1" d="M419.84,284.07h37.35c5.9,0,10.68-4.78,10.68-10.68v0c0-5.9-4.78-10.68-10.68-10.68h-37.35
			c-5.42,0-9.82,4.4-9.82,9.82v1.72C410.01,279.67,414.41,284.07,419.84,284.07z"/>
		<circle class="st1" cx="432.27" cy="263.6" r="11.57"/>
	</g>
</g>
<g>
	<polyline class="st6" points="256.86,464.39 247.71,464.39 256.86,438.67 	"/>
	<polyline class="st7" points="256.86,438.67 266,464.39 256.86,464.39 	"/>
	<rect x="255.84" y="462.21" class="st8" width="1.36" height="4.79"/>
</g>
<path class="st1" d="M133.49,364.71L133.49,364.71c0-2.05-2.45-3.71-5.47-3.71H98.47c-3.02,0-5.47,1.66-5.47,3.71l0,0
	c0,2.05,2.45,3.71,5.47,3.71h1.09c3.02,0,5.47,1.66,5.47,3.71l0,0c0,2.05-2.45,3.71-5.47,3.71h-1.09c-3.02,0-5.47,1.66-5.47,3.71
	v3.71c0,2.05,2.45,3.71,5.47,3.71h14.23c3.02,0,5.47-1.66,5.47-3.71v-3.71c0-2.05,2.45-3.71,5.47-3.71h21.89
	c3.02,0,5.47-1.66,5.47-3.71l0,0c0-2.05-2.45-3.71-5.47-3.71h-6.57C135.94,368.43,133.49,366.77,133.49,364.71z"/>
<path class="st1" d="M138,384h-9c-1.1,0-2-0.9-2-2l0,0c0-1.1,0.9-2,2-2h9c1.1,0,2,0.9,2,2l0,0C140,383.1,139.1,384,138,384z"/>
<path class="st1" d="M412,400.5v2c0,1.93-1.57,3.5-3.5,3.5h-4c-1.93,0-3.5-1.57-3.5-3.5v-2c0-1.93-1.57-3.5-3.5-3.5h-37
	c-1.93,0-3.5,1.57-3.5,3.5v3c0,1.93,1.57,3.5,3.5,3.5h9c1.93,0,3.5,1.57,3.5,3.5v3c0,1.93,1.57,3.5,3.5,3.5h48
	c1.93,0,3.5-1.57,3.5-3.5v-4c0-1.93,1.57-3.5,3.5-3.5l0,0c1.93,0,3.5-1.57,3.5-3.5v-2c0-1.93-1.57-3.5-3.5-3.5h-16
	C413.57,397,412,398.57,412,400.5z"/>
<path class="st1" d="M383,424h-14c-1.1,0-2-0.9-2-2l0,0c0-1.1,0.9-2,2-2h14c1.1,0,2,0.9,2,2l0,0C385,423.1,384.1,424,383,424z"/>
<path class="st1" d="M427,433h-17c-1.66,0-3-1.34-3-3l0,0c0-1.66,1.34-3,3-3h17c1.66,0,3,1.34,3,3l0,0
	C430,431.66,428.66,433,427,433z"/>
<ellipse class="st1" cx="209.12" cy="159.18" rx="1.29" ry="1.35"/>
<ellipse class="st1" cx="211.71" cy="185.6" rx="1.29" ry="1.35"/>
<ellipse class="st1" cx="223.88" cy="154.53" rx="1.29" ry="1.35"/>
<ellipse class="st1" cx="234.07" cy="171.82" rx="1.29" ry="1.35"/>
<ellipse class="st1" cx="189.31" cy="148.02" rx="1.29" ry="1.35"/>
<ellipse class="st1" cx="121.17" cy="262.44" rx="1.29" ry="1.35"/>
<ellipse class="st1" cx="144.42" cy="276.06" rx="1.29" ry="1.35"/>
<ellipse class="st1" cx="169.42" cy="263.06" rx="1.29" ry="1.35"/>
<ellipse class="st1" cx="254.42" cy="156.06" rx="1.29" ry="1.35"/>
<ellipse class="st1" cx="275.93" cy="260.47" rx="1.29" ry="1.35"/>
<ellipse class="st1" cx="336.93" cy="260.47" rx="1.29" ry="1.35"/>
<ellipse class="st1" cx="308.93" cy="270.47" rx="1.29" ry="1.35"/>
<ellipse class="st1" cx="414.93" cy="317.47" rx="1.29" ry="1.35"/>
<ellipse class="st1" cx="329.93" cy="280.47" rx="1.29" ry="1.35"/>
<ellipse class="st1" cx="467.93" cy="304.47" rx="1.29" ry="1.35"/>
<ellipse class="st1" cx="445.93" cy="318.47" rx="1.29" ry="1.35"/>
<ellipse class="st1" cx="450.93" cy="334.47" rx="1.29" ry="1.35"/>
<ellipse class="st1" cx="150.93" cy="264.47" rx="1.29" ry="1.35"/>
<ellipse class="st1" cx="294.93" cy="279.47" rx="1.29" ry="1.35"/>
<ellipse class="st1" cx="402.74" cy="334.87" rx="1.29" ry="1.35"/>
<ellipse class="st1" cx="324.74" cy="313.87" rx="1.29" ry="1.35"/>
<ellipse class="st1" cx="431.74" cy="352.87" rx="1.29" ry="1.35"/>
<ellipse class="st1" cx="235.74" cy="212.87" rx="1.29" ry="1.35"/>
<ellipse class="st1" cx="227.74" cy="195.87" rx="1.29" ry="1.35"/>
<ellipse class="st1" cx="128.74" cy="287.87" rx="1.29" ry="1.35"/>
<ellipse class="st1" cx="199.74" cy="207.87" rx="1.29" ry="1.35"/>
<ellipse class="st1" cx="310.48" cy="296.16" rx="1.29" ry="1.35"/>
<ellipse class="st1" cx="396.48" cy="315.16" rx="1.29" ry="1.35"/>
<ellipse class="st1" cx="391.48" cy="303.16" rx="1.29" ry="1.35"/>
<g>
	<polyline class="st6" points="375.62,414.64 366.24,414.64 375.62,381.52 	"/>
	<polyline class="st7" points="375.62,381.52 385,414.64 375.62,414.64 	"/>
	<rect x="374.57" y="411.84" class="st8" width="1.4" height="6.16"/>
</g>
<path class="st1" d="M376,450.5L376,450.5c0-1.93-1.57-3.5-3.5-3.5h-24c-1.93,0-3.5,1.57-3.5,3.5l0,0c0,1.93,1.57,3.5,3.5,3.5h2
	c1.93,0,3.5,1.57,3.5,3.5v1c0,1.93,1.57,3.5,3.5,3.5h29c1.93,0,3.5-1.57,3.5-3.5v-1c0-1.93-1.57-3.5-3.5-3.5h-7
	C377.57,454,376,452.43,376,450.5z"/>
<path class="st1" d="M202.5,335h-11c-0.83,0-1.5-0.67-1.5-1.5l0,0c0-0.83,0.67-1.5,1.5-1.5h11c0.83,0,1.5,0.67,1.5,1.5l0,0
	C204,334.33,203.33,335,202.5,335z"/>
<path class="st1" d="M165,336.93v-1.57c0-1.3-1.12-2.36-2.5-2.36h-20c-1.38,0-2.5,1.06-2.5,2.36v1.57c0,1.3,1.12,2.36,2.5,2.36h3.33
	c1.38,0,2.5,1.06,2.5,2.36l0,0c0,1.3,1.12,2.36,2.5,2.36h21.67c1.38,0,2.5-1.06,2.5-2.36l0,0c0-1.3-1.12-2.36-2.5-2.36h-5
	C166.12,339.29,165,338.23,165,336.93z"/>
<path class="st1" d="M279,335v-1c0-0.55-0.45-1-1-1h-14c-0.55,0-1,0.45-1,1l0,0c0,0.55-0.45,1-1,1h-13c-0.55,0-1,0.45-1,1v3
	c0,0.55-0.45,1-1,1h-7c-0.55,0-1,0.45-1,1v3c0,0.55,0.45,1,1,1h16c0.55,0,1-0.45,1-1v-3c0-0.55,0.45-1,1-1h4c0.55,0,1,0.45,1,1v3
	c0,0.55,0.45,1,1,1h11c0.55,0,1-0.45,1-1v-3c0-0.55-0.45-1-1-1h-6c-0.55,0-1-0.45-1-1v-2c0-0.55,0.45-1,1-1h9
	C278.55,336,279,335.55,279,335z"/>
</svg>
