<?xml version="1.0" encoding="utf-8"?>
<!-- Generator: Adobe Illustrator 24.3.0, SVG Export Plug-In . SVG Version: 6.00 Build 0)  -->
<svg version="1.1" id="Calque_1" xmlns="http://www.w3.org/2000/svg" xmlns:xlink="http://www.w3.org/1999/xlink" x="0px" y="0px"
	 viewBox="0 0 566.93 566.93" style="enable-background:new 0 0 566.93 566.93;" xml:space="preserve">
<style type="text/css">
	.st0{fill:#9CD2E7;stroke:#9CD2E7;stroke-miterlimit:10;}
	.st1{fill:#035177;stroke:#035177;stroke-width:0.75;stroke-miterlimit:10;}
	.st2{fill:#219EBC;stroke:#219EBC;stroke-width:0.5;stroke-miterlimit:10;}
	.st3{fill:#DAE4E5;stroke:#DAE4E5;stroke-width:0.5;stroke-miterlimit:10;}
	.st4{fill:#035177;stroke:#035177;stroke-miterlimit:10;}
	.st5{fill:#FFA033;}
	.st6{fill:#FFC533;}
</style>
<polygon class="st0" points="230,152.5 76.5,413.5 383.5,413.5 "/>
<polygon class="st0" points="372.07,229.31 263.5,412.5 480.64,412.5 "/>
<polygon class="st1" points="230,152.5 236.5,207.82 269.64,246.54 274.5,325.5 338.75,413 383.5,413 "/>
<polygon class="st2" points="269.1,246 216.31,411.5 274,324.5 "/>
<polygon class="st3" points="274,324.5 338.75,413.5 215.41,414 "/>
<polygon class="st4" points="372.07,229.31 372.07,324.5 480.64,412.5 "/>
<g>
	<ellipse class="st5" cx="319.16" cy="190.36" rx="27.38" ry="28.5"/>
	<ellipse class="st6" cx="318.82" cy="190.06" rx="17.02" ry="17.71"/>
</g>
<polygon class="st2" points="372.07,324.5 361.13,375.46 383.5,413 480.64,412.5 "/>
</svg>
