<?xml version="1.0" encoding="utf-8"?>
<!-- Generator: Adobe Illustrator 24.3.0, SVG Export Plug-In . SVG Version: 6.00 Build 0)  -->
<svg version="1.1" id="Calque_1" xmlns="http://www.w3.org/2000/svg" xmlns:xlink="http://www.w3.org/1999/xlink" x="0px" y="0px"
	 viewBox="0 0 566.93 566.93" style="enable-background:new 0 0 566.93 566.93;" xml:space="preserve">
<style type="text/css">
	.st0{fill:#035177;}
	.st1{fill:#E4ECEF;}
	.st2{fill:#D0E7EF;}
	.st3{fill:#9CD2E7;}
	.st4{fill:#DFE5E8;}
	.st5{fill:#FFC533;}
	.st6{opacity:0.15;fill:#FFC533;}
</style>
<path class="st0" d="M56.98,180.96h12.97c2.32,0,4.19-1.88,4.19-4.19v-3.81c0-2.32,1.88-4.19,4.19-4.19h10.94
	c-0.3-0.52-0.49-1.11-0.49-1.75c0-1.93,1.57-3.5,3.5-3.5h29c1.93,0,3.5,1.57,3.5,3.5c0,0.64-0.19,1.24-0.49,1.75h14.29
	c2.32,0,4.19,1.88,4.19,4.19v3.81c0,2.32-1.88,4.19-4.19,4.19h-12.97c-2.32,0-4.19,1.88-4.19,4.19s1.88,4.19,4.19,4.19h6.1
	c2.32,0,4.19,1.88,4.19,4.19v0.76c0,2.32-1.88,4.19-4.19,4.19h-30.51c-2.32,0-4.19-1.88-4.19-4.19v-0.76c0-2.32-1.88-4.19-4.19-4.19
	H56.98c-2.32,0-4.19-1.88-4.19-4.19S54.66,180.96,56.98,180.96z"/>
<path class="st0" d="M486.51,237.46l48.12,83.35c2.67,4.63-0.67,10.41-6.01,10.41h-96.24c-5.34,0-8.69-5.79-6.01-10.41l48.12-83.35
	C477.16,232.84,483.84,232.84,486.51,237.46z"/>
<polygon class="st1" points="404.71,179 428.28,254.93 452.75,333.74 494.9,334 443.17,245.1 "/>
<polygon class="st0" points="312.6,332.86 452.75,333.74 428.28,254.93 404.71,179 365.91,243.82 "/>
<path class="st2" d="M365.91,243.13l11.47-0.19c3.41-0.06,6.72,1.23,9.29,3.6l0,0c5.08,4.7,12.13,6.19,18.53,3.93l2.24-0.79
	c3.55-1.25,7.42-1.06,10.85,0.54l10,4.67l0,0c2.15,1,4.66,0.5,6.31-1.26l8.58-9.14l-34.87-63.46c-1.61-2.94-5.61-2.96-7.26-0.05
	L365.91,243.13z"/>
<polygon class="st1" points="165.94,126.24 134.67,226.97 102.21,331.53 46.28,331.88 114.91,213.94 "/>
<polygon class="st0" points="288.15,330.37 102.21,331.53 134.67,226.97 165.94,126.24 217.42,212.23 "/>
<path class="st3" d="M274,330H36c1.7-15.54,54.32-28,119-28S272.3,314.46,274,330z"/>
<path class="st0" d="M557,341.5c0,6.9-5.6,12.5-12.5,12.5h-522c-6.9,0-12.5-5.6-12.5-12.5H557z"/>
<path class="st1" d="M64.59,341.5H10c0-6.9,5.6-12.5,12.5-12.5h22.53c-0.02,0.17-0.03,0.33-0.03,0.5
	C45,334.08,52.37,338.27,64.59,341.5z"/>
<path class="st4" d="M557,341.5H189.41c12.22-3.23,19.59-7.42,19.59-12c0-0.17-0.01-0.33-0.03-0.5H544.5
	C551.4,329,557,334.6,557,341.5z"/>
<path class="st0" d="M11,307.5L11,307.5"/>
<path class="st0" d="M539,394.5v-3c0-3.59-2.91-6.5-6.5-6.5h-47c-3.59,0-6.5-2.91-6.5-6.5v-5c0-3.59,2.91-6.5,6.5-6.5h22
	c3.59,0,6.5-2.91,6.5-6.5v-1c0-3.59-2.91-6.5-6.5-6.5h-425c-3.59,0-6.5,2.91-6.5,6.5v1c0,3.59,2.91,6.5,6.5,6.5h59
	c3.59,0,6.5,2.91,6.5,6.5v5c0,3.59-2.91,6.5-6.5,6.5h-108c-3.59,0-6.5,2.91-6.5,6.5v3c0,3.59,2.91,6.5,6.5,6.5h108
	c3.59,0,6.5,2.91,6.5,6.5v2c0,3.59-2.91,6.5-6.5,6.5h-50c-6.9,0-12.5,5.6-12.5,12.5l0,0c0,6.9,5.6,12.5,12.5,12.5h102
	c3.59,0,6.5,2.91,6.5,6.5v5c0,3.59,2.91,6.5,6.5,6.5H366c4.97,0,9-4.03,9-9l0,0c0-4.97-4.03-9-9-9h-55.5c-3.59,0-6.5-2.91-6.5-6.5
	v-12c0-3.59-2.91-6.5-6.5-6.5h-39c-3.59,0-6.5-2.91-6.5-6.5v-2c0-3.59,2.91-6.5,6.5-6.5h133c3.59,0,6.5,2.91,6.5,6.5v2
	c0,3.59-2.91,6.5-6.5,6.5h-10c-3.59,0-6.5,2.91-6.5,6.5l0,0c0,3.59,2.91,6.5,6.5,6.5h119c3.59,0,6.5-2.91,6.5-6.5l0,0
	c0-3.59-2.91-6.5-6.5-6.5h-9c-3.59,0-6.5-2.91-6.5-6.5v-2c0-3.59,2.91-6.5,6.5-6.5h41C536.09,401,539,398.09,539,394.5z"/>
<circle class="st0" cx="66" cy="430" r="7.51"/>
<path class="st3" d="M458,380H354c-3.31,0-6-2.69-6-6l0,0c0-3.31,2.69-6,6-6h104c3.31,0,6,2.69,6,6l0,0
	C464,377.31,461.31,380,458,380z"/>
<path class="st3" d="M339,379h-22c-2.76,0-5-2.24-5-5l0,0c0-2.76,2.24-5,5-5h22c2.76,0,5,2.24,5,5l0,0
	C344,376.76,341.76,379,339,379z"/>
<circle class="st0" cx="321" cy="424" r="7.51"/>
<circle class="st0" cx="390" cy="451" r="7.51"/>
<circle class="st0" cx="31" cy="368" r="7.51"/>
<circle class="st0" cx="530" cy="368" r="7.51"/>
<path class="st3" d="M216,392L216,392c0-3.31-2.69-6-6-6h-40c-3.31,0-6,2.69-6,6l0,0c0,3.31,2.69,6,6,6h1c3.31,0,6,2.69,6,6v1
	c0,3.31,2.69,6,6,6h49c3.31,0,6-2.69,6-6v-1c0-3.31-2.69-6-6-6h-10C218.69,398,216,395.31,216,392z"/>
<path class="st3" d="M168,359h-15c-1.66,0-3-1.34-3-3l0,0c0-1.66,1.34-3,3-3h15c1.66,0,3,1.34,3,3l0,0
	C171,357.66,169.66,359,168,359z"/>
<path class="st2" d="M255,377h-16c-2.21,0-4-1.79-4-4l0,0c0-2.21,1.79-4,4-4h16c2.21,0,4,1.79,4,4l0,0
	C259,375.21,257.21,377,255,377z"/>
<path class="st3" d="M239.5,442h-15c-2.49,0-4.5-2.01-4.5-4.5l0,0c0-2.49,2.01-4.5,4.5-4.5h15c2.49,0,4.5,2.01,4.5,4.5l0,0
	C244,439.99,241.99,442,239.5,442z"/>
<path class="st3" d="M456.5,406h-19c-1.93,0-3.5-1.57-3.5-3.5l0,0c0-1.93,1.57-3.5,3.5-3.5h19c1.93,0,3.5,1.57,3.5,3.5l0,0
	C460,404.43,458.43,406,456.5,406z"/>
<path class="st1" d="M209,329.5c0,4.58-7.37,8.77-19.59,12H64.59c-12.22-3.23-19.59-7.42-19.59-12c0-0.17,0.01-0.33,0.03-0.5h163.94
	C208.99,329.17,209,329.33,209,329.5z"/>
<path class="st0" d="M64.59,341.5h124.82c-15.04,3.98-37.42,6.5-62.41,6.5S79.63,345.48,64.59,341.5z"/>
<path class="st2" d="M291,330H100c1.36-26.08,43.6-47,95.5-47S289.64,303.92,291,330z"/>
<path class="st1" d="M549.86,330H315c1.68-19.42,53.61-35,117.43-35S548.18,310.58,549.86,330z"/>
<path class="st3" d="M207.52,330h-15.77c1.29-15.54,41.37-28,90.63-28s89.33,12.46,90.63,28H207.52"/>
<path class="st1" d="M338,332h-72.25c0.52-9.99,16.49-18,36.13-18S337.48,322.01,338,332z"/>
<path class="st3" d="M502,332h-68.06c0.49-9.99,15.53-18,34.03-18C486.47,314,501.51,322.01,502,332z"/>
<path class="st5" d="M345.59,149.59c-6.02,7.56-15.3,12.41-25.72,12.41c-18.16,0-32.87-14.72-32.87-32.87
	c0-18.16,14.72-32.87,32.87-32.87c9.23,0,17.57,3.81,23.54,9.94c-3.58-1.93-7.66-3.02-12.01-3.02c-14.01,0-25.38,11.36-25.38,25.38
	s11.36,25.38,25.38,25.38C336.66,153.93,341.54,152.33,345.59,149.59z"/>
<circle class="st6" cx="316" cy="129" r="43"/>
<path class="st2" d="M217.42,211.32l-15.21-0.25c-4.52-0.08-8.91,1.63-12.32,4.78l0,0c-6.74,6.23-16.1,8.22-24.59,5.22l-2.97-1.05
	c-4.72-1.66-9.85-1.41-14.4,0.72l-13.26,6.2l0,0c-2.85,1.33-6.18,0.67-8.38-1.67l-11.38-12.13l46.27-84.19
	c2.14-3.89,7.44-3.93,9.63-0.06L217.42,211.32z"/>
<path class="st0" d="M516,332h-35.36c0.25-5.19,8.07-9.35,17.68-9.35C507.93,322.65,515.75,326.81,516,332z"/>
<path class="st0" d="M423.81,137.46h-12.97c-2.32,0-4.19-1.88-4.19-4.19v-3.81c0-2.32-1.88-4.19-4.19-4.19h-10.94
	c0.3-0.52,0.49-1.11,0.49-1.75c0-1.93-1.57-3.5-3.5-3.5h-29c-1.93,0-3.5,1.57-3.5,3.5c0,0.64,0.19,1.24,0.49,1.75h-14.29
	c-2.32,0-4.19,1.88-4.19,4.19v3.81c0,2.32,1.88,4.19,4.19,4.19h12.97c2.32,0,4.19,1.88,4.19,4.19s-1.88,4.19-4.19,4.19h-6.1
	c-2.32,0-4.19,1.88-4.19,4.19v0.76c0,2.32,1.88,4.19,4.19,4.19h30.51c2.32,0,4.19-1.88,4.19-4.19v-0.76c0-2.32,1.88-4.19,4.19-4.19
	h35.85c2.32,0,4.19-1.88,4.19-4.19S426.12,137.46,423.81,137.46z"/>
<path class="st0" d="M214,141.5v-2c0-2.49-2.01-4.5-4.5-4.5h-37c-2.49,0-4.5,2.01-4.5,4.5v2c0,2.49,2.01,4.5,4.5,4.5h2
	c2.49,0,4.5,2.01,4.5,4.5l0,0c0,2.49,2.01,4.5,4.5,4.5h42c2.49,0,4.5-2.01,4.5-4.5l0,0c0-2.49-2.01-4.5-4.5-4.5h-7
	C216.01,146,214,143.99,214,141.5z"/>
<path class="st0" d="M230.25,137.25h-8.5c-2.35,0-4.25-1.9-4.25-4.25l0,0c0-2.35,1.9-4.25,4.25-4.25h8.5c2.35,0,4.25,1.9,4.25,4.25
	l0,0C234.5,135.35,232.6,137.25,230.25,137.25z"/>
<path class="st0" d="M434.35,198.5v-2c0-2.49,2.01-4.5,4.5-4.5h37c2.49,0,4.5,2.01,4.5,4.5v2c0,2.49-2.01,4.5-4.5,4.5h-2
	c-2.49,0-4.5,2.01-4.5,4.5l0,0c0,2.49-2.01,4.5-4.5,4.5h-42c-2.49,0-4.5-2.01-4.5-4.5l0,0c0-2.49,2.01-4.5,4.5-4.5h7
	C432.33,203,434.35,200.99,434.35,198.5z"/>
<path class="st0" d="M418.1,194.25h8.5c2.35,0,4.25-1.9,4.25-4.25l0,0c0-2.35-1.9-4.25-4.25-4.25h-8.5c-2.35,0-4.25,1.9-4.25,4.25
	l0,0C413.85,192.35,415.75,194.25,418.1,194.25z"/>
<path class="st0" d="M282.32,216.29L282.32,216.29c0-1.46-1.27-2.65-2.84-2.65h-24.63c-1.57,0-2.84,1.19-2.84,2.65v0
	c0,1.46,1.27,2.65,2.84,2.65h3.79c1.57,0,2.84,1.19,2.84,2.65v1.77c0,1.46,1.27,2.65,2.84,2.65h20.84c1.57,0,2.84-1.19,2.84-2.65
	v-1.77c0-1.46-1.27-2.65-2.84-2.65l0,0C283.59,218.94,282.32,217.75,282.32,216.29z"/>
<path class="st0" d="M289.13,238.03h-8.5c-2.35,0-4.25-1.9-4.25-4.25l0,0c0-2.35,1.9-4.25,4.25-4.25h8.5c2.35,0,4.25,1.9,4.25,4.25
	l0,0C293.38,236.13,291.48,238.03,289.13,238.03z"/>
<path class="st0" d="M78.13,203.03h-8.5c-2.35,0-4.25-1.9-4.25-4.25l0,0c0-2.35,1.9-4.25,4.25-4.25h8.5c2.35,0,4.25,1.9,4.25,4.25
	l0,0C82.38,201.13,80.48,203.03,78.13,203.03z"/>
<path class="st0" d="M370.13,114.03h-8.5c-2.35,0-4.25-1.9-4.25-4.25v0c0-2.35,1.9-4.25,4.25-4.25h8.5c2.35,0,4.25,1.9,4.25,4.25v0
	C374.38,112.13,372.48,114.03,370.13,114.03z"/>
</svg>
