<?xml version="1.0" encoding="utf-8"?>
<!-- Generator: Adobe Illustrator 25.0.1, SVG Export Plug-In . SVG Version: 6.00 Build 0)  -->
<svg version="1.1" id="Layer_1" xmlns="http://www.w3.org/2000/svg" xmlns:xlink="http://www.w3.org/1999/xlink" x="0px" y="0px"
	 viewBox="0 0 566.9 566.9" style="enable-background:new 0 0 566.9 566.9;" xml:space="preserve">
<style type="text/css">
	.st0{font-family:'Futura-Bold';}
	.st1{font-size:174.5721px;}
	.st2{stroke:#000000;stroke-linecap:round;stroke-miterlimit:10;}
	.st3{fill:#9CD2E7;stroke:#000000;stroke-width:17;stroke-linecap:round;stroke-miterlimit:10;}
	.st4{fill:#9CD2E7;}
	.st5{fill:#9CD2E7;stroke:#000000;stroke-width:6;stroke-linecap:round;stroke-miterlimit:10;}
	.st6{fill:#9CD2E7;stroke:#000000;stroke-width:2;stroke-linecap:round;stroke-miterlimit:10;}
	.st7{fill:none;stroke:#000000;stroke-width:2;stroke-linecap:round;stroke-miterlimit:10;}
	.st8{fill:#219EBC;}
	.st9{fill:#294F73;}
	.st10{fill:#E9A045;}
	.st11{fill:#5897B5;}
	.st12{fill:#AACFE4;}
	.st13{fill:#9CD2E7;stroke:#000000;stroke-width:4;stroke-linecap:round;stroke-miterlimit:10;}
</style>
<text transform="matrix(1 0 0 1 112.2898 325.8253)" class="st0 st1">pH</text>
<path class="st2" d="M460.4,203.7l-29.4-40.6l-29.4,40.6h20.9v157.8c0,5,4,9,9,9s9-4,9-9V203.7H460.4z"/>
<line class="st3" x1="239.7" y1="418.3" x2="251.6" y2="430.6"/>
<line class="st3" x1="239" y1="424.5" x2="251.1" y2="412.4"/>
<line class="st3" x1="197.8" y1="440.4" x2="214.9" y2="457.5"/>
<line class="st3" x1="199.3" y1="412.4" x2="219.2" y2="392.5"/>
<path class="st4" d="M221,449.1h-29.2c-13.6,0-24.6-11-24.6-24.6v0c0-13.6,11-24.6,24.6-24.6H221c13.6,0,24.6,11,24.6,24.6v0
	C245.6,438,234.6,449.1,221,449.1z"/>
<line class="st5" x1="184.1" y1="424.5" x2="191.3" y2="433.3"/>
<line class="st5" x1="192.5" y1="424.5" x2="184.1" y2="433.3"/>
<path class="st6" d="M184.1,412.4c3.5,2.5,11.5,1,15.2-1.6"/>
<path class="st7" d="M196.2,412.7l-2-4.1c-1.4-3.5-5.3-2.9-4.3-0.1c1.2,3.3,2,5,2,5"/>
<line class="st3" x1="473.3" y1="343.8" x2="465.1" y2="352.3"/>
<line class="st3" x1="473.7" y1="348" x2="465.4" y2="339.6"/>
<line class="st3" x1="502.4" y1="359" x2="490.5" y2="370.9"/>
<line class="st3" x1="501.3" y1="339.6" x2="487.5" y2="325.8"/>
<path class="st8" d="M486.3,365.1h20.3c9.4,0,17.1-7.6,17.1-17.1v0c0-9.4-7.6-17.1-17.1-17.1h-20.3c-9.4,0-17.1,7.6-17.1,17.1v0
	C469.2,357.4,476.8,365.1,486.3,365.1z"/>
<line class="st5" x1="511.9" y1="348" x2="506.9" y2="354.1"/>
<line class="st5" x1="506" y1="348" x2="511.9" y2="354.1"/>
<path class="st6" d="M511.9,339.6c-2.5,1.8-8,0.7-10.5-1.1"/>
<path class="st7" d="M503.5,339.9l1.4-2.8c1-2.4,3.7-2,3-0.1c-0.8,2.3-1.4,3.5-1.4,3.5"/>
<path class="st9" d="M96,196.8c1.3,2.2,2.7,4.4,4,6.6c0.5,0.8,1,1.9,0.4,2.6c-0.6,0.7-1.7,0.5-2.5,0.1c-5.8-2.4-9.4-9.1-8.3-15.3
	c0.2-0.9,0.4-1.8,0.9-2.6c1-1.8,2.8-2.9,4.6-4c2.4-1.5,4.8-2.9,7.2-4.4c3.1-1.9,6.4-4,8.1-7.3c1.7-3.3,0.8-8.1-2.6-9.4
	c-1.4-0.6-3-0.4-4.5-0.7c-4.9-0.7-8.8-5-10.2-9.8c-1.4-4.8-0.6-10,0.9-14.7c0.6-2,1.4-4,2.6-5.8c2.8-4.1,7.6-6.4,12.5-7.5
	c5.3-1.2,11.4-0.9,15.6,2.6c5,4.1,6.1,11.2,6.5,17.6c0.4,6.4,0.5,13.4,4.5,18.5c3.7,4.7,10.5,6.8,16.2,4.8c3.7-1.3,7.4-4.1,11.2-3.1
	c3.6,1,5.5,4.9,6.6,8.5c0.2,0.6,0.4,1.3,0.2,1.9c-0.4,1.3-2.2,1.6-3.3,0.9s-1.9-1.9-2.6-3s-1.6-2.3-2.9-2.6c-2-0.5-3.7,1.2-5.3,2.5
	c-6,4.6-15.5,3.8-20.5-1.8c-0.2-0.3-0.5-0.5-0.8-0.6c-0.7-0.1-1.2,0.8-1.2,1.6c-0.2,3.3,1.4,6.6,3.7,9s5.4,3.9,8.6,5
	c1.9,0.7,4,1.2,5.3,2.8c1.3,1.5,1.1,4.4-0.8,5.1c-1.9,0.6-3.6-1.2-5.2-2.5c-2.8-2.1-6.6-2.5-9.5-4.6c-4.4-3.2-5.1-9.3-6.8-14.4
	c-0.1-0.4-0.3-0.8-0.7-1.1c-0.6-0.4-1.4,0.1-1.7,0.7c-0.3,0.6-0.2,1.4-0.1,2c0.8,5.6,1.7,11.6,5.5,15.7c1.6,1.7,3.5,3,5.1,4.7
	c2.9,3.4,3.7,8.4,1.9,12.5c-0.5,1.2-1.5,2.5-2.8,2.5c-1.8,0-2.7-2.2-2.6-4c0.1-1.8,0.8-3.6,0.2-5.3c-1-2.9-4.7-3.4-7.4-5
	c-3.7-2.2-5.2-6.8-5.3-11.1c-0.1-4.3,1.1-8.5,1.5-12.7c-3.3,2.4-4.5,6.7-5.5,10.6c-1.3,5.2-2.5,11.1,0.6,15.4c3,4,9.2,5.6,10.2,10.5
	c-0.6,0.8-1.9,0.2-2.7-0.3c-2.9-2-5.8-4-8.7-6c-2.6-1.8-5.3-3.8-6.1-6.7c-0.4-1.5-0.3-3-0.1-4.5c0.9-6.6,3.3-13.1,7-18.7
	c-2.7-0.3-5.1,1.6-6.8,3.8c-1.6,2.1-2.8,4.7-4.8,6.5c-1.6,1.5-3.6,2.5-5.4,3.7c-1.9,1.2-3.7,2.6-4.6,4.6c-0.9,2-0.6,4.7,1.2,6"/>
<g>
	<path class="st10" d="M92.7,189.9c0.5-0.2,0.9-0.5,1.3-0.9c0.2-0.2,0.5-0.4,0.7-0.7c0.2-0.3,0.4-0.5,0.5-0.8
		c0.1-0.2,0.1-0.4,0.1-0.6c0-0.2,0-0.4-0.1-0.6c-0.1-0.2-0.2-0.4-0.4-0.5c-0.1-0.2-0.3-0.3-0.5-0.4c-0.4-0.1-0.8-0.2-1.2,0
		c-0.1,0.1-0.2,0.1-0.4,0.2c-0.2,0.2-0.4,0.4-0.5,0.6c0,0,0,0.1-0.1,0.1c0.1-0.1,0.1-0.2,0.2-0.3c-0.2,0.3-0.4,0.5-0.6,0.8
		c0.1-0.1,0.2-0.2,0.3-0.3c-0.2,0.2-0.5,0.4-0.8,0.6c0.1-0.1,0.2-0.1,0.4-0.2c-0.1,0-0.1,0.1-0.2,0.1c-0.2,0.1-0.4,0.2-0.5,0.4
		c-0.2,0.1-0.3,0.3-0.4,0.5c-0.1,0.2-0.1,0.4-0.1,0.6c0,0.2,0,0.4,0.1,0.6c0.2,0.4,0.4,0.7,0.8,0.9C91.9,190,92.3,190.1,92.7,189.9
		L92.7,189.9z"/>
</g>
<g>
	<path class="st10" d="M98.7,186.5c0-0.1,0.1-0.2,0.2-0.3C98.8,186.3,98.7,186.5,98.7,186.5c0.1-0.2,0.3-0.4,0.5-0.6
		c-0.1,0.1-0.2,0.2-0.3,0.3c0.2-0.2,0.4-0.4,0.7-0.5c-0.1,0.1-0.2,0.1-0.4,0.2c0.2-0.1,0.5-0.2,0.8-0.3c-0.1,0-0.3,0.1-0.4,0.1
		c0.1,0,0.1,0,0.2,0c0.4-0.1,0.8-0.2,1.1-0.6c0.2-0.3,0.4-0.8,0.3-1.1c-0.1-0.4-0.3-0.8-0.6-1.1c-0.3-0.2-0.7-0.4-1.1-0.3
		c-0.8,0.1-1.5,0.4-2.2,0.9c-0.6,0.5-1.1,1.1-1.5,1.8c-0.2,0.4-0.2,0.8,0,1.2c0.1,0.4,0.5,0.7,0.8,0.9c0.4,0.1,0.8,0.2,1.2,0
		C98.2,187.2,98.5,186.9,98.7,186.5L98.7,186.5z"/>
</g>
<g>
	<path class="st10" d="M114.7,191.5c-0.1-0.3-0.1-0.6-0.1-0.9c0,0.1,0,0.3,0,0.4c0-0.4,0.1-0.7,0.2-1c0,0.1-0.1,0.3-0.1,0.4
		c0-0.1,0-0.1,0.1-0.2c0.1-0.2,0.1-0.4,0.1-0.6c0-0.2,0-0.4-0.1-0.6c-0.1-0.2-0.2-0.4-0.4-0.5c-0.1-0.2-0.3-0.3-0.5-0.4
		c-0.4-0.1-0.8-0.2-1.2,0c-0.4,0.2-0.7,0.4-0.9,0.8c-0.2,0.5-0.3,1-0.3,1.5c0,0.5,0,1,0.1,1.5c0,0.2,0.1,0.4,0.2,0.6
		c0.1,0.2,0.2,0.4,0.4,0.5c0.2,0.1,0.3,0.2,0.5,0.3c0.2,0.1,0.4,0.1,0.6,0.1c0.4-0.1,0.8-0.3,1.1-0.6
		C114.6,192.3,114.8,191.9,114.7,191.5L114.7,191.5z"/>
</g>
<g>
	<path class="st10" d="M123.6,179.7c1.1-0.9,1.8-2.3,1.6-3.7c0-0.2-0.1-0.4-0.2-0.6c-0.1-0.2-0.2-0.4-0.4-0.5
		c-0.2-0.1-0.3-0.2-0.5-0.3c-0.2-0.1-0.4-0.1-0.6-0.1c-0.1,0-0.3,0.1-0.4,0.1c-0.3,0.1-0.5,0.3-0.7,0.5c-0.2,0.3-0.4,0.7-0.3,1.1
		c0,0.1,0,0.2,0,0.3c0-0.1,0-0.3,0-0.4c0,0.2,0,0.4-0.1,0.6c0-0.1,0.1-0.3,0.1-0.4c-0.1,0.2-0.2,0.4-0.3,0.6
		c0.1-0.1,0.1-0.2,0.2-0.3c-0.1,0.2-0.3,0.4-0.4,0.5c0.1-0.1,0.2-0.2,0.3-0.3c-0.1,0.1-0.1,0.1-0.2,0.2c-0.2,0.1-0.3,0.3-0.4,0.5
		c-0.1,0.2-0.2,0.4-0.2,0.6c0,0.2,0,0.4,0,0.6c0,0.2,0.1,0.4,0.3,0.6c0.3,0.3,0.6,0.6,1,0.6C122.8,180.1,123.3,180,123.6,179.7
		L123.6,179.7z"/>
</g>
<g>
	<path class="st10" d="M130.9,194c-0.5-0.4-1-0.7-1.6-1c-0.4-0.2-0.9-0.4-1.4-0.6c-0.2-0.1-0.4-0.1-0.6-0.1c-0.2,0-0.4,0-0.6,0.1
		c-0.4,0.1-0.7,0.5-0.9,0.8c-0.1,0.4-0.2,0.8,0,1.2c0.2,0.4,0.4,0.7,0.8,0.9c0.6,0.2,1.1,0.5,1.7,0.8c-0.1-0.1-0.2-0.1-0.3-0.2
		c0.3,0.2,0.6,0.4,0.9,0.6c0.3,0.2,0.8,0.4,1.1,0.3c0.2,0,0.4-0.1,0.6-0.2c0.2-0.1,0.4-0.2,0.5-0.4c0.2-0.3,0.4-0.7,0.3-1.1
		C131.5,194.6,131.3,194.2,130.9,194L130.9,194z"/>
</g>
<g>
	<path class="st10" d="M138.7,206C138.7,206,138.7,206,138.7,206c0,0.1,0.1,0.2,0.1,0.4c-0.2-0.8-0.3-1.6-0.3-2.5
		c0-0.2-0.1-0.4-0.2-0.6c-0.1-0.2-0.2-0.4-0.4-0.5c-0.3-0.2-0.8-0.4-1.1-0.3c-0.4,0.1-0.8,0.3-1.1,0.6c-0.1,0.1-0.1,0.2-0.2,0.3
		c-0.1,0.3-0.1,0.5-0.1,0.8c0,1,0.2,2,0.5,2.9c0.1,0.2,0.2,0.4,0.4,0.5c0.1,0.2,0.3,0.3,0.5,0.4c0.4,0.2,0.9,0.2,1.2,0
		c0.4-0.2,0.7-0.4,0.9-0.8c0-0.1,0.1-0.3,0.1-0.4C138.8,206.5,138.8,206.3,138.7,206L138.7,206z"/>
</g>
<g>
	<path class="st10" d="M129.8,176.9c0.2,0.5,0.3,1,0.5,1.5c0-0.1-0.1-0.3-0.1-0.4c0.1,0.5,0.2,1,0.3,1.6c0.1,0.4,0.3,0.8,0.6,1.1
		c0.3,0.2,0.8,0.4,1.1,0.3c0.4-0.1,0.8-0.3,1.1-0.6c0.2-0.3,0.4-0.7,0.3-1.1c-0.1-1.2-0.4-2.3-0.8-3.4c-0.1-0.4-0.5-0.7-0.8-0.9
		c-0.4-0.2-0.9-0.2-1.2,0C129.9,175.2,129.4,176.1,129.8,176.9L129.8,176.9z"/>
</g>
<g>
	<path class="st10" d="M141.7,190.3c0.6,0,1.2-0.2,1.8-0.2c-0.1,0-0.3,0-0.4,0c0.2,0,0.5,0,0.7,0.1c-0.1,0-0.3-0.1-0.4-0.1
		c0.3,0.1,0.6,0.2,0.8,0.4c-0.1-0.1-0.2-0.1-0.3-0.2c0.6,0.3,1,0.8,1.5,1.2c0.3,0.3,0.8,0.4,1.1,0.3c0.4,0,0.8-0.3,1.1-0.6
		s0.4-0.7,0.3-1.1c-0.1-0.4-0.3-0.8-0.6-1.1c-0.7-0.7-1.5-1.3-2.4-1.7c-0.6-0.3-1.3-0.4-1.9-0.3c-0.6,0-1.1,0.2-1.7,0.2
		c-0.4,0-0.8,0.3-1.1,0.6c-0.2,0.3-0.4,0.8-0.3,1.1c0.1,0.4,0.3,0.8,0.6,1.1C140.9,190.2,141.3,190.3,141.7,190.3L141.7,190.3z"/>
</g>
<g>
	<path class="st10" d="M139.1,173.7c0.1,0.1,0.2,0.1,0.2,0.1c-0.1-0.1-0.2-0.1-0.3-0.2c0.8,0.5,1.5,1.1,2.2,1.7
		c-0.1-0.1-0.2-0.2-0.3-0.3c0,0,0,0,0.1,0.1c0.1,0.2,0.3,0.3,0.5,0.4c0.2,0.1,0.4,0.2,0.6,0.2c0.4,0.1,0.9,0,1.2-0.3
		c0.3-0.3,0.6-0.6,0.6-1c0-0.1,0-0.3,0-0.4c0-0.3-0.1-0.6-0.3-0.8c-0.5-0.5-0.9-0.9-1.5-1.4c-0.5-0.4-1.1-0.8-1.7-1.1
		c-0.3-0.2-0.9-0.2-1.2,0c-0.4,0.1-0.7,0.5-0.9,0.8c-0.1,0.4-0.2,0.8,0,1.2c0.1,0.1,0.1,0.2,0.2,0.4
		C138.6,173.4,138.8,173.5,139.1,173.7L139.1,173.7z"/>
</g>
<g>
	<path class="st10" d="M146.9,173.7c1.5-0.1,2.9-0.7,4.1-1.5c0.3-0.2,0.6-0.6,0.6-1c0.1-0.4,0-0.9-0.3-1.2c-0.6-0.7-1.5-0.8-2.2-0.3
		c-0.2,0.1-0.4,0.3-0.6,0.4c0.1-0.1,0.2-0.1,0.4-0.2c-0.5,0.3-1.1,0.5-1.7,0.7c0.1,0,0.3-0.1,0.4-0.1c-0.3,0.1-0.7,0.1-1,0.2
		c-0.4,0-0.8,0.3-1.1,0.6c-0.2,0.3-0.4,0.8-0.3,1.1C145.3,173.1,146,173.7,146.9,173.7L146.9,173.7z"/>
</g>
<line class="st6" x1="98.3" y1="145.1" x2="101.1" y2="148.6"/>
<line class="st6" x1="101.6" y1="145.1" x2="98.3" y2="148.6"/>
<line class="st6" x1="114.4" y1="138" x2="117.3" y2="141.5"/>
<line class="st6" x1="117.8" y1="138" x2="114.4" y2="141.5"/>
<g>
	<path class="st11" d="M467.7,111.5c0,0,15.4-2.7,19.9,7.9c0,0-13,14.1-29.4,1.6c0,0-15.9,14.1-53.6,22.2c0,0-55.1,16.8-90.8-3.1
		c0,0-33.6-17.7-32.5-44.8c0,0,6.3,0.9,6.5-3.6c0,0-1.1-4.7-4.9-4.2c0,0,2.5-9,9.2-11c0,0,15.9-9.8,62.1,8.3c0,0,30.5-16.1,57.6,0.2
		c0,0,6.1,6.9-7.8,9.6c0,0-11.3,1.3-16.9,5.2c0,0,41.2,27.9,66.1,16.7c0,0-0.4-19.1,17.3-25.3C470.6,91.3,477.2,101.9,467.7,111.5z"
		/>
</g>
<g>
	<path class="st12" d="M281.2,95.4c0,0-54-9.4-57.2-17.3c0,0-3.5-5.4,58.8,9.6c0,0,3.7,0.4,4.9,4.2
		C287.7,91.8,287.6,96.6,281.2,95.4z"/>
</g>
<line class="st13" x1="297.7" y1="105.4" x2="304.2" y2="113.4"/>
<line class="st13" x1="305.3" y1="105.4" x2="297.7" y2="113.4"/>
</svg>
