<?xml version="1.0" encoding="utf-8"?>
<!-- Generator: Adobe Illustrator 24.3.0, SVG Export Plug-In . SVG Version: 6.00 Build 0)  -->
<svg version="1.1" id="Calque_1" xmlns="http://www.w3.org/2000/svg" xmlns:xlink="http://www.w3.org/1999/xlink" x="0px" y="0px"
	 viewBox="0 0 566.93 566.93" style="enable-background:new 0 0 566.93 566.93;" xml:space="preserve">
<style type="text/css">
	.st0{fill:#9CD2E7;}
	.st1{fill:#219EBC;stroke:#219EBC;stroke-miterlimit:10;}
	.st2{fill:#9CD2E7;stroke:#9CD2E7;stroke-miterlimit:10;}
	.st3{fill:#2B87AF;}
	.st4{fill:#DFE7EA;stroke:#DFE7EA;stroke-miterlimit:10;}
	.st5{opacity:0.4;}
	.st6{fill:#226C96;}
	.st7{opacity:0.3;}
	.st8{opacity:0.4;fill:#035177;stroke:#035177;stroke-miterlimit:10;}
	.st9{fill:#FFC533;}
	.st10{fill:#FFA033;}
	.st11{fill:#FFA033;stroke:#FFC533;stroke-width:0.5;stroke-miterlimit:10;}
	.st12{opacity:0.5;}
	.st13{fill:#FFFFFF;stroke:#FFFFFF;stroke-width:0.5;stroke-miterlimit:10;}
</style>
<g>
	<path class="st0" d="M136.91,525.5c-11.25,0-20.41-9.16-20.41-20.41v-2.18c0-11.25,9.16-20.41,20.41-20.41H146
		c10.2,0,18.5-8.3,18.5-18.5s-8.3-18.5-18.5-18.5H80c-9.65,0-17.5-7.85-17.5-17.5s7.85-17.5,17.5-17.5h77
		c6.89,0,12.5-5.61,12.5-12.5s-5.61-12.5-12.5-12.5h-34c-6.89,0-12.5-5.61-12.5-12.5c0-7.44-6.06-13.5-13.5-13.5h-6.5
		c-7.17,0-13-5.83-13-13s5.83-13,13-13H127c7.44,0,13.5-6.06,13.5-13.5s-6.06-13.5-13.5-13.5H78.5c-7.17,0-13-5.83-13-13v-5.09
		c0-4.36,3.55-7.91,7.91-7.91c11.08,0,20.09-9.01,20.09-20.09v-13.81c0-11.08-9.01-20.09-20.09-20.09H59.03
		c-12.97,0-23.53-10.55-23.53-23.53v-4.95c0-12.97,10.55-23.53,23.53-23.53H95c8,0,14.5-6.5,14.5-14.5S103,145.5,95,145.5h-1.5
		c-7.72,0-14-6.28-14-14s6.28-14,14-14h27c6.62,0,12-5.38,12-12c0-6.07,4.93-11,11-11H195c7.44,0,13.5-6.06,13.5-13.5
		s-6.06-13.5-13.5-13.5H74.5c-6.07,0-11-4.93-11-11s4.93-11,11-11h363c6.07,0,11,4.93,11,11c0,6.62,5.38,12,12,12H505
		c6.89,0,12.5,5.61,12.5,12.5s-5.61,12.5-12.5,12.5h-15c-7.44,0-13.5,6.06-13.5,13.5c0,6.89-5.61,12.5-12.5,12.5h-15
		c-7.44,0-13.5,6.06-13.5,13.5s6.06,13.5,13.5,13.5h84.5c7.72,0,14,6.28,14,14s-6.28,14-14,14h-47.45
		c-6.92,0-12.55,5.63-12.55,12.55v31.45c0,4.96,4.04,9,9,9c4.41,0,8,3.59,8,8V265c0,8-6.5,14.5-14.5,14.5
		c-7.44,0-13.5,6.06-13.5,13.5s6.06,13.5,13.5,13.5h48.5c7.17,0,13,5.83,13,13s-5.83,13-13,13h-57c-7.72,0-14,6.28-14,14
		c0,7.17-5.83,13-13,13h-22c-7.17,0-13,5.83-13,13s5.83,13,13,13h54.18c7.07,0,12.82,5.75,12.82,12.82v0.35
		c0,7.07-5.75,12.82-12.82,12.82h-80.59c-7.49,0-13.58,6.09-13.58,13.58v7.83c0,7.49,6.09,13.58,13.58,13.58H513
		c9.65,0,17.5,7.85,17.5,17.5s-7.85,17.5-17.5,17.5h-14.73c-8.69,0-15.77,7.07-15.77,15.77v13.46c0,8.14-6.62,14.77-14.77,14.77
		H136.91z"/>
	<path class="st0" d="M437.5,46c5.79,0,10.5,4.71,10.5,10.5c0,6.89,5.61,12.5,12.5,12.5H505c6.62,0,12,5.38,12,12s-5.38,12-12,12
		h-15c-7.72,0-14,6.28-14,14c0,6.62-5.38,12-12,12h-15c-7.72,0-14,6.28-14,14s6.28,14,14,14h84.5c7.44,0,13.5,6.06,13.5,13.5
		s-6.06,13.5-13.5,13.5h-47.45c-7.2,0-13.05,5.86-13.05,13.05v31.45c0,5.24,4.26,9.5,9.5,9.5c4.14,0,7.5,3.36,7.5,7.5V265
		c0,7.72-6.28,14-14,14s-14,6.28-14,14s6.28,14,14,14h48.5c6.89,0,12.5,5.61,12.5,12.5s-5.61,12.5-12.5,12.5h-57
		c-8,0-14.5,6.5-14.5,14.5c0,6.89-5.61,12.5-12.5,12.5h-22c-7.44,0-13.5,6.06-13.5,13.5s6.06,13.5,13.5,13.5h54.18
		c6.8,0,12.32,5.53,12.32,12.32v0.35c0,6.8-5.53,12.32-12.32,12.32h-80.59c-7.77,0-14.08,6.32-14.08,14.08v7.83
		c0,7.77,6.32,14.08,14.08,14.08H513c9.37,0,17,7.63,17,17s-7.63,17-17,17h-14.73c-8.97,0-16.27,7.3-16.27,16.27v13.46
		c0,7.87-6.4,14.27-14.27,14.27H136.91c-10.98,0-19.91-8.93-19.91-19.91v-2.18c0-10.98,8.93-19.91,19.91-19.91H146
		c10.48,0,19-8.52,19-19s-8.52-19-19-19H80c-9.37,0-17-7.63-17-17s7.63-17,17-17h77c7.17,0,13-5.83,13-13s-5.83-13-13-13h-34
		c-6.62,0-12-5.38-12-12c0-7.72-6.28-14-14-14h-6.5c-6.89,0-12.5-5.61-12.5-12.5S83.61,334,90.5,334H127c7.72,0,14-6.28,14-14
		s-6.28-14-14-14H78.5c-6.89,0-12.5-5.61-12.5-12.5v-5.09c0-4.08,3.32-7.41,7.41-7.41C84.76,281,94,271.76,94,260.41v-13.81
		C94,235.24,84.76,226,73.41,226H59.03C46.33,226,36,215.67,36,202.97v-4.95C36,185.33,46.33,175,59.03,175H95c8.27,0,15-6.73,15-15
		s-6.73-15-15-15h-1.5c-7.44,0-13.5-6.06-13.5-13.5S86.06,118,93.5,118h27c6.89,0,12.5-5.61,12.5-12.5c0-5.79,4.71-10.5,10.5-10.5
		H195c7.72,0,14-6.28,14-14s-6.28-14-14-14H74.5C68.71,67,64,62.29,64,56.5S68.71,46,74.5,46H437.5 M437.5,45h-363
		C68.15,45,63,50.15,63,56.5S68.15,68,74.5,68H195c7.18,0,13,5.82,13,13s-5.82,13-13,13h-51.5c-6.35,0-11.5,5.15-11.5,11.5
		s-5.15,11.5-11.5,11.5h-27c-8.01,0-14.5,6.49-14.5,14.5S85.49,146,93.5,146H95c7.73,0,14,6.27,14,14s-6.27,14-14,14H59.03
		C45.76,174,35,184.76,35,198.03v4.95C35,216.24,45.76,227,59.03,227h14.38C84.23,227,93,235.77,93,246.59v13.81
		C93,271.23,84.23,280,73.41,280c-4.64,0-8.41,3.76-8.41,8.41v5.09c0,7.46,6.04,13.5,13.5,13.5H127c7.18,0,13,5.82,13,13
		s-5.82,13-13,13H90.5c-7.46,0-13.5,6.04-13.5,13.5S83.04,360,90.5,360H97c7.18,0,13,5.82,13,13s5.82,13,13,13h34
		c6.63,0,12,5.37,12,12s-5.37,12-12,12H80c-9.94,0-18,8.06-18,18s8.06,18,18,18h66c9.94,0,18,8.06,18,18s-8.06,18-18,18h-9.09
		c-11.55,0-20.91,9.36-20.91,20.91v2.18c0,11.55,9.36,20.91,20.91,20.91h330.82c8.43,0,15.27-6.84,15.27-15.27v-13.46
		c0-8.43,6.84-15.27,15.27-15.27H513c9.94,0,18-8.06,18-18s-8.06-18-18-18H392.08c-7.23,0-13.08-5.86-13.08-13.08v-7.83
		c0-7.23,5.86-13.08,13.08-13.08h80.59c7.36,0,13.32-5.97,13.32-13.32v-0.35c0-7.36-5.97-13.32-13.32-13.32H418.5
		c-6.9,0-12.5-5.6-12.5-12.5s5.6-12.5,12.5-12.5h22c7.46,0,13.5-6.04,13.5-13.5s6.04-13.5,13.5-13.5h57c7.46,0,13.5-6.04,13.5-13.5
		s-6.04-13.5-13.5-13.5H476c-7.18,0-13-5.82-13-13s5.82-13,13-13c8.28,0,15-6.72,15-15v-29.5c0-4.69-3.81-8.5-8.5-8.5
		s-8.5-3.81-8.5-8.5v-31.45c0-6.66,5.4-12.05,12.05-12.05h47.45c8.01,0,14.5-6.49,14.5-14.5s-6.49-14.5-14.5-14.5H449
		c-7.18,0-13-5.82-13-13s5.82-13,13-13h15c7.18,0,13-5.82,13-13s5.82-13,13-13h15c7.18,0,13-5.82,13-13s-5.82-13-13-13h-44.5
		c-6.35,0-11.5-5.15-11.5-11.5S443.85,45,437.5,45L437.5,45z"/>
</g>
<g>
	<path d="M431,190c-0.02,6.32-0.2,12.69-0.55,18.94c-0.82,14.81-2.59,29.57-5.25,43.87c-7.94,42.68-23.65,80.72-45.45,110.02
		c-21.93,29.48-48.66,48.22-77.3,54.18c-1.63,0.34-3.31,0.65-5,0.91c-1.85-0.03-3.67-0.06-5.51-0.06c-4.32,0-7.8,0.16-10.94,0.5
		c-3.13-0.29-5.77-0.49-8.48-0.49c-1.44,0-2.78,0.06-4.08,0.17c-2.15-0.31-4.09-0.65-5.91-1.03c-28.64-5.97-55.37-24.7-77.3-54.18
		c-21.79-29.29-37.51-67.34-45.45-110.02c-2.66-14.3-4.43-29.06-5.25-43.87c-0.34-6.26-0.53-12.63-0.55-18.95H431 M432,189H133
		c0,6.74,0.19,13.41,0.55,20c0.84,15.13,2.63,29.84,5.26,44c16.15,86.82,64.35,152.67,123.52,165c2.01,0.42,4.05,0.77,6.09,1.06
		c1.37-0.13,2.74-0.18,4.11-0.18c2.84,0,5.66,0.23,8.48,0.49c3.64-0.4,7.35-0.5,10.93-0.5c1.91,0,3.78,0.03,5.58,0.06
		c1.72-0.27,3.43-0.58,5.13-0.93c59.18-12.33,107.37-78.18,123.52-165c2.64-14.16,4.42-28.87,5.26-44
		C431.81,202.41,432,195.74,432,189L432,189z"/>
</g>
<g>
	<path class="st0" d="M281,418.87c-2.58-0.24-5.57-0.5-8.53-0.5c-1.61,0-3.1,0.07-4.54,0.22l-0.03,0c-0.26-0.11-0.5-0.18-0.73-0.22
		c-1.58-0.25-3.17-0.54-4.73-0.87c-57.93-12.07-106.13-75.95-122.79-162.75c-0.07-0.37,0.02-0.76,0.23-1.01
		c0.09-0.11,0.25-0.25,0.46-0.25h284.32c0.21,0,0.37,0.13,0.46,0.25c0.21,0.26,0.3,0.64,0.23,1.01
		c-16.66,86.8-64.86,150.68-122.79,162.75c-1.6,0.33-3.29,0.64-5.19,0.93c-1.72-0.04-3.59-0.07-5.49-0.07
		C287.58,418.37,284.12,418.53,281,418.87z"/>
	<path d="M424.66,254L424.66,254c0.08,0.02,0.27,0.29,0.2,0.66c-16.62,86.6-64.67,150.33-122.4,162.36
		c-1.55,0.32-3.21,0.62-5.08,0.91c-1.92-0.03-3.67-0.06-5.5-0.06c-4.3,0-7.76,0.16-10.89,0.5c-2.58-0.24-5.56-0.5-8.53-0.5
		c-1.59,0-3.06,0.07-4.49,0.22c-0.25-0.1-0.49-0.16-0.72-0.2c-1.57-0.25-3.16-0.54-4.71-0.86
		c-57.73-12.03-105.78-75.76-122.4-162.36c-0.07-0.37,0.13-0.64,0.2-0.66H424.66 M424.66,253H140.34c-0.78,0-1.36,0.91-1.18,1.85
		c16.49,85.9,64.42,150.91,123.17,163.15c1.58,0.33,3.16,0.62,4.75,0.87c0.26,0.04,0.51,0.13,0.74,0.24
		c0.05-0.01,0.1-0.02,0.15-0.02c1.5-0.16,2.99-0.22,4.48-0.22c2.85,0,5.7,0.23,8.54,0.5c3.62-0.4,7.31-0.5,10.88-0.5
		c1.9,0,3.77,0.03,5.57,0.06c1.75-0.27,3.49-0.57,5.21-0.93c58.76-12.24,106.69-77.24,123.17-163.15
		C426.02,253.91,425.44,253,424.66,253L424.66,253z"/>
</g>
<g>
	<ellipse class="st1" cx="198.23" cy="288.54" rx="2.79" ry="3.46"/>
	<ellipse class="st2" cx="199.57" cy="287.49" rx="0.98" ry="1.22"/>
</g>
<g>
	<path class="st3" d="M325.8,269.5c-0.87,0-1.4-0.39-1.4-0.6v-3.65c0-0.91-1.03-1.6-2.4-1.6h-2.54c-0.87,0-1.4-0.39-1.4-0.6v-1.46
		c0-0.21,0.53-0.6,1.4-0.6h26.64c0.87,0,1.4,0.39,1.4,0.6v1.46c0,0.91,1.03,1.6,2.4,1.6c0.87,0,1.4,0.39,1.4,0.6v3.65
		c0,0.21-0.53,0.6-1.4,0.6H325.8z"/>
	<path class="st3" d="M346.1,261.5c0.47,0,0.78,0.14,0.9,0.22v1.33c0,1.2,1.25,2.1,2.9,2.1c0.47,0,0.78,0.14,0.9,0.22v3.4
		c-0.12,0.08-0.43,0.22-0.9,0.22h-24.1c-0.47,0-0.78-0.14-0.9-0.22v-3.53c0-1.2-1.25-2.1-2.9-2.1h-2.54c-0.47,0-0.78-0.14-0.9-0.22
		v-1.21c0.12-0.08,0.43-0.22,0.9-0.22H346.1 M346.1,260.5h-26.64c-1.05,0-1.9,0.49-1.9,1.1v1.46c0,0.61,0.85,1.1,1.9,1.1H322
		c1.05,0,1.9,0.49,1.9,1.1v3.65c0,0.61,0.85,1.1,1.9,1.1h24.1c1.05,0,1.9-0.49,1.9-1.1v-3.65c0-0.61-0.85-1.1-1.9-1.1
		s-1.9-0.49-1.9-1.1v-1.46C348,260.99,347.15,260.5,346.1,260.5L346.1,260.5z"/>
</g>
<g>
	<path class="st3" d="M336.98,294.5c-1.1,0-2-0.9-2-2s0.9-2,2-2h8.7c1.1,0,2,0.9,2,2s-0.9,2-2,2H336.98z"/>
	<path class="st3" d="M345.68,291c0.83,0,1.5,0.67,1.5,1.5s-0.67,1.5-1.5,1.5h-8.7c-0.83,0-1.5-0.67-1.5-1.5s0.67-1.5,1.5-1.5
		H345.68 M345.68,290h-8.7c-1.38,0-2.5,1.12-2.5,2.5s1.12,2.5,2.5,2.5h8.7c1.38,0,2.5-1.12,2.5-2.5S347.06,290,345.68,290
		L345.68,290z"/>
</g>
<g>
	<path class="st3" d="M369.03,296.5c-0.55,0-1-0.45-1-1c0-0.55,0.45-1,1-1h13.12c0.55,0,1,0.45,1,1c0,0.55-0.45,1-1,1H369.03z"/>
	<path class="st3" d="M382.14,295c0.28,0,0.5,0.22,0.5,0.5s-0.22,0.5-0.5,0.5h-13.12c-0.28,0-0.5-0.22-0.5-0.5s0.22-0.5,0.5-0.5
		H382.14 M382.14,294h-13.12c-0.83,0-1.5,0.67-1.5,1.5s0.67,1.5,1.5,1.5h13.12c0.83,0,1.5-0.67,1.5-1.5S382.97,294,382.14,294
		L382.14,294z"/>
</g>
<g>
	<path class="st3" d="M386.26,281.5c-0.28,0-0.5-0.22-0.5-0.5s0.22-0.5,0.5-0.5h5.25c0.28,0,0.5,0.22,0.5,0.5s-0.22,0.5-0.5,0.5
		H386.26z"/>
	<path class="st3" d="M391.51,280h-5.25c-0.55,0-1,0.45-1,1s0.45,1,1,1h5.25c0.55,0,1-0.45,1-1S392.06,280,391.51,280L391.51,280z"
		/>
</g>
<g>
	<path class="st3" d="M383.24,265.5c-0.38,0-0.71-0.46-0.71-1c0-1.1-0.77-2-1.71-2h-0.81c-0.38,0-0.71-0.46-0.71-1s0.32-1,0.71-1
		h5.64c0.38,0,0.71,0.46,0.71,1c0,1.1,0.77,2,1.71,2h2.42c0.38,0,0.71,0.46,0.71,1s-0.32,1-0.71,1H383.24z"/>
	<path class="st3" d="M385.66,261c0.05,0.01,0.21,0.19,0.21,0.5c0,1.38,0.99,2.5,2.21,2.5l2.42,0c0.05,0.01,0.21,0.19,0.21,0.5
		s-0.16,0.49-0.21,0.5l-7.25,0c-0.05-0.01-0.21-0.19-0.21-0.5c0-1.38-0.99-2.5-2.21-2.5l-0.8,0c-0.05-0.01-0.21-0.19-0.21-0.5
		s0.16-0.49,0.21-0.5H385.66 M385.66,260h-5.64c-0.67,0-1.21,0.67-1.21,1.5s0.54,1.5,1.21,1.5h0.81c0.67,0,1.21,0.67,1.21,1.5
		s0.54,1.5,1.21,1.5h7.25c0.67,0,1.21-0.67,1.21-1.5s-0.54-1.5-1.21-1.5h-2.42c-0.67,0-1.21-0.67-1.21-1.5S386.33,260,385.66,260
		L385.66,260z"/>
</g>
<g>
	<path class="st4" d="M388.48,264.27h-0.4l-27.07-50.95c-1.65-3.1-5.76-3.1-7.4,0l-27.18,51.16"/>
	<path class="st1" d="M326.42,264.48h0.4l17.15,32.27c6.55,12.33,20.7,12.33,27.25,0l17.26-32.48"/>
	<g>
		<path class="st3" d="M347.2,281.54c-0.76,0-1.41-0.89-1.41-1.95c0-1.63-1.08-2.95-2.41-2.95h-2.29c-0.76,0-1.41-0.89-1.41-1.95
			c0-1.63-1.08-2.95-2.41-2.95h-3.05c-0.76,0-1.41-0.89-1.41-1.95s0.64-1.95,1.41-1.95h46.52c0.76,0,1.41,0.89,1.41,1.95
			s-0.64,1.95-1.41,1.95h-23.64c-1.33,0-2.41,1.32-2.41,2.95s1.08,2.95,2.41,2.95h15.25c0.76,0,1.41,0.89,1.41,1.95
			s-0.64,1.95-1.41,1.95H347.2z"/>
		<g>
			<path class="st3" d="M380.76,268.34c0.43,0,0.91,0.6,0.91,1.45c0,0.85-0.48,1.45-0.91,1.45h-23.64c-1.6,0-2.91,1.55-2.91,3.45
				c0,1.9,1.3,3.45,2.91,3.45h15.25c0.43,0,0.91,0.6,0.91,1.45s-0.48,1.45-0.91,1.45H347.2c-0.43,0-0.91-0.6-0.91-1.45
				c0-1.9-1.3-3.45-2.91-3.45h-2.29c-0.43,0-0.91-0.6-0.91-1.45c0-1.9-1.3-3.45-2.91-3.45h-3.05c-0.43,0-0.91-0.6-0.91-1.45
				c0-0.85,0.48-1.45,0.91-1.45H380.76 M380.76,267.34h-46.52c-1.05,0-1.91,1.1-1.91,2.45s0.85,2.45,1.91,2.45h3.05
				c1.05,0,1.91,1.1,1.91,2.45s0.85,2.45,1.91,2.45h2.29c1.05,0,1.91,1.1,1.91,2.45s0.85,2.45,1.91,2.45h25.17
				c1.05,0,1.91-1.1,1.91-2.45s-0.85-2.45-1.91-2.45h-15.25c-1.05,0-1.91-1.1-1.91-2.45s0.85-2.45,1.91-2.45h23.64
				c1.05,0,1.91-1.1,1.91-2.45S381.81,267.34,380.76,267.34L380.76,267.34z"/>
		</g>
	</g>
</g>
<g>
	<path class="st3" d="M179.83,278.5c-1.1,0-2-0.9-2-2s0.9-2,2-2h8.7c1.1,0,2,0.9,2,2s-0.9,2-2,2H179.83z"/>
	<path class="st3" d="M188.53,275c0.83,0,1.5,0.67,1.5,1.5s-0.67,1.5-1.5,1.5h-8.7c-0.83,0-1.5-0.67-1.5-1.5s0.67-1.5,1.5-1.5
		H188.53 M188.53,274h-8.7c-1.38,0-2.5,1.12-2.5,2.5s1.12,2.5,2.5,2.5h8.7c1.38,0,2.5-1.12,2.5-2.5S189.91,274,188.53,274
		L188.53,274z"/>
</g>
<g>
	<path class="st3" d="M211.06,263.5c-0.55,0-1-0.45-1-1s0.45-1,1-1h13.12c0.55,0,1,0.45,1,1s-0.45,1-1,1H211.06z"/>
	<path class="st3" d="M224.18,262c0.28,0,0.5,0.22,0.5,0.5s-0.22,0.5-0.5,0.5h-13.12c-0.28,0-0.5-0.22-0.5-0.5s0.22-0.5,0.5-0.5
		H224.18 M224.18,261h-13.12c-0.83,0-1.5,0.67-1.5,1.5s0.67,1.5,1.5,1.5h13.12c0.83,0,1.5-0.67,1.5-1.5S225.01,261,224.18,261
		L224.18,261z"/>
</g>
<g>
	<path class="st3" d="M227.49,295.5c-0.28,0-0.5-0.22-0.5-0.5s0.22-0.5,0.5-0.5h5.25c0.28,0,0.5,0.22,0.5,0.5s-0.22,0.5-0.5,0.5
		H227.49z"/>
	<path class="st3" d="M232.74,294h-5.25c-0.55,0-1,0.45-1,1s0.45,1,1,1h5.25c0.55,0,1-0.45,1-1S233.29,294,232.74,294L232.74,294z"
		/>
</g>
<g>
	<path class="st3" d="M192.47,304.76c-0.87,0-1.4-0.39-1.4-0.6v-3.65c0-0.91-1.03-1.6-2.4-1.6h-2.54c-0.87,0-1.4-0.39-1.4-0.6v-1.46
		c0-0.21,0.53-0.6,1.4-0.6h26.64c0.87,0,1.4,0.39,1.4,0.6v1.46c0,0.91,1.03,1.6,2.4,1.6c0.87,0,1.4,0.39,1.4,0.6v3.65
		c0,0.21-0.53,0.6-1.4,0.6H192.47z"/>
	<path class="st3" d="M212.76,296.76c0.47,0,0.78,0.14,0.9,0.22v1.33c0,1.2,1.25,2.1,2.9,2.1c0.47,0,0.78,0.14,0.9,0.22v3.4
		c-0.12,0.08-0.43,0.22-0.9,0.22h-24.1c-0.47,0-0.78-0.14-0.9-0.22v-3.53c0-1.2-1.25-2.1-2.9-2.1h-2.54c-0.47,0-0.78-0.14-0.9-0.22
		v-1.21c0.12-0.08,0.43-0.22,0.9-0.22H212.76 M212.76,295.76h-26.64c-1.05,0-1.9,0.49-1.9,1.1v1.46c0,0.61,0.85,1.1,1.9,1.1h2.54
		c1.05,0,1.9,0.49,1.9,1.1v3.65c0,0.61,0.85,1.1,1.9,1.1h24.1c1.05,0,1.9-0.49,1.9-1.1v-3.65c0-0.61-0.85-1.1-1.9-1.1
		c-1.05,0-1.9-0.49-1.9-1.1v-1.46C214.67,296.25,213.82,295.76,212.76,295.76L212.76,295.76z"/>
</g>
<g>
	<path class="st3" d="M186.64,266.5c-0.38,0-0.71-0.46-0.71-1c0-1.1-0.77-2-1.71-2h-0.81c-0.38,0-0.71-0.46-0.71-1s0.32-1,0.71-1
		h5.64c0.38,0,0.71,0.46,0.71,1c0,1.1,0.77,2,1.71,2h2.42c0.38,0,0.71,0.46,0.71,1s-0.32,1-0.71,1H186.64z"/>
	<path class="st3" d="M189.06,262c0.05,0.01,0.21,0.19,0.21,0.5c0,1.38,0.99,2.5,2.21,2.5l2.42,0c0.05,0.01,0.21,0.19,0.21,0.5
		s-0.16,0.49-0.21,0.5l-7.25,0c-0.05-0.01-0.21-0.19-0.21-0.5c0-1.38-0.99-2.5-2.21-2.5l-0.8,0c-0.05-0.01-0.21-0.19-0.21-0.5
		s0.16-0.49,0.21-0.5H189.06 M189.06,261h-5.64c-0.67,0-1.21,0.67-1.21,1.5s0.54,1.5,1.21,1.5h0.81c0.67,0,1.21,0.67,1.21,1.5
		s0.54,1.5,1.21,1.5h7.25c0.67,0,1.21-0.67,1.21-1.5s-0.54-1.5-1.21-1.5h-2.42c-0.67,0-1.21-0.67-1.21-1.5S189.73,261,189.06,261
		L189.06,261z"/>
</g>
<g>
	<path class="st4" d="M232.13,279.46h-0.33l-21.86-39.65c-1.33-2.41-4.65-2.41-5.98,0l-21.95,39.81"/>
	<path class="st1" d="M182.02,279.62h0.33l13.85,25.12c5.29,9.59,16.72,9.59,22,0l13.93-25.28"/>
	<g>
		<path class="st3" d="M198.8,292.78c-0.56,0-1.04-0.64-1.04-1.41c0-1.33-0.92-2.41-2.04-2.41h-1.85c-0.56,0-1.04-0.64-1.04-1.41
			c0-1.33-0.92-2.41-2.04-2.41h-2.46c-0.56,0-1.04-0.64-1.04-1.41s0.48-1.41,1.04-1.41h37.56c0.56,0,1.04,0.64,1.04,1.41
			s-0.48,1.41-1.04,1.41h-19.09c-1.12,0-2.04,1.08-2.04,2.41s0.92,2.41,2.04,2.41h12.32c0.56,0,1.04,0.64,1.04,1.41
			s-0.48,1.41-1.04,1.41H198.8z"/>
		<g>
			<path class="st3" d="M225.89,282.85c0.25,0,0.54,0.4,0.54,0.91s-0.29,0.91-0.54,0.91H206.8c-1.4,0-2.54,1.3-2.54,2.91
				s1.14,2.91,2.54,2.91h12.32c0.25,0,0.54,0.4,0.54,0.91s-0.29,0.91-0.54,0.91H198.8c-0.25,0-0.54-0.4-0.54-0.91
				c0-1.6-1.14-2.91-2.54-2.91h-1.85c-0.25,0-0.54-0.4-0.54-0.91c0-1.6-1.14-2.91-2.54-2.91h-2.46c-0.25,0-0.54-0.4-0.54-0.91
				s0.29-0.91,0.54-0.91H225.89 M225.89,281.85h-37.56c-0.85,0-1.54,0.85-1.54,1.91s0.69,1.91,1.54,1.91h2.46
				c0.85,0,1.54,0.85,1.54,1.91s0.69,1.91,1.54,1.91h1.85c0.85,0,1.54,0.85,1.54,1.91s0.69,1.91,1.54,1.91h20.32
				c0.85,0,1.54-0.85,1.54-1.91s-0.69-1.91-1.54-1.91H206.8c-0.85,0-1.54-0.85-1.54-1.91s0.69-1.91,1.54-1.91h19.09
				c0.85,0,1.54-0.85,1.54-1.91S226.74,281.85,225.89,281.85L225.89,281.85z"/>
		</g>
	</g>
</g>
<g class="st5">
	<path class="st6" d="M353.92,362.48c-2.32,0-4.2-2.39-4.2-5.33v-2.98c0-3.28-2.2-5.95-4.89-5.95h-18.98
		c-1.98,0-3.59-2.05-3.59-4.57c0-1.41-0.97-2.56-2.16-2.56H279.3c-1.66,0-3.01-1.73-3.01-3.86c0-2.13,1.35-3.86,3.01-3.86h1.28
		c2.92,0,5.29-2.89,5.29-6.44s-2.37-6.44-5.29-6.44h-11.81c-1.48,0-2.69-1.55-2.69-3.46s1.21-3.46,2.69-3.46h49.04
		c1.91,0,3.46,1.98,3.46,4.41c0,1.94,1.31,3.51,2.93,3.51h26.63c2.37,0,4.29,2.44,4.29,5.44c0,3-1.92,5.44-4.29,5.44h-10.86
		c-2.21,0-4.01,2.18-4.01,4.86s1.8,4.86,4.01,4.86h42.79c1.31,0,2.37,1.38,2.37,3.07s-1.06,3.07-2.37,3.07h-6.41
		c-2.55,0-4.62,2.52-4.62,5.62v3.56c0,2.8-1.79,5.08-4,5.08H353.92z"/>
	<path class="st6" d="M317.81,314.06c1.63,0,2.96,1.75,2.96,3.91c0,2.21,1.54,4.01,3.43,4.01h26.63c2.09,0,3.79,2.22,3.79,4.94
		c0,2.73-1.7,4.94-3.79,4.94h-10.86c-2.49,0-4.51,2.4-4.51,5.36s2.02,5.36,4.51,5.36h42.78c1.02,0,1.87,1.17,1.87,2.57
		s-0.86,2.57-1.87,2.57h-6.41c-2.83,0-5.13,2.74-5.13,6.12v3.56c0,2.53-1.57,4.58-3.5,4.58h-13.79c-2.04,0-3.7-2.17-3.7-4.83v-2.98
		c0-3.56-2.42-6.45-5.39-6.45h-18.98c-1.7,0-3.09-1.83-3.09-4.07c0-1.69-1.19-3.06-2.66-3.06H279.3c-1.39,0-2.51-1.51-2.51-3.36
		s1.13-3.36,2.51-3.36h1.28c3.19,0,5.79-3.11,5.79-6.94c0-3.83-2.6-6.94-5.79-6.94h-11.81c-1.19,0-2.19-1.36-2.19-2.96
		c0-1.61,1-2.96,2.19-2.96H317.81 M317.81,313.06h-49.04c-1.76,0-3.19,1.77-3.19,3.96s1.43,3.96,3.19,3.96h11.81
		c2.65,0,4.79,2.66,4.79,5.94v0c0,3.28-2.14,5.94-4.79,5.94h-1.28c-1.94,0-3.51,1.95-3.51,4.36v0c0,2.41,1.57,4.36,3.51,4.36h40.81
		c0.92,0,1.66,0.92,1.66,2.06v0c0,2.8,1.83,5.07,4.09,5.07h18.98c2.43,0,4.39,2.44,4.39,5.45v2.98c0,3.22,2.1,5.83,4.7,5.83h13.79
		c2.48,0,4.5-2.5,4.5-5.58v-3.56c0-2.83,1.85-5.12,4.13-5.12h6.41c1.59,0,2.87-1.6,2.87-3.57s-1.29-3.57-2.87-3.57h-42.78
		c-1.94,0-3.51-1.95-3.51-4.36v0c0-2.41,1.57-4.36,3.51-4.36h10.86c2.65,0,4.79-2.66,4.79-5.94v0c0-3.28-2.14-5.94-4.79-5.94h-26.63
		c-1.34,0-2.43-1.35-2.43-3.01v0C321.76,315.26,319.99,313.06,317.81,313.06L317.81,313.06z"/>
</g>
<g class="st5">
	<path class="st6" d="M210.27,364.05c-2.2,0-4-2.28-4-5.08v-3.56c0-3.1-2.07-5.62-4.62-5.62h-6.41c-1.31,0-2.37-1.38-2.37-3.07
		s1.06-3.07,2.37-3.07h42.78c2.21,0,4.01-2.18,4.01-4.86s-1.8-4.86-4.01-4.86h-10.86c-2.37,0-4.29-2.44-4.29-5.44
		s1.92-5.44,4.29-5.44h26.63c1.61,0,2.93-1.58,2.93-3.51c0-2.43,1.55-4.41,3.46-4.41h49.04c1.49,0,2.69,1.55,2.69,3.46
		s-1.21,3.46-2.69,3.46h-11.81c-2.92,0-5.29,2.89-5.29,6.44s2.37,6.44,5.29,6.44h1.28c1.66,0,3.01,1.73,3.01,3.86
		s-1.35,3.86-3.01,3.86h-40.81c-1.19,0-2.16,1.15-2.16,2.56c0,2.52-1.61,4.57-3.59,4.57h-18.98c-2.7,0-4.89,2.67-4.89,5.95v2.98
		c0,2.94-1.88,5.33-4.2,5.33H210.27z"/>
	<path class="st6" d="M309.22,315.64c1.19,0,2.19,1.36,2.19,2.96c0,1.61-1,2.96-2.19,2.96h-11.81c-3.19,0-5.79,3.11-5.79,6.94
		c0,3.83,2.6,6.94,5.79,6.94h1.28c1.39,0,2.51,1.51,2.51,3.36s-1.13,3.36-2.51,3.36h-40.81c-1.47,0-2.66,1.37-2.66,3.06
		c0,2.25-1.39,4.07-3.09,4.07h-18.98c-2.97,0-5.39,2.89-5.39,6.45v2.98c0,2.66-1.66,4.83-3.7,4.83h-13.79c-1.93,0-3.5-2.06-3.5-4.58
		v-3.56c0-3.37-2.3-6.12-5.13-6.12h-6.41c-1.02,0-1.87-1.17-1.87-2.57s0.86-2.57,1.87-2.57h42.78c2.49,0,4.51-2.4,4.51-5.36
		s-2.02-5.36-4.51-5.36h-10.86c-2.09,0-3.79-2.22-3.79-4.94s1.7-4.94,3.79-4.94h26.63c1.89,0,3.43-1.8,3.43-4.01
		c0-2.16,1.33-3.91,2.96-3.91H309.22 M309.22,314.64h-49.04c-2.19,0-3.96,2.2-3.96,4.91c0,1.66-1.09,3.01-2.43,3.01h-26.63
		c-2.65,0-4.79,2.66-4.79,5.94s2.14,5.94,4.79,5.94h10.86c1.94,0,3.51,1.95,3.51,4.36c0,2.41-1.57,4.36-3.51,4.36h-42.78
		c-1.59,0-2.87,1.6-2.87,3.57c0,1.97,1.29,3.57,2.87,3.57h6.41c2.28,0,4.13,2.29,4.13,5.12v3.56c0,3.08,2.01,5.58,4.5,5.58h13.79
		c2.6,0,4.7-2.61,4.7-5.83v-2.98c0-3.01,1.97-5.45,4.39-5.45h18.98c2.26,0,4.09-2.27,4.09-5.07c0-1.14,0.74-2.06,1.66-2.06h40.81
		c1.94,0,3.51-1.95,3.51-4.36c0-2.41-1.57-4.36-3.51-4.36h-1.28c-2.65,0-4.79-2.66-4.79-5.94s2.14-5.94,4.79-5.94h11.81
		c1.76,0,3.19-1.77,3.19-3.96v0C312.42,316.41,310.99,314.64,309.22,314.64L309.22,314.64z"/>
</g>
<g class="st7">
	<path class="st6" d="M263.97,371.86c-1.73,0-3.14-1.8-3.14-4.02v-2.88c0-2.56-1.72-4.64-3.84-4.64h-5.19
		c-1.01,0-1.83-1.07-1.83-2.39c0-1.32,0.82-2.39,1.83-2.39h34.64c1.84,0,3.34-1.81,3.34-4.03c0-2.22-1.5-4.03-3.34-4.03h-8.79
		c-1.86,0-3.38-1.93-3.38-4.31s1.51-4.31,3.38-4.31h21.56c1.36,0,2.46-1.32,2.46-2.94c0-1.92,1.21-3.48,2.7-3.48h39.7
		c1.15,0,2.08,1.21,2.08,2.71s-0.94,2.71-2.08,2.71h-9.56c-2.41,0-4.38,2.38-4.38,5.31s1.96,5.31,4.38,5.31h1.03
		c1.29,0,2.34,1.36,2.34,3.03c0,1.67-1.05,3.03-2.34,3.03h-33.03c-1.02,0-1.84,0.97-1.84,2.17c0,1.99-1.26,3.61-2.81,3.61H282.5
		c-2.24,0-4.06,2.2-4.06,4.91v2.41c0,2.33-1.48,4.22-3.3,4.22H263.97z"/>
	<path class="st6" d="M344.08,332.95c0.86,0,1.58,1.01,1.58,2.21c0,1.2-0.73,2.21-1.58,2.21h-9.56c-2.69,0-4.88,2.61-4.88,5.81
		c0,3.2,2.19,5.81,4.88,5.81h1.03c1,0,1.84,1.16,1.84,2.53c0,1.37-0.84,2.53-1.84,2.53h-33.03c-1.29,0-2.34,1.2-2.34,2.67
		c0,1.71-1.04,3.11-2.31,3.11H282.5c-2.51,0-4.56,2.43-4.56,5.41v2.41c0,2.05-1.26,3.72-2.8,3.72h-11.16
		c-1.46,0-2.64-1.58-2.64-3.52v-2.88c0-2.84-1.95-5.14-4.34-5.14h-5.19c-0.72,0-1.33-0.86-1.33-1.89s0.61-1.89,1.33-1.89h34.64
		c2.12,0,3.84-2.03,3.84-4.53c0-2.5-1.72-4.53-3.84-4.53h-8.79c-1.59,0-2.88-1.71-2.88-3.81s1.29-3.81,2.88-3.81h21.56
		c1.64,0,2.97-1.54,2.97-3.44c0-1.61,1.01-2.98,2.2-2.98H344.08 M344.08,331.95h-39.7c-1.77,0-3.2,1.78-3.2,3.98
		c0,1.35-0.88,2.44-1.97,2.44h-21.56c-2.14,0-3.88,2.15-3.88,4.81c0,2.66,1.74,4.81,3.88,4.81h8.79c1.57,0,2.84,1.58,2.84,3.53
		c0,1.95-1.27,3.53-2.84,3.53H251.8c-1.28,0-2.33,1.29-2.33,2.89c0,1.59,1.04,2.89,2.33,2.89h5.19c1.84,0,3.34,1.86,3.34,4.14v2.88
		c0,2.5,1.63,4.52,3.64,4.52h11.16c2.1,0,3.8-2.11,3.8-4.72v-2.41c0-2.44,1.59-4.41,3.56-4.41h15.36c1.83,0,3.31-1.84,3.31-4.11v0
		c0-0.92,0.6-1.67,1.34-1.67h33.03c1.57,0,2.84-1.58,2.84-3.53c0-1.95-1.27-3.53-2.84-3.53h-1.03c-2.14,0-3.88-2.15-3.88-4.81
		c0-2.66,1.74-4.81,3.88-4.81h9.56c1.43,0,2.58-1.44,2.58-3.21v0C346.66,333.38,345.5,331.95,344.08,331.95L344.08,331.95z"/>
</g>
<path class="st8" d="M276.47,274.38v-1.58c0-1.97,0.94-3.57,2.11-3.57h28.12c1.16,0,2.11,1.6,2.11,3.57v1.58
	c0,1.97-0.94,3.57-2.11,3.57h-5.16c-1.16,0-2.11,1.6-2.11,3.57l0,0c0,1.97-0.94,3.57-2.11,3.57h-30.47c-1.16,0-2.11-1.6-2.11-3.57
	l0,0c0-1.97,0.94-3.57,2.11-3.57h7.5C275.53,277.94,276.47,276.35,276.47,274.38z"/>
<path class="st8" d="M264.77,274.5L264.77,274.5c0-1.66-1.08-3-2.42-3H242.2c-1.34,0-2.42,1.34-2.42,3l0,0c0,1.66,1.08,3,2.42,3
	h4.03c1.34,0,2.42,1.34,2.42,3l0,0c0,1.66,1.08,3,2.42,3h1.61c1.34,0,2.42,1.34,2.42,3v2c0,1.66-1.08,3-2.42,3h-20.95
	c-1.34,0-2.42,1.34-2.42,3v2c0,1.66,1.08,3,2.42,3h24.98c1.34,0,2.42-1.34,2.42-3v-2c0-1.66,1.08-3,2.42-3h8.06
	c1.34,0,2.42-1.34,2.42-3v-2c0-1.66,1.08-3,2.42-3h8.06c1.34,0,2.42-1.34,2.42-3l0,0c0-1.66-1.08-3-2.42-3h-15.31
	C265.85,277.5,264.77,276.16,264.77,274.5z"/>
<g>
	<g>
		<path class="st9" d="M119.46,231.24c-0.13-0.37-0.26-0.74-0.38-1.11c-12.78-38.24,7.94-79.75,46.19-92.53
			c7.52-2.51,15.32-3.79,23.18-3.79c31.49,0,59.36,20.08,69.35,49.97c0.12,0.37,0.25,0.74,0.36,1.11L119.46,231.24z"/>
		<path class="st9" d="M188.45,134.07c31.38,0,59.16,20.01,69.11,49.8c0.1,0.29,0.19,0.58,0.29,0.87l-138.23,46.18
			c-0.1-0.29-0.2-0.58-0.3-0.87c-12.73-38.11,7.92-79.48,46.03-92.21C172.84,135.34,180.61,134.07,188.45,134.07L188.45,134.07
			 M188.44,133.57c-7.71,0-15.55,1.22-23.26,3.8c-38.43,12.84-59.18,54.41-46.34,92.84c0.15,0.45,0.3,0.9,0.47,1.34l139.15-46.49
			c-0.13-0.45-0.28-0.9-0.43-1.35C247.76,152.99,219.14,133.56,188.44,133.57L188.44,133.57z"/>
	</g>
	<g>
		<path class="st10" d="M125.01,224.59c-0.12-0.32-0.22-0.64-0.33-0.96c-11.38-34.05,7.07-71.02,41.13-82.39
			c6.7-2.24,13.64-3.37,20.64-3.37c28.04,0,52.86,17.88,61.75,44.5c0.11,0.34,0.22,0.65,0.31,0.97L125.01,224.59z"/>
		<path class="st9" d="M186.45,138.11c27.93,0,52.65,17.81,61.51,44.33c0.08,0.24,0.16,0.48,0.24,0.73l-123.04,41.11
			c-0.08-0.24-0.17-0.48-0.25-0.72c-5.49-16.43-4.25-34.02,3.49-49.52s21.05-27.06,37.48-32.55
			C172.56,139.24,179.47,138.11,186.45,138.11L186.45,138.11 M186.45,137.61c-6.86,0-13.85,1.09-20.72,3.39
			c-34.24,11.44-52.72,48.47-41.28,82.71c0.13,0.4,0.27,0.8,0.42,1.19l123.96-41.41c-0.12-0.41-0.25-0.81-0.38-1.21
			C239.29,154.91,213.8,137.61,186.45,137.61L186.45,137.61z"/>
	</g>
	<g>
		<path class="st9" d="M161.83,191.32c-7.12,0-19.52-3.27-23.26-4.97c-2.36-1.07-4.21-2.87-5.22-5.07c-1-2.19-1.05-4.5-0.13-6.53
			c1.29-2.83,4.26-4.59,7.77-4.59c1.51,0,3.06,0.34,4.48,0.99c5.7,2.59,23.1,14.75,21.31,18.69
			C166.34,190.81,164.63,191.32,161.83,191.32z"/>
		<g>
			<path class="st9" d="M140.99,170.42L140.99,170.42c1.47,0,2.99,0.33,4.38,0.97c2.52,1.15,8.3,4.79,13.22,8.68
				c5.7,4.5,8.67,8.12,7.96,9.68c-0.39,0.86-2.06,1.33-4.71,1.33c-7.09,0-19.43-3.25-23.16-4.94c-4.73-2.15-7.08-7.2-5.23-11.26
				C134.69,172.12,137.58,170.42,140.99,170.42 M140.99,169.92c-3.47,0-6.63,1.72-8,4.74c-1.96,4.32,0.49,9.66,5.48,11.93
				c3.64,1.65,16.13,4.99,23.37,4.99c2.68,0,4.64-0.46,5.17-1.62c1.96-4.32-16.44-16.76-21.43-19.02
				C144.06,170.24,142.49,169.92,140.99,169.92L140.99,169.92z"/>
		</g>
	</g>
	<g>
		<path class="st9" d="M137.9,214.8c-4.15,0-7.59-2.35-8.57-5.84c-1.24-4.43,1.92-9.21,7.05-10.65c2.86-0.8,11.11-1.92,18.04-1.92
			c6.19,0,9.84,0.89,10.3,2.5c0.51,1.81-2.93,5-9.42,8.78c-5.51,3.2-11.76,5.98-14.4,6.72C139.9,214.66,138.9,214.8,137.9,214.8z"/>
		<g>
			<path class="st9" d="M154.41,196.14v0.5c8.49,0,9.86,1.62,10.05,2.32c0.47,1.66-3.01,4.84-9.31,8.49
				c-5.49,3.19-11.72,5.96-14.34,6.69c-0.96,0.27-1.95,0.41-2.92,0.41c-4.03,0-7.38-2.27-8.33-5.66c-0.58-2.07-0.19-4.28,1.09-6.23
				c1.3-1.97,3.35-3.43,5.79-4.11c2.85-0.8,11.06-1.91,17.97-1.91L154.41,196.14 M154.41,196.14c-6.9,0-15.15,1.1-18.11,1.93
				c-5.27,1.48-8.51,6.39-7.23,10.96c1.03,3.68,4.68,6.02,8.81,6.02c1,0,2.03-0.14,3.06-0.43c5.27-1.48,25.28-11.23,24-15.8
				C164.39,196.81,159.81,196.14,154.41,196.14L154.41,196.14z"/>
		</g>
	</g>
	<g>
		<path class="st9" d="M171.73,183.8c-4.73,0-16.9-15.4-19.43-20.2c-1.21-2.29-1.57-4.85-1.02-7.2c0.54-2.34,1.93-4.2,3.89-5.24
			c1.06-0.56,2.23-0.85,3.46-0.85c3.36,0,6.67,2.16,8.44,5.5c2.92,5.53,9.22,25.8,5.39,27.82C172.25,183.75,172,183.8,171.73,183.8z
			"/>
		<g>
			<path class="st9" d="M158.62,150.56L158.62,150.56c3.27,0,6.49,2.11,8.21,5.37c1.29,2.45,3.62,8.87,5.14,14.95
				c1.75,7.04,1.88,11.73,0.36,12.53c-0.17,0.09-0.37,0.14-0.61,0.14c-4.55,0-16.77-15.43-19.21-20.06
				c-2.42-4.59-1.18-10.02,2.76-12.11C156.31,150.84,157.44,150.56,158.62,150.56 M158.62,150.06c-1.23,0-2.45,0.28-3.58,0.88
				c-4.2,2.22-5.53,7.94-2.97,12.78c2.41,4.56,14.71,20.33,19.66,20.33c0.31,0,0.59-0.06,0.84-0.19c4.2-2.22-2.73-23.32-5.29-28.16
				C165.41,152.16,161.98,150.06,158.62,150.06L158.62,150.06z"/>
		</g>
	</g>
	<g>
		<path class="st9" d="M182.4,179.55c-4.34,0-9.7-20.6-10.07-26.55c-0.33-5.32,3.13-9.88,7.73-10.17c0.15-0.01,0.3-0.01,0.46-0.01
			c4.43,0,8.16,4.02,8.48,9.14c0.39,6.25-2.19,27.31-6.51,27.58L182.4,179.55z"/>
		<g>
			<path class="st9" d="M180.51,143.07L180.51,143.07c4.3,0,7.91,3.91,8.23,8.91c0.17,2.77-0.34,9.57-1.46,15.74
				c-1.3,7.14-3.1,11.47-4.82,11.58l-0.07,0c-1.73,0-4.09-4.12-6.32-11.01c-1.94-6-3.33-12.62-3.5-15.3
				c-0.16-2.52,0.54-4.95,1.97-6.82c1.41-1.85,3.37-2.95,5.52-3.08C180.22,143.07,180.36,143.07,180.51,143.07 M180.51,142.57
				c-0.16,0-0.31,0-0.47,0.01c-4.74,0.3-8.3,4.97-7.96,10.43c0.34,5.43,5.6,26.78,10.32,26.78c0.03,0,0.06,0,0.1,0
				c4.74-0.3,7.08-22.38,6.74-27.85C188.91,146.66,185.05,142.57,180.51,142.57L180.51,142.57z"/>
		</g>
	</g>
	<g>
		<path class="st9" d="M193.84,179.76c-0.25,0-0.47-0.05-0.67-0.14c-3.92-1.94,1.72-22.63,4.41-28.07c1.72-3.48,5.05-5.73,8.49-5.73
			c1.15,0,2.26,0.25,3.27,0.76c1.99,0.98,3.42,2.81,4.03,5.14c0.61,2.34,0.32,4.91-0.83,7.23
			C210.03,164.03,198.47,179.76,193.84,179.76z"/>
		<g>
			<path class="st9" d="M206.08,145.56v0.5c1.12,0,2.18,0.25,3.16,0.73c1.93,0.95,3.31,2.72,3.9,4.97c0.6,2.28,0.31,4.79-0.81,7.06
				c-2.43,4.92-14.03,20.69-18.49,20.69c-0.21,0-0.39-0.04-0.55-0.12c-1.55-0.76-1.58-5.47-0.09-12.6c1.3-6.22,3.41-12.7,4.61-15.14
				c1.68-3.4,4.92-5.59,8.27-5.59V145.56 M206.08,145.56c-3.42,0-6.9,2.2-8.72,5.87c-2.43,4.91-8.56,26.31-4.3,28.41
				c0.23,0.12,0.49,0.17,0.78,0.17c4.88,0,16.64-16.32,18.94-20.96c2.43-4.91,0.94-10.6-3.31-12.7
				C208.39,145.81,207.24,145.56,206.08,145.56L206.08,145.56z"/>
		</g>
	</g>
	<g>
		<path class="st9" d="M201.39,188.98c-1.21,0-2.01-0.27-2.39-0.8c-1.08-1.53,1.09-5.69,5.95-11.42c4.12-4.86,9.09-9.56,11.33-11.14
			c1.82-1.28,3.98-1.99,6.08-1.99c2.77,0,5.18,1.18,6.63,3.23c1.28,1.82,1.67,4.1,1.09,6.44c-0.58,2.35-2.06,4.46-4.18,5.96
			C221.9,182.07,207.47,188.98,201.39,188.98z"/>
		<g>
			<path class="st9" d="M222.36,163.88L222.36,163.88c2.68,0,5.02,1.14,6.43,3.13c2.57,3.65,1.21,9.05-3.03,12.04
				c-1.75,1.24-6.19,3.64-11.28,5.83c-5.78,2.49-10.42,3.86-13.08,3.86c-1.12,0-1.86-0.23-2.19-0.7c-0.99-1.41,1.22-5.57,5.94-11.11
				c4.11-4.84,9.06-9.53,11.28-11.1C218.2,164.56,220.3,163.88,222.36,163.88 M222.36,163.38c-2.09,0-4.28,0.67-6.22,2.03
				c-4.48,3.16-20.07,19.03-17.34,22.91c0.45,0.64,1.36,0.91,2.59,0.91c6.29,0,20.91-7.13,24.65-9.77
				c4.48-3.16,5.89-8.86,3.15-12.74C227.64,164.52,225.09,163.37,222.36,163.38L222.36,163.38z"/>
		</g>
	</g>
</g>
<path class="st11" d="M217.74,207.8l-3.49,7.14c-0.82,1.69-0.73,3.78,0.23,5.36h0c1.81,2.97,5.65,2.75,7.2-0.42l0.17-0.35
	c0.82-1.69,0.73-3.78-0.23-5.36L217.74,207.8"/>
<g>
	<path class="st9" d="M167.49,241.28c-1.1,0-2.1-0.51-2.73-1.41c-0.75-1.06-0.82-2.48-0.18-3.6l2.75-4.82l3.05,4.29
		c0.75,1.06,0.82,2.48,0.18,3.6l-0.14,0.25C169.8,240.65,168.71,241.28,167.49,241.28L167.49,241.28z"/>
	<g>
		<path class="st9" d="M167.35,231.91l2.82,3.97c0.7,0.98,0.76,2.29,0.17,3.34l-0.14,0.25c-0.56,0.98-1.57,1.57-2.7,1.57
			c-1.02,0-1.94-0.48-2.53-1.31c-0.7-0.98-0.76-2.29-0.17-3.34L167.35,231.91 M167.3,230.98l-2.94,5.16
			c-0.69,1.22-0.62,2.73,0.19,3.87h0c0.72,1.02,1.83,1.52,2.94,1.52c1.23,0,2.45-0.62,3.14-1.82l0.14-0.25
			c0.69-1.22,0.62-2.73-0.19-3.87L167.3,230.98L167.3,230.98z"/>
	</g>
</g>
<g>
	<path class="st10" d="M190.57,222.18c-0.76,0-1.44-0.39-1.83-1.03c-0.38-0.63-0.42-1.4-0.09-2.06l1.85-3.79l2.04,3.36
		c0.38,0.63,0.42,1.4,0.09,2.06l-0.12,0.25C192.14,221.72,191.4,222.18,190.57,222.18L190.57,222.18z"/>
	<g>
		<path class="st9" d="M190.51,215.82l1.81,2.97c0.34,0.56,0.37,1.24,0.08,1.82l-0.12,0.25c-0.32,0.66-0.98,1.07-1.71,1.07
			c-0.67,0-1.27-0.34-1.62-0.91c-0.34-0.56-0.37-1.24-0.08-1.82L190.51,215.82 M190.47,214.78l-2.05,4.2
			c-0.36,0.73-0.32,1.6,0.11,2.3c0.47,0.77,1.26,1.15,2.05,1.15c0.86,0,1.72-0.46,2.16-1.35l0.12-0.25c0.36-0.73,0.32-1.6-0.11-2.3
			L190.47,214.78L190.47,214.78z"/>
	</g>
</g>
<g class="st7">
	<path class="st6" d="M248.68,408.07c-1.7,0-3.14-0.82-3.14-1.8v-1.47c0-1.46-1.69-2.61-3.84-2.61h-5.19
		c-1.05,0-1.83-0.51-1.83-0.97c0-0.46,0.78-0.97,1.83-0.97h34.64c1.87,0,3.34-1.01,3.34-2.3s-1.47-2.29-3.34-2.29h-8.79
		c-1.83,0-3.38-0.89-3.38-1.95c0-1.06,1.55-1.95,3.38-1.95h21.56c1.38,0,2.47-0.76,2.47-1.74c0-0.83,1.24-1.52,2.7-1.52h39.7
		c1.23,0,2.08,0.6,2.08,1.13c0,0.54-0.86,1.13-2.08,1.13h-9.56c-2.45,0-4.38,1.29-4.38,2.95s1.92,2.95,4.38,2.95h1.03
		c1.38,0,2.34,0.68,2.34,1.29c0,0.61-0.96,1.3-2.34,1.3h-33.03c-1.03,0-1.84,0.59-1.84,1.35c0,0.86-1.29,1.59-2.81,1.59H267.2
		c-2.27,0-4.06,1.21-4.06,2.75v1.23c0,1.03-1.51,1.9-3.3,1.9H248.68z"/>
	<path class="st6" d="M328.78,389c1.02,0,1.58,0.47,1.58,0.63s-0.56,0.63-1.58,0.63h-9.56c-2.73,0-4.88,1.51-4.88,3.45
		s2.14,3.45,4.88,3.45h1.03c1.13,0,1.84,0.52,1.84,0.8c0,0.27-0.72,0.8-1.84,0.8h-33.03c-1.31,0-2.34,0.81-2.34,1.85
		c0,0.43-0.92,1.09-2.31,1.09H267.2c-2.55,0-4.56,1.43-4.56,3.25v1.23c0,0.65-1.22,1.4-2.8,1.4h-11.16c-1.61,0-2.64-0.77-2.64-1.3
		v-1.47c0-1.74-1.91-3.11-4.34-3.11h-5.19c-0.82,0-1.29-0.35-1.33-0.46c0.04-0.13,0.51-0.48,1.33-0.48h34.64
		c2.16,0,3.84-1.23,3.84-2.8s-1.69-2.8-3.84-2.8h-8.79c-1.62,0-2.88-0.78-2.88-1.45c0-0.67,1.26-1.45,2.88-1.45h21.56
		c1.66,0,2.97-0.98,2.97-2.24c0-0.41,0.88-1.02,2.2-1.02H328.78 M328.78,388h-39.7c-1.77,0-3.2,0.91-3.2,2.02
		c0,0.69-0.88,1.24-1.97,1.24h-21.56c-2.14,0-3.88,1.1-3.88,2.45s1.74,2.45,3.88,2.45h8.79c1.57,0,2.84,0.8,2.84,1.8
		c0,0.99-1.27,1.8-2.84,1.8h-34.64c-1.28,0-2.33,0.66-2.33,1.47v0c0,0.81,1.04,1.47,2.33,1.47h5.19c1.84,0,3.34,0.94,3.34,2.11v1.47
		c0,1.27,1.63,2.3,3.64,2.3h11.16c2.1,0,3.8-1.08,3.8-2.4v-1.23c0-1.24,1.59-2.25,3.56-2.25h15.36c1.83,0,3.31-0.94,3.31-2.09
		c0-0.47,0.6-0.85,1.34-0.85h33.03c1.57,0,2.84-0.8,2.84-1.8c0-0.99-1.27-1.8-2.84-1.8h-1.03c-2.14,0-3.88-1.1-3.88-2.45
		s1.74-2.45,3.88-2.45h9.56c1.43,0,2.58-0.73,2.58-1.63C331.37,388.73,330.21,388,328.78,388L328.78,388z"/>
</g>
<g class="st5">
	<path class="st6" d="M324.66,383.43c-0.14,0-0.31-0.21-0.31-0.5v-1c0-0.83-0.59-1.5-1.31-1.5h-0.81c-0.14,0-0.31-0.21-0.31-0.5
		s0.16-0.5,0.31-0.5h8.87c0.72,0,1.31-0.67,1.31-1.5v-1c0-0.29,0.16-0.5,0.31-0.5h12.09c0.14,0,0.31,0.21,0.31,0.5v1
		c0,0.29-0.16,0.5-0.31,0.5h-3.22c-0.72,0-1.31,0.67-1.31,1.5c0,0.29-0.16,0.5-0.31,0.5h-6.45c-0.72,0-1.31,0.67-1.31,1.5v1
		c0,0.29-0.16,0.5-0.31,0.5H324.66z"/>
	<path class="st6" d="M344.61,376.93v1h-3.03c-1,0-1.81,0.9-1.81,2h-6.25c-1,0-1.81,0.9-1.81,2v1h-6.87v-1c0-1.1-0.81-2-1.81-2h8.06
		c1,0,1.81-0.9,1.81-2v-1H344.61 M344.81,375.93h-12.09c-0.45,0-0.81,0.45-0.81,1v1c0,0.55-0.36,1-0.81,1h-8.87
		c-0.45,0-0.81,0.45-0.81,1s0.36,1,0.81,1h0.81c0.45,0,0.81,0.45,0.81,1v1c0,0.55,0.36,1,0.81,1h7.25c0.45,0,0.81-0.45,0.81-1v-1
		c0-0.55,0.36-1,0.81-1h6.45c0.45,0,0.81-0.45,0.81-1s0.36-1,0.81-1h3.22c0.45,0,0.81-0.45,0.81-1v-1
		C345.61,376.38,345.25,375.93,344.81,375.93L344.81,375.93z"/>
</g>
<g class="st5">
	<path class="st6" d="M317.29,384.43c-0.55,0-1-0.45-1-1s0.45-1,1-1h3.45c0.55,0,1,0.45,1,1s-0.45,1-1,1H317.29z"/>
	<path class="st6" d="M320.74,382.93c0.28,0,0.5,0.22,0.5,0.5s-0.22,0.5-0.5,0.5h-3.45c-0.28,0-0.5-0.22-0.5-0.5s0.22-0.5,0.5-0.5
		H320.74 M320.74,381.93h-3.45c-0.83,0-1.5,0.67-1.5,1.5s0.67,1.5,1.5,1.5h3.45c0.83,0,1.5-0.67,1.5-1.5
		S321.57,381.93,320.74,381.93L320.74,381.93z"/>
</g>
<g class="st5">
	<path class="st6" d="M243.93,394.04c-0.28,0-0.5-0.22-0.5-0.5s0.22-0.5,0.5-0.5h6.87c0.28,0,0.5,0.22,0.5,0.5s-0.22,0.5-0.5,0.5
		H243.93z"/>
	<path class="st6" d="M250.8,392.54h-6.87c-0.55,0-1,0.45-1,1c0,0.55,0.45,1,1,1h6.87c0.55,0,1-0.45,1-1
		C251.8,392.99,251.35,392.54,250.8,392.54L250.8,392.54z"/>
</g>
<g class="st5">
	<path class="st6" d="M232.64,396.54c-0.55,0-1-0.45-1-1s0.45-1,1-1h3.45c0.55,0,1,0.45,1,1s-0.45,1-1,1H232.64z"/>
	<path class="st6" d="M236.09,395.04c0.28,0,0.5,0.22,0.5,0.5s-0.22,0.5-0.5,0.5h-3.45c-0.28,0-0.5-0.22-0.5-0.5s0.22-0.5,0.5-0.5
		H236.09 M236.09,394.04h-3.45c-0.83,0-1.5,0.67-1.5,1.5s0.67,1.5,1.5,1.5h3.45c0.83,0,1.5-0.67,1.5-1.5
		S236.92,394.04,236.09,394.04L236.09,394.04z"/>
</g>
<g class="st5">
	<path class="st6" d="M236.2,362.36c-0.28,0-0.5-0.22-0.5-0.5s0.22-0.5,0.5-0.5h6.87c0.28,0,0.5,0.22,0.5,0.5s-0.22,0.5-0.5,0.5
		H236.2z"/>
	<path class="st6" d="M243.07,360.86h-6.87c-0.55,0-1,0.45-1,1c0,0.55,0.45,1,1,1h6.87c0.55,0,1-0.45,1-1
		C244.07,361.31,243.62,360.86,243.07,360.86L243.07,360.86z"/>
</g>
<g>
	<path class="st9" d="M237.31,236.22c-1.1,0-2.1-0.52-2.73-1.41c-0.75-1.06-0.82-2.48-0.18-3.6l2.75-4.82l3.05,4.29
		c0.75,1.06,0.82,2.48,0.18,3.6l-0.14,0.25C239.62,235.59,238.53,236.22,237.31,236.22C237.31,236.22,237.31,236.22,237.31,236.22z"
		/>
	<g>
		<path class="st9" d="M237.17,226.85l2.82,3.97c0.7,0.98,0.76,2.29,0.17,3.34l-0.14,0.25c-0.56,0.98-1.57,1.57-2.7,1.57
			c-1.02,0-1.94-0.48-2.53-1.31c-0.7-0.98-0.76-2.29-0.17-3.34L237.17,226.85 M237.12,225.92l-2.94,5.16
			c-0.69,1.22-0.62,2.73,0.19,3.87l0,0c0.72,1.02,1.83,1.52,2.94,1.52c1.23,0,2.45-0.62,3.14-1.82l0.14-0.25
			c0.69-1.22,0.62-2.73-0.19-3.87L237.12,225.92L237.12,225.92z"/>
	</g>
</g>
<g class="st12">
	<path class="st9" d="M170.29,262.25c-10.34,0-19.19-3.93-20.4-9h40.79C189.48,258.32,180.63,262.25,170.29,262.25z"/>
	<path class="st9" d="M190.37,253.5c-1.46,4.81-10.05,8.5-20.07,8.5c-10.02,0-18.61-3.69-20.07-8.5H190.37 M191,253h-41.41
		c0.95,5.32,9.86,9.5,20.71,9.5C181.14,262.5,190.05,258.32,191,253L191,253z"/>
</g>
<g class="st12">
	<path class="st9" d="M235.35,262.25c-8.07,0-14.97-3.93-15.91-9h31.82C250.32,258.32,243.42,262.25,235.35,262.25z"/>
	<path class="st9" d="M250.95,253.5c-1.13,4.81-7.81,8.5-15.6,8.5c-7.79,0-14.48-3.69-15.6-8.5H250.95 M251.55,253h-32.41
		c0.75,5.32,7.71,9.5,16.2,9.5S250.81,258.32,251.55,253L251.55,253z"/>
</g>
<g class="st12">
	<circle class="st9" cx="150.5" cy="264.5" r="2.25"/>
	<g>
		<path class="st9" d="M150.5,262.5c1.1,0,2,0.9,2,2s-0.9,2-2,2s-2-0.9-2-2S149.4,262.5,150.5,262.5 M150.5,262
			c-1.38,0-2.5,1.12-2.5,2.5s1.12,2.5,2.5,2.5s2.5-1.12,2.5-2.5S151.88,262,150.5,262L150.5,262z"/>
	</g>
</g>
<g class="st12">
	<circle class="st9" cx="155.64" cy="268.6" r="1.11"/>
	<g>
		<path class="st9" d="M155.64,267.74c0.47,0,0.86,0.38,0.86,0.86c0,0.47-0.38,0.86-0.86,0.86s-0.86-0.38-0.86-0.86
			C154.79,268.13,155.17,267.74,155.64,267.74 M155.64,267.24c-0.75,0-1.36,0.61-1.36,1.36c0,0.75,0.61,1.36,1.36,1.36
			s1.36-0.61,1.36-1.36C157,267.85,156.39,267.24,155.64,267.24L155.64,267.24z"/>
	</g>
</g>
<g class="st12">
	<circle class="st9" cx="175.74" cy="266.7" r="1.11"/>
	<g>
		<path class="st9" d="M175.74,265.84c0.47,0,0.86,0.38,0.86,0.86c0,0.47-0.38,0.86-0.86,0.86s-0.86-0.38-0.86-0.86
			C174.88,266.23,175.27,265.84,175.74,265.84 M175.74,265.34c-0.75,0-1.36,0.61-1.36,1.36c0,0.75,0.61,1.36,1.36,1.36
			s1.36-0.61,1.36-1.36C177.09,265.95,176.49,265.34,175.74,265.34L175.74,265.34z"/>
	</g>
</g>
<g class="st12">
	<circle class="st9" cx="252.5" cy="262.5" r="2.25"/>
	<g>
		<path class="st9" d="M252.5,260.5c1.1,0,2,0.9,2,2c0,1.1-0.9,2-2,2s-2-0.9-2-2C250.5,261.4,251.4,260.5,252.5,260.5 M252.5,260
			c-1.38,0-2.5,1.12-2.5,2.5s1.12,2.5,2.5,2.5c1.38,0,2.5-1.12,2.5-2.5S253.88,260,252.5,260L252.5,260z"/>
	</g>
</g>
<g class="st12">
	<path class="st9" d="M234.04,272.65c-0.61,0-1.11-0.5-1.11-1.11s0.5-1.11,1.11-1.11c0.61,0,1.11,0.5,1.11,1.11
		S234.65,272.65,234.04,272.65z"/>
	<g>
		<path class="st9" d="M234.04,270.68c0.47,0,0.86,0.38,0.86,0.86c0,0.47-0.38,0.86-0.86,0.86s-0.86-0.38-0.86-0.86
			C233.18,271.07,233.57,270.68,234.04,270.68 M234.04,270.18c-0.75,0-1.36,0.61-1.36,1.36c0,0.75,0.61,1.36,1.36,1.36
			s1.36-0.61,1.36-1.36C235.39,270.79,234.79,270.18,234.04,270.18L234.04,270.18z"/>
	</g>
</g>
<g class="st12">
	<path class="st9" d="M258.04,257.65c-0.61,0-1.11-0.5-1.11-1.11s0.5-1.11,1.11-1.11c0.61,0,1.11,0.5,1.11,1.11
		S258.65,257.65,258.04,257.65z"/>
	<g>
		<path class="st9" d="M258.04,255.68c0.47,0,0.86,0.38,0.86,0.86c0,0.47-0.38,0.86-0.86,0.86c-0.47,0-0.86-0.38-0.86-0.86
			C257.18,256.07,257.57,255.68,258.04,255.68 M258.04,255.18c-0.75,0-1.36,0.61-1.36,1.36c0,0.75,0.61,1.36,1.36,1.36
			c0.75,0,1.36-0.61,1.36-1.36C259.39,255.79,258.79,255.18,258.04,255.18L258.04,255.18z"/>
	</g>
</g>
<g>
	<path class="st10" d="M203.27,232.29c-0.76,0-1.44-0.39-1.83-1.03c-0.38-0.63-0.42-1.4-0.09-2.06l1.85-3.79l2.04,3.36
		c0.38,0.63,0.42,1.4,0.09,2.06l-0.12,0.25C204.84,231.83,204.1,232.29,203.27,232.29L203.27,232.29z"/>
	<g>
		<path class="st9" d="M203.22,225.93l1.81,2.97c0.34,0.56,0.37,1.24,0.08,1.82l-0.12,0.25c-0.32,0.66-0.98,1.07-1.71,1.07
			c-0.67,0-1.27-0.34-1.62-0.91c-0.34-0.56-0.37-1.24-0.08-1.82L203.22,225.93 M203.17,224.89l-2.05,4.2
			c-0.36,0.73-0.32,1.6,0.11,2.3c0.47,0.77,1.26,1.15,2.05,1.15c0.86,0,1.72-0.46,2.16-1.35l0.12-0.25c0.36-0.73,0.32-1.6-0.11-2.3
			L203.17,224.89L203.17,224.89z"/>
	</g>
</g>
<path class="st13" d="M322.32,419h-21.94c0.33,0.02,0.65,0.04,0.98,0.09"/>
</svg>
