<?xml version="1.0" encoding="utf-8"?>
<!-- Generator: Adobe Illustrator 24.3.0, SVG Export Plug-In . SVG Version: 6.00 Build 0)  -->
<svg version="1.1" id="Layer_1" xmlns="http://www.w3.org/2000/svg" xmlns:xlink="http://www.w3.org/1999/xlink" x="0px" y="0px"
	 viewBox="0 0 595.3 841.9" style="enable-background:new 0 0 595.3 841.9;" xml:space="preserve">
<style type="text/css">
	.st0{fill:#EC6819;}
	.st1{fill:#ED6A1C;}
	.st2{fill:#FFFFFF;}
	.st3{fill:#EE7214;}
	.st4{fill:#544C4F;}
	.st5{fill:#594A4E;}
	.st6{fill:#4D4D4D;}
	.st7{fill:#1E1E1C;stroke:#1E1E1C;stroke-miterlimit:10;}
	.st8{fill:#E9A045;}
	.st9{opacity:0.2;}
	.st10{fill:#89CCF0;}
	.st11{fill:#274E71;}
	.st12{fill:#1E1E1C;}
</style>
<path class="st0" d="M1114.9,543.2c0,0-16.5-0.8-14.5,8.2c0,0,2.2,5.1,13.4,1c0,0,17.4-2.5,24,1.6v-8.7
	C1137.9,545.3,1120.5,552.6,1114.9,543.2z"/>
<path class="st1" d="M1164.8,544.3v9c0,0,17.9-3.8,29.3,0.7c0,0,11.9,1.8,9.2-6.2c0,0-0.5-5.3-16.7-4.6
	C1186.6,543.2,1180.9,554,1164.8,544.3z"/>
<path class="st2" d="M1114.9,543.2c0,0-13.1-11.4-3.1-60.1c0,0-17.4-23.1-38.5-32.7c0,0-5.1-3.6-2-5.8c0,0,24.5,1.5,43.6,29.3
	c0,0,2.2,1.5,2.9-2.9c0,0,2.6-20.4,18.2-26.4c0,0,5.4,6,13.4,5.3c0,0,3.6,1.4,15.3-4.6c0,0,15.3,9.5,16.3,26.9c0,0,1.3,3.4,3.1,1.4
	c0,0,17.2-26.4,42.7-27.9c0,0,3.2-0.7,0,3.9c0,0-17.7,7.1-38.8,32.3c0,0,9.2,49.3-1.5,61.3c0,0-6.3,10.9-21.8,1c0,0-13.8-5.4-26.9,1
	C1137.9,545.3,1119.7,553,1114.9,543.2z"/>
<path class="st3" d="M1136,444.7c0,0,3.7-7.1,14.1-7.7c0,0,6-1.9,14.6,8.3c0,0-11.7,6.3-15.3,4.6
	C1149.4,450,1143.2,451.3,1136,444.7z"/>
<path class="st4" d="M1071.3,444.7c0,0,34.6-4.4,46.7,25.2c0,0,0.3,4.4-3.1,4.1C1114.9,474,1098.6,447.9,1071.3,444.7z"/>
<path class="st5" d="M1226.9,445.7c0,0-22.4-10.9-46.2,22.8c0,0,1.2,8.3,3.6,5.1C1184.2,473.6,1202.7,446.4,1226.9,445.7z"/>
<path class="st6" d="M1180.8,469.4c0,0-0.6-13.2-16-24.1c0,0-8.2-9.7-14.6-8.3c0,0-8.5-0.7-14.1,7.7c0,0-13.1,2.4-18,25.2
	c0,0-5.3-45.3,8.5-55.8c0,0,4.9-8.3,23.9-7.1c0,0,19.5-0.5,26.1,10.5c0,0,11.3,13.5,4.1,51.1"/>
<circle class="st2" cx="1142.4" cy="427.9" r="5.6"/>
<circle class="st2" cx="1157.7" cy="427.9" r="5.6"/>
<circle class="st7" cx="1143.4" cy="427.3" r="3.2"/>
<circle class="st7" cx="1158.4" cy="427.3" r="3.2"/>
<circle class="st2" cx="1144.1" cy="425.9" r="1.4"/>
<circle class="st2" cx="1159.1" cy="425.8" r="1.4"/>
<g>
	<path class="st8" d="M135.1,433.1c0,0-16.5-0.9-14.5,8.2c0,0,2.2,5.1,13.4,1c0,0,17.4-2.5,24,1.6v-8.7
		C158.1,435.2,140.7,442.5,135.1,433.1z"/>
</g>
<g>
	<path class="st8" d="M185,434.1v9c0,0,17.9-3.8,29.3,0.7c0,0,11.9,1.8,9.2-6.2c0,0-0.5-5.3-16.7-4.6
		C206.8,433.1,201.2,443.9,185,434.1z"/>
</g>
<g class="st9">
	<path class="st10" d="M135.1,433.1c0,0-13.1-11.4-3.1-60.1c0,0-17.4-23.1-38.5-32.7c0,0-5.1-3.6-2-5.8c0,0,24.5,1.5,43.6,29.3
		c0,0,2.2,1.5,2.9-2.9c0,0,2.6-20.4,18.2-26.4c0,0,5.4,6,13.4,5.3c0,0,3.6,1.4,15.3-4.6c0,0,15.3,9.5,16.3,26.9c0,0,1.3,3.4,3.1,1.4
		c0,0,17.2-26.4,42.7-27.9c0,0,3.2-0.7,0,3.9c0,0-17.7,7.1-38.8,32.3c0,0,9.2,49.3-1.5,61.3c0,0-6.3,10.9-21.8,1
		c0,0-13.8-5.4-26.9,1C158.1,435.2,139.9,442.9,135.1,433.1z"/>
</g>
<g>
	<path class="st8" d="M156.2,334.6c0,0,3.7-7.1,14.1-7.7c0,0,6-1.9,14.6,8.3c0,0-11.7,6.3-15.3,4.6
		C169.7,339.9,163.4,341.2,156.2,334.6z"/>
</g>
<g>
	<path class="st11" d="M91.6,334.6c0,0,34.6-4.4,46.7,25.2c0,0,0.3,4.4-3.1,4.1C135.1,363.9,118.8,337.8,91.6,334.6z"/>
</g>
<g>
	<path class="st11" d="M247.1,335.6c0,0-22.4-10.9-46.2,22.8c0,0,1.2,8.3,3.6,5.1C204.4,363.5,222.9,336.3,247.1,335.6z"/>
</g>
<g>
	<path class="st11" d="M201,359.3c0,0-0.6-13.2-16-24.1c0,0-8.2-9.7-14.6-8.3c0,0-8.5-0.7-14.1,7.7c0,0-13.1,2.4-18,25.2
		c0,0-5.3-45.3,8.5-55.8c0,0,4.9-8.3,23.9-7.1c0,0,19.5-0.5,26.1,10.5c0,0,11.3,13.5,4.1,51.1"/>
</g>
<g>
	<circle class="st2" cx="162.6" cy="317.8" r="5.6"/>
</g>
<g>
	<circle class="st2" cx="177.9" cy="317.8" r="5.6"/>
</g>
<g>
	<circle class="st12" cx="163.6" cy="317.1" r="3.2"/>
	<path class="st12" d="M163.6,320.9c-2.1,0-3.7-1.7-3.7-3.7s1.7-3.7,3.7-3.7s3.7,1.7,3.7,3.7C167.4,319.2,165.7,320.9,163.6,320.9z
		 M163.6,314.4c-1.5,0-2.7,1.2-2.7,2.7s1.2,2.7,2.7,2.7s2.7-1.2,2.7-2.7C166.4,315.6,165.1,314.4,163.6,314.4z"/>
</g>
<g>
	<circle class="st12" cx="178.6" cy="317.1" r="3.2"/>
	<path class="st12" d="M178.6,320.9c-2.1,0-3.7-1.7-3.7-3.7s1.7-3.7,3.7-3.7s3.7,1.7,3.7,3.7C182.4,319.2,180.7,320.9,178.6,320.9z
		 M178.6,314.4c-1.5,0-2.7,1.2-2.7,2.7s1.2,2.7,2.7,2.7s2.7-1.2,2.7-2.7C181.4,315.6,180.2,314.4,178.6,314.4z"/>
</g>
<g>
	<circle class="st2" cx="164.4" cy="315.8" r="1.4"/>
</g>
<g>
	<circle class="st2" cx="179.3" cy="315.7" r="1.4"/>
</g>
</svg>
