<?xml version="1.0" encoding="utf-8"?>
<!-- Generator: Adobe Illustrator 25.0.0, SVG Export Plug-In . SVG Version: 6.00 Build 0)  -->
<svg version="1.1" id="Layer_1" xmlns="http://www.w3.org/2000/svg" xmlns:xlink="http://www.w3.org/1999/xlink" x="0px" y="0px"
	 viewBox="0 0 566.93 566.93" style="enable-background:new 0 0 566.93 566.93;" xml:space="preserve">
<style type="text/css">
	.st0{fill:#294F73;}
	.st1{fill:#5698B7;}
	.st2{fill:#FFFFFF;}
	.st3{fill:#AACFE4;}
</style>
<path class="st0" d="M268.17,529.6c1.73,4.75,8.46,4.49,13.37,3.31c34.8-8.37,70.82-18.95,96.62-43.77
	c6.4-6.16,12.14-13.25,15.29-21.56c5.74-15.15,3.23-34.46,15.31-45.25c6.17-5.5,15.5-7.93,19.02-15.41
	c4.55-9.68-3.59-20.25-5.82-30.71c-2.85-13.34,4.17-26.5,8.65-39.38c4.96-14.25,6.92-29.43,6.92-44.51c0-5.94-0.37-12.13-3.22-17.34
	c-2.85-5.21-8.87-9.14-14.66-7.78c-9.55,2.24-11,14.93-11.35,24.73c-0.92,25.59-8.52,50.92-21.86,72.78
	c-2.67,4.38-5.64,8.8-6.45,13.88c-1.32,8.3,3.42,16.6,2.46,24.95c-1.17,10.19-10.17,17.36-18.14,23.82
	c-7.97,6.46-16.28,15.02-15.22,25.22c0.82,7.88,7.16,14.29,8.27,22.13c1.91,13.41-11.46,23.6-23.42,29.97
	c-20.62,10.98-42.14,20.27-64.27,27.76"/>
<path class="st0" d="M260.18,504.87c-5.07-12.81-10.14-25.61-15.21-38.42c-0.87-2.19-1.75-4.51-1.38-6.83
	c0.38-2.41,2.03-4.38,3.42-6.39c11.61-16.81,6.31-39.44,2.07-59.42c-3.49-16.46-5.93-33.14-7.32-49.9
	c-0.59-7.09-0.98-14.24-0.01-21.29c1.42-10.35,5.73-20.07,8.16-30.24c2.36-9.88,2.93-20.16,6-29.84
	c7.89-24.91,31.79-44.8,31.17-70.92c-0.19-7.97-2.74-16.08-0.68-23.79c3.01-11.26,14.71-17.86,20.38-28.05
	c5.23-9.39,4.94-21.14,10.41-30.39c2.29-3.87,5.54-7.21,7.1-11.43c5.35-14.5-11.41-28.45-11.15-43.91
	c0.12-7.07,3.84-14.23,1.64-20.96c-3.2-9.78-17.69-11.52-25.85-5.25s-11.11,17.18-12.34,27.4s-1.32,20.88-5.71,30.19
	c-4.84,10.29-14.75,18.55-15.73,29.88c-0.57,6.52,2.02,12.96,1.84,19.51c-0.45,16.54-17.45,27.55-23.5,42.96
	c-2.61,6.64-3.08,13.91-4.73,20.85c-7.58,31.8-39.48,55.69-39.97,88.38c-0.22,14.38,5.88,28.01,9.08,42.04
	c5.16,22.58,2.77,46.11,3.86,69.24c1.08,23.14,6.57,47.76,23.62,63.43c5.56,5.11,12.13,9.04,17.58,14.25
	c7.86,7.52,13.17,17.65,14.88,28.39"/>
<path class="st1" d="M333.97,313.75c-7.33-15.52-17.29-29.78-29.33-42.02c-10.58-10.75-26.58-20.4-39.94-13.4
	c-3.88,2.03-7.27,5.4-11.62,5.91c-7.73,0.9-13.2-7.37-15.63-14.77c-10.93-33.25,1.11-72.75,28.73-94.24
	c1.06,2.24,3.29,3.65,5.41,4.93c15.43,9.38,30.86,18.76,46.29,28.15c-0.63-7.73-7.15-13.51-13.35-18.18
	c-10.96-8.26-22.43-15.83-34.34-22.65c30.15-19.92,69.57-25.08,103.83-13.61c-15.01,16.26-20.44,40.77-13.7,61.85
	c-0.11-7.12,1.1-14.47,4.95-20.45s10.73-10.33,17.83-9.77c6.25,0.49,11.59,4.49,16.55,8.34c12.33,9.57,24.92,19.43,33.16,32.68
	c8.24,13.25,11.36,30.82,3.79,44.47c-17.54-0.86-35.77,1.65-50.79,10.76c-15.02,9.1-26.24,25.68-25.61,43.23
	c0.18,5.06,1.21,10.55-1.41,14.88c-3.05,5.03-10.27,6.31-15.67,3.98c-5.4-2.33-9.16-7.4-11.64-12.73"/>
<path class="st0" d="M313.8,515.7c7.76,0.83,13.81-7.01,15.72-14.58c1.91-7.57,1.48-15.76,4.74-22.86
	c4.74-10.3,15.98-15.8,23.33-24.43c15.94-18.73,10.48-46.72,13.72-71.09c3.17-23.79,15.4-45.99,16.09-69.98
	c0.12-4.1-0.09-8.3,1.2-12.2c2.27-6.84,8.6-11.31,13.97-16.12s10.38-11.62,8.69-18.62c-0.74-3.06-2.7-5.68-3.83-8.62
	c-5.65-14.63,9.96-32.02,2.56-45.84c-1.81-3.39-4.88-6.13-5.92-9.82c-2.1-7.47,4.79-14.29,6.56-21.85c2.78-11.83-7.27-23-7.8-35.15
	c-0.24-5.62,1.58-11.15,1.76-16.77c0.34-11.01-5.56-21.13-11.27-30.56c-1.35-2.23-2.79-4.54-5.02-5.88
	c-5.24-3.13-12.42,0.96-14.65,6.64s-0.93,12.08,0.65,17.97c1.58,5.89,3.44,12.01,2.23,17.99c-2.18,10.79-13.65,18.04-15.22,28.93
	c-1.86,12.92,11.02,25.55,6.62,37.84c-1.47,4.11-4.71,7.36-6.47,11.36c-5.62,12.74,5.16,28.03,0.41,41.12
	c-1.43,3.95-4.18,7.31-5.62,11.25c-4.91,13.47,6.29,30.49-2.28,41.99c-2.06,2.77-5.01,4.71-7.49,7.11
	c-9.43,9.1-11.13,23.58-10.26,36.66c0.87,13.08,3.71,26.3,1.17,39.16c-5.23,26.49-32.49,48.05-27.65,74.62
	c1.57,8.61,6.54,16.55,6.62,25.31c0.09,9.01-5.17,17.4-12.05,23.23c-6.87,5.83-15.26,9.5-23.53,13.1c6.53-1.92,13.5-1.4,20.26-2.25
	c6.75-0.85,13.97-3.62,17.03-9.69"/>
<path class="st1" d="M212.64,372.61c-3.49-8.06-0.25-18.44,7.21-23.07c1.87-1.16,4.12-2.18,4.91-4.24c1.48-3.89-3.16-7.04-6.48-9.56
	c-6.52-4.95-9.9-13.71-8.41-21.76c16.19,3.67,29.64,16.06,46.09,18.28c16.14,2.18,31.66-5.79,47.14-10.86
	c32.54-10.67,69.1-8.52,100.17,5.9c7.05,3.27,13.83,7.15,20.14,11.69c-1.82,1.46-3.64,2.92-5.46,4.38c2.06,0.86,4.11,1.72,6.17,2.59
	c-18.75,6.92-37.49,13.85-56.24,20.77c-7.45,2.75-14.98,5.52-22.87,6.44c-23.67,2.77-45.83-11.26-69.28-15.51
	c-21.47-3.89-44.37,0.82-62.57,12.86"/>
<circle class="st2" cx="403.53" cy="338.47" r="5.29"/>
<path class="st2" d="M351.61,351.49c4.43-3.79,10.83-4.36,16.6-3.52s11.32,2.88,17.11,3.65c-2.94,2.4-5.88,4.8-8.83,7.2
	c-2.09,1.71-4.41,3.5-7.11,3.55c-2.1,0.04-4.06-1-5.9-2.01c-4.21-2.31-8.42-4.61-12.63-6.92"/>
<path class="st3" d="M245.29,508.43c-10.5,2.72-21.14,5.39-31.99,5.61s-22.08-2.23-30.69-8.84c-3.67-2.82-6.77-6.31-9.73-9.87
	c-14.27-17.15-26.32-36.72-44.48-49.68c4.85-4.96,12.45-5.69,19.38-6.13c4.63-0.29,9.3-0.58,13.89,0.1
	c14.02,2.07,25.06,12.61,35.09,22.62c6.14,6.13,12.28,12.26,18.42,18.39c9.48,9.47,18.97,18.94,28.45,28.41"/>
<g>
	<path d="M28.05,325.78c0.8,0,0.8-1.24,0-1.24C27.25,324.54,27.25,325.78,28.05,325.78L28.05,325.78z"/>
</g>
<path class="st3" d="M266.65,529.29c-8.35-12.44-7.81-30.18,1.27-42.1c1.74-2.29,3.78-4.4,4.97-7.02c1.19-2.62,1.33-5.98-0.58-8.13
	c-1.1-1.24-2.7-1.9-4.13-2.74c-3.75-2.22-6.52-6.04-7.47-10.3c6.4-0.94,13.21,2.29,16.55,7.83c1.75-1.21,1.89-3.86,0.94-5.76
	s-2.67-3.26-4.24-4.69c-9.43-8.56-14.48-21.71-13.22-34.38c7.15,2.35,12.8,8.78,14.21,16.17c0.81,4.23,1.64,10.09,5.94,10.23
	c3.52,0.12,5.44-4.61,4.17-7.9c-1.27-3.29-4.36-5.43-7.04-7.72c-9.14-7.81-14.81-19.54-15.25-31.55
	c5.14,7.35,19.38,5.56,21.72,14.22c0.72,2.65-0.08,5.52,0.62,8.17c0.7,2.65,4.38,4.78,6.08,2.62c0.77-0.97,0.7-2.35,0.5-3.58
	c-2.91-18.11-24.16-28.4-28.58-46.2c13.78,3.56,26.26,11.95,34.76,23.35c0.35,0.47,0.71,0.96,1.21,1.25
	c1.52,0.89,3.56-0.56,3.88-2.29c0.32-1.73-0.55-3.45-1.52-4.92c-10.3-15.56-34.55-19.15-41.24-36.57
	c10.85,0.14,21.6,4.25,29.77,11.39c2.79,2.43,7.56,5.03,9.46,1.85c1.17-1.96-0.21-4.46-1.83-6.05c-9.97-9.79-28.69-6.95-36.95-18.21
	c-1.54-2.1-2.65-4.64-4.82-6.09c7.9-2.56,16.83-1.77,24.15,2.14c4.63,2.47,9.35,6.25,14.46,5.09c0.7-0.16,1.4-0.43,1.89-0.95
	c1.33-1.43,0.36-3.79-0.95-5.24c-8.52-9.45-24.28-4.3-36.32-8.37c-5.69-1.93-10.59-6.1-13.38-11.42c11.55-4.32,24.9-3.57,35.89,2.04
	c2.73,1.39,5.45,3.11,8.52,3.28c3.06,0.17,6.53-1.97,6.44-5.04c-0.11-3.72-4.74-5.3-8.44-5.73c-16.04-1.88-34.12-1.7-45.63-13.03
	c6.47-2.85,13.86-3.58,20.76-2.05c6.39,1.41,12.75,4.71,19.13,3.27c3.71-0.84,7.14-5.83,4.06-8.06c-0.95-0.69-2.2-0.78-3.37-0.8
	c-8.07-0.16-16.18,1.51-24.18,0.37c-9.71-1.39-18.71-7.12-24.08-15.32c7.91-1.58,16.25-0.94,23.83,1.82
	c3.69,1.34,7.23,3.19,11.08,3.96c3.85,0.77,8.25,0.28,11.03-2.51c-11.32-4.62-23.02-8.3-34.94-10.99c-2.17-0.49-4.48-1.02-6.02-2.62
	c-3.64-3.79-1.92-12.22-7.08-13.24c11.06,0.08,22.07,3.31,31.42,9.22c3.08,1.94,6.31,4.27,9.94,4.02c0.87-5.11-5.5-7.94-10.25-10.01
	c-8.52-3.72-15.5-10.85-19.03-19.46c3.36,4.88,11.05,2.84,16.5,5.16c3.87,1.65,6.33,5.42,8.5,9.02
	c15.47,25.67,27.67,53.31,36.22,82.03c2.45,8.23,4.61,17.01,2.43,25.32c-0.77,2.94-2.07,5.76-2.48,8.77
	c-0.47,3.51,0.31,7.05,0.74,10.57c1.71,13.98-2.06,28.02-6.58,41.36c-5.19,15.33-11.41,30.31-18.61,44.8
	c-5.05,10.17-10.65,20.29-12.86,31.43c-1.87,9.46-1.2,19.22-0.52,28.84"/>
<path class="st3" d="M270.7,526.03c4.74-23.24,18.61-44.49,37.96-58.2c-5.57-4.16-14.36,7.9-19.08,2.8
	c-2.13-2.31-0.59-6.31,2.07-7.98c2.66-1.67,5.95-1.81,9.03-2.4c15.9-3.03,26.43-18.16,33.06-32.92
	c-11.47,6.76-22.93,13.51-34.4,20.27c-2.41-2.05-2.27-6-0.59-8.67c1.68-2.68,4.49-4.39,7.18-6.06c16.92-10.5,33.43-23.49,41.46-41.7
	c-11.6,4.25-22.39,10.72-31.61,18.95c-2.96-1.85-2.84-6.47-0.78-9.29c2.06-2.82,5.37-4.37,8.39-6.12
	c9.96-5.78,17.93-14.93,22.27-25.6c-8.99,5.04-17.99,10.08-26.98,15.12c-0.5,0.28-1.02,0.57-1.59,0.67
	c-2.58,0.43-4.04-3.4-2.66-5.62c1.37-2.22,4.09-3.11,6.53-4.05c15.22-5.84,26.84-20.19,29.39-36.29
	c-12.98,2.79-18.78,19.39-31.38,23.59c-2.99-7.99,4.67-15.54,10.63-21.64c8.2-8.38,14.66-21.05,9.44-31.54
	c-5.97,11.47-14.05,21.85-23.72,30.44c-0.65-13.26,12.03-22.77,18.73-34.23c5.04-8.62,6.77-19.13,4.74-28.91
	c-4.83,13.6-13.43,25.83-24.58,34.99c-2.94-6.44-0.75-14.13,2.91-20.19c3.66-6.06,8.7-11.22,12.12-17.42
	c3.42-6.2,4.99-14.17,1.32-20.22c-9.34,11.82-17.85,24.28-25.46,37.28c-3.86-2.03-4.73-7.41-3.33-11.54
	c1.4-4.13,4.42-7.47,6.81-11.12c7.1-10.85,8.45-25.24,3.51-37.23c-1.69,1.26-1.35,3.79-1.4,5.89c-0.15,6.36-5.18,11.36-9.6,15.93
	c-4.42,4.57-8.86,10.47-7.47,16.67c-5.73,0.03-10.29-6.82-8.05-12.1c1.6-3.76,5.55-5.9,8.13-9.07c3.48-4.28,4.24-10.26,3.28-15.69
	s-3.43-10.45-5.88-15.39c-2.75,12.14-7.69,23.78-14.51,34.18c1.04-6.25,2.08-12.7,0.63-18.87c-1.45-6.17-6.03-12.06-12.3-13.02
	c3.5,5.7,4.76,12.74,3.45,19.3c-0.42,2.1-1.09,4.17-1.21,6.31c-0.33,5.77,3.31,10.91,6.45,15.77c7.48,11.61,12.87,24.43,18.23,37.16
	c8.81,20.98,17.81,43.45,13.75,65.84c-0.92,5.07-2.51,10.17-1.81,15.27c0.75,5.47,4.08,10.41,4.41,15.92
	c0.36,5.98-2.81,11.52-5.6,16.82c-5.37,10.24-9.6,21.04-13.82,31.8c-3.96,10.1-7.91,20.2-11.87,30.3
	c-7.12,18.18-14.38,37.57-10.76,56.75"/>
<path class="st1" d="M265.51,528.61c-11.51-7.35-21.73-16.72-30.05-27.55c-3.85-5.01-7.36-10.39-12.27-14.36
	c-8.73-7.06-20.66-8.66-31.88-8.35c-7.25,0.2-16.54-0.14-19.03-6.95c6.38-0.55,12.62-2.64,18.05-6.04
	c-2.63-3.1-7.38-2.76-11.44-2.92c-10.62-0.4-20.88-6.34-26.52-15.36c7.11,0.58,14.22,1.15,21.32,1.73c1.34,0.11,3.06-0.01,3.5-1.29
	c0.51-1.47-1.24-2.65-2.69-3.23c-13.91-5.53-27.82-11.05-41.73-16.58c3.92-2.49,8.96-1.64,13.59-1.32
	c4.63,0.32,10.16-0.49,12.27-4.62c-6.39-3.12-14.05-3.76-19.57-8.25c-6.72-5.46-8.71-15.39-15.76-20.43
	c7.33,2.52,14.67,5.04,22,7.55c1.62,0.56,3.46,1.11,5,0.34c2.74-1.37,2.03-5.82-0.43-7.65c-2.46-1.82-5.73-1.93-8.74-2.49
	c-8.84-1.64-16.39-7.62-21.77-14.82s-8.88-15.6-12.32-23.9c6.86,1.09,13.34,4.48,18.15,9.49c4.11,4.28,8.84,10.33,14.46,8.42
	c0.7-3.66-1.61-7.31-4.58-9.57s-6.55-3.5-9.85-5.24c-11-5.78-18.64-17.48-19.51-29.87c8.56,2.53,16.23,8,21.4,15.29
	c1.29,1.81,2.48,3.79,4.33,5.01c1.86,1.22,4.65,1.39,6.08-0.31c1.59-1.88,0.61-4.93-1.25-6.55s-4.32-2.31-6.53-3.41
	c-12.35-6.14-14.17-22.75-21.83-34.21c8.26,2.58,15.42,8.5,19.51,16.12c1.24,2.32,2.37,4.95,4.69,6.17
	c2.32,1.23,6.08-0.37,5.58-2.95c-0.2-1.03-0.99-1.82-1.73-2.57c-11.18-11.23-18.91-25.85-21.89-41.41
	c5.64,7.72,11.27,15.43,16.91,23.15c1.88,2.57,4.34,5.43,7.52,5.16c0.36-8.03-5.92-14.56-10.63-21.07
	c-5.01-6.92-8.61-14.86-10.5-23.19c6.71,7.71,13.43,15.43,20.14,23.14c0.65,0.75,1.43,1.56,2.42,1.59c1.52,0.04,2.44-1.87,2.05-3.34
	s-1.58-2.55-2.65-3.62c-6.38-6.4-9.87-15.57-9.37-24.6c4.02,5.29,8.04,10.59,12.05,15.88c0.71,0.93,1.5,1.93,2.64,2.22
	c2.45,0.64,4.4-2.61,3.73-5.05c-0.66-2.44-2.78-4.16-4.54-5.98c-3.59-3.72-6.03-8.53-6.92-13.62c3.76,4.31,7.52,8.62,11.29,12.93
	c1.54,1.76,3.17,3.76,3.13,6.09c-0.03,2.14-1.45,3.96-2.62,5.75c-6.62,10.11-6.59,23.04-6.3,35.12c0.3,12.05,0.64,24.14,2.54,36.04
	c2.19,13.75,6.43,27.08,10.65,40.35c5.07,15.93,10.18,31.97,18.12,46.69c12.04,22.33,30.16,40.83,49.69,57.02"/>
<path class="st0" d="M264.46,524.37c-19.36-14.9-36.65-32.5-51.2-52.13c-1.38-1.86-2.77-3.83-3.14-6.11
	c-0.52-3.23,1.1-6.37,2.05-9.5c2.49-8.18,0.2-17.63-5.76-23.75c-2.26,7.43-4.51,14.86-6.77,22.29c-0.18,0.6-0.37,1.22-0.76,1.72
	c-1.48,1.92-4.92,0.69-5.75-1.59c-0.83-2.28,0.12-4.81,1.27-6.94c3.49-6.45,8.85-11.72,12.46-18.1c3.61-6.38,5.17-14.87,0.8-20.76
	c-7.64,10.73-15.28,21.47-22.92,32.2c-2.97-2.83-2.48-7.88-0.3-11.36c2.18-3.48,5.62-5.93,8.52-8.85
	c8.12-8.17,11.81-20.5,9.51-31.79c-8.26,3.53-15.49,9.42-20.63,16.79c-3.02,4.34-7.05,9.92-12.11,8.4
	c-2.14-5.69,3.74-10.93,8.68-14.49c10.51-7.58,20.85-18.89,18.86-31.69c-10.83,3.06-20.62,9.71-27.45,18.66
	c-1.49,1.95-3.06,4.16-5.45,4.72c-3.92,0.92-7.44-3.72-6.66-7.67c0.79-3.95,4.43-6.73,8.2-8.12c3.78-1.39,7.86-1.75,11.69-2.96
	c10.41-3.29,18.31-13.37,19.01-24.26c-10.45,1.74-20.43,6.22-28.68,12.85c-3.08,2.48-8.04,5.12-10.35,1.9
	c-2.35-3.27,1.98-7.19,5.67-8.8c6.35-2.77,12.94-5.27,18.34-9.6c5.4-4.34,9.51-11,8.76-17.88c-11.34,5.73-22.67,11.46-34.01,17.19
	c-2.02-1.87-1.18-5.46,0.88-7.29c2.06-1.84,4.88-2.48,7.49-3.36c11.6-3.93,20.82-14.21,23.46-26.16
	c-10.19,3.82-19.72,9.39-28.05,16.4c-0.96,0.81-2,1.68-3.25,1.8c-2.91,0.29-4.54-3.83-3.2-6.43s4.25-3.91,6.9-5.14
	c9.18-4.26,17.75-9.83,25.37-16.5c1.53-1.34,3.07-2.8,3.74-4.71c0.66-1.92,0.13-4.4-1.69-5.31c-1.89-0.94-4.11,0.15-5.93,1.21
	c-7.34,4.28-14.68,8.55-22.02,12.83c-1.62,0.94-3.34,1.91-5.21,1.9s-3.87-1.42-3.81-3.29c0.09-2.57,3.36-3.47,5.87-4.02
	c10.81-2.39,19.57-12.16,20.78-23.16c-7.48,4.36-14.96,8.73-22.43,13.09c-2.25,1.32-5.62,2.42-7.06,0.24
	c-1.21-1.82,0.26-4.25,1.98-5.59c3.67-2.85,8.46-3.7,12.76-5.46s8.61-5.22,8.69-9.86c-6.56,5.12-14.15,8.9-22.18,11.07
	c0.97-8.61,14.76-11.38,15.25-20.04c-8.39,2.14-14.88,9.16-18.36,17.08s-4.35,16.73-4.77,25.37c-2.09,43.65,6.67,88.12,27.58,126.49
	c3.94,7.23,8.3,14.24,13.05,20.97c10.13,14.36,22.54,27.83,38.61,34.94"/>
<circle class="st0" cx="138.13" cy="117.44" r="25.44"/>
<path class="st1" d="M197.84,190.95c-12.39-1.01-24.92-0.28-37.11,2.16c-14.83,2.97-29.02,8.44-43.13,13.87"/>
<path class="st1" d="M117.92,206.83c-4.41,2.28-8.28,5.52-11.22,9.4c3.25,0.62,6.64,0.56,9.86-0.18c-2.36,2.42-4.72,4.84-7.08,7.27
	c24.75,16.91,54.76,26.66,85.16,27.68c0.68,0.02,1.4,0.03,1.97-0.31c1.13-0.67,1.08-2.24,0.91-3.5c-2.56-18.95-2-38.29,1.67-57.07"
	/>
<circle class="st2" cx="125" cy="214.97" r="6.41"/>
<path class="st3" d="M197.03,259.43c-0.32-6.05-0.63-12.1-0.95-18.15c-1.25-23.85-2.45-48.22,4.16-71.17
	c5.16-17.94,15.06-34.94,15.32-53.6c0.17-12.31-3.93-24.39-3.69-36.7c0.14-7.44,2.89-16.02,9.94-18.39
	c7.38-2.48,14.92,3.24,19.9,9.23c2.83,3.41,5.44,7.14,6.62,11.42c4.92,17.84-16.32,35.1-11.66,53.01c1.36,5.22,4.83,9.71,6.06,14.96
	c2.23,9.48-3.14,18.87-7.75,27.45s-8.63,19.15-3.97,27.69"/>
<circle class="st2" cx="366.83" cy="250.06" r="23.7"/>
<path class="st1" d="M260.65,527.73c19.99-8.83,40.79-18.28,54.36-35.41c9.11-11.5,14.51-25.99,25.57-35.63
	c6.55-5.71,18.19-8.54,22.86-1.21c3.24,5.08,0.87,11.72-1.56,17.22c13.06-3.65,21.85-17.82,20.55-31.32
	c-1.31-13.5-11.76-25.29-24.65-29.49c1.97-2.61,1.15-6.54-1-9c-2.15-2.46-5.3-3.77-8.37-4.9c-7.53-2.77-15.29-4.94-23.17-6.48
	c-5.33-1.04-12.57-0.7-14.07,4.52c-10.81-3.86-23.27,2.5-29.49,12.14c-6.22,9.64-7.4,21.68-7.06,33.15
	c4.31-3.46,8.62-6.91,12.93-10.37c2.45-1.96,5.08-4,8.2-4.33c5.06-0.53,9.59,3.88,10.91,8.79c1.33,4.91,0.22,10.12-1.09,15.03
	c-6.93,26.01-19.52,50.5-36.64,71.28"/>
</svg>
