<svg id="Layer_1" data-name="Layer 1" xmlns="http://www.w3.org/2000/svg" viewBox="0 0 510.76 542.31"><defs><style>.cls-1{fill:#9cd2e7;}.cls-2{fill:#fff;}.cls-3{fill:#f2f5f7;}.cls-4{fill:none;stroke:#f2f5f7;stroke-miterlimit:10;}</style></defs><rect class="cls-1" x="57.67" y="139.85" width="360.55" height="60.32" rx="30.16"/><rect class="cls-1" x="19.34" y="193.06" width="439.98" height="70.55" rx="35.27"/><rect class="cls-1" y="249.85" width="482.18" height="60.61" rx="30.3"/><rect class="cls-1" x="28.58" y="299.53" width="482.18" height="60.61" rx="30.3"/><rect class="cls-1" x="57.67" y="342.62" width="411.29" height="60.61" rx="30.3"/><rect class="cls-1" x="28.58" y="220.57" width="482.18" height="60.61" rx="30.3"/><rect class="cls-1" x="97.06" y="390.62" width="337.59" height="60.61" rx="30.3"/><rect class="cls-1" x="110.18" y="443.06" width="294.26" height="60.61" rx="30.3"/><rect class="cls-1" x="97.57" y="96.53" width="281.43" height="60.61" rx="30.3"/><rect class="cls-1" x="136.97" y="42.55" width="126.34" height="60.61" rx="30.3"/><rect class="cls-1" x="293.5" width="105.35" height="42.55" rx="21.27"/><rect class="cls-1" x="19.34" y="457.48" width="65.96" height="31.79" rx="15.89"/><g id="Layer_2" data-name="Layer 2"><path class="cls-2" d="M292.2,575.7" transform="translate(-64.33 -170.08)"/><path class="cls-2" d="M248,598.5a17.92,17.92,0,0,1,7-15.3c2.3-1.7,5-2.9,7.3-4.7,6-4.7,7.8-12.8,9.4-20.2,3.5-17.1,6.8-35.6-.3-51.6-3.6-8-9.5-14.6-15.3-21.1-6.8-7.5-13.5-15-20.2-22.6-2.5-2.8-5.2-5.7-8.8-6.9s-7.5-.4-11.3-.7c-9.8-.7-17.9-8.2-27.6-9.8-2.9-.5-6-.4-8.9-.9-14.4-2.5-22.6-18.2-24.9-32.7-.3-2-.5-4.2.9-5.7a6.2,6.2,0,0,1,3.9-1.6c6.2-1.2,12.5-2.3,18.7-3.5a9.24,9.24,0,0,0,4-1.5,8.9,8.9,0,0,0,1.9-3.6,27.17,27.17,0,0,1,21.7-16.8c3.1-.4,6.5-.3,8.8-2.3,1.8-1.6,2.5-4.1,3.6-6.3,3-5.8,9.6-9.2,16.2-9.6,4.5-.3,9.2.8,12.5,3.9,2.4,2.3,3.7,5.4,6.1,7.8,4.9,5,12.8,5.1,19.5,7s12.5,5.6,18.8,8.5c25.5,11.8,55,9.1,82.9,7.1a260.74,260.74,0,0,1,30.6-1,158.6,158.6,0,0,1,40,6.6c3.9,1.2,8,2.6,10.8,5.6,3.9,4.2,4.5,10.3,5,16,.6,8.5,1.3,17,2,25.5.7,8.7,1.3,17.4.5,26.1-1,11.6-4.6,22.9-6.3,34.4-2.6,18.1-.5,36.5-1.9,54.7-.9,12.6-4.6,26.7-15.5,32.9-6.8,3.9-15.1,3.9-22.9,3.8-19.2-.2-38.4-.4-57.6-.5,1.3-10.4,11.5-18.9,21.9-18.4a237.53,237.53,0,0,1,6.3-44.4,180.19,180.19,0,0,1-42.7-3.9c-.4,7.7-.8,15.3-1.1,23s-.8,15.8-3.4,23.2-7.8,14.3-15.1,17.1c-4.6,1.8-9.8,1.8-14.7,1.8H246.5" transform="translate(-64.33 -170.08)"/><ellipse cx="133.77" cy="229.72" rx="3.2" ry="6.5"/><path d="M158.5,418.7s6.3-12,.3-14.1c0,0-9.3.5-4.8,7.3C154.1,411.9,153.3,418.4,158.5,418.7Z" transform="translate(-64.33 -170.08)"/><path class="cls-3" d="M358.2,599.5s2.3-16.7,21.9-18.4l6.3-44.4,26.8,1.9L409.5,579s-24.5,10.2-15.9,20.8Z" transform="translate(-64.33 -170.08)"/><path class="cls-3" d="M213.6,375.7a5,5,0,0,0,3.1,1.2,45.1,45.1,0,0,0,5.2,0c2.6-.2,4.8-1.9,6.5-3.8s3-4.4,4.8-6.3a10.8,10.8,0,0,1,2.8-2.4,10.09,10.09,0,0,1,1.5-.7,4.33,4.33,0,0,0,.5-.1c.9-.1.4-.2-1.5-.1-3.2,0-1.8-.1-.9.2a10.44,10.44,0,0,0,2.5,0,10.44,10.44,0,0,1,2.5,0,14.82,14.82,0,0,0-4.2-.2,12.22,12.22,0,0,0-3.8.3c-2.2.7-3.9,2.5-5.3,4.2-1.5,1.9-2.6,4-4.3,5.7a15.1,15.1,0,0,1-2.8,2.2,11.94,11.94,0,0,1-1.6.8,2.35,2.35,0,0,1-.8.2h-.3c-1.5.2-.4.2,3.5,0h.3a5,5,0,0,1-2.7-1.1c-.1-.1-.7,0-.7,0h-3.6c-.1-.1-.6,0-.7-.1Z" transform="translate(-64.33 -170.08)"/><path class="cls-3" d="M396,559.5h2.5a20.83,20.83,0,0,0-2.5,0h0Z" transform="translate(-64.33 -170.08)"/><path class="cls-4" d="M290.4,597.5" transform="translate(-64.33 -170.08)"/><path class="cls-3" d="M247.2,597.3s2.3-18.9,21.9-20.8l5.4-42.6,1-7.6,26.8,2.1-3.7,45.7s-24.5,11.5-15.9,23.6Z" transform="translate(-64.33 -170.08)"/><path class="cls-3" d="M304.2,528.5s-13.5-3.2-22.9-8.7c-5.9-3.5-10.1-7.9-8.1-13.1l3.3,27.3Z" transform="translate(-64.33 -170.08)"/><path class="cls-3" d="M455,406.6" transform="translate(-64.33 -170.08)"/><path class="cls-2" d="M455,406.6s32.9,15.6,26.8,46.3c0,0,1,35.1-25.7,55.8Z" transform="translate(-64.33 -170.08)"/></g><rect class="cls-1" x="257.31" y="481.7" width="133.35" height="60.61" rx="30.3"/></svg>