<svg id="Layer_1" data-name="Layer 1" xmlns="http://www.w3.org/2000/svg" xmlns:xlink="http://www.w3.org/1999/xlink" viewBox="0 0 566.9 567"><defs><style>.cls-1{fill:url(#linear-gradient);}.cls-2{fill:#ffa033;}.cls-3{fill:url(#linear-gradient-2);}.cls-4{fill:#b6dff7;}.cls-5{fill:#d2eaf9;}.cls-6{fill:#6aa7db;}.cls-7{fill:#8dcff2;}.cls-8{fill:#70adde;}.cls-9{fill:#95d2f3;}.cls-10{fill:#559dd5;}.cls-11{fill:#73c5eb;}.cls-12{fill:#3c95c6;}.cls-13{fill:#286d9e;}.cls-14{fill:#3a92c7;}.cls-15{fill:#55add7;}.cls-16{fill:#215c85;}.cls-17{fill:#48a5d2;}.cls-18{fill:#1a4365;}.cls-19{fill:#ffc533;}.cls-20{fill:url(#linear-gradient-3);}.cls-21{fill:url(#linear-gradient-4);}.cls-22{fill:url(#linear-gradient-5);}.cls-23{fill:url(#linear-gradient-6);}.cls-24{fill:url(#linear-gradient-7);}.cls-25{fill:url(#linear-gradient-8);}.cls-26{fill:url(#linear-gradient-9);}.cls-27{fill:url(#linear-gradient-10);}.cls-28{fill:url(#linear-gradient-11);}</style><linearGradient id="linear-gradient" x1="283.45" y1="8.06" x2="283.45" y2="422.74" gradientUnits="userSpaceOnUse"><stop offset="0" stop-color="#9cd2e7"/><stop offset="0.15" stop-color="#a0d4e8"/><stop offset="0.31" stop-color="#addaeb"/><stop offset="0.48" stop-color="#c2e3f0"/><stop offset="0.64" stop-color="#e0f1f8"/><stop offset="0.78" stop-color="#fff"/></linearGradient><linearGradient id="linear-gradient-2" x1="283.45" y1="239.84" x2="283.45" y2="592.33" gradientUnits="userSpaceOnUse"><stop offset="0" stop-color="#035177"/><stop offset="0.31" stop-color="#045479"/><stop offset="0.52" stop-color="#075c81"/><stop offset="0.69" stop-color="#0d6b8f"/><stop offset="0.85" stop-color="#1580a1"/><stop offset="0.99" stop-color="#209bb9"/><stop offset="1" stop-color="#219ebc"/></linearGradient><linearGradient id="linear-gradient-3" x1="454.65" y1="-77.75" x2="454.65" y2="378.79" gradientTransform="matrix(1, 0, 0, -1, 0, 566.93)" gradientUnits="userSpaceOnUse"><stop offset="0" stop-color="#ffa033"/><stop offset="0.33" stop-color="#ffb333"/><stop offset="0.68" stop-color="#ffc033"/><stop offset="1" stop-color="#ffc533"/></linearGradient><linearGradient id="linear-gradient-4" x1="413.95" y1="-78.33" x2="413.95" y2="382.3" xlink:href="#linear-gradient-3"/><linearGradient id="linear-gradient-5" x1="506.1" y1="14.36" x2="506.1" y2="470.79" gradientTransform="matrix(1, 0, 0, 1, 0, 0)" xlink:href="#linear-gradient-3"/><linearGradient id="linear-gradient-6" x1="168.45" y1="595.24" x2="168.92" y2="347.14" xlink:href="#linear-gradient-3"/><linearGradient id="linear-gradient-7" x1="335.35" y1="278.32" x2="335.35" y2="458.06" xlink:href="#linear-gradient-3"/><linearGradient id="linear-gradient-8" x1="129.86" y1="594.2" x2="130.32" y2="353.69" xlink:href="#linear-gradient-3"/><linearGradient id="linear-gradient-9" x1="318.15" y1="285.74" x2="318.15" y2="467.46" xlink:href="#linear-gradient-3"/><linearGradient id="linear-gradient-10" x1="86.48" y1="264.28" x2="86.92" y2="35.52" gradientTransform="matrix(1, 0, 0, 1, 0, 0)" xlink:href="#linear-gradient-3"/><linearGradient id="linear-gradient-11" x1="302.65" y1="298.14" x2="302.65" y2="476.32" xlink:href="#linear-gradient-3"/></defs><path class="cls-1" d="M539.85,135H526.79a18.32,18.32,0,1,1,0,36.63H544.3a22.61,22.61,0,0,1,0,45.21H533.44a33.47,33.47,0,0,1,8.91,65.72H566.9v1.2L24.55,282.6a33.46,33.46,0,0,1,8.91-65.72H58a22.61,22.61,0,0,1,0-45.21H18.31a18.32,18.32,0,1,1,0-36.63h8.74a27.06,27.06,0,1,1,0-54.11H40.46A40.47,40.47,0,0,1,11.85,11.85c.72-.72,1.47-1.42,2.25-2.08A40.3,40.3,0,0,1,36.43.2c1.33-.13,2.67-.2,4-.2h486c1.36,0,2.7.07,4,.2h0c.38,0,.77.08,1.15.14s.65.08,1,.13a39.86,39.86,0,0,1,4.08.84l.83.23,1,.28.94.31c.32.1.63.21.94.33l.92.35a40.24,40.24,0,0,1,8.24,4.41l.74.53a40.34,40.34,0,0,1,4.19,3.51c.22.21.44.42.65.64a38.94,38.94,0,0,1,3,3.4l.5.65c.22.27.42.54.61.81l.44.61c.74,1.08,1.44,2.19,2.08,3.33l.39.72q.18.31.33.63c.1.18.19.37.28.56s.15.3.22.45c.26.55.51,1.1.75,1.66A38.64,38.64,0,0,1,565.54,30c.08.31.16.61.23.92s.15.61.21.92.13.61.19.92.11.57.15.86.08.44.11.66.1.67.14,1,.09.68.12,1,.07.68.09,1,0,.43,0,.65a4.32,4.32,0,0,1,0,.5c0,.65,0,1.3,0,2a40.47,40.47,0,0,1-32.74,39.72h0c-.24.25-.48.5-.73.74h6.43a27.06,27.06,0,0,1,0,54.11Z" transform="translate(0 0)"/><path class="cls-2" d="M545.1,53.1a38.86,38.86,0,0,1-10.94,27.09h0c-.24.25-.48.5-.73.74a39,39,0,0,1-54.64,0,39.38,39.38,0,0,1-7.29-9.82,39,39,0,1,1,73.61-18Z" transform="translate(0 0)"/><path class="cls-3" d="M560.34,382.9a22.28,22.28,0,0,1-15.82,6.55,22.48,22.48,0,0,1-.1,44.95h-17a26.73,26.73,0,0,1,0,53.46h15.55a16.06,16.06,0,1,1,0,32.12h.45a23.51,23.51,0,0,1,0,47H164.61a23.51,23.51,0,0,1,0-47h5.65a16.06,16.06,0,1,1,0-32.12H95.73a26.73,26.73,0,0,1,0-53.46h-54a22.48,22.48,0,1,1,0-44.95h1.5a22.38,22.38,0,1,1,0-44.75H30.26C13.61,344.7,0,330.6,0,314a30.13,30.13,0,0,1,29-30.12s0,0,0,0H536.75a30.15,30.15,0,1,1,0,60.3v.6h7.76a22.37,22.37,0,0,1,15.82,38.2Z" transform="translate(0 0)"/><polygon class="cls-4" points="121.3 283.5 74.9 253 94.2 242.4 121.3 283.5"/><polygon class="cls-5" points="121.3 283.5 104.4 258 110.3 232.2 138.2 229.5 143.9 252.4 121.3 283.5"/><polygon class="cls-6" points="137.2 261.6 143.9 252.4 138.2 229.5 153.9 236.2 169.2 242.4 147.4 261.6 121.3 283.5 137.2 261.6"/><polygon class="cls-4" points="192.9 250.2 175.2 265.7 167.3 283.5 156.1 269.8 169.2 242.4 192.9 250.2"/><polygon class="cls-5" points="141.1 283.5 156.1 269.8 169.2 242.4 147.4 261.6 121.3 283.5 141.1 283.5"/><polygon class="cls-7" points="167.3 283.5 156.1 269.8 141.1 283.5 167.3 283.5"/><polygon class="cls-7" points="175.2 265.7 192.9 250.2 199.2 252.3 187.2 263 178 283.5 175.2 265.7"/><polygon class="cls-5" points="167.3 283.5 175.2 265.7 178 283.5 167.3 283.5"/><polygon class="cls-4" points="187.2 263 178 283.5 194.7 283.5 206.5 265.7 199.2 252.3 187.2 263"/><polygon class="cls-5" points="205.1 283.5 217.3 267.9 199.2 252.3 206.5 265.7 194.7 283.5 205.1 283.5"/><polygon class="cls-7" points="235 283.5 217.3 267.9 215.8 258 235 283.5"/><polygon class="cls-8" points="199.2 252.3 215.8 258 217.3 267.9 199.2 252.3"/><polygon class="cls-4" points="217.3 267.9 224.7 283.5 205.1 283.5 217.3 267.9"/><polygon class="cls-5" points="217.3 267.9 224.7 283.5 235 283.5 217.3 267.9"/><polygon class="cls-4" points="225.4 270.7 249.7 282.6 238.6 264.7 215.8 258 225.4 270.7"/><polygon class="cls-9" points="235 283.5 225.4 270.7 251.4 283.5 235 283.5"/><polygon class="cls-6" points="104.4 258 94.2 242.4 110.3 232.2 104.4 258"/><polygon class="cls-10" points="121.3 283.5 74.9 253 63.6 258.5 85.5 263.7 121.3 283.5"/><polygon class="cls-5" points="105.2 274.6 85.5 263.7 63.6 258.5 56.6 270.9 105.2 274.6"/><polygon class="cls-9" points="105.2 274.6 121.3 283.5 101.3 283.5 94.2 273.7 105.2 274.6"/><polygon class="cls-6" points="101.3 283.5 94.2 273.7 56.6 270.9 53.5 273.1 101.3 283.5"/><polygon class="cls-10" points="101.3 283.5 53.5 273.1 44.7 278.6 65.7 279.2 77.4 283.5 101.3 283.5"/><polygon class="cls-9" points="77.4 283.5 65.7 279.2 44.7 278.6 39.2 283.5 77.4 283.5"/><polygon class="cls-11" points="121.3 283.5 135.4 316.3 141.1 299.9 141.1 283.5 121.3 283.5"/><polygon class="cls-12" points="121.3 283.5 135.4 316.3 136.6 331.8 133.3 316.3 121.3 283.5"/><polygon class="cls-13" points="121.3 283.5 133.3 316.3 138.7 342.6 124.2 315.6 121.3 283.5"/><polygon class="cls-14" points="141.1 283.5 162.8 303.6 163.9 297.7 167.3 291.9 167.3 283.5 141.1 283.5"/><polygon class="cls-15" points="183.6 331.8 162.8 303.6 141.4 283.8 141.1 283.8 141.1 299.9 182.6 344.1 183.6 331.8"/><polygon class="cls-16" points="199.2 361.9 141.1 299.9 136.2 313.9 135.4 316.3 136.6 331.8 138.7 342.6 175.2 364 206.6 436.3 199.2 361.9"/><polygon class="cls-17" points="182.6 344.1 199.2 361.9 206.6 436.3 208.3 355.5 183.6 331.8 182.6 344.1"/><polygon class="cls-15" points="206.6 436.3 175.2 364 138.7 342.6 160.4 376.1 206.6 436.3"/><polygon class="cls-18" points="121.3 283.5 124.2 315.6 138.7 342.6 160.4 376.1 206.6 436.3 179.9 433.6 135.4 346.3 116.3 316.6 121.3 283.5"/><polygon class="cls-13" points="121.3 283.5 116.3 316.6 135.4 346.3 125.9 393 118.2 331.8 107.7 316.3 121.3 283.5"/><polygon class="cls-16" points="135.4 346.3 125.9 393 155.9 442.1 179.9 433.6 135.4 346.3"/><polygon class="cls-15" points="178 283.5 171 291.9 167.3 299 167.3 309.8 162.8 303.6 163.9 297.7 167.3 291.9 167.3 283.5 178 283.5"/><polygon class="cls-12" points="178 283.5 171 291.9 167.3 299 167.3 309.8 183.6 331.8 179 299.9 194.7 283.5 178 283.5"/><polygon class="cls-17" points="194.7 283.5 179 299.9 183.6 331.8 200.7 348.2 195.4 317.6 205.1 283.5 194.7 283.5"/><polygon class="cls-18" points="206.6 436.3 208.3 355.5 220.8 338.2 229.1 352.3 206.6 436.3"/><polygon class="cls-16" points="229.1 352.3 243.9 331.8 249.7 341.2 206.6 436.3 229.1 352.3"/><polygon class="cls-13" points="206.6 436.3 232.8 425.9 262 329.4 249.7 341.2 206.6 436.3"/><polygon class="cls-16" points="232.8 425.9 267.2 308.6 285 300.5 262 387.3 232.8 425.9"/><polygon class="cls-12" points="208.3 355.5 220.8 338.2 229.1 352.3 243.9 331.8 249.7 341.2 262 329.4 267.2 308.6 285 300.5 277.7 295.2 214.9 338.2 208.3 355.5"/><polygon class="cls-12" points="208.3 355.5 200.7 348.2 195.4 317.6 205.1 283.5 224.7 283.5 214.9 331.8 214.9 338.2 208.3 355.5"/><polygon class="cls-17" points="224.7 283.5 251.4 283.5 258.9 286.8 217.8 317.3 224.7 283.5"/><polygon class="cls-14" points="258.9 286.8 217.8 317.3 214.9 331.8 214.9 338.2 277.7 295.2 258.9 286.8"/><polygon class="cls-18" points="285 300.5 262 387.3 232.8 425.9 262 407.3 273.9 389.4 285 300.5"/><polygon class="cls-16" points="262 407.3 273.9 389.4 279.5 344.1 300.1 311.5 310.9 325.4 286.5 361.4 277.7 393 262 407.3"/><polygon class="cls-13" points="265.1 404.4 277.7 393 286.5 361.4 310.9 325.4 316.7 332.7 293.3 364.2 288.9 378.7 289.7 393 265.1 404.4"/><polygon class="cls-14" points="316.7 332.7 293.3 364.2 288.9 378.7 289.7 393 297.5 371.9 316.7 332.7"/><polygon class="cls-12" points="316.7 332.7 297.5 371.9 289.7 393 311.7 372.1 316.7 332.7"/><polygon class="cls-11" points="311.7 372.1 316.7 332.7 325.6 356.7 311.7 372.1"/><polygon class="cls-12" points="279.5 344.1 285 300.5 300.1 311.5 279.5 344.1"/><polygon class="cls-18" points="155.9 442.1 133.9 455.6 107.6 434.4 125.9 393 155.9 442.1"/><polygon class="cls-16" points="107.6 434.4 125.9 393 118.2 331.8 100.5 417 107.6 434.4"/><polygon class="cls-13" points="100.5 417 118.2 331.8 92.2 396.5 100.5 417"/><polygon class="cls-14" points="92.2 396.5 118.2 331.8 107.7 316.3 92.2 396.5"/><polygon class="cls-15" points="92.2 396.5 107.7 316.3 121.3 283.5 97 322.3 92.2 396.5"/><polygon class="cls-14" points="92.2 396.5 81.7 378.8 97 322.3 92.2 396.5"/><polygon class="cls-13" points="81.7 378.8 97 322.3 121.3 283.5 101.3 283.5 92.2 323.2 81.7 378.8"/><polygon class="cls-14" points="101.3 283.5 77.4 283.5 74.9 313.9 81.7 378.8 92.2 323.2 101.3 283.5"/><polygon class="cls-12" points="69 357.5 81.7 378.8 74.9 313.9 77.4 283.5 69 319.5 69 357.5"/><polygon class="cls-15" points="69 319.5 77.4 283.5 61.6 283.5 65.5 311.5 56.6 346.8 69 357.5 69 319.5"/><polygon class="cls-14" points="56.6 346.8 65.5 311.5 61.6 283.5 54.7 283.5 58.3 307.6 56.6 346.8"/><polygon class="cls-16" points="56.6 346.8 58.3 307.6 39.2 283.5 54.2 344.7 56.6 346.8"/><polygon class="cls-15" points="58.3 307.6 54.7 283.5 39.2 283.5 58.3 307.6"/><polygon class="cls-14" points="54.2 344.7 53.83 344.1 52.9 342.6 39.2 320.5 39.2 283.5 39.27 283.8 39.69 285.5 54.05 344.1 54.2 344.7"/><polygon class="cls-12" points="39.2 320.5 52.9 342.6 24.9 320.5 35.7 303.6 39.2 283.5 39.2 320.5"/><polygon class="cls-11" points="24.9 320.5 35.7 303.6 39.2 283.5 23.3 291.9 9 315.4 24.9 320.5"/><path class="cls-5" d="M154,285.1H102.5a2,2,0,0,1-2-2h0a2,2,0,0,1,2-2H154a2,2,0,0,1,2,2h0A1.94,1.94,0,0,1,154,285.1Z" transform="translate(0 0)"/><path class="cls-5" d="M199.9,285.5H166a2,2,0,0,1-2-2h0a2,2,0,0,1,2-2h33.9a2,2,0,0,1,2,2h0A2,2,0,0,1,199.9,285.5Z" transform="translate(0 0)"/><path class="cls-5" d="M229.5,285.5H209.8a2,2,0,0,1-2-2h0a2,2,0,0,1,2-2h19.7a2,2,0,0,1,2,2h0A1.89,1.89,0,0,1,229.5,285.5Z" transform="translate(0 0)"/><path class="cls-5" d="M253.1,285.5H240.2a2,2,0,0,1-2-2h0a2,2,0,0,1,2-2h12.9a2,2,0,0,1,2,2h0A2,2,0,0,1,253.1,285.5Z" transform="translate(0 0)"/><path class="cls-5" d="M89.2,285.1H63.6a2,2,0,0,1-2-2h0a2,2,0,0,1,2-2H89.2a2,2,0,0,1,2,2h0A2,2,0,0,1,89.2,285.1Z" transform="translate(0 0)"/><path class="cls-5" d="M53.3,285.1H47.4a2,2,0,0,1-2-2h0a2,2,0,0,1,2-2h5.9a2,2,0,0,1,2,2h0A2,2,0,0,1,53.3,285.1Z" transform="translate(0 0)"/><path class="cls-5" d="M41.7,283.5c0,.1,0,.2,0,.3a2,2,0,0,1-.57,1.11,1.77,1.77,0,0,1-.5.36,1.86,1.86,0,0,1-.91.23H31a2,2,0,0,1-2-1.67s0,0,0,0a1.53,1.53,0,0,1,0-.3,2,2,0,0,1,.59-1.41A2,2,0,0,1,31,281.5h8.7a2,2,0,0,1,1.25.44A2,2,0,0,1,41.7,283.5Z" transform="translate(0 0)"/><circle class="cls-19" cx="506.1" cy="53.1" r="17.9"/><polygon class="cls-20" points="498.5 92.1 410.8 566.9 449.6 566.9 498.5 92.1"/><polygon class="cls-21" points="488.2 87.8 339.7 566.8 378.5 566.8 488.2 87.8"/><polygon class="cls-22" points="525.5 566.8 486.7 566.8 500.64 344.7 500.68 344.1 504.47 283.8 516.5 92.1 520.13 283.8 521.28 344.1 521.29 344.7 525.5 566.8"/><polygon class="cls-23" points="199.2 252.3 215.8 258 164.6 0 121.7 0 199.2 252.3"/><polygon class="cls-24" points="471.5 71.1 199.2 252.3 215.8 258 471.5 71.1"/><polygon class="cls-25" points="169.2 242.4 192.9 250.2 116.8 0.2 67.4 0.2 169.2 242.4"/><polygon class="cls-26" points="467.1 61.3 169.2 242.4 192.9 250.2 467.1 61.3"/><path class="cls-27" d="M159.4,238.4l-21.2-8.9L54.29,80.93,14.1,9.77A40.3,40.3,0,0,1,36.43.2H59.3L93.23,80.93l59.22,140.93Z" transform="translate(0 0)"/><polygon class="cls-28" points="467.1 53.1 138.2 229.5 159.4 238.4 467.1 53.1"/></svg>