<?xml version="1.0" encoding="utf-8"?>
<!-- Generator: Adobe Illustrator 25.0.1, SVG Export Plug-In . SVG Version: 6.00 Build 0)  -->
<svg version="1.1" id="Layer_1" xmlns="http://www.w3.org/2000/svg" xmlns:xlink="http://www.w3.org/1999/xlink" x="0px" y="0px"
	 viewBox="0 0 566.9 566.9" style="enable-background:new 0 0 566.9 566.9;" xml:space="preserve">
<style type="text/css">
	.st0{fill:url(#SVGID_1_);}
	.st1{fill:#FFA033;}
	.st2{fill:url(#SVGID_2_);}
	.st3{fill:#B6DFF7;}
	.st4{fill:#D2EAF9;}
	.st5{fill:#6AA7DB;}
	.st6{fill:#8DCFF2;}
	.st7{fill:#70ADDE;}
	.st8{fill:#95D2F3;}
	.st9{fill:#559DD5;}
	.st10{fill:#73C5EB;}
	.st11{fill:#3C95C6;}
	.st12{fill:#286D9E;}
	.st13{fill:#3A92C7;}
	.st14{fill:#55ADD7;}
	.st15{fill:#215C85;}
	.st16{fill:#48A5D2;}
	.st17{fill:#1A4365;}
	.st18{fill:#FFC533;}
	.st19{fill:url(#SVGID_3_);}
	.st20{fill:url(#SVGID_4_);}
	.st21{fill:url(#SVGID_5_);}
	.st22{fill:url(#SVGID_6_);}
	.st23{fill:url(#SVGID_7_);}
	.st24{fill:url(#SVGID_8_);}
	.st25{fill:url(#SVGID_9_);}
	.st26{fill:url(#SVGID_10_);}
	.st27{fill:url(#SVGID_11_);}
</style>
<linearGradient id="SVGID_1_" gradientUnits="userSpaceOnUse" x1="283.4646" y1="275.744" x2="283.4646" y2="-138.9372">
	<stop  offset="0" style="stop-color:#9CD2E7"/>
	<stop  offset="0.15" style="stop-color:#A0D4E8"/>
	<stop  offset="0.3103" style="stop-color:#ADDAEB"/>
	<stop  offset="0.4754" style="stop-color:#C2E3F0"/>
	<stop  offset="0.6426" style="stop-color:#E0F1F8"/>
	<stop  offset="0.7825" style="stop-color:#FFFFFF"/>
</linearGradient>
<rect class="st0" width="566.9" height="283.8"/>
<circle class="st1" cx="506.1" cy="53.1" r="39"/>
<linearGradient id="SVGID_2_" gradientUnits="userSpaceOnUse" x1="283.4646" y1="610.9561" x2="283.4646" y2="258.4716">
	<stop  offset="0" style="stop-color:#035177"/>
	<stop  offset="0.3138" style="stop-color:#045479"/>
	<stop  offset="0.5178" style="stop-color:#075C81"/>
	<stop  offset="0.6903" style="stop-color:#0D6B8F"/>
	<stop  offset="0.8451" style="stop-color:#1580A1"/>
	<stop  offset="0.9873" style="stop-color:#209BB9"/>
	<stop  offset="1" style="stop-color:#219EBC"/>
</linearGradient>
<rect y="283.8" class="st2" width="566.9" height="283.2"/>
<polygon class="st3" points="121.3,283.5 74.9,253 94.2,242.4 "/>
<polygon class="st4" points="121.3,283.5 104.4,258 110.3,232.2 138.2,229.5 143.9,252.4 "/>
<polygon class="st5" points="137.2,261.6 143.9,252.4 138.2,229.5 153.9,236.2 169.2,242.4 147.4,261.6 121.3,283.5 "/>
<polygon class="st3" points="192.9,250.2 175.2,265.7 167.3,283.5 156.1,269.8 169.2,242.4 "/>
<polygon class="st4" points="141.1,283.5 156.1,269.8 169.2,242.4 147.4,261.6 121.3,283.5 "/>
<polygon class="st6" points="167.3,283.5 156.1,269.8 141.1,283.5 "/>
<polygon class="st6" points="175.2,265.7 192.9,250.2 199.2,252.3 187.2,263 178,283.5 "/>
<polygon class="st4" points="167.3,283.5 175.2,265.7 178,283.5 "/>
<polygon class="st3" points="187.2,263 178,283.5 194.7,283.5 206.5,265.7 199.2,252.3 "/>
<polygon class="st4" points="205.1,283.5 217.3,267.9 199.2,252.3 206.5,265.7 194.7,283.5 "/>
<polygon class="st6" points="235,283.5 217.3,267.9 215.8,258 "/>
<polygon class="st7" points="199.2,252.3 215.8,258 217.3,267.9 "/>
<polygon class="st3" points="217.3,267.9 224.7,283.5 205.1,283.5 "/>
<polygon class="st4" points="217.3,267.9 224.7,283.5 235,283.5 "/>
<polygon class="st3" points="225.4,270.7 249.7,282.6 238.6,264.7 215.8,258 "/>
<polygon class="st8" points="235,283.5 225.4,270.7 251.4,283.5 "/>
<polygon class="st5" points="104.4,258 94.2,242.4 110.3,232.2 "/>
<polygon class="st9" points="121.3,283.5 74.9,253 63.6,258.5 85.5,263.7 "/>
<polygon class="st4" points="105.2,274.6 85.5,263.7 63.6,258.5 56.6,270.9 "/>
<polygon class="st8" points="105.2,274.6 121.3,283.5 101.3,283.5 94.2,273.7 "/>
<polygon class="st5" points="101.3,283.5 94.2,273.7 56.6,270.9 53.5,273.1 "/>
<polygon class="st9" points="101.3,283.5 53.5,273.1 44.7,278.6 65.7,279.2 77.4,283.5 "/>
<polygon class="st8" points="77.4,283.5 65.7,279.2 44.7,278.6 39.2,283.5 "/>
<g id="Layer_2_1_">
</g>
<polygon class="st10" points="121.3,283.5 135.4,316.3 141.1,299.9 141.1,283.5 "/>
<polygon class="st11" points="121.3,283.5 135.4,316.3 136.6,331.8 133.3,316.3 "/>
<polygon class="st12" points="121.3,283.5 133.3,316.3 138.7,342.6 124.2,315.6 "/>
<polyline class="st13" points="141.1,283.5 162.8,303.6 163.9,297.7 167.3,291.9 167.3,283.5 "/>
<polygon class="st14" points="183.6,331.8 162.8,303.6 141.4,283.8 141.1,283.8 141.1,299.9 182.6,344.1 "/>
<polygon class="st15" points="199.2,361.9 141.1,299.9 136.2,313.9 135.4,316.3 136.6,331.8 138.7,342.6 175.2,364 206.6,436.3 "/>
<polygon class="st16" points="182.6,344.1 199.2,361.9 206.6,436.3 208.3,355.5 183.6,331.8 "/>
<polygon class="st14" points="206.6,436.3 175.2,364 138.7,342.6 160.4,376.1 "/>
<polygon class="st17" points="121.3,283.5 124.2,315.6 138.7,342.6 160.4,376.1 206.6,436.3 179.9,433.6 135.4,346.3 116.3,316.6 
	"/>
<polygon class="st12" points="121.3,283.5 116.3,316.6 135.4,346.3 125.9,393 118.2,331.8 107.7,316.3 "/>
<polyline class="st15" points="135.4,346.3 125.9,393 155.9,442.1 179.9,433.6 "/>
<polygon class="st14" points="178,283.5 171,291.9 167.3,299 167.3,309.8 162.8,303.6 163.9,297.7 167.3,291.9 167.3,283.5 "/>
<polygon class="st11" points="178,283.5 171,291.9 167.3,299 167.3,309.8 183.6,331.8 179,299.9 194.7,283.5 "/>
<polygon class="st16" points="194.7,283.5 179,299.9 183.6,331.8 200.7,348.2 195.4,317.6 205.1,283.5 "/>
<polygon class="st17" points="206.6,436.3 208.3,355.5 220.8,338.2 229.1,352.3 "/>
<polygon class="st15" points="229.1,352.3 243.9,331.8 249.7,341.2 206.6,436.3 "/>
<polygon class="st12" points="206.6,436.3 232.8,425.9 262,329.4 249.7,341.2 "/>
<polygon class="st15" points="232.8,425.9 267.2,308.6 285,300.5 262,387.3 "/>
<polygon class="st11" points="208.3,355.5 220.8,338.2 229.1,352.3 243.9,331.8 249.7,341.2 262,329.4 267.2,308.6 285,300.5 
	277.7,295.2 214.9,338.2 "/>
<polygon class="st11" points="208.3,355.5 200.7,348.2 195.4,317.6 205.1,283.5 224.7,283.5 214.9,331.8 214.9,338.2 "/>
<polygon class="st16" points="224.7,283.5 251.4,283.5 258.9,286.8 217.8,317.3 "/>
<polygon class="st13" points="258.9,286.8 217.8,317.3 214.9,331.8 214.9,338.2 277.7,295.2 "/>
<polygon class="st17" points="285,300.5 262,387.3 232.8,425.9 262,407.3 273.9,389.4 "/>
<polygon class="st15" points="262,407.3 273.9,389.4 279.5,344.1 300.1,311.5 310.9,325.4 286.5,361.4 277.7,393 "/>
<polygon class="st12" points="265.1,404.4 277.7,393 286.5,361.4 310.9,325.4 316.7,332.7 293.3,364.2 288.9,378.7 289.7,393 "/>
<polygon class="st13" points="316.7,332.7 293.3,364.2 288.9,378.7 289.7,393 297.5,371.9 "/>
<polygon class="st11" points="316.7,332.7 297.5,371.9 289.7,393 311.7,372.1 "/>
<polygon class="st10" points="311.7,372.1 316.7,332.7 325.6,356.7 "/>
<polygon class="st11" points="279.5,344.1 285,300.5 300.1,311.5 "/>
<polygon class="st17" points="155.9,442.1 133.9,455.6 107.6,434.4 125.9,393 "/>
<polygon class="st15" points="107.6,434.4 125.9,393 118.2,331.8 100.5,417 "/>
<polygon class="st12" points="100.5,417 118.2,331.8 92.2,396.5 "/>
<polygon class="st13" points="92.2,396.5 118.2,331.8 107.7,316.3 "/>
<polygon class="st14" points="92.2,396.5 107.7,316.3 121.3,283.5 97,322.3 "/>
<polygon class="st13" points="92.2,396.5 81.7,378.8 97,322.3 "/>
<polygon class="st12" points="81.7,378.8 97,322.3 121.3,283.5 101.3,283.5 92.2,323.2 "/>
<polygon class="st13" points="101.3,283.5 77.4,283.5 74.9,313.9 81.7,378.8 92.2,323.2 "/>
<polygon class="st11" points="69,357.5 81.7,378.8 74.9,313.9 77.4,283.5 69,319.5 "/>
<polygon class="st14" points="69,319.5 77.4,283.5 61.6,283.5 65.5,311.5 56.6,346.8 69,357.5 "/>
<polygon class="st13" points="56.6,346.8 65.5,311.5 61.6,283.5 54.7,283.5 58.3,307.6 "/>
<polygon class="st15" points="56.6,346.8 58.3,307.6 39.2,283.5 54.2,344.7 "/>
<polygon class="st14" points="58.3,307.6 54.7,283.5 39.2,283.5 "/>
<polygon class="st13" points="54.2,344.7 39.2,283.5 39.2,320.5 "/>
<polygon class="st11" points="39.2,320.5 52.9,342.6 24.9,320.5 35.7,303.6 39.2,283.5 "/>
<polygon class="st10" points="24.9,320.5 35.7,303.6 39.2,283.5 23.3,291.9 9,315.4 "/>
<path class="st4" d="M154,285.1h-51.5c-1.1,0-2-0.9-2-2l0,0c0-1.1,0.9-2,2-2H154c1.1,0,2,0.9,2,2l0,0
	C156.1,284.2,155.1,285.1,154,285.1z"/>
<path class="st4" d="M199.9,285.5H166c-1.1,0-2-0.9-2-2l0,0c0-1.1,0.9-2,2-2h33.9c1.1,0,2,0.9,2,2l0,0
	C201.9,284.6,201,285.5,199.9,285.5z"/>
<path class="st4" d="M229.5,285.5h-19.7c-1.1,0-2-0.9-2-2l0,0c0-1.1,0.9-2,2-2h19.7c1.1,0,2,0.9,2,2l0,0
	C231.6,284.6,230.7,285.5,229.5,285.5z"/>
<path class="st4" d="M253.1,285.5h-12.9c-1.1,0-2-0.9-2-2l0,0c0-1.1,0.9-2,2-2h12.9c1.1,0,2,0.9,2,2l0,0
	C255.1,284.6,254.2,285.5,253.1,285.5z"/>
<path class="st4" d="M89.2,285.1H63.6c-1.1,0-2-0.9-2-2l0,0c0-1.1,0.9-2,2-2h25.6c1.1,0,2,0.9,2,2l0,0
	C91.2,284.2,90.3,285.1,89.2,285.1z"/>
<path class="st4" d="M53.3,285.1h-5.9c-1.1,0-2-0.9-2-2l0,0c0-1.1,0.9-2,2-2h5.9c1.1,0,2,0.9,2,2l0,0
	C55.3,284.2,54.4,285.1,53.3,285.1z"/>
<path class="st4" d="M39.7,285.5h-8.7c-1.1,0-2-0.9-2-2l0,0c0-1.1,0.9-2,2-2h8.7c1.1,0,2,0.9,2,2l0,0
	C41.7,284.6,40.8,285.5,39.7,285.5z"/>
<circle class="st18" cx="506.1" cy="53.1" r="17.9"/>
<linearGradient id="SVGID_3_" gradientUnits="userSpaceOnUse" x1="454.6604" y1="644.6754" x2="454.6604" y2="188.1381">
	<stop  offset="0" style="stop-color:#FFA033"/>
	<stop  offset="0.3271" style="stop-color:#FFB333"/>
	<stop  offset="0.6809" style="stop-color:#FFC033"/>
	<stop  offset="1" style="stop-color:#FFC533"/>
</linearGradient>
<polygon class="st19" points="498.5,92.1 410.8,566.9 449.6,566.9 "/>
<linearGradient id="SVGID_4_" gradientUnits="userSpaceOnUse" x1="413.9492" y1="645.2571" x2="413.9492" y2="184.6287">
	<stop  offset="0" style="stop-color:#FFA033"/>
	<stop  offset="0.3271" style="stop-color:#FFB333"/>
	<stop  offset="0.6809" style="stop-color:#FFC033"/>
	<stop  offset="1" style="stop-color:#FFC533"/>
</linearGradient>
<polygon class="st20" points="488.2,87.8 339.7,566.8 378.5,566.8 "/>
<linearGradient id="SVGID_5_" gradientUnits="userSpaceOnUse" x1="506.1125" y1="644.5416" x2="506.1125" y2="188.1148">
	<stop  offset="0" style="stop-color:#FFA033"/>
	<stop  offset="0.3271" style="stop-color:#FFB333"/>
	<stop  offset="0.6809" style="stop-color:#FFC033"/>
	<stop  offset="1" style="stop-color:#FFC533"/>
</linearGradient>
<polygon class="st21" points="516.5,92.1 486.7,566.8 525.5,566.8 "/>
<linearGradient id="SVGID_6_" gradientUnits="userSpaceOnUse" x1="168.486" y1="-28.3068" x2="168.9611" y2="219.7903">
	<stop  offset="0" style="stop-color:#FFA033"/>
	<stop  offset="0.3271" style="stop-color:#FFB333"/>
	<stop  offset="0.6809" style="stop-color:#FFC033"/>
	<stop  offset="1" style="stop-color:#FFC533"/>
</linearGradient>
<polygon class="st22" points="199.2,252.3 215.8,258 164.6,0 121.7,0 "/>
<linearGradient id="SVGID_7_" gradientUnits="userSpaceOnUse" x1="335.3454" y1="288.6087" x2="335.3454" y2="108.871">
	<stop  offset="0" style="stop-color:#FFA033"/>
	<stop  offset="0.3271" style="stop-color:#FFB333"/>
	<stop  offset="0.6809" style="stop-color:#FFC033"/>
	<stop  offset="1" style="stop-color:#FFC533"/>
</linearGradient>
<polygon class="st23" points="471.5,71.1 199.2,252.3 215.8,258 "/>
<linearGradient id="SVGID_8_" gradientUnits="userSpaceOnUse" x1="129.8398" y1="-27.2756" x2="130.3004" y2="213.2385">
	<stop  offset="0" style="stop-color:#FFA033"/>
	<stop  offset="0.3271" style="stop-color:#FFB333"/>
	<stop  offset="0.6809" style="stop-color:#FFC033"/>
	<stop  offset="1" style="stop-color:#FFC533"/>
</linearGradient>
<polygon class="st24" points="169.2,242.4 192.9,250.2 116.8,0.2 67.4,0.2 "/>
<linearGradient id="SVGID_9_" gradientUnits="userSpaceOnUse" x1="318.1436" y1="281.194" x2="318.1436" y2="99.4727">
	<stop  offset="0" style="stop-color:#FFA033"/>
	<stop  offset="0.3271" style="stop-color:#FFB333"/>
	<stop  offset="0.6809" style="stop-color:#FFC033"/>
	<stop  offset="1" style="stop-color:#FFC533"/>
</linearGradient>
<polygon class="st25" points="467.1,61.3 169.2,242.4 192.9,250.2 "/>
<linearGradient id="SVGID_10_" gradientUnits="userSpaceOnUse" x1="83.7553" y1="-26.0154" x2="84.1943" y2="203.2066">
	<stop  offset="0" style="stop-color:#FFA033"/>
	<stop  offset="0.3271" style="stop-color:#FFB333"/>
	<stop  offset="0.6809" style="stop-color:#FFC033"/>
	<stop  offset="1" style="stop-color:#FFC533"/>
</linearGradient>
<polygon class="st26" points="138.2,229.5 159.4,238.4 59.3,0.2 8.7,0.2 "/>
<linearGradient id="SVGID_11_" gradientUnits="userSpaceOnUse" x1="302.6342" y1="268.7914" x2="302.6342" y2="90.613">
	<stop  offset="0" style="stop-color:#FFA033"/>
	<stop  offset="0.3271" style="stop-color:#FFB333"/>
	<stop  offset="0.6809" style="stop-color:#FFC033"/>
	<stop  offset="1" style="stop-color:#FFC533"/>
</linearGradient>
<polyline class="st27" points="467.1,53.1 138.2,229.5 159.4,238.4 "/>
</svg>
