<?xml version="1.0" encoding="utf-8"?>
<!-- Generator: Adobe Illustrator 25.0.1, SVG Export Plug-In . SVG Version: 6.00 Build 0)  -->
<svg version="1.1" id="Layer_1" xmlns="http://www.w3.org/2000/svg" xmlns:xlink="http://www.w3.org/1999/xlink" x="0px" y="0px"
	 viewBox="0 0 595.3 841.9" style="enable-background:new 0 0 595.3 841.9;" xml:space="preserve">
<style type="text/css">
	.st0{fill:#FFFFFF;}
	.st1{fill:#F2F5F7;}
	.st2{fill:none;stroke:#F2F5F7;stroke-miterlimit:10;}
</style>
<g id="Layer_2_1_">
	<path class="st0" d="M292.2,575.7"/>
	<path class="st0" d="M248,598.5c-0.4-5.8,2.3-11.8,7-15.3c2.3-1.7,5-2.9,7.3-4.7c6-4.7,7.8-12.8,9.4-20.2
		c3.5-17.1,6.8-35.6-0.3-51.6c-3.6-8-9.5-14.6-15.3-21.1c-6.8-7.5-13.5-15-20.2-22.6c-2.5-2.8-5.2-5.7-8.8-6.9
		c-3.6-1.2-7.5-0.4-11.3-0.7c-9.8-0.7-17.9-8.2-27.6-9.8c-2.9-0.5-6-0.4-8.9-0.9c-14.4-2.5-22.6-18.2-24.9-32.7
		c-0.3-2-0.5-4.2,0.9-5.7c1-1.1,2.5-1.4,3.9-1.6c6.2-1.2,12.5-2.3,18.7-3.5c1.4-0.3,2.9-0.6,4-1.5c1-0.9,1.4-2.3,1.9-3.6
		c3.5-9,12.2-15.7,21.7-16.8c3.1-0.4,6.5-0.3,8.8-2.3c1.8-1.6,2.5-4.1,3.6-6.3c3-5.8,9.6-9.2,16.2-9.6c4.5-0.3,9.2,0.8,12.5,3.9
		c2.4,2.3,3.7,5.4,6.1,7.8c4.9,5,12.8,5.1,19.5,7c6.6,1.9,12.5,5.6,18.8,8.5c25.5,11.8,55,9.1,82.9,7.1c10.2-0.8,20.4-1.4,30.6-1
		c13.6,0.5,27.1,2.7,40,6.6c3.9,1.2,8,2.6,10.8,5.6c3.9,4.2,4.5,10.3,5,16c0.6,8.5,1.3,17,2,25.5c0.7,8.7,1.3,17.4,0.5,26.1
		c-1,11.6-4.6,22.9-6.3,34.4c-2.6,18.1-0.5,36.5-1.9,54.7c-0.9,12.6-4.6,26.7-15.5,32.9c-6.8,3.9-15.1,3.9-22.9,3.8
		c-19.2-0.2-38.4-0.4-57.6-0.5c1.3-10.4,11.5-18.9,21.9-18.4c0.7-15,2.8-29.8,6.3-44.4c-14.3,0.4-28.7-0.9-42.7-3.9
		c-0.4,7.7-0.8,15.3-1.1,23c-0.4,7.8-0.8,15.8-3.4,23.2s-7.8,14.3-15.1,17.1c-4.6,1.8-9.8,1.8-14.7,1.8c-21.1,0-42.2,0-63.3,0"/>
	<ellipse cx="198.1" cy="399.8" rx="3.2" ry="6.5"/>
	<path d="M158.5,418.7c0,0,6.3-12,0.3-14.1c0,0-9.3,0.5-4.8,7.3C154.1,411.9,153.3,418.4,158.5,418.7z"/>
	<path class="st1" d="M358.2,599.5c0,0,2.3-16.7,21.9-18.4l6.3-44.4l26.8,1.9l-3.7,40.4c0,0-24.5,10.2-15.9,20.8L358.2,599.5z"/>
	<g>
		<path class="st1" d="M213.6,375.7c0.9,0.8,1.9,1.1,3.1,1.2c1.7,0.1,3.5,0.1,5.2,0c2.6-0.2,4.8-1.9,6.5-3.8c1.8-2,3-4.4,4.8-6.3
			c0.8-0.9,1.7-1.8,2.8-2.4c0.5-0.3,1-0.5,1.5-0.7c0.2,0,0.4-0.1,0.5-0.1c0.9-0.1,0.4-0.2-1.5-0.1c-3.2,0-1.8-0.1-0.9,0.2
			c0.7,0.2,1.7,0,2.5,0s1.8-0.2,2.5,0c-1.4-0.4-2.8-0.2-4.2-0.2c-1.2,0-2.6-0.1-3.8,0.3c-2.2,0.7-3.9,2.5-5.3,4.2
			c-1.5,1.9-2.6,4-4.3,5.7c-0.8,0.8-1.8,1.6-2.8,2.2c-0.5,0.3-1.1,0.6-1.6,0.8c-0.3,0.1-0.5,0.2-0.8,0.2c-0.1,0-0.2,0-0.3,0
			c-1.5,0.2-0.4,0.2,3.5,0c0.1,0,0.2,0,0.3,0c-1.1-0.1-1.9-0.5-2.7-1.1c-0.1-0.1-0.7,0-0.7,0c-0.6,0-1.2,0-1.8,0s-1.2,0-1.8,0
			C214.2,375.7,213.7,375.8,213.6,375.7L213.6,375.7z"/>
	</g>
	<g>
		<path class="st1" d="M396,559.5c0.2,0,2.5,0,2.5,0C398.5,559.4,396.1,559.5,396,559.5c-0.2,0-2.5,0-2.5,0
			C393.6,559.5,396,559.5,396,559.5L396,559.5z"/>
	</g>
	<path class="st2" d="M290.4,597.5"/>
	<path class="st1" d="M247.2,597.3c0,0,2.3-18.9,21.9-20.8l5.4-42.6l1-7.6l26.8,2.1l-3.7,45.7c0,0-24.5,11.5-15.9,23.6L247.2,597.3z
		"/>
	<path class="st1" d="M304.2,528.5c0,0-13.5-3.2-22.9-8.7c-5.9-3.5-10.1-7.9-8.1-13.1l3.3,27.3L304.2,528.5z"/>
	<path class="st1" d="M455,406.6"/>
	<path class="st0" d="M455,406.6c0,0,32.9,15.6,26.8,46.3c0,0,1,35.1-25.7,55.8L455,406.6z"/>
</g>
</svg>
