<?xml version="1.0" encoding="utf-8"?>
<!-- Generator: Adobe Illustrator 24.3.0, SVG Export Plug-In . SVG Version: 6.00 Build 0)  -->
<svg version="1.1" id="Layer_1" xmlns="http://www.w3.org/2000/svg" xmlns:xlink="http://www.w3.org/1999/xlink" x="0px" y="0px"
	 viewBox="0 0 566.93 566.93" style="enable-background:new 0 0 566.93 566.93;" xml:space="preserve">
<style type="text/css">
	.st0{fill:#9CD2E7;}
	.st1{fill:#FFFFFF;}
	.st2{fill:none;stroke:#000000;stroke-width:2;stroke-linecap:round;stroke-miterlimit:10;}
	.st3{stroke:#000000;stroke-width:2;stroke-linecap:round;stroke-linejoin:round;stroke-miterlimit:10;}
	.st4{fill:#FCC533;}
	.st5{fill:#FFC533;}
	.st6{font-family:'Futura-Bold';}
	.st7{font-size:12px;}
</style>
<path class="st0" d="M454,422.8c3.18-42.35,120.68-149.08,91.27-212.97c-29.41-63.89-69.97-55.78-97.36-93.3
	C420.53,79.01,311.01,20.19,274.5,19.18c-36.51-1.01-154.15-8.11-180.51,26.37S30.1,112.48,29.08,164.2
	c-1.01,51.72-1.01,124.74,21.3,172.4s141.98,161.25,184.57,168.35C277.54,512.05,450.96,463.37,454,422.8z"/>
<path class="st1" d="M75.84,172.71c0,0-24.97-9.36-14.36-18.1c10.61-8.74,18.73-10.61,22.47-15.61c3.75-4.99,5.62-17.48,17.48-18.73
	s30.59,1.25,50.56-7.49s25.59-39.95,40.57-45.57c14.98-5.62,42.45-9.36,53.68-3.75s28.71,2.5,37.45,5.62
	c8.74,3.12,9.99,8.11,19.98,11.24c9.99,3.12,17.48,3.75,20.6,4.99c3.12,1.25-3.12,6.87,5.62,14.36
	c8.74,7.49,15.61,13.11,19.98,22.47c4.37,9.36,7.49,19.35,16.23,24.34c8.74,4.99,16.23,9.99,9.99,18.73s-32.46,19.98-35.58,35.58
	s-0.62,36.83-8.11,43.07c-7.49,6.24-18.73-3.12-29.34,4.99c-10.61,8.12-23.1,18.73-29.96,28.09c-6.87,9.36-32.46,14.36-45.57,22.47
	c-13.11,8.11-24.97,19.35-36.21,28.09s-29.96,6.87-37.45,9.36c-7.49,2.5-13.11,1.25-16.23-6.24c-3.12-7.49-9.99-8.12-13.73-11.86
	c-3.75-3.75-6.24-5.62-2.5-10.61c3.75-4.99,0.62-9.99-8.11-8.74c-8.74,1.25-13.11-1.25-13.11-12.48s4.37-17.48,3.75-23.72
	c-0.62-6.24-6.87-7.49-8.11-11.24s2.5-8.74-3.75-13.11c-6.24-4.37-10.61,0.62-16.23-3.12c-5.62-3.75-10.61-6.24-8.74-16.85
	c1.87-10.61-3.12-11.86-1.87-20.6c1.25-8.74-0.62-10.61,4.37-14.98S75.84,172.71,75.84,172.71z"/>
<path class="st2" d="M162.65,133.85c0,0,14.36-0.62,34.33,8.11s38.7,23.72,49.31,47.44c10.61,23.72,6.87,53.68,6.87,53.68"/>
<polygon class="st3" points="241.31,246.48 253.66,248.4 245.7,255.26 "/>
<g>
	<path class="st2" d="M75.88,275.01c0,0-7.72-12.12-10.14-33.79c-2.42-21.67,1.19-45.38,16.43-66.43S125.23,142,125.23,142"/>
	<polygon class="st3" points="126.49,147.71 121.98,136.05 131.9,139.51 	"/>
</g>
<g>
	<path class="st2" d="M237.13,279.31c0,0-6.64,12.75-24.19,25.68c-17.56,12.93-39.89,21.66-65.74,18.99
		c-25.85-2.67-49.92-20.9-49.92-20.9"/>
	<polygon class="st3" points="101.58,299.14 93.74,308.87 91.78,298.55 	"/>
</g>
<g>
	<path class="st2" d="M177.19,265.27c0,0-7.08,6.8-27.76,7.65s-26.06-4.82-32.57-8.5"/>
	<polygon class="st3" points="113.26,266.63 119.18,260.01 110.96,257.8 	"/>
</g>
<g>
	<path class="st2" d="M198.13,188.43c0,0,6.8,7.08,7.65,27.76c0.85,20.68-4.82,26.06-8.5,32.57"/>
	<polygon class="st3" points="199.49,252.36 192.87,246.44 190.66,254.67 	"/>
</g>
<g>
	<path class="st2" d="M104.9,221.51c0,0,2.96-21.05,20.44-32.12c17.48-11.07,24.97-8.86,32.46-8.93"/>
	<polygon class="st3" points="159.81,176.76 158,185.45 166.22,183.25 	"/>
</g>
<line class="st2" x1="178.36" y1="55.51" x2="263.19" y2="97.5"/>
<polygon class="st3" points="265.31,94.29 261.01,101.45 268.93,101.54 "/>
<line class="st2" x1="279.96" y1="105.5" x2="364.79" y2="147.48"/>
<polyline class="st3" points="370.53,151.52 366.91,144.27 362.61,151.44 "/>
<line class="st2" x1="392.1" y1="162" x2="476.92" y2="203.99"/>
<polyline class="st3" points="482.67,208.02 479.04,200.78 474.75,207.94 "/>
<path class="st4" d="M379.77,186.89c0,0,17.04,15.82,26.17,19.17c9.13,3.35,29.51,2.13,39.56,3.35
	c10.04,1.22,18.87,5.48,17.95,10.04c-0.91,4.56-2.74,7.91,3.65,8.22c6.39,0.3,17.34,4.56,18.26,7.61s6.69,3.65,12.78,3.35
	s8.52,3.04,4.26,8.22c-4.26,5.17-8.22-1.22-13.08,3.65c-4.87,4.87-7,8.82-3.35,10.04c3.65,1.22,9.13,9.43,13.69,6.39
	c4.56-3.04,0.61-8.82,4.26-12.48c3.65-3.65,4.56-14.91,8.22-7.91c3.65,7,7,14.61,8.22,21.6s-0.3,20.69-4.87,22.21s0,4.87,3.96,11.56
	c3.96,6.69,12.17,18.56,8.82,24.34s-8.52-2.43-7.3,4.56c1.22,7,0,15.52,4.56,19.78s10.04,1.52,14.3,8.82s-0.3,10.65,2.74,15.21
	c3.04,4.56,5.48,3.04,11.56,8.52c6.09,5.48,12.48,10.04,11.56,17.65c-0.91,7.61-8.52,11.87-15.21,6.69
	c-6.69-5.17-8.52-0.91-8.82,3.65s1.22,5.17-10.65,5.78c-11.87,0.61-29.21-4.26-31.04-9.43c-1.83-5.17,2.43-11.56-2.13-11.26
	c-4.56,0.3,3.65,7-5.48,7.3c-9.13,0.3-9.74-7.61-14.61-9.43c-4.87-1.83-12.78-10.35-16.13-11.87s-7.3-11.26-7-16.43
	c0.3-5.17,2.74-7.3-0.61-13.08c-3.35-5.78-3.04-5.78-7.91-3.96c-4.87,1.83-6.09,3.96-3.65,6.69c2.43,2.74,7.61,5.17,3.04,5.78
	s-8.52,3.04-10.65-1.52c-2.13-4.56-5.48-13.69-2.13-14.61s7-4.56,3.04-4.26c-3.96,0.3-12.78-8.82-13.69-6.69s7,9.74,1.83,11.26
	c-5.17,1.52-7-6.69-10.35-8.82c-3.35-2.13-13.08-7-15.82-9.74s-10.95-10.35-14.61-11.56c-3.65-1.22-8.52-3.96-14.91-1.52
	c-6.39,2.43-10.35,8.82-10.95,10.95s-7.61,3.04-9.13,0.61c-1.52-2.43,1.83-8.52-3.04-7.61c-4.87,0.91-11.87-2.13-7-4.56
	c4.87-2.43,13.69-3.04,8.52-4.87c-5.17-1.83-13.69,3.96-15.82-0.61c-2.13-4.56-1.22-9.43,2.74-14.3c3.96-4.87,7.61-11.56,5.17-14.3
	c-2.43-2.74-6.39,2.13-7-1.52c-0.61-3.65-3.65-7-1.22-14c2.43-7,0.91-6.09,3.96-12.78c3.04-6.69,4.87,0.61,7.3-3.96
	c2.43-4.56,7,0.3,2.13-6.39s-3.96-6.09,0.3-7c4.26-0.91,0.3-5.17-2.13-7.61c-2.43-2.43-1.52-1.22-1.22-7.3
	c0.3-6.09-0.3-13.69,5.78-17.34s7,0.3,10.04-3.04c3.04-3.35,3.65-0.61,6.09,3.04s6.39,7.3,5.48,2.13c-0.91-5.17-3.96-6.09-0.61-7.3
	s2.43,0.91,4.26,3.65c1.83,2.74,2.43,3.04,2.13-3.04c-0.3-6.09-4.26-8.52-0.3-10.65C377.64,183.85,379.77,186.89,379.77,186.89z"/>
<path class="st4" d="M303.06,248.86c4.33-0.93,16.13-4.75,19.31-3.16c3.19,1.59,7.33,6.69,5.42,13.39c-1.91,6.69,0.32,16.89-0.96,22
	c-1.28,5.1-6.69,13.39-8.29,16.89c-1.59,3.51,2.55,0.32,4.46,5.42s0.32,3.19-0.96,10.2s-1.59,11.16,0.64,14.66
	c2.23,3.51,0.32,6.38-3.83,7.65c-4.14,1.28-7.65-0.96-10.52,0c-2.87,0.96-1.28-1.59-7.33,0c-6.06,1.59-11.16,4.78-10.2,0
	c0.96-4.78,5.1-3.51,4.46-7.01c-0.64-3.51-4.46-4.46-1.59-7.65c2.87-3.19,6.06,3.51,7.65,0c1.59-3.51-0.32-4.14-3.19-7.33
	c-2.87-3.19-7.33-6.69-2.87-8.61s6.38-1.28,3.19-5.42c-3.19-4.14-4.14-2.87-3.83-6.69c0.32-3.83-7.65-10.2-9.88-12.75
	c-2.23-2.55-6.06-4.78-3.83-7.97c2.23-3.19,7.97-5.42,10.52-8.61s6.06-4.46,7.65-8.93C300.69,250.49,303.06,248.86,303.06,248.86z"
	/>
<path class="st4" d="M278.06,277.58c3.17,0.86,5.1,6.06,7.65,8.93s4.14,1.59,6.06,6.06c1.91,4.46,6.38,10.52,3.51,12.75
	c-2.87,2.23-6.06,13.07-10.52,9.88s-9.88-7.01-7.01-9.88c2.87-2.87,0-1.28-2.55-5.1s-3.51-7.97-2.55-10.52
	c0.96-2.55-1.59-7.97,0.32-9.24S274.55,276.63,278.06,277.58z"/>
<path class="st4" d="M266.98,293.18c1.02,2.34,2.78,4.97,0.44,6.13c-2.34,1.17-2.19,0.29-3.07-2.34c-0.88-2.63-3.65-2.92-1.75-4.82
	c1.9-1.9,2.34-1.61,3.36-0.29C266.98,293.18,266.98,293.18,266.98,293.18z"/>
<path class="st4" d="M271.51,311.73c1.31,1.75,4.24,2.19,3.51,5.99s-4.38,8.33-5.7,4.53c-1.31-3.8-1.31-7.01-2.34-9.06
	c-1.02-2.04-1.17-5.11,0.15-4.67C268.44,308.95,271.51,311.73,271.51,311.73z"/>
<path class="st4" d="M284.51,323.41c-1.66,2.93,2.48,7.01,3.51,4.82C289.04,326.04,286.99,319.03,284.51,323.41z"/>
<path class="st4" d="M278.37,323.85c0.87,2.91-3.65,3.07-5.4,2.04c-1.75-1.02-1.02-3.51,1.61-3.07
	C277.21,323.26,277.5,320.93,278.37,323.85z"/>
<path class="st4" d="M278.96,334.8c3.39,1.7,5.84-1.9,6.72,2.19c0.88,4.09-1.31,4.67,2.04,5.84c3.36,1.17,3.8-0.15,5.84,2.04
	c2.04,2.19,5.7,2.48,8.62,1.9c2.92-0.58,1.9-4.24,5.84-4.97c3.94-0.73,6.57-2.19,10.22-0.15c3.65,2.04,4.67,0.15,5.26,4.82
	c0.58,4.67,1.75,7.59-1.9,8.76s-2.78,3.51-5.4,3.36c-2.63-0.15-1.75-4.24-4.09-2.78c-2.34,1.46-5.11,3.07-7.89,3.8
	c-2.78,0.73-5.84,4.53-7.89,2.63c-2.04-1.9,1.46-5.84-2.04-3.65c-3.51,2.19-3.8,1.9-7.89,1.31s-4.09-1.02-3.65-5.4
	c0.44-4.38,3.51-3.36,0.88-7.01s0.29-4.97-3.51-5.4c-3.8-0.44-6.28,2.04-7.45-0.58c-1.17-2.63-0.58-3.21-2.63-3.94
	c-2.04-0.73-4.38-1.9-1.02-3.94c3.36-2.04,3.8-2.63,7.16-1.61S277.21,333.93,278.96,334.8z"/>
<path class="st4" d="M276.77,349.7c4.77,3.18,5.4,8.47,2.19,10.08s-3.65,1.46-5.4-0.58c-1.75-2.04-2.78,0-3.65-2.78
	c-0.88-2.78-0.29-1.9,1.75-3.94C273.7,350.43,273.7,347.66,276.77,349.7z"/>
<path class="st4" d="M267.86,343.42c1.28,4.53,1.31,12.27-3.8,13s-7.01-1.17-8.76-4.53c-1.75-3.36-2.34-1.31-5.11-4.24
	c-2.78-2.92-0.44-5.99-1.9-9.06c-1.46-3.07-5.7-5.55-0.58-4.97c5.11,0.58,5.4,5.4,7.45,3.36c2.04-2.04-0.44-4.97,3.51-3.65
	C262.6,334.66,266.25,337.72,267.86,343.42z"/>
<path class="st4" d="M251.79,299.75c5.68-1.62,16.8,18.11,12.56,21.03s-1.46-0.58-6.13-3.51c-4.67-2.92-10.52-4.82-8.03-6.43
	c2.48-1.61,5.55-0.44,3.36-2.78C251.35,305.74,247.7,300.92,251.79,299.75z"/>
<path class="st4" d="M247.85,320.64c4.32,1.9,4.97,10.52,1.31,8.91C245.51,327.94,242.88,318.44,247.85,320.64z"/>
<path class="st4" d="M236.31,304.13c5.07-0.36,4.67,9.93-2.19,6.72C227.26,307.64,224.04,305.01,236.31,304.13z"/>
<path class="st4" d="M232.51,312.02c3.12,2.08,10.95,1.61,5.55,3.65c-5.4,2.04-1.02,4.97-5.84,5.4c-4.82,0.44-4.97,0-6.28-3.21
	c-1.31-3.21-5.7-2.04-2.92-5.26C225.79,309.39,229.01,309.68,232.51,312.02z"/>
<path class="st4" d="M219.81,315.52c0.07,2.84-0.29,9.06-4.53,9.93s-3.51-2.34-6.13-1.17c-2.63,1.17-1.02,2.04-5.4,3.65
	c-4.38,1.61-6.72,2.48-7.16-0.58c-0.44-3.07,2.63-4.09,3.94-5.55c1.31-1.46,5.7-7.16,7.89-7.45S219.66,309.39,219.81,315.52z"/>
<path class="st4" d="M220.1,332.03c0.15,3.07,5.84-0.58,4.97,5.4c-0.88,5.99,1.31,9.2-2.92,9.2s-3.21-5.55-6.57-5.26
	s-2.92,4.53-5.7,2.78c-2.78-1.75-5.55-2.34-4.38-5.99c1.17-3.65,4.97-1.17,5.7-3.94c0.73-2.78,2.19-7.3,4.67-7.3
	S219.95,329.11,220.1,332.03z"/>
<path class="st4" d="M204.62,331.74c1.66,2.11,0.44,4.67-2.34,3.51C199.5,334.07,202.43,328.96,204.62,331.74z"/>
<path class="st4" d="M233.83,327.5c4.32,0.36,0.58,3.36,1.75,8.91c1.17,5.55,3.07,9.79,3.51,7.59c0.44-2.19-1.31-5.7,1.17-5.99
	c3.39-0.4,3.21,2.78,2.48,6.57s-0.44,7.89-6.13,7.59s-10.52,0-15.34,1.02c-4.82,1.02-8.62,0.58-8.62-1.75c0-2.34-0.88-3.8,3.51-4.24
	s8.91-0.29,10.22-2.34C227.69,342.84,230.32,327.21,233.83,327.5z"/>
<path class="st4" d="M264.12,366.62c2.46,4.25-1.08,9.27-1.51,12.07c-0.43,2.8,4.74,2.16,5.6,4.1c0.86,1.94-2.37,12.93-3.45,14.87
	s-1.08-5.39-3.66-3.02s0,10.56-2.8,8.62c-2.8-1.94-3.88-11.64-5.6-13.15c-1.72-1.51-10.78-3.02-8.41-6.68
	c2.37-3.66,7.76-2.16,8.62-4.1c0.86-1.94-2.8-4.31-1.29-6.47C253.13,370.71,261.75,362.52,264.12,366.62z"/>
<path class="st4" d="M279.64,366.19c3.14,0,13.58-1.51,12.72,1.51c-0.86,3.02-4.1,5.39-4.74,9.48c-0.65,4.1-1.72,7.33-4.31,6.47
	c-2.59-0.86-0.43,3.02-2.8,5.17s-5.39,3.88-6.25-0.65c-0.86-4.53-1.29-12.29-1.29-14.87C272.96,370.71,276.41,366.19,279.64,366.19z
	"/>
<path class="st4" d="M337.41,365.11c2.14,0.82,8.84,4.1,7.11,5.82c-1.72,1.72-5.17,0.22-7.54,1.08c-2.37,0.86-3.23,4.1-5.82,3.23
	c-2.59-0.86-3.66-4.74-1.29-9.27S332.88,363.39,337.41,365.11z"/>
<path class="st4" d="M323.18,369.21c3.48,4.14,3.45,7.11,5.17,11.42c1.72,4.31,7.33-3.88,10.35-4.74c3.02-0.86,7.76-4.31,10.13-1.72
	c2.37,2.59,3.02,6.68,7.33,6.68c4.31,0,9.05-3.88,12.5-1.08c3.45,2.8,1.94,2.16,4.96,4.74c3.02,2.59,6.68,1.08,9.48,2.16
	s18.11,7.98,15.95,10.56c-2.16,2.59-7.54,5.39-4.74,8.19c2.8,2.8,1.94-3.02,4.74-0.65c2.8,2.37,1.51,4.74,5.17,5.17
	c3.66,0.43,8.41-3.88,11.64-2.8c3.23,1.08,6.04,3.88,10.35,3.45c4.31-0.43,10.13-3.02,10.99,0.65c0.86,3.66-2.59,4.74-1.72,7.11
	c0.86,2.37,5.17,3.45,3.45,5.17c-1.72,1.72-7.54,1.29-5.39,4.74s8.84,9.27,4.74,8.19s-23.93-10.35-23.71-6.04
	c0.22,4.31,17.24,11.21,20.91,14.44c3.66,3.23,9.05,3.88,8.19,7.76c-0.86,3.88-1.72,5.17,1.08,7.11c2.8,1.94,8.84,5.39,4.31,6.68
	c-4.53,1.29-22.63-6.25-23.71-2.16c-1.08,4.1,8.41,4.74,12.5,5.82c4.1,1.08,9.48-1.72,12.07,1.94c2.59,3.66,1.08,5.6-4.53,5.39
	s-18.97-0.22-21.99,1.72c-3.02,1.94-4.31,4.53-15.09-1.94s-13.58-12.29-20.48-9.48c-6.9,2.8-11.42,10.56-17.24,7.54
	c-5.82-3.02-14.01-6.47-7.33-11.42c6.68-4.96,20.48-5.17,20.05-11.21c-0.43-6.04,5.39-23.93-1.29-27.38s-22.2-6.04-26.08-8.62
	c-3.88-2.59-7.54-9.7-10.56-6.47c-3.02,3.23-4.53,5.39-8.19,3.02s-9.48-3.88-12.29-1.08c-2.8,2.8-4.53-3.02-8.19-0.22
	c-3.66,2.8-8.84,8.84-14.01,2.59c-5.17-6.25-9.92-10.99-5.17-10.13c4.74,0.86,9.48,2.59,7.54-0.43c-1.94-3.02-8.62-0.86-8.84-4.74
	c-0.22-3.88-1.72-15.95,0.65-20.26c2.37-4.31,8.19-11.42,10.35-10.13s-0.43,7.76,0,11.86c0.43,4.1-0.65,12.5,1.51,13.58
	c2.16,1.08,1.29,6.25,4.31,6.47c3.02,0.22,8.62-1.08,3.88-5.6c-4.74-4.53-6.68-1.72-6.04-8.41
	C311.55,379.98,314.13,358.43,323.18,369.21z"/>
<path class="st4" d="M368.88,428.27c-1.11,5.34-6.04,16.17-8.62,3.02S370.18,422.02,368.88,428.27z"/>
<path class="st4" d="M281.6,566.97c-2.09-7.68,0.07-50.78,15.86-63.21c15.79-12.43-28.22-5.37-28.22-10.41s11.42-3.36,18.14-1.68
	c6.72,1.68,10.41,7.05,13.44,3.02c3.02-4.03,12.43,1.68,13.1-6.05c0.67-7.73,10.08-9.07,2.02-13.1c-8.06-4.03-19.82-2.02-15.79-4.03
	c4.03-2.02,3.7-1.68,11.09-2.02c7.39-0.34,7.73-2.69,8.06-6.38c0.34-3.7,0-10.08,4.03-8.06c4.03,2.02,14.78,1.68,15.79-6.05
	c1.01-7.73-3.7-11.76-5.04-15.45c-1.34-3.7,3.02-4.37,1.01-8.06c-2.02-3.7-16.46-11.76-17.47-7.39s4.03,6.72,2.69,10.75
	c-1.34,4.03-2.35,11.42-4.03,13.77c-1.68,2.35-0.34,11.42-4.37,8.06c-4.03-3.36-6.72-5.37-6.38-9.07c0.34-3.7,4.37-7.39,0-10.08
	s-2.69-0.67-6.38,1.68c-3.7,2.35-2.69,4.7-5.71-1.68c-3.02-6.38-5.71-4.03-6.38-10.75c-0.67-6.72-3.36-26.54-8.4-26.2
	c-5.04,0.34-12.09,10.08-10.08,17.47s3.7,11.42,7.73,11.09c4.03-0.34,5.37-0.67,4.03,4.7c-1.34,5.37-4.37,12.77-5.71,18.81
	c-1.34,6.05-1.34,15.45-4.37,14.11c-3.02-1.34,4.37-8.73-1.68-10.75c-6.05-2.02-25.87-3.02-30.91-6.05
	c-5.04-3.02-7.05-10.41-11.09-9.41s-10.75-1.68-12.43,3.02c-1.68,4.7,4.03,10.41,1.34,12.77c-2.69,2.35-1.34,9.41-5.37,4.7
	s-0.34-18.48-4.37-19.48s-25.53-0.34-26.2-3.7c-0.67-3.36,13.77-4.03,6.72-11.09c-7.05-7.05-17.13-13.44-20.83-20.83
	c-3.7-7.39-12.43-9.07-14.78-9.74c-2.35-0.67,1.34-16.8-7.05-18.81c-8.4-2.02-19.82,0.67-23.85-2.02s-10.75-10.08-13.44-6.38
	s-4.7,4.7-6.72-0.34c-2.02-5.04,3.02-20.16-5.37-26.54s-13.1-12.43-14.44-20.83c-1.34-8.4,0-15.12-5.71-20.16
	c-5.71-5.04,7.73-2.69-11.42-18.48c-19.15-15.79-18.81-8.4-25.87-11.42c-7.05-3.02-8.73-19.15-14.78-11.42
	c-6.05,7.73-10.08,21.5-12.09,28.22c-2.02,6.72,7.39,14.44-1.68,12.43c-9.07-2.02-8.14-2.55-8.14-2.55l0.1,275.04H281.6z"/>
<path class="st5" d="M410.25,130.98c-3.8-6.51-5.44-15.08,0-12.15c5.44,2.93,10.05,3.77,14.24,0c4.19-3.77,14.24-12.15,5.03-11.31
	c-9.21,0.84-23.03,5.86-21.36,1.68s13.4-9.63,6.7-11.31c-6.7-1.68-11.73-1.26-13.4,4.61s-0.84,10.89-2.93,14.24
	c-2.09,3.35-8.79,2.51-8.38,7.12c0.42,4.61,5.03-2.09,5.44,2.51c0.42,4.61-2.51,11.73,1.68,10.47S413.19,136,410.25,130.98z"/>
<path class="st5" d="M392.66,110.88c-1.74-3.83-5.86-7.96-10.05-6.28c-4.19,1.68-6.28,3.35-3.35,6.7c2.93,3.35,1.26,5.44,1.68,7.54
	c0.42,2.09,0.42,7.54,3.77,5.03C388.06,121.35,394.76,115.48,392.66,110.88z"/>
<path class="st5" d="M347.85,68.99c3.03,4.54,7.12,10.47-0.42,11.31c-7.54,0.84-11.73,5.86-11.73,1.26s8.38-7.54,3.77-10.05
	s-12.56-8.38-12.15-10.89c0.42-2.51,0.84-5.03,3.77-1.68C334.03,62.29,345.34,65.23,347.85,68.99z"/>
<path class="st5" d="M319.79,63.13c-2.44,2.05,2.93,20.1,7.96,14.24C332.77,71.51,327.75,56.43,319.79,63.13z"/>
<path class="st5" d="M260.32,41.77c3.12,6.87,5.86,19.27-1.26,20.94c-7.12,1.68-6.28-0.42-10.05-8.38c-3.77-7.96-5.44-1.26-6.7-4.61
	c-1.26-3.35,3.77-7.96-1.26-8.79c-5.03-0.84-1.26,4.19-6.7,3.35c-5.44-0.84-12.56-0.84-9.21-6.28c3.35-5.44,7.54-17.59,11.31-11.73
	c3.77,5.86,2.51,10.05,7.12,9.63C248.18,35.49,258.23,37.17,260.32,41.77z"/>
<path class="st5" d="M243.29-0.01c-8.38,1.26-13.96,5.35-13.96,13.31s-7.12,15.5-11.31,10.47c-4.19-5.03-2.09-10.05-5.86-9.21
	c-3.77,0.84-3.77,7.12-11.31,5.86c-7.54-1.26-9.28-18.25-16.81-20.35L243.29-0.01z"/>
<path class="st5" d="M144.49,0.05c-1.68,6.7,9.87,9.89,1.92,14.08c-7.96,4.19-13.82,10.89-18.85,3.35s-14.24-15.5-19.68-12.15
	c-5.44,3.35,6.28,10.47,0,12.98c-6.28,2.51-7.54,9.63-11.73,11.31c-4.19,1.68-7.54-0.42-6.28,5.86c1.26,6.28,1.96,4.62,4.12,10.06
	c2.16,5.44,2.58,10.47-3.28,13.82c-5.86,3.35-12.98-8.38-12.56-0.42s9.21,13.4,0.42,15.08c-8.79,1.68-20.94-5.03-23.45,5.03
	c-2.51,10.05-0.42,25.13-10.05,28.48s-14.24-7.54-18.43,1.68s3.77,12.98-2.93,20.52c-6.7,7.54-19.68,14.66-8.79,17.59
	c10.89,2.93,21.66,6.55,14.18,16.89c-7.48,10.34-8.91,54.9-29.02,51.97L0.07,0.08L144.49,0.05z"/>
<path class="st5" d="M106.62,50.99c3.19,3.19-0.84,14.66-7.54,12.56C92.38,61.46,102.85,47.22,106.62,50.99z"/>
<path class="st5" d="M132.58,58.94c4.44,5.33,2.09,8.38-2.09,12.15c-4.19,3.77-6.28,8.38-9.21,12.98
	c-2.93,4.61-11.73,19.27-15.91,13.82s-5.86-12.98,1.26-14.66c7.12-1.68,11.73-2.93,9.63-7.96c-2.09-5.03-2.09-1.26,1.26-7.12
	C120.86,62.29,128.4,53.92,132.58,58.94z"/>
<path class="st5" d="M40.03,187.1c6.47-2.16,16.33,7.96,2.93,12.15C29.56,203.43,37.51,187.94,40.03,187.1z"/>
<path class="st5" d="M189.96,341.22c5.1,6.56,20.94,10.47,12.15,17.17c-8.79,6.7-15.5,6.7-20.94,14.24
	c-5.44,7.54-9.63,12.98-14.24,4.61c-4.61-8.38-10.05-14.24-2.51-19.27c7.54-5.03,8.38-15.5,13.82-18.43
	C183.68,336.61,187.03,337.45,189.96,341.22z"/>
<path class="st5" d="M214.67,374.31c4.4-4.4,6.28-4.19,7.12,3.77s2.51,21.78,2.93,12.98s-4.19-26.8,1.68-20.1
	c5.86,6.7,9.63,7.54,10.05,15.5s-4.19,12.56,1.26,16.75c5.44,4.19,12.98,10.47,10.89,15.91s-8.38-3.35-6.28,2.51
	c2.09,5.86,6.7,10.47-2.93,8.79s-7.96-5.44-14.24-7.54s-2.51,0-11.31,1.68s-15.5,2.51-20.52-2.09c-5.03-4.61,3.77-7.12-4.61-10.89
	c-8.38-3.77-15.5-5.03-8.38-7.96c7.12-2.93,16.75,5.86,19.27,2.51c2.51-3.35,2.09-7.12-3.35-10.05c-5.44-2.93-7.96,0.42-11.31-3.77
	c-3.35-4.19,3.77-6.28,1.26-10.47c-2.51-4.19-5.03-12.98,7.96-14.66C207.13,365.51,210.48,378.49,214.67,374.31z"/>
<text transform="matrix(0.8981 0.4398 -0.4398 0.8981 208.4815 111.4738)" class="st6 st7">The North Pole</text>
<text transform="matrix(1 0 0 1 141.0149 211.581)"><tspan x="0" y="0" class="st6 st7">The </tspan><tspan x="-16.76" y="14.4" class="st6 st7">Beaufort </tspan><tspan x="-2.97" y="28.8" class="st6 st7">Gyre</tspan></text>
<text transform="matrix(0.8981 0.4398 -0.4398 0.8981 252.7427 75.998)" class="st6 st7">Transpolar drift</text>
<text transform="matrix(0.6913 -0.7226 0.7226 0.6913 384.4549 294.2946)" class="st6 st7">Greenland</text>
<text transform="matrix(0.8281 0.5606 -0.5606 0.8281 64.9757 450.2312)" class="st6 st7">Canada</text>
<text transform="matrix(0.7312 -0.6822 0.6822 0.7312 22.2297 45.6451)" class="st6 st7">Russia</text>
</svg>
