<svg id="Layer_1" data-name="Layer 1" xmlns="http://www.w3.org/2000/svg" viewBox="0 0 410.73 360.74"><defs><style>.cls-1{fill:#9cd2e7;}.cls-2{fill:#fff;}.cls-3{fill:#e6e6e6;}.cls-4{fill:#b3b3b3;}.cls-5{fill:#ccc;}.cls-6{fill:none;}.cls-6,.cls-7{stroke:#000;stroke-linecap:round;stroke-miterlimit:10;}.cls-8{fill:#999;}</style></defs><rect class="cls-1" x="50.49" y="95.48" width="310.71" height="49.47" rx="24.73"/><rect class="cls-1" x="20.11" y="132.01" width="363.51" height="49.47" rx="24.73"/><rect class="cls-1" x="20.11" y="176.04" width="390.62" height="49.47" rx="24.73"/><rect class="cls-1" y="217.4" width="390.62" height="49.47" rx="24.73"/><rect class="cls-1" x="59.44" y="259.97" width="278.24" height="49.47" rx="24.73"/><rect class="cls-1" x="144.56" y="294.15" width="123.18" height="49.47" rx="24.73"/><rect class="cls-1" x="152.14" y="57.07" width="174.02" height="49.47" rx="24.73"/><rect class="cls-1" x="14.94" y="29.45" width="109.67" height="34.25" rx="17.13"/><rect class="cls-1" x="302.06" width="71.23" height="22.45" rx="11.23"/><rect class="cls-1" x="273.94" y="326.49" width="109.67" height="34.25" rx="17.13"/><path class="cls-2" d="M386.87,229.32c6.46,7.33,7.28,10.19,14.32,29a154.06,154.06,0,0,1,9.92,48c.71,12.81-.69,19.64-.69,19.64s10.55-.3,13.86,0,8.74,1.36,14.47,8.74,10.54,13.41-8.44,13.41-35.25.91-35.25.91-11.72,5.24-20.05,7.85-23.13,5-27.71,5.1-8.64.63-8.64.63,2.91,8.43-9,10.41-48,3.54-51.66,0-4.68-4.69-5.41-8.23-.51-3.05-.51-3.05-40.05-3-52.47-4.51-38-5-42.76-6.88-5.79-1.8-5.79-1.8-17.82.62-23.53,0-15.55-1.41-17.93-3.62-3.84-5.37.68-8.14,19.4-9.28,20.42-10a18.06,18.06,0,0,1,1.86-1.19s.06-9.78,3.23-16.29,8.88-17.47,14.19-23.47,21.21-19.79,25.79-23.35,24.66-13.24,29.69-15.33S254,237.27,263,235.23s16.91-3.84,16.91-3.84,7.32-9.09,12.38-12.22c12.74-7.86,11.92-9.75,29.11-12.15,14.33-2,20.58-2.65,36.81,2.3S379.1,220.53,386.87,229.32Z" transform="translate(-79.75 -96.35)"/><path class="cls-3" d="M270.16,288.21s0-19.36,2.62-28.56,8-24.51,27.14-34.24,42.34-12.81,55.8-3.5,32.39,26.91,41.69,51.86,11.71,56.79,11.71,56.79,9.95.33,17.28,3.17c4.79,1.86,16.8,11.67,16.8,11.67s-4.06,1.43-10.78.37c-19.36-3.07-25.16-3.83-26.37-4.82s-.76-2.84-.33-3.94.11-.76-2.07,1.53-15.87,9.09-26.81,10.73-27.79,3.72-35.78,1.2-18.6-10.39-23.2-11.49-15.43-.76-20.79-3.61-15.86-11.6-15.86-11.6,5,8,4.41,9.52-8,9.19-29.58,11.49-46.94,3.39-61.93,1.75S159.42,339,159.42,339s2,1.53,0,2.41-10.17,2.3-17.83,2.08-13.32-.15-13.32-.15-.14-3.57,11.68-7.4,14.22-5.8,14.22-5.8,4.27-20,12.59-30.2,23.63-26.7,46.28-34.14S248.6,256,256.15,256s12,.11,12,.11Z" transform="translate(-79.75 -96.35)"/><path class="cls-4" d="M128.27,343.32s1,3.11,5.84,3.7c4.58.56,15.54,2.37,21.47,2.32s15.52-.83,15.52-.83,14,4.68,23,6c8.45,1.24,29.81,3.23,40,4.11s38,3.07,38,3.07,0,4.83,2.87,8.14c3.21,3.7,3.15,5.81,20.39,5.86,16.6.06,31-1.2,38.28-3.27s5-9.86,5-9.86,20.6-.95,34.28-4.57a92.29,92.29,0,0,0,19.52-7.88c1.35-.58,2.77-1.28,12.49-1.56s26.14-.47,28.24-.53c9-.28,10-2.63,10-2.63s-6.23,1.08-10.78.37S414.07,343,409.55,342c-3.58-.76-4-1-4.25-2.54s.8-2.75.59-3-.66-.3-7,4.39c-5.73,4.21-16.34,7.59-24.21,8.59-12.32,1.56-25.55,3.52-33.58,1s-15.68-9.18-21.65-11-15.3-.62-22.34-4.94c-7.31-4.5-15.86-10.79-15.86-10.79s5,8,4.41,9.52-3.9,4.11-9.6,6.65-14.8,3.81-30,5.2c-12.1,1.11-28.66,2.66-39.87,2.17A168.87,168.87,0,0,1,174.68,343c-8.94-2.07-15.26-4-15.26-4s1,1.12.52,1.77-2.35,1.3-6.69,2S128.27,343.32,128.27,343.32Z" transform="translate(-79.75 -96.35)"/><path class="cls-2" d="M288.21,344.8c5.44-1.44,23.21-2,30.36.84a104.78,104.78,0,0,1,14.75,7.71s-16.85,5.58-17.19,5.92-20.44,1-20.44,1l-18.33-3.79-1.84-3.14S284.09,345.9,288.21,344.8Z" transform="translate(-79.75 -96.35)"/><path class="cls-3" d="M275.52,353.35c.38-.26,4.1,2.42,9.16,3.63s19,2.73,26.55,1.52,20.73-5.75,22.09-5.15,3.63,2.88,3.63,3.78a7.7,7.7,0,0,1-3,4.54c-1.66,1.06-12.4,6.21-21.48,6.51s-24.35.3-27.76-.76S273.86,361.37,273,360,274.12,354.32,275.52,353.35Z" transform="translate(-79.75 -96.35)"/><ellipse class="cls-5" cx="221.07" cy="187.84" rx="16.12" ry="10.72"/><path class="cls-6" d="M313.14,290.11s-9.18-.48-12.5-8.08v-5.38" transform="translate(-79.75 -96.35)"/><path class="cls-6" d="M289.24,290.9s10.45-1.11,11.4-8.87" transform="translate(-79.75 -96.35)"/><path class="cls-7" d="M300.26,264.46c5.17.21,9.88,1.12,10.16,3.59s-9.6,8.15-9.6,8.15-6.45-3-7.58-4.61S289.48,264,300.26,264.46Z" transform="translate(-79.75 -96.35)"/><circle class="cls-7" cx="205.87" cy="155.49" r="5.16"/><circle class="cls-7" cx="243.19" cy="155.49" r="5.16"/><circle class="cls-8" cx="225.91" cy="181.21" r="0.63"/><circle class="cls-8" cx="223.83" cy="184.45" r="0.63"/><circle class="cls-8" cx="226.73" cy="187.17" r="0.63"/><circle class="cls-8" cx="230.19" cy="185.06" r="0.63"/><circle class="cls-8" cx="229.71" cy="180.92" r="0.63"/><circle class="cls-8" cx="231.31" cy="188.86" r="0.63"/><circle class="cls-8" cx="234.02" cy="185.56" r="0.63"/><circle class="cls-8" cx="216.66" cy="185.68" r="0.63"/><circle class="cls-8" cx="217.29" cy="181.68" r="0.63"/><circle class="cls-8" cx="214.56" cy="189.49" r="0.63"/><circle class="cls-8" cx="209.69" cy="191.36" r="0.63"/><circle class="cls-8" cx="210" cy="187.17" r="0.63"/><circle class="cls-8" cx="212.55" cy="182.46" r="0.63"/><path class="cls-8" d="M319.85,240.07c-1.07,1.83,6,.37,6.07-2S321.27,237.64,319.85,240.07Z" transform="translate(-79.75 -96.35)"/><path class="cls-8" d="M291.93,240.82c2.06-.52-3.93-4.52-5.66-2.94S289.2,241.51,291.93,240.82Z" transform="translate(-79.75 -96.35)"/><path class="cls-5" d="M311.68,299.68s-16.49,5.35-21.3,1.74a5,5,0,0,0,4.92,2.75C299,304,305,304.17,311.68,299.68Z" transform="translate(-79.75 -96.35)"/></svg>