<?xml version="1.0" encoding="utf-8"?>
<!-- Generator: Adobe Illustrator 25.0.0, SVG Export Plug-In . SVG Version: 6.00 Build 0)  -->
<svg version="1.1" id="Layer_1" xmlns="http://www.w3.org/2000/svg" xmlns:xlink="http://www.w3.org/1999/xlink" x="0px" y="0px"
	 viewBox="0 0 566.9 566.9" style="enable-background:new 0 0 566.9 566.9;" xml:space="preserve">
<style type="text/css">
	.st0{fill:#294F73;}
	.st1{fill:#5698B7;}
	.st2{fill:#FFFFFF;}
	.st3{fill:#FEFFFF;}
	.st4{fill:#E9A045;}
</style>
<g id="Layer_1_1_">
	<polygon class="st0" points="188.4,325 277.6,224 366.8,326.5 456,429 104,429 	"/>
	<path class="st1" d="M284.1,177.5H273c-11.1,0-20.2-9-20.2-20.2V37.7c0-11.1,9-20.2,20.2-20.2h11.1c11.1,0,20.2,9,20.2,20.2v119.6
		C304.3,168.5,295.3,177.5,284.1,177.5z"/>
	<circle class="st1" cx="277.5" cy="217.5" r="60.5"/>
	<circle class="st2" cx="277.8" cy="217.7" r="56.2"/>
	<path class="st0" d="M164.4,428.3c-0.1,3.6-0.2,7.5,1.6,10.7s6.4,5,9.2,2.8c-0.2-3.1-0.4-6.5,1.1-9.2s5.7-4.1,7.9-1.9
		c1,1,1.4,2.5,1.6,3.9c1,6.9-1.1,14-0.2,20.9s6.7,14.4,13.4,12.7c-0.5-5.4-0.9-10.9-1.4-16.3c-0.5-5.6-0.9-11.5,0.9-16.8
		c1.9-5.3,6.8-10,12.4-9.8c6.8,0.3,11.5,7.5,11.8,14.4c0.3,6.8-2.6,13.3-4.7,19.7s-3.7,13.7-0.8,19.9s11.7,9.8,16.7,5.2
		c5-4.5,3-12.6,1.1-19c-2.4-8.2-4-17-1.3-25.1c2.7-8.1,10.9-14.9,19.2-13.3c2.3,8.1-6.7,18-1,24.2c3.1,3.3,9.5,2.1,11.2-2.1
		c1.3-3.3-0.1-6.9-0.3-10.4c-0.4-9.9,10.6-17.7,20.4-16.1c9.8,1.7,17.1,10.6,19.5,20.3c2.3,9.6,0.4,19.8-2.7,29.3
		c-2,6.3-4.6,12.8-3.4,19.3c1.2,6.5,8,12.5,14.1,9.9c4.7-2,6.5-7.7,6.6-12.8c0.3-9-2.7-17.7-3.8-26.7s0.4-19.1,7.5-24.7
		s20.3-2,20.7,7c0.1,1.3-0.1,2.6,0.1,3.9c0.5,3.2,3.9,5.8,7.2,5.2s5.8-3.9,5.2-7.2c-0.4-2.5-2.3-4.6-3-7.1c-1.1-3.5,0.6-7.7,3.9-9.5
		c3.2-1.8,7.7-1,10.1,1.8c-2.7,3.3-2,8.8,1.5,11.3s8.9,1.3,11.2-2.3c1.2-1.9,1.5-4.3,1-6.6c-1.9-9.2-13.8-11.4-23.2-11.5
		c-59.9-1-119.8-2.1-179.6-3.1c-4.5-0.1-10.6,1.1-10.9,5.7"/>
	<path class="st3" d="M277.6,437L277.6,437c-3.2,0-5.8-2.6-5.8-5.8V330.8c0-3.2,2.6-5.8,5.8-5.8l0,0c3.2,0,5.8,2.6,5.8,5.8v100.3
		C283.5,434.4,280.9,437,277.6,437z"/>
	<path class="st3" d="M278.4,433.1L278.4,433.1c-1.7,2.9-5.4,3.9-8.4,2.2l-84.9-49c-2.9-1.7-3.9-5.4-2.2-8.4l0,0
		c1.7-2.9,5.4-3.9,8.4-2.2l84.9,49C279.1,426.4,280.1,430.2,278.4,433.1z"/>
	<path class="st3" d="M272.6,433.1L272.6,433.1c-1.7-2.9-0.7-6.7,2.2-8.4l84.9-49c2.9-1.7,6.7-0.7,8.4,2.2l0,0
		c1.7,2.9,0.7,6.7-2.2,8.4l-84.9,49C278,437,274.3,436,272.6,433.1z"/>
	<path class="st3" d="M277,354.2L277,354.2c2.4-2,2.7-5.6,0.7-8.1l-13.9-16.5c-2-2.4-5.6-2.7-8.1-0.7l0,0c-2.4,2-2.7,5.6-0.7,8.1
		l13.8,16.5C271,356,274.6,356.3,277,354.2z"/>
	<path class="st3" d="M276.9,388.1L276.9,388.1c2.4-2,2.7-5.6,0.7-8.1l-13.9-16.5c-2-2.4-5.6-2.7-8.1-0.7l0,0
		c-2.4,2-2.7,5.6-0.7,8.1l13.8,16.5C270.9,389.8,274.5,390.1,276.9,388.1z"/>
	<path class="st3" d="M277.2,353.7L277.2,353.7c2,2.4,5.6,2.7,8.1,0.7l16.5-13.9c2.4-2,2.7-5.6,0.7-8.1l0,0c-2-2.4-5.6-2.7-8.1-0.7
		l-16.5,13.9C275.5,347.7,275.2,351.3,277.2,353.7z"/>
	<path class="st3" d="M276.2,387L276.2,387c2,2.4,5.6,2.7,8.1,0.7l16.5-13.9c2.4-2,2.7-5.6,0.7-8.1l0,0c-2-2.4-5.6-2.7-8.1-0.7
		L276.9,379C274.5,381,274.2,384.6,276.2,387z"/>
	<path class="st3" d="M346.3,396.7L346.3,396.7c3.1,0.5,6.1-1.5,6.6-4.6l3.7-21.2c0.5-3.1-1.5-6.1-4.6-6.6l0,0
		c-3.1-0.5-6.1,1.5-6.6,4.6l-3.7,21.2C341.1,393.2,343.2,396.1,346.3,396.7z"/>
	<path class="st3" d="M320.1,410L320.1,410c3.1,0.5,6.1-1.5,6.6-4.6l3.7-21.2c0.5-3.1-1.5-6.1-4.6-6.6l0,0c-3.1-0.5-6.1,1.5-6.6,4.6
		l-3.7,21.2C314.9,406.5,317,409.5,320.1,410z"/>
	<path class="st3" d="M344.3,391.5L344.3,391.5c-0.5,3.1,1.5,6.1,4.6,6.6l21.2,3.7c3.1,0.5,6.1-1.5,6.6-4.6l0,0
		c0.5-3.1-1.5-6.1-4.6-6.6l-21.2-3.7C347.8,386.3,344.8,388.4,344.3,391.5z"/>
	<path class="st3" d="M317,407.2L317,407.2c-0.5,3.1,1.5,6.1,4.6,6.6l21.2,3.7c3.1,0.5,6.1-1.5,6.6-4.6l0,0c0.5-3.1-1.5-6.1-4.6-6.6
		l-21.2-3.7C320.5,402.1,317.6,404.1,317,407.2z"/>
	<path class="st3" d="M209.6,391.5L209.6,391.5c-0.6-3.1-3.5-5.2-6.6-4.6l-21.2,3.7c-3.1,0.5-5.2,3.5-4.6,6.6l0,0
		c0.6,3.1,3.5,5.2,6.6,4.6l21.2-3.7C208.1,397.6,210.2,394.6,209.6,391.5z"/>
	<path class="st3" d="M235.3,406.2L235.3,406.2c-0.6-3.1-3.5-5.2-6.6-4.6l-21.2,3.7c-3.1,0.5-5.2,3.5-4.6,6.6l0,0
		c0.6,3.1,3.5,5.2,6.6,4.6l21.2-3.7C233.7,412.3,235.8,409.4,235.3,406.2z"/>
	<path class="st3" d="M196,359.9L196,359.9c-3,1.1-4.5,4.4-3.4,7.3l7.4,20.2c1.1,3,4.4,4.5,7.3,3.4l0,0c3-1.1,4.5-4.4,3.4-7.3
		l-7.4-20.2C202.3,360.4,199,358.9,196,359.9z"/>
	<path class="st3" d="M222,375.3L222,375.3c-3,1.1-4.5,4.4-3.4,7.3l7.4,20.2c1.1,3,4.4,4.5,7.3,3.4l0,0c3-1.1,4.5-4.4,3.4-7.3
		l-7.4-20.2C228.3,375.7,225,374.2,222,375.3z"/>
	<path class="st0" d="M228.9,501c-1.4,4.5-4.2,8.5-6.4,12.6c-2.2,4.2-4,9-3,13.6s5.8,8.6,10.4,7.3c3.9-1.2,6-5.7,5.9-9.8
		s-2-7.9-3.6-11.7c-1.6-3.8-2.9-7.9-2-11.9"/>
	<path class="st0" d="M255.1,471c-1.5,2.9-3,5.8-4.5,8.8c-0.9,1.8-1.9,3.6-1.9,5.7s1.2,4.2,3.2,4.5c1.4,0.2,2.7-0.5,4.1-0.7
		c1.4-0.2,2.9,0,4.2-0.5c3.5-1.5,2.5-6.7,0.3-9.8s-5.3-6.3-4.4-9.9"/>
	<g>
		<path d="M347,487.6c0.8,0,0.8-1.2,0-1.2C346.2,486.4,346.2,487.6,347,487.6L347,487.6z"/>
	</g>
	<path class="st0" d="M346.6,486.6c-4,3.8-7.9,8.5-8.2,14c-0.2,5.5,5,11.4,10.3,9.8c5.3-1.6,6.4-9.4,3.2-14c-1.3-2-3.2-3.6-4.4-5.7
		c-1.1-2.1-1.3-5,0.5-6.6"/>
	<path class="st0" d="M373,451.4c-1.6,2-3.2,4.1-3.9,6.6s-0.3,5.5,1.7,7.1s5.6,1.1,6.5-1.3c0.9-2.4-1-4.8-2.6-6.7
		c-1.6-2-3-4.9-1.3-6.8"/>
	<polygon class="st1" points="79.5,429 79.5,348 144,276 188.4,325 104,429 	"/>
	<polygon class="st1" points="413,276 476,346 476,429 456,429 366.8,326.5 	"/>
	<path class="st3" d="M179.2,316.4c0.8,1.6-1.1,3.5-2.9,3.4c-1.8-0.1-3.3-1.2-4.9-2.1c-1.6-0.9-3.6-1.4-5.1-0.4
		c-1.8,1.3-1.4,4-0.8,6.2c1,3.6,2,7.3,3,10.9c-2.2,3.9-8.5,4.5-11.4,1.1c-2.1-2.4-2.3-5.8-3.2-8.8c-0.9-3-3.2-6.2-6.3-6
		c-3.4,0.3-4.9,4.3-6.6,7.2c-2.4,4.3-8.6,7.6-12.1,4.2c-4.1-3.9,0.1-10.9-1.7-16.2c-0.3-1-1.1-2-2.2-1.9c-0.5,0.1-1,0.4-1.3,0.8
		c-2,1.8-3.4,4.2-5.2,6.1s-4.4,3.5-7.1,3.1c-2.7-0.5-4.7-3.8-3.1-6L144,276L179.2,316.4z"/>
	<path class="st3" d="M450.1,320.1c-1.5,2.8-5.2,3.8-8.3,3.1s-5.8-2.6-8.3-4.5c-1.2-0.9-2.5-1.8-4-1.8c-4.8-0.1-6.5,8.5-11.3,8
		c-2.5-0.2-4.9-3-7-1.6c-1.2,0.8-1.4,2.4-1.5,3.8c-0.2,2.9-0.5,5.9-1.8,8.5c-1.3,2.6-3.9,4.7-6.9,4.7c-3.2-0.1-6-2.9-6.8-6
		s0-6.5,1.4-9.4c1.5-3.4,3.7-7.6,1.2-10.3c-2.4-2.6-6.8-1-9.6,1.2c-1.2,1-2.4,2.1-3.9,2.5c-1.5,0.5-3.4,0-4-1.5
		c-1.1-2.8,3.3-4.9,3.7-7.8l30-33L450.1,320.1z"/>
	<g>
		<path d="M296,110.6c0.8,0,0.8-1.2,0-1.2C295.2,109.4,295.2,110.6,296,110.6L296,110.6z"/>
	</g>
	<path class="st2" d="M278.8,181L278.8,181c-11.1,0-20.2-9-20.2-20.2V41.2c0-11.1,9-20.2,20.2-20.2l0,0C290,21,299,30,299,41.2
		v119.6C299,172,290,181,278.8,181z"/>
	<rect x="264" y="102" class="st4" width="29" height="79"/>
	<polyline class="st4" points="264,102 239,101 277,62 317.5,102.5 293,102 	"/>
	<circle class="st4" cx="277.8" cy="217.5" r="48.5"/>
	<path class="st3" d="M333.4,290.4c-3.6,3.2-9.4,3.7-13.5,1.1c-1.1-0.7-2-1.5-3.3-1.8c-3.9-0.8-6.1,4.4-6.1,8.4s-0.1,9-3.8,10.5
		c-3.1,1.2-6.4-1.4-7.7-4.4s-1.2-6.4-2-9.6c-0.8-3.2-3-6.5-6.3-6.7c-5.6-0.4-7.7,7.3-12.5,10.2c-4.2,2.5-10.4,0.1-11.8-4.5
		c-1.1-3.5-0.3-8.4-3.7-9.8c-1.3-0.5-2.8-0.2-4.2,0c-4,0.9-8.1,1.8-11.7,3.8c-5.5,3.1-9.3,8.4-13.8,12.8c-4.5,4.4-10.8,8-16.9,6.4
		c-2-5.2-0.7-11.4,3.1-15.5l58.4-67.1L333.4,290.4z"/>
</g>
<g id="Layer_2_1_">
</g>
</svg>
