<?xml version="1.0" encoding="utf-8"?>
<!-- Generator: Adobe Illustrator 25.0.0, SVG Export Plug-In . SVG Version: 6.00 Build 0)  -->
<svg version="1.1" xmlns="http://www.w3.org/2000/svg" xmlns:xlink="http://www.w3.org/1999/xlink" x="0px" y="0px"
	 viewBox="0 0 566.93 566.93" style="enable-background:new 0 0 566.93 566.93;" xml:space="preserve">
<style type="text/css">
	.st0{fill:#5698B7;}
	.st1{fill:#FFFFFF;}
	.st2{fill:#294F73;}
	.st3{fill:#FEFFFF;}
	.st4{fill:#E9A045;}
</style>
<g id="Layer_1">
	<path class="st0" d="M284.15,177.5H273c-11.15,0-20.18-9.04-20.18-20.18V37.68c0-11.15,9.04-20.18,20.18-20.18h11.15
		c11.15,0,20.18,9.04,20.18,20.18v119.64C304.33,168.46,295.3,177.5,284.15,177.5z"/>
	<circle class="st0" cx="277.5" cy="217.5" r="60.5"/>
	<circle class="st1" cx="277.76" cy="217.74" r="56.24"/>
	<path class="st2" d="M164.42,428.33c-0.14,3.64-0.23,7.51,1.6,10.67s6.36,5.02,9.25,2.79c-0.25-3.14-0.44-6.5,1.15-9.21
		c1.59-2.71,5.72-4.13,7.95-1.9c1,1,1.37,2.45,1.58,3.85c1.03,6.9-1.06,13.96-0.25,20.9s6.67,14.38,13.44,12.68
		c-0.46-5.44-0.93-10.88-1.39-16.32c-0.48-5.63-0.93-11.46,0.95-16.78c1.88-5.32,6.79-10.02,12.43-9.77
		c6.79,0.3,11.49,7.55,11.77,14.35c0.28,6.79-2.56,13.27-4.73,19.71c-2.17,6.44-3.66,13.7-0.83,19.88
		c2.83,6.18,11.67,9.79,16.73,5.24c4.99-4.5,2.99-12.56,1.08-19c-2.42-8.17-4.01-17.03-1.32-25.11
		c2.68-8.08,10.87-14.86,19.25-13.33c2.27,8.07-6.69,18-1.01,24.17c3.07,3.33,9.54,2.11,11.18-2.11c1.27-3.26-0.15-6.88-0.3-10.38
		c-0.42-9.91,10.62-17.74,20.4-16.06c9.78,1.69,17.14,10.63,19.45,20.28c2.3,9.65,0.38,19.82-2.67,29.26
		c-2.03,6.29-4.61,12.8-3.44,19.31c1.17,6.51,8.03,12.49,14.13,9.94c4.68-1.95,6.48-7.69,6.64-12.76c0.29-8.99-2.7-17.73-3.75-26.66
		s0.42-19.12,7.49-24.68s20.33-2.03,20.73,6.95c0.06,1.29-0.14,2.6,0.06,3.88c0.5,3.25,3.92,5.75,7.17,5.25
		c3.25-0.5,5.75-3.92,5.25-7.17c-0.4-2.55-2.3-4.62-3.05-7.09c-1.08-3.54,0.61-7.71,3.85-9.5c3.23-1.79,7.67-1.01,10.1,1.77
		c-2.73,3.26-1.98,8.81,1.5,11.26c3.48,2.45,8.92,1.31,11.16-2.31c1.19-1.93,1.5-4.34,1.05-6.56c-1.89-9.19-13.84-11.35-23.22-11.52
		c-59.88-1.04-119.76-2.09-179.64-3.13c-4.54-0.08-10.6,1.14-10.88,5.67"/>
	<path class="st3" d="M277.62,437L277.62,437c-3.23,0-5.84-2.62-5.84-5.84V330.84c0-3.23,2.62-5.84,5.84-5.84l0,0
		c3.23,0,5.84,2.62,5.84,5.84v100.31C283.46,434.38,280.85,437,277.62,437z"/>
	<path class="st3" d="M278.43,433.11L278.43,433.11c-1.69,2.93-5.44,3.93-8.37,2.24l-84.89-49.01c-2.93-1.69-3.93-5.44-2.24-8.37
		l0,0c1.69-2.93,5.44-3.93,8.37-2.24l84.89,49.01C279.12,426.43,280.12,430.18,278.43,433.11z"/>
	<path class="st3" d="M272.6,433.11L272.6,433.11c-1.69-2.93-0.69-6.68,2.24-8.37l84.89-49.01c2.93-1.69,6.68-0.69,8.37,2.24l0,0
		c1.69,2.93,0.69,6.68-2.24,8.37l-84.89,49.01C278.04,437.04,274.29,436.04,272.6,433.11z"/>
	<path class="st3" d="M276.02,353.25L276.02,353.25c2.42-2.03,2.74-5.64,0.71-8.06l-13.85-16.51c-2.03-2.42-5.64-2.74-8.06-0.71v0
		c-2.42,2.03-2.74,5.64-0.71,8.06l13.85,16.51C269.99,354.97,273.6,355.29,276.02,353.25z"/>
	<path class="st3" d="M275.91,387.06L275.91,387.06c2.42-2.03,2.74-5.64,0.71-8.06l-13.85-16.51c-2.03-2.42-5.64-2.74-8.06-0.71h0
		c-2.42,2.03-2.74,5.64-0.71,8.06l13.85,16.51C269.88,388.78,273.49,389.1,275.91,387.06z"/>
	<path class="st3" d="M278.24,351.69L278.24,351.69c2.03,2.42,5.64,2.74,8.06,0.71l16.51-13.85c2.42-2.03,2.74-5.64,0.71-8.06l0,0
		c-2.03-2.42-5.64-2.74-8.06-0.71l-16.51,13.85C276.52,345.66,276.2,349.27,278.24,351.69z"/>
	<path class="st3" d="M279.24,385.03L279.24,385.03c2.03,2.42,5.64,2.74,8.06,0.71l16.51-13.85c2.42-2.03,2.74-5.64,0.71-8.06v0
		c-2.03-2.42-5.64-2.74-8.06-0.71l-16.51,13.85C277.52,379,277.2,382.61,279.24,385.03z"/>
	<path class="st3" d="M348.32,387.69L348.32,387.69c3.11,0.55,6.08-1.53,6.63-4.64l3.74-21.22c0.55-3.11-1.53-6.08-4.64-6.63l0,0
		c-3.11-0.55-6.08,1.53-6.63,4.64l-3.74,21.22C343.12,384.17,345.2,387.14,348.32,387.69z"/>
	<path class="st3" d="M319.08,404.02L319.08,404.02c3.11,0.55,6.08-1.53,6.63-4.64l3.74-21.22c0.55-3.11-1.53-6.08-4.64-6.63h0
		c-3.11-0.55-6.08,1.53-6.63,4.64l-3.74,21.22C313.89,400.51,315.97,403.47,319.08,404.02z"/>
	<path class="st3" d="M351.27,394.51L351.27,394.51c-0.55,3.11,1.53,6.08,4.64,6.63l21.22,3.74c3.11,0.55,6.08-1.53,6.63-4.64l0,0
		c0.55-3.11-1.53-6.08-4.64-6.63l-21.22-3.74C354.79,389.31,351.82,391.39,351.27,394.51z"/>
	<path class="st3" d="M322.03,410.25L322.03,410.25c-0.55,3.11,1.53,6.08,4.64,6.63l21.22,3.74c3.11,0.55,6.08-1.53,6.63-4.64v0
		c0.55-3.11-1.53-6.08-4.64-6.63l-21.22-3.74C325.55,405.06,322.58,407.13,322.03,410.25z"/>
	<path class="st3" d="M204.64,394.51L204.64,394.51c-0.55-3.11-3.52-5.19-6.63-4.64l-21.22,3.74c-3.11,0.55-5.19,3.52-4.64,6.63l0,0
		c0.55,3.11,3.52,5.19,6.63,4.64l21.22-3.74C203.11,400.59,205.19,397.62,204.64,394.51z"/>
	<path class="st3" d="M231.26,410.25L231.26,410.25c-0.55-3.11-3.52-5.19-6.63-4.64l-21.22,3.74c-3.11,0.55-5.19,3.52-4.64,6.63v0
		c0.55,3.11,3.52,5.19,6.63,4.64l21.22-3.74C229.73,416.33,231.81,413.36,231.26,410.25z"/>
	<path class="st3" d="M200.02,356.93L200.02,356.93c-2.97,1.08-4.5,4.37-3.42,7.34l7.37,20.25c1.08,2.97,4.37,4.5,7.34,3.42h0
		c2.97-1.08,4.5-4.37,3.42-7.34l-7.37-20.25C206.27,357.38,202.99,355.85,200.02,356.93z"/>
	<path class="st3" d="M228.01,372.27L228.01,372.27c-2.97,1.08-4.5,4.37-3.42,7.34l7.37,20.25c1.08,2.97,4.37,4.5,7.34,3.42l0,0
		c2.97-1.08,4.5-4.37,3.42-7.34l-7.37-20.25C234.27,372.72,230.98,371.19,228.01,372.27z"/>
	<path class="st2" d="M228.93,500.96c-1.37,4.53-4.18,8.47-6.43,12.63c-2.25,4.17-4,8.96-2.96,13.58c1.04,4.62,5.82,8.62,10.37,7.28
		c3.93-1.16,6.02-5.7,5.85-9.8c-0.17-4.1-2.03-7.9-3.61-11.68c-1.58-3.78-2.92-7.93-2-11.93"/>
	<path class="st2" d="M255.1,471.01c-1.5,2.92-3.01,5.83-4.51,8.75c-0.92,1.78-1.86,3.65-1.87,5.66c-0.01,2.01,1.24,4.17,3.22,4.49
		c1.38,0.22,2.72-0.46,4.1-0.68c1.41-0.22,2.91,0.04,4.23-0.53c3.45-1.48,2.52-6.73,0.3-9.76c-2.22-3.03-5.33-6.26-4.44-9.91"/>
	<g>
		<path d="M347,487.62c0.8,0,0.81-1.25,0-1.25C346.2,486.38,346.19,487.62,347,487.62L347,487.62z"/>
	</g>
	<path class="st2" d="M346.62,486.64c-4.05,3.8-7.92,8.49-8.17,14.04c-0.25,5.55,4.99,11.44,10.31,9.81
		c5.34-1.64,6.38-9.42,3.23-14.03c-1.34-1.97-3.21-3.57-4.35-5.67c-1.15-2.09-1.34-5.03,0.46-6.59"/>
	<path class="st2" d="M373.05,451.38c-1.58,2.04-3.2,4.15-3.9,6.64s-0.28,5.47,1.71,7.13s5.61,1.15,6.49-1.28
		c0.86-2.37-1.04-4.76-2.63-6.71c-1.59-1.96-2.98-4.91-1.32-6.81"/>
	<polygon class="st0" points="79.5,429 79.5,348 144,276 188.39,325 104,429 	"/>
	<polygon class="st0" points="413,276 476.01,346 476.01,429 456,429 366.81,326.5 	"/>
	<path class="st3" d="M179.21,316.41c0.82,1.61-1.13,3.46-2.94,3.38c-1.8-0.07-3.34-1.25-4.91-2.13c-1.58-0.88-3.65-1.44-5.1-0.37
		c-1.78,1.32-1.38,4.04-0.79,6.18c1,3.65,1.99,7.29,2.99,10.94c-2.24,3.88-8.52,4.48-11.45,1.1c-2.05-2.38-2.29-5.76-3.17-8.77
		c-0.87-3.02-3.19-6.23-6.32-5.95c-3.41,0.31-4.93,4.26-6.61,7.24c-2.42,4.31-8.55,7.57-12.13,4.16
		c-4.05-3.86,0.05-10.88-1.72-16.19c-0.33-0.99-1.12-2.05-2.16-1.94c-0.52,0.06-0.97,0.4-1.35,0.76c-1.99,1.81-3.39,4.18-5.24,6.13
		c-1.85,1.95-4.44,3.55-7.1,3.11c-2.65-0.45-4.71-3.8-3.13-5.98L144,276L179.21,316.41z"/>
	<path class="st3" d="M450.1,320.07c-1.52,2.79-5.23,3.75-8.33,3.08s-5.76-2.6-8.34-4.46c-1.22-0.87-2.54-1.78-4.04-1.79
		c-4.84-0.06-6.51,8.46-11.33,8.02c-2.48-0.23-4.89-2.95-7-1.62c-1.2,0.76-1.38,2.4-1.46,3.82c-0.16,2.91-0.46,5.89-1.79,8.48
		c-1.33,2.59-3.94,4.71-6.85,4.66c-3.23-0.06-5.97-2.85-6.75-5.99s0.03-6.48,1.38-9.42c1.55-3.36,3.7-7.61,1.19-10.32
		c-2.41-2.61-6.81-0.99-9.57,1.25c-1.21,0.98-2.4,2.08-3.89,2.53c-1.49,0.45-3.41-0.03-4-1.48c-1.13-2.79,3.3-4.85,3.67-7.84
		L413,276L450.1,320.07z"/>
	<g>
		<path d="M296,110.62c0.8,0,0.81-1.25,0-1.25C295.2,109.38,295.19,110.62,296,110.62L296,110.62z"/>
	</g>
	<path class="st1" d="M278.82,181L278.82,181c-11.15,0-20.18-9.04-20.18-20.18V41.18c0-11.15,9.04-20.18,20.18-20.18h0
		C289.96,21,299,30.04,299,41.18v119.64C299,171.96,289.96,181,278.82,181z"/>
	<rect x="264" y="102" class="st4" width="29" height="79"/>
	<polyline class="st4" points="264,102 239,101 277,62 317.5,102.5 293,102 	"/>
	<circle class="st4" cx="277.76" cy="217.5" r="48.47"/>
	<polygon class="st2" points="188.39,325 277.62,224 366.81,326.5 456,429 104,429 	"/>
	<path class="st3" d="M333.4,290.38c-3.61,3.22-9.4,3.7-13.49,1.11c-1.06-0.67-2.05-1.54-3.28-1.8c-3.88-0.83-6.06,4.39-6.06,8.35
		s-0.09,9.04-3.79,10.45c-3.06,1.17-6.41-1.43-7.68-4.44s-1.22-6.41-2.04-9.58c-0.82-3.17-3.03-6.45-6.3-6.69
		c-5.56-0.42-7.74,7.33-12.53,10.18c-4.16,2.47-10.36,0.1-11.8-4.52c-1.09-3.49-0.34-8.41-3.72-9.81c-1.32-0.55-2.82-0.25-4.21,0.05
		c-4.02,0.87-8.1,1.77-11.68,3.78c-5.5,3.08-9.28,8.44-13.81,12.83c-4.53,4.39-10.82,8.05-16.9,6.36
		c-1.96-5.19-0.72-11.44,3.06-15.5L277.62,224L333.4,290.38z"/>
	<g>
		<path class="st2" d="M259,433.5c3.22,0,3.22-5,0-5C255.78,428.5,255.78,433.5,259,433.5L259,433.5z"/>
	</g>
	<g>
		<path class="st2" d="M262,434.5c3.22,0,3.22-5,0-5C258.78,429.5,258.78,434.5,262,434.5L262,434.5z"/>
	</g>
	<g>
		<path class="st2" d="M262,431.5c3.22,0,3.22-5,0-5C258.78,426.5,258.78,431.5,262,431.5L262,431.5z"/>
	</g>
	<g>
		<path class="st2" d="M264,430.5c3.22,0,3.22-5,0-5C260.78,425.5,260.78,430.5,264,430.5L264,430.5z"/>
	</g>
	<g>
		<path class="st2" d="M264.56,432.58c2.06-2.28,4.11-4.57,6.17-6.85c0.44-0.49,0.73-1.09,0.73-1.77c0-0.61-0.27-1.35-0.73-1.77
			c-0.96-0.88-2.6-1.04-3.54,0c-2.06,2.28-4.11,4.57-6.17,6.85c-0.44,0.49-0.73,1.09-0.73,1.77c0,0.61,0.27,1.35,0.73,1.77
			C261.98,433.46,263.63,433.62,264.56,432.58L264.56,432.58z"/>
	</g>
</g>
<g id="Layer_2">
</g>
</svg>
