<?xml version="1.0" encoding="utf-8"?>
<!-- Generator: Adobe Illustrator 25.0.0, SVG Export Plug-In . SVG Version: 6.00 Build 0)  -->
<svg version="1.1" xmlns="http://www.w3.org/2000/svg" xmlns:xlink="http://www.w3.org/1999/xlink" x="0px" y="0px"
	 viewBox="0 0 595.28 841.89" style="enable-background:new 0 0 595.28 841.89;" xml:space="preserve">
<style type="text/css">
	.st0{fill:#60BCE9;}
	.st1{fill:#60BDE6;}
	.st2{fill:#9CD2ED;}
	.st3{fill:#48939A;}
	.st4{fill:#54A9A8;}
	.st5{fill:#77C4CF;}
	.st6{fill:#FFFFFF;}
</style>
<g id="Layer_1">
	<rect x="174.67" y="270.14" class="st0" width="27.26" height="21.5"/>
	<rect x="175.34" y="335.88" class="st0" width="26.67" height="12.11"/>
	<rect x="175.1" y="304.77" class="st0" width="26.2" height="16.54"/>
</g>
<g id="Layer_2">
	<rect x="174.85" y="270.14" class="st1" width="27.16" height="77.86"/>
	<rect x="175.34" y="321.81" class="st2" width="26.67" height="14.07"/>
	<path class="st3" d="M358.88,502.71c27.45,3.32,56.13-5.28,77.23-23.15s34.31-44.74,35.57-72.36c0.1-2.29,0.28-4.9,2.06-6.34
		c1.44-1.16,3.45-1.16,5.29-1.19c15.88-0.34,31.45-8.13,41.24-20.65s13.6-29.5,10.1-45c-14.96,2.28-30.43-2.9-45.25,0.15
		c-14.48,2.99-26.93,14.32-31.26,28.47c-3.34-14.76-17.49-25.12-32.23-28.54c-14.74-3.43-30.14-1.25-45.12,0.93
		c-3.35,17.13,1.53,35.69,12.88,48.96c11.35,13.26,28.94,20.95,46.38,20.29c-0.99,9.75-12.53,15.46-22.23,14.07
		c-9.7-1.39-17.89-7.65-25.88-13.33c-64.31-45.78-146.04-66.42-224.37-56.68c-12.48,1.55-25.72,4.27-34.56,13.22
		c-8.02,8.12-10.91,19.88-13,31.09c-3.9,20.98-6.09,42.82-0.78,63.48s19.34,40.09,39.52,47.02c14.59,5.02,30.51,3.14,45.91,2.04
		c36.66-2.6,73.46-0.38,110.21-0.06c22.3,0.19,44.6-0.32,66.87-1.54"/>
	<path class="st4" d="M240.48,447.32c-2.53,26.05,13.51,52.83,37.66,62.91c13.09,5.46,27.74,6.26,41.85,4.73
		c14.32-1.55,29.57-5.25,42.55,0.99c-4.16-14.06-10.16-27.74-19.26-39.23c-9.1-11.49-21.49-20.7-35.69-24.35
		c-7.07-1.82-14.42-2.24-21.72-2.66c-15.42-0.88-30.83-1.75-46.25-2.63"/>
	<g>
		<path d="M243.27,470.69c1.21,2.1,2.28,4.23,3.64,6.24c1.33,1.97,2.72,3.9,4.1,5.83c2.62,3.66,5.46,7.22,8.68,10.37
			c6.16,6.03,13.93,9.68,22.3,11.52c8.16,1.79,16.56,1.93,24.88,1.79c10.57-0.17,21.17-1.44,31.73-0.42
			c4.58,0.44,9.2,1.2,13.45,3.03c4.02,1.73,6.94,4.38,9.37,7.99c0.11,0.16,1.53,0.02,1.75,0.02c0.15,0,1.72-0.1,1.75-0.02
			c-1.16-3.42-4.47-5.83-7.59-7.38c-3.4-1.7-7.14-2.61-10.89-3.16c-9.54-1.41-19.35-1.05-28.96-0.62
			c-9.55,0.43-19.03,0.99-28.52-0.6c-8.36-1.41-16.55-4.37-23.15-9.8c-3.97-3.27-7.26-7.25-10.4-11.3
			c-1.68-2.16-3.34-4.34-5.06-6.46c-1.99-2.45-4.16-4.69-6.28-7.02C243.95,470.58,243.34,470.81,243.27,470.69L243.27,470.69z"/>
	</g>
	<g>
		<path d="M336.65,470.46c24.15-0.74,49.21-0.67,72.37-8.45c18.36-6.17,34.81-17.64,47.28-32.43c3.49-4.13,6.66-8.53,9.48-13.15
			c2.82-4.62,5.47-9.52,7.3-14.62c-0.03,0.08-1.86-0.02-2.03-0.02c-0.21,0-1.95-0.15-2.03,0.02c-2.04,4.42-4.07,8.8-6.52,13
			c-2.44,4.18-5.17,8.18-8.15,11.99c-5.89,7.51-12.79,14.23-20.44,19.94c-7.7,5.74-16.17,10.46-25.14,13.89
			c-10.81,4.14-22.25,6.35-33.73,7.6c-13.25,1.44-26.59,1.66-39.9,2.22C335.51,470.44,336.17,470.47,336.65,470.46L336.65,470.46z"
			/>
	</g>
	<path class="st1" d="M237.86,373.6h-82.6c-4.04,0-7.31-3.27-7.31-7.31v-3.6c0-4.04,3.27-7.31,7.31-7.31h82.6
		c4.04,0,7.31,3.27,7.31,7.31v3.6C245.17,370.33,241.9,373.6,237.86,373.6z"/>
	<path class="st1" d="M298.06,410.17h-29.87c-3.51,0-6.35-2.85-6.35-6.35l0,0c0-3.51,2.85-6.35,6.35-6.35h29.87
		c3.51,0,6.35,2.85,6.35,6.35l0,0C304.41,407.32,301.57,410.17,298.06,410.17z"/>
	<path class="st5" d="M312.57,481.47H282.7c-3.51,0-6.35-2.85-6.35-6.35l0,0c0-3.51,2.85-6.35,6.35-6.35h29.87
		c3.51,0,6.35,2.85,6.35,6.35l0,0C318.93,478.63,316.08,481.47,312.57,481.47z"/>
	<circle class="st6" cx="142.7" cy="414.26" r="12.45"/>
	<circle class="st6" cx="167.6" cy="414.26" r="12.45"/>
	<circle cx="142" cy="413.52" r="3.5"/>
	<circle cx="166.7" cy="414.35" r="3.5"/>
	<g>
		<path d="M144.82,441.51c9.15-2.43,18.66-1.01,28-1.06c7.82-0.04,17.9-0.68,23.15-7.38c2.88-3.68,3.75-8.48,4.55-12.96
			c-0.02,0.12-2.45-0.16-2.48,0c-0.71,4-1.47,8.17-3.65,11.68c-2.19,3.52-5.78,5.64-9.66,6.86c-9.16,2.89-18.89,1.37-28.32,1.38
			c-4.74,0.01-9.46,0.26-14.06,1.48C143.1,441.3,144.04,441.71,144.82,441.51L144.82,441.51z"/>
	</g>
	<path class="st5" d="M511.75,360.21h-29.87c-3.51,0-6.35-2.85-6.35-6.35v0c0-3.51,2.85-6.35,6.35-6.35h29.87
		c3.51,0,6.35,2.85,6.35,6.35v0C518.1,357.36,515.26,360.21,511.75,360.21z"/>
	<path class="st5" d="M407.76,356.93h-8.58c-3.51,0-6.35-2.85-6.35-6.35l0,0c0-3.51,2.85-6.35,6.35-6.35h8.58
		c3.51,0,6.35,2.85,6.35,6.35l0,0C414.11,354.09,411.27,356.93,407.76,356.93z"/>
	<path class="st0" d="M216.47,302.39L216.47,302.39c-4.36,0-7.9-3.45-7.9-7.71v-44.59c0-4.26,3.54-7.71,7.9-7.71h0
		c4.36,0,7.9,3.45,7.9,7.71v44.59C224.37,298.94,220.83,302.39,216.47,302.39z"/>
	<path class="st0" d="M163.2,312.47L163.2,312.47c-4.36,0-7.9-3.45-7.9-7.71v-44.59c0-4.26,3.54-7.71,7.9-7.71h0
		c4.36,0,7.9,3.45,7.9,7.71v44.59C171.1,309.02,167.56,312.47,163.2,312.47z"/>
	<path class="st2" d="M174.39,238.65c-8.57,0.4-18.08,1.22-23.91,7.52c-2.14,2.32-3.59,5.21-4.55,8.22
		c-1.84,5.76-1.98,11.91-1.94,17.96c0.05,8.42,0.41,16.84,1.07,25.23c0.15,1.86,0.35,3.83,1.44,5.34s3.41,2.31,4.88,1.16
		c0.73-0.57,1.1-1.46,1.42-2.33c1.98-5.3,3.15-10.9,3.46-16.55c0.23-4.24,0.05-8.75,2.23-12.4c2.17-3.65,7.9-5.5,10.65-2.27
		c1.59,1.86,1.56,4.55,1.81,6.98c0.25,2.43,1.23,5.23,3.58,5.89c3,0.84,5.54-2.39,6.53-5.34s1.74-6.46,4.53-7.86
		c2.88-1.45,6.53,0.4,8.24,3.14c1.71,2.74,2.01,6.09,2.41,9.29c0.4,3.2,1.02,6.58,3.18,8.98c2.16,2.4,6.35,3.24,8.57,0.9
		c1.35-1.42,1.61-3.54,1.67-5.49c0.11-3.78-0.29-7.72,1.11-11.23c1.4-3.52,5.45-6.39,8.92-4.89c2.68,1.16,3.84,4.32,4.32,7.21
		c1.84,11.23-2.36,23.24,1.61,33.9c1.15,3.08,4.23,6.35,7.2,4.94c1.22-0.58,1.98-1.83,2.54-3.07c3.69-8.26,1.06-17.78,0.45-26.81
		c-0.56-8.18,0.62-16.42-0.05-24.59c-0.67-8.18-3.63-16.77-10.39-21.41c-9.06-6.22-21.18-3.37-32.17-3.01
		c-12.62,0.41-26.17-2.66-37.29,3.32"/>
	<rect x="175.54" y="291.63" class="st2" width="25.76" height="13.13"/>
	<path class="st2" d="M212.73,309.23L212.73,309.23c2.66,0,4.81,2.15,4.81,4.81v10.37c0,2.66-2.15,4.81-4.81,4.81l0,0
		c-2.66,0-4.81-2.15-4.81-4.81v-10.37C207.92,311.38,210.07,309.23,212.73,309.23z"/>
	<path class="st2" d="M165.35,322.92L165.35,322.92c2.66,0,4.81,2.15,4.81,4.81v5.55c0,2.66-2.15,4.81-4.81,4.81h0
		c-2.66,0-4.81-2.15-4.81-4.81v-5.55C160.53,325.08,162.69,322.92,165.35,322.92z"/>
</g>
</svg>
